<svg width="115" height="16" viewBox="0 0 115 16" fill="none" xmlns="http://www.w3.org/2000/svg">
<g clip-path="url(#clip0_1_4983)">
<path d="M114.529 2.25475C114.529 1.4748 113.892 0.842028 113.107 0.842028C112.328 0.842125 111.686 1.47992 111.686 2.25465C111.686 3.02948 112.328 3.66689 113.108 3.66708C113.888 3.66737 114.529 3.02967 114.529 2.25475ZM111.445 2.25465C111.445 1.34811 112.195 0.602661 113.107 0.602661C114.024 0.602661 114.77 1.34318 114.77 2.25427C114.77 3.16062 114.02 3.90616 113.108 3.90645C112.195 3.90674 111.445 3.1612 111.445 2.25465Z" fill="#7F7F7F"/>
<path fill-rule="evenodd" clip-rule="evenodd" d="M113.058 1.04105C113.102 1.44585 113.43 1.21586 113.571 1.1028C113.623 1.06211 113.686 0.987219 113.721 0.966153C113.743 0.953011 113.776 0.96229 113.79 0.989829C113.803 1.03051 113.808 1.08183 113.783 1.15672C113.753 1.24475 113.701 1.33018 113.672 1.37618C113.597 1.49707 113.522 1.60347 113.434 1.71518C113.29 1.89395 113.107 2.03582 112.957 2.21063C112.725 2.4787 112.594 2.89269 112.666 3.24222C112.684 3.33151 112.726 3.44458 112.812 3.49183C113.323 3.77314 113.697 2.56673 113.524 2.21063C113.5 2.16463 113.452 2.08182 113.389 2.0937C113.069 2.15284 112.921 3.18569 113.12 3.26058C113.111 3.38283 112.916 3.45772 112.859 3.23169C112.84 3.15283 112.836 3.07001 112.839 2.98855C112.849 2.64424 113.126 2.12385 113.443 1.96489C113.587 1.89125 113.791 1.8926 113.872 2.05688C114.156 2.64163 113.388 3.72182 112.723 3.62326C112.401 3.57465 112.285 3.26851 112.31 2.97802C112.33 2.73894 112.43 2.51156 112.569 2.31703C112.85 1.92546 113.291 1.81114 113.505 1.50364C113.505 1.50364 113.513 1.49185 113.515 1.48528C113.518 1.47562 113.507 1.46421 113.492 1.47562C113.469 1.49668 113.346 1.55979 113.26 1.57022C113.087 1.58994 112.993 1.35473 112.964 1.22465C112.957 1.19576 112.955 1.17344 112.928 1.21016C112.843 1.31926 112.778 1.92903 112.692 1.96315L112.357 2.09592C112.357 2.09592 112.342 2.10269 112.337 2.08278C112.298 1.94082 112.645 1.44808 112.741 1.28244C112.755 1.26147 112.834 1.10772 112.849 1.09584C112.874 1.07487 113.027 1.03544 113.059 1.04066L113.058 1.04105Z" fill="#7F7F7F"/>
<path d="M12.4743 12.6277H7.84872L5.01574 7.9596L4.09526 8.91137V12.6277H0.228516V0.88324H4.09526V4.67379L7.41076 0.88324H11.9458L7.69372 5.26365L12.4743 12.6277ZM17.6517 8.27067C17.6517 7.73367 17.5249 7.24672 17.271 6.81543C17.0172 6.38415 16.6254 6.1671 16.0902 6.1671C15.6128 6.1671 15.2515 6.38415 15.0087 6.81824C14.7659 7.25503 14.6445 7.73927 14.6445 8.27067C14.6445 8.84112 14.7742 9.38092 15.0336 9.88459C15.2901 10.391 15.6873 10.6441 16.2198 10.6441C16.7331 10.6441 17.0999 10.3993 17.3207 9.90682C17.5414 9.41436 17.6517 8.86895 17.6517 8.27067ZM20.3336 10.9168C19.4199 12.2632 17.8538 12.8933 16.2341 12.8933C14.5649 12.8933 12.9561 12.2685 12.0231 10.8685C11.1674 9.58425 11.0579 7.49015 11.7788 6.11985C12.3333 5.06526 13.3498 4.30299 14.5152 3.99328C15.7989 3.6392 17.1882 3.71574 18.4207 4.22095C19.5731 4.69157 20.4305 5.65986 20.8038 6.81089C21.2114 8.06764 21.066 9.83724 20.3336 10.9168ZM50.299 7.40916C50.1781 6.84983 49.9791 6.46213 49.7047 6.24605C49.4277 6.02679 49.0782 5.91875 48.6506 5.91875C48.2365 5.91875 47.9084 6.02369 47.6663 6.23649C47.4243 6.44628 47.2414 6.83718 47.115 7.40916H50.299ZM53.6068 9.06782H47.1484C47.1484 9.33222 47.1941 9.56424 47.2856 9.76641C47.5635 10.3813 48.0663 10.7964 48.7862 10.7964C49.3148 10.7964 49.9245 10.5848 50.0382 10.0142H53.3459C53.2204 10.8239 52.7004 11.5383 52.031 12.0078C51.3556 12.4799 50.5263 12.743 49.7074 12.8359C48.6572 12.9641 47.4422 12.9292 46.4696 12.5257C45.3381 12.0583 44.4932 11.1943 44.0332 10.0793C43.6106 8.99254 43.6048 7.78711 44.0144 6.69164C44.4392 5.5552 45.3139 4.6763 46.4481 4.21022C47.8275 3.64587 49.7587 3.68414 51.0924 4.34503C52.2758 4.92929 53.083 5.92532 53.4186 7.18246C53.5842 7.81484 53.6471 8.42075 53.6068 9.06782H53.6068ZM62.8714 10.9331C62.2359 12.1369 61.0623 12.8888 59.6477 12.8888C58.6317 12.8888 57.9634 12.5606 57.2768 11.8603V15.5429H53.8312V4.099H56.8821V5.37498C57.5439 4.0645 59.1818 3.58837 60.5033 3.91896C61.943 4.27584 62.9127 5.47886 63.2578 6.83099C63.5805 8.08774 63.4686 9.81038 62.8714 10.9331ZM60.0648 8.15056C60.0648 7.78885 59.9442 7.39399 59.6998 6.9687C59.4555 6.5435 59.1015 6.3309 58.6404 6.3309C58.1821 6.3309 57.828 6.52968 57.581 6.93004C57.3339 7.3277 57.2104 7.73357 57.2104 8.15056C57.2104 8.66147 57.3065 9.13914 57.4987 9.58096C57.6934 10.0228 58.0723 10.2437 58.6404 10.2437C59.1948 10.2437 59.5681 10.0145 59.7684 9.55612C59.9498 9.11373 60.0648 8.62997 60.0648 8.15056ZM70.8475 12.5295C69.5086 12.9955 67.6888 13.067 66.3559 12.5158C65.5165 12.1688 64.7725 11.5832 64.3026 10.8045C63.8434 10.0566 63.6048 9.195 63.6048 8.31793C63.6048 7.73377 63.7284 7.15975 63.9362 6.61472C64.4178 5.38918 65.2505 4.68596 66.4528 4.19882C67.8288 3.64123 69.8725 3.66153 71.179 4.36803C72.424 5.04139 73.0758 5.96871 73.247 7.33534H69.7212C69.6592 6.91497 69.5399 6.65511 69.3655 6.43343C68.8718 5.8051 67.754 6.11212 67.3972 6.73213C66.9421 7.52329 66.8669 8.69191 67.1547 9.55912C67.3445 10.1307 67.9693 10.6154 68.5761 10.6154C69.4365 10.6154 69.6151 10.0396 69.8398 9.32391H73.247C73.2113 10.7549 72.3503 12.0063 70.8475 12.5295ZM79.532 9.27404C79.532 9.11527 79.5176 8.98491 79.4887 8.88566C79.2523 9.01603 78.8832 9.12948 78.3815 9.22582C77.9994 9.29521 77.593 9.38005 77.2513 9.56608C76.767 9.80409 76.7931 10.4866 77.2167 10.7623C77.7068 11.0553 78.5287 11.0312 78.9408 10.6207C79.333 10.2492 79.532 9.80139 79.532 9.27404H79.532ZM83.3655 12.6277H79.8386L79.7046 11.7243C79.4473 12.0546 78.8729 12.3266 78.2927 12.5486C78.01 12.6568 77.7193 12.7424 77.4219 12.7969C77.1244 12.8488 76.8082 12.8762 76.4786 12.8762C75.8837 12.8762 75.3397 12.7725 74.8467 12.565C74.3536 12.3575 73.9811 12.0327 73.7238 11.596C73.4934 11.1156 73.3781 10.6298 73.3781 10.133C73.3781 9.5052 73.6724 8.98752 74.0768 8.52347C74.3074 8.25879 74.5332 8.11006 74.9404 7.95458C75.1333 7.88094 75.3241 7.81697 75.5112 7.76353C75.6965 7.71057 75.8722 7.66013 76.0391 7.63519L77.4835 7.4196C78.0965 7.32809 78.6895 7.24913 78.9516 7.16303C79.1128 7.10998 79.303 6.93681 79.3968 6.82761C79.4905 6.71851 79.4767 6.6038 79.4767 6.48648C79.4767 6.32539 79.399 6.19165 79.2409 6.08254C79.0829 5.97335 78.8577 5.91875 78.5657 5.91875C78.2147 5.91875 77.7783 5.97064 77.5666 6.07433C77.3549 6.17802 77.2182 6.3855 77.1539 6.69386H73.8869C73.9968 6.13434 73.9768 5.80771 74.1365 5.46601C74.2957 5.12537 74.5466 4.83285 74.8895 4.58991C75.2325 4.34706 75.7035 4.15823 76.3071 4.03309C76.5985 3.97269 76.945 3.93056 77.3388 3.89934C77.7355 3.86784 78.1749 3.85025 78.6626 3.85025C79.8497 3.85025 80.7388 3.99057 81.3316 4.27052C81.9232 4.55009 82.3091 4.77535 82.4892 5.19543C82.6683 5.61328 82.7893 6.15618 82.8456 6.8222V11.3312C82.8456 11.7953 83.0198 12.1392 83.3655 12.363V12.6277V12.6277ZM92.9494 12.6277H89.5472V9.44016H87.0274V12.6277H83.658L83.6547 4.23197L83.658 4.10363H87.0274V6.95981H89.5092V4.10363H92.9494L92.9462 12.4749L92.9494 12.6277ZM102.403 6.61588H99.4735V12.6277H96.0607V6.61588H93.1064V4.10363H102.403V6.61588ZM113.454 9.89996C113.454 10.6487 113.095 11.3065 112.518 11.7757C111.76 12.3992 110.711 12.6277 109.748 12.6277H104.481V6.61588H102.514V4.10363H107.765V7.09539H109.561C110.561 7.09539 111.67 7.28972 112.462 7.9424C113.058 8.43302 113.454 9.11923 113.454 9.89996ZM110.062 9.90865C110.062 9.3701 109.762 9.14417 109.247 9.0828C109.142 9.0828 108.935 9.07411 108.628 9.06106C108.322 9.04743 107.911 9.04202 107.765 9.04202V10.6883L108.618 10.7046C108.851 10.7095 109.042 10.6998 109.191 10.6883C109.714 10.6497 110.062 10.5082 110.062 9.90865V9.90865ZM27.6305 12.6276H25.9769L24.17 6.93333L24.449 9.16523V12.6276H21.4317V4.05445H25.3014L26.8037 8.79009L28.306 4.05445H32.1758V12.6276H29.1584V9.16523L29.4375 6.93333L27.6305 12.6276ZM38.9302 12.6276H37.2765L35.4696 6.93333L35.7487 9.16523V12.6276H32.7313V4.05445H36.6011L38.1034 8.79009L39.6056 4.05445H43.4754V12.6276H40.458V9.16523L40.7371 6.93333L38.9302 12.6276Z" fill="black"/>
</g>
<defs>
<clipPath id="clip0_1_4983">
<rect width="115" height="16" fill="white"/>
</clipPath>
</defs>
</svg>
