<svg width="78" height="21" viewBox="0 0 78 21" fill="none" xmlns="http://www.w3.org/2000/svg">
<g clip-path="url(#clip0_1_4237)">
<path d="M41.7988 0H54.8957V3.71454H46.297V8.07845C46.297 8.07845 43.5978 8.07845 48.5277 8.07845C53.4575 8.07845 56.7284 9.43861 56.6705 14.4601C56.6093 19.7677 52.5827 20.9305 48.2086 20.9305H41.7988V0ZM47.4545 17.2585C48.0539 17.2585 48.5556 17.2585 48.9917 17.2585C51.6827 17.2585 52.3559 15.7827 52.3559 14.4312C52.3559 12.2984 51.138 11.4271 49.1005 11.4271H46.297V17.2585H47.4545Z" fill="#10273D"/>
<path d="M24.8477 0C24.8477 0 28.3973 0 32.8343 0C37.2714 0 39.7194 2.5711 39.7194 6.42638C39.7194 10.2817 38.22 11.4139 37.0878 12.0871C35.9555 12.7603 34.1299 13.2499 33.1452 13.2499H29.4683V20.8693H24.8477V0ZM32.5283 9.94506C34.2113 9.94506 35.3129 8.47625 35.3129 6.70144C35.3129 4.92663 34.1807 3.61082 32.6529 3.61082C31.1251 3.61082 29.4683 3.61082 29.4683 3.61082V9.94506C29.4683 9.94506 30.8453 9.94506 32.5283 9.94506Z" fill="#10273D"/>
<path d="M60.0977 0H64.9632V8.96586L72.399 0H77.5398L69.1248 9.85326L77.9988 20.8693H72.3378L64.9632 11.6281V20.8693H60.0977V0Z" fill="#10273D"/>
<path d="M19.5229 0L0 19.4617V0H19.5229Z" fill="#92CFAE"/>
<path d="M1.4082 20.8693L20.9312 1.40753V20.8693H1.4082Z" fill="#2A8288"/>
</g>
<defs>
<clipPath id="clip0_1_4237">
<rect width="78" height="21" fill="white"/>
</clipPath>
</defs>
</svg>
