<svg width="90" height="17" viewBox="0 0 90 17" fill="none" xmlns="http://www.w3.org/2000/svg">
<g clip-path="url(#clip0_1_4958)">
<path d="M4.52349 12.9644L4.51332 7.12748L5.17332 7.11287C5.71645 7.11287 6.46827 7.51957 6.46827 8.66531V11.3731C6.46827 13.002 5.5294 12.9644 5.19288 12.9644H4.52349ZM0.957927 12.967L-0.0078125 12.9597V13.5874H5.74306C8.22993 13.5874 10.038 12.3237 10.038 9.78991C10.038 8.03478 8.26749 6.90913 6.77584 6.93678V6.7513C8.50436 6.52487 9.37854 5.25626 9.37854 3.52696C9.37854 1.7867 7.79688 0.657131 5.69114 0.657131L-0.0078125 0.655826V1.3033L0.957666 1.29313L0.957927 12.967ZM4.52349 6.48261V1.29783H5.19288C5.5294 1.29783 6.14871 1.19609 6.14871 2.81713V4.86913C6.14871 6.162 5.64314 6.48287 5.17332 6.48287H4.52349V6.48261ZM11.6491 1.29052H10.6824V0.686348H18.7813V5.19678H18.4688C18.245 0.583565 15.1894 1.30278 15.1894 1.30278L15.2066 6.48574L15.5348 6.48626C16.5532 6.48626 17.0598 5.23122 17.154 3.8953H17.4778V9.72365H17.154C17.0142 8.42452 16.5684 7.13374 15.5348 7.13374L15.1894 7.14078L15.2066 12.9378C17.7882 12.9428 18.5541 11.0533 18.816 8.74957H19.0751V13.5871H10.6824V12.9548H11.6491V1.29052ZM20.3961 0.651391V1.30017H21.3856C21.7018 1.30017 22.0111 1.61844 22.0111 2.59278V6.34878C22.0111 9.37174 21.6848 12.3931 20.7159 12.9623H19.7442V16.5235H20.0682C20.0682 14.7141 20.7571 13.6096 22.3346 13.6096H25.8968C27.5358 13.6096 28.4875 14.4561 28.4875 16.5235H28.8112V12.9623H27.516V1.30487L28.4878 1.30017V0.651391H20.3961ZM23.9541 1.30487V12.9626H21.8447V12.6383C22.3177 11.5101 22.6589 8.20565 22.6589 6.162V2.60009C22.6589 1.63357 22.9735 1.30487 23.3064 1.30487H23.9541ZM29.1313 7.15122C29.1313 10.3417 30.5051 13.9294 33.5032 13.9294C36.5038 13.9294 37.8783 10.3821 37.8783 7.19244C37.8783 4.0007 36.5038 0.322957 33.5032 0.322957C30.5048 0.322957 29.1313 3.96052 29.1313 7.15122ZM32.6825 1.93252C32.6825 1.14391 33.0731 0.887217 33.5032 0.887217C33.9339 0.887217 34.32 1.14391 34.32 1.93252V12.2846C34.32 13.0732 33.9339 13.3623 33.5032 13.3623C33.0731 13.3623 32.6825 13.0735 32.6825 12.2846V1.93252ZM40.4724 3.24574H40.1424L40.1361 11.6444C40.1361 12.5583 40.6693 12.9613 41.4211 12.9681C41.4524 13.0017 41.4311 13.608 41.4311 13.608H38.2057V12.9754C38.6726 12.9754 39.4985 12.8922 39.4985 11.6588L39.5014 1.28739H38.532V0.687913H42.9944L44.0309 5.07548L45.0668 0.687913L49.8553 0.686348V1.27096H48.8687L48.8857 12.959H49.8553V13.5874H44.3486V12.959H45.3258V3.2387H45.0668L43.0594 13.5929L42.7636 13.5874L40.4724 3.24574ZM67.9657 5.17826H67.6711C67.5488 3.0227 66.7284 0.965739 65.5563 0.965739C64.4831 0.965739 64.0842 2.2753 64.0842 4.17183V9.62609C64.0842 11.6697 64.2718 12.9644 65.4118 12.9644C66.9167 12.9644 67.7374 10.4588 67.9758 8.75452H68.3061C68.1986 10.9343 67.2699 13.9427 64.7366 13.9427C62.0872 13.9427 60.2118 11.389 60.2118 7.14652C60.2118 3.46148 62.0502 0.322957 64.7171 0.322957C65.2414 0.322957 66.4521 0.545217 66.9665 1.03252L67.7724 0H67.9657V5.17826ZM72.1967 1.28948C70.5551 1.28948 69.6269 3.24861 69.6269 5.18374H69.2838V0.677217L78.6652 0.687913V5.184H78.3227C78.3227 3.41113 77.5299 1.2887 75.7419 1.2887V12.9691H77.0481V13.5874H70.9177V12.9691H72.1967V1.28948ZM80.2993 1.2853H79.3234V0.687913H84.509V1.2853H83.849V8.42087H84.108L85.4807 1.95861V1.28009H84.8207V0.687913H90.0058V1.2853H89.0098V12.967H90.0058V13.5874H84.8204V12.967H85.4804L85.4601 5.52078H85.2005L83.8289 12.3224V12.9467L84.491 12.967V13.5874H79.3294V12.9694H80.2993V1.2853ZM50.5031 7.15122C50.5031 10.3417 51.8763 13.9294 54.8747 13.9294C57.8755 13.9294 59.2497 10.3821 59.2497 7.19244C59.2497 4.0007 57.8755 0.322957 54.8747 0.322957C51.876 0.322957 50.5031 3.96052 50.5031 7.15122ZM54.0537 1.93252C54.0537 1.14391 54.4445 0.887217 54.8744 0.887217C55.3054 0.887217 55.6918 1.14391 55.6918 1.93252V12.2846C55.6918 13.0732 55.3057 13.3623 54.8744 13.3623C54.4445 13.3623 54.0537 13.0735 54.0537 12.2846V1.93252Z" fill="black"/>
</g>
<defs>
<clipPath id="clip0_1_4958">
<rect width="90" height="16.6957" fill="white"/>
</clipPath>
</defs>
</svg>
