<svg width="69" height="39" viewBox="0 0 69 39" fill="none" xmlns="http://www.w3.org/2000/svg">
<path fill-rule="evenodd" clip-rule="evenodd" d="M0 14.6059V39H68.4412V0H26.3824V14.6059H0ZM13.7697 31.2751H14.305L17.0579 20.1104H22.105V33.6457H19.505V22.481H18.9697L16.2932 33.6457H11.8579L9.18144 22.481H8.64614V33.6457H6.04614V20.1104H11.0932L13.7697 31.2751ZM50.0932 33.6457H40.8403V20.1104H50.0932V22.481H43.5167V25.6163H49.1756V27.9104H43.5167V31.2751H50.0932V33.6457ZM27.152 26.8398C27.152 29.5927 28.5285 31.6574 31.5108 31.6574C34.4932 31.6574 35.8697 29.5163 35.8697 26.8398C35.8697 24.1633 34.4932 22.0986 31.5108 22.0986C28.5285 22.0986 27.152 24.0868 27.152 26.8398ZM24.3991 26.8398C24.3991 22.6339 26.9991 19.728 31.5108 19.728C36.0226 19.728 38.6226 22.6339 38.6226 26.8398C38.6226 31.0457 36.0226 34.028 31.5108 34.028C26.9991 34.028 24.3991 31.0457 24.3991 26.8398ZM54.7579 33.6457H51.9285L56.2873 26.4574L52.1579 20.1104H55.0638L58.0461 24.928L61.0285 20.1104H63.9344L59.652 26.5339L64.1638 33.6457H61.3344L57.8932 28.2927L54.7579 33.6457Z" fill="white"/>
</svg>
