<svg width="115" height="23" viewBox="0 0 115 23" fill="none" xmlns="http://www.w3.org/2000/svg">
<path d="M15.0341 11.7517C15.045 10.9046 15.2702 10.074 15.6888 9.33726C16.1075 8.60048 16.7058 7.98145 17.4283 7.53776C16.9694 6.88298 16.3639 6.34412 15.66 5.96399C14.956 5.58385 14.1731 5.37291 13.3733 5.34791C11.6672 5.16903 10.0132 6.36772 9.1438 6.36772C8.25758 6.36772 6.919 5.36567 5.47757 5.3953C4.54521 5.42539 3.63656 5.69622 2.84014 6.18141C2.04372 6.66659 1.3867 7.34958 0.933086 8.16383C-1.03186 11.5622 0.433813 16.5566 2.31606 19.3035C3.25779 20.6486 4.3584 22.1512 5.79853 22.0979C7.20778 22.0395 7.73411 21.2002 9.4352 21.2002C11.1205 21.2002 11.6143 22.0979 13.0837 22.064C14.5958 22.0395 15.5486 20.7129 16.4573 19.3551C17.1339 18.3966 17.6546 17.3374 18 16.2165C17.1215 15.8453 16.3717 15.224 15.8443 14.43C15.3169 13.6361 15.0351 12.7046 15.0341 11.7517Z" fill="#10273D"/>
<path d="M12.2575 3.54266C13.082 2.55393 13.4882 1.28308 13.3898 0C12.1302 0.132162 10.9666 0.733554 10.1309 1.68435C9.72236 2.14884 9.40944 2.68921 9.21005 3.27458C9.01067 3.85995 8.92873 4.47883 8.96893 5.09585C9.59899 5.10233 10.2223 4.96591 10.7919 4.69688C11.3616 4.42784 11.8627 4.03319 12.2575 3.54266Z" fill="#10273D"/>
<path d="M35.3357 13.9759H29.7243L28.3768 17.9506H26L31.315 3.24512H33.7844L39.0994 17.9506H36.6821L35.3357 13.9759ZM30.3055 12.1418H34.7534L32.5607 5.69105H32.4994L30.3055 12.1418Z" fill="#10273D"/>
<path d="M50.577 12.5927C50.577 15.9244 48.7918 18.065 46.0979 18.065C45.4155 18.1007 44.7368 17.9437 44.1395 17.6119C43.5423 17.2802 43.0506 16.7871 42.7209 16.1892H42.6699V21.4997H40.4668V7.23134H42.5993V9.0146H42.6398C42.9848 8.41957 43.4847 7.92909 44.0865 7.59532C44.6883 7.26156 45.3694 7.097 46.0574 7.11916C48.7814 7.11918 50.577 9.27018 50.577 12.5927ZM48.3126 12.5927C48.3126 10.422 47.1896 8.99494 45.4762 8.99494C43.7929 8.99494 42.6607 10.4521 42.6607 12.5927C42.6607 14.7529 43.7929 16.1997 45.4762 16.1997C47.1896 16.1997 48.3126 14.783 48.3126 12.5927Z" fill="#10273D"/>
<path d="M62.3915 12.5927C62.3915 15.9244 60.6063 18.065 57.9123 18.065C57.2299 18.1007 56.5512 17.9436 55.954 17.6119C55.3567 17.2802 54.8651 16.7871 54.5353 16.1892H54.4844V21.4997H52.2812V7.23133H54.4137V9.01459H54.4542C54.7992 8.41956 55.2991 7.92908 55.9009 7.59531C56.5027 7.26155 57.1838 7.097 57.8718 7.11916C60.5959 7.11916 62.3915 9.27016 62.3915 12.5927ZM60.127 12.5927C60.127 10.422 59.004 8.99493 57.2906 8.99493C55.6073 8.99493 54.4751 10.4521 54.4751 12.5927C54.4751 14.7529 55.6073 16.1997 57.2906 16.1997C59.004 16.1997 60.127 14.783 60.127 12.5927H60.127Z" fill="#10273D"/>
<path d="M70.1986 13.8534C70.3618 15.3117 71.78 16.2692 73.718 16.2692C75.575 16.2692 76.9109 15.3116 76.9109 13.9967C76.9109 12.8553 76.1052 12.1719 74.1973 11.7035L72.2894 11.2444C69.5862 10.5921 68.3312 9.32929 68.3312 7.28004C68.3312 4.74278 70.5448 3 73.6879 3C76.7986 3 78.9311 4.74278 79.0029 7.28004H76.7789C76.6458 5.8125 75.4314 4.92666 73.6566 4.92666C71.8819 4.92666 70.6674 5.82292 70.6674 7.1274C70.6674 8.16705 71.4431 8.77882 73.3406 9.24714L74.9625 9.64496C77.9829 10.3585 79.2379 11.5705 79.2379 13.7215C79.2379 16.4727 77.044 18.1958 73.5547 18.1958C70.29 18.1958 68.0858 16.5131 67.9434 13.8533L70.1986 13.8534Z" fill="#10273D"/>
<path d="M83.9928 4.69141V7.22867H86.0339V8.97145H83.9928V14.8821C83.9928 15.8003 84.4015 16.2282 85.2987 16.2282C85.541 16.224 85.7829 16.207 86.0234 16.1773V17.9097C85.6201 17.9849 85.2101 18.019 84.7998 18.0114C82.6268 18.0114 81.7793 17.1961 81.7793 15.1168V8.97145H80.2188V7.22867H81.7793V4.69141H83.9928Z" fill="#10273D"/>
<path d="M87.2148 12.5908C87.2148 9.21744 89.2038 7.09766 92.3052 7.09766C95.4171 7.09766 97.3968 9.21739 97.3968 12.5908C97.3968 15.9735 95.4276 18.084 92.3052 18.084C89.184 18.084 87.2148 15.9734 87.2148 12.5908ZM95.152 12.5908C95.152 10.2768 94.0904 8.91098 92.3052 8.91098C90.5201 8.91098 89.4596 10.2872 89.4596 12.5908C89.4596 14.9141 90.5201 16.2695 92.3052 16.2695C94.0904 16.2695 95.152 14.9141 95.152 12.5908H95.152Z" fill="#10273D"/>
<path d="M99.2149 7.23124H101.316V9.05611H101.367C101.509 8.48617 101.843 7.98249 102.314 7.62973C102.784 7.27697 103.361 7.09664 103.949 7.11905C104.203 7.11817 104.456 7.14571 104.704 7.20117V9.25965C104.383 9.16182 104.049 9.1169 103.714 9.12667C103.394 9.1137 103.075 9.17007 102.778 9.29191C102.482 9.41375 102.216 9.59817 101.998 9.83251C101.78 10.0669 101.615 10.3456 101.515 10.6495C101.415 10.9535 101.382 11.2755 101.418 11.5934V17.9527H99.2148L99.2149 7.23124Z" fill="#10273D"/>
<path d="M114.86 14.802C114.563 16.7483 112.666 18.084 110.238 18.084C107.116 18.084 105.178 15.9943 105.178 12.6417C105.178 9.27873 107.126 7.09766 110.145 7.09766C113.115 7.09766 114.982 9.13533 114.982 12.3861V13.1401H107.402V13.2731C107.367 13.6677 107.416 14.0652 107.547 14.4392C107.677 14.8132 107.886 15.1552 108.159 15.4425C108.432 15.7297 108.763 15.9556 109.131 16.1052C109.498 16.2547 109.893 16.3245 110.289 16.31C110.81 16.3587 111.332 16.2383 111.779 15.9665C112.225 15.6948 112.572 15.2864 112.768 14.802L114.86 14.802ZM107.412 11.602H112.778C112.798 11.2473 112.744 10.8922 112.62 10.5592C112.496 10.2262 112.304 9.92241 112.057 9.6669C111.81 9.41138 111.512 9.20967 111.183 9.07441C110.854 8.93916 110.501 8.87328 110.145 8.88091C109.787 8.87877 109.431 8.94763 109.099 9.08351C108.767 9.21939 108.465 9.4196 108.211 9.67258C107.957 9.92557 107.756 10.2263 107.618 10.5575C107.481 10.8887 107.411 11.2437 107.412 11.6021V11.602Z" fill="#10273D"/>
</svg>
