<svg width="120" height="24" viewBox="0 0 126 21" fill="none" xmlns="http://www.w3.org/2000/svg">
<path fill-rule="evenodd" clip-rule="evenodd" d="M6.03543 0H15.4019C19.8199 0 21.4286 1.5765 21.4286 5.90616V15.0853C21.4286 19.4149 19.8112 21 15.4019 21H6.03543C1.61741 21 0 19.4149 0 15.0853V5.90616C0 1.5765 1.61741 0 6.03543 0ZM8.88557 13.2375L9.14494 12.672H10.4214L10.672 13.2375H11.2665L10.0367 10.4957H9.53837L8.30855 13.2375H8.88557ZM10.2086 12.175H9.34894L9.77733 11.1954L10.2086 12.175ZM19.0447 10.4957H18.4764V13.2375H19.0447V10.4957ZM17.8061 12.7405H16.247V12.0637H17.2816V11.5582H16.247V11.0012H17.7449V10.4957H15.6875V13.2375H17.8061V12.7405ZM15.2299 10.4957H14.6354L14.0176 12.3864L13.3794 10.4957H12.9131L12.2836 12.3864L11.6629 10.4957H11.0509L12.033 13.246H12.4993L13.1375 11.4411L13.7757 13.246H14.2566L15.2299 10.4957ZM8.01712 10.4957H7.44884V12.0694C7.44884 12.5149 7.22444 12.7605 6.81062 12.7605C6.39679 12.7605 6.17239 12.5149 6.17239 12.0522V10.4986H5.60411V12.0665C5.60411 12.8405 6.04417 13.2889 6.80188 13.2889C7.57707 13.2889 8.01712 12.8348 8.01712 12.0494V10.4957ZM4.81435 10.4957H4.24607V11.601H2.96379V10.4957H2.39551V13.246H2.96379V12.1236H4.24607V13.246H4.81435V10.4957ZM7.1545 3.51001C7.1545 5.43494 8.74569 7.00287 10.7186 7.00287C12.6829 7.00287 14.2828 5.43208 14.2828 3.51001H13.7844C13.7844 5.16362 12.406 6.50593 10.7186 6.50593C9.03129 6.50593 7.65284 5.16362 7.65284 3.51001H7.1545Z" fill="currentColor"></path>
<path d="M39.6685 11.112L37.3634 5.11587L35.0689 11.112H39.6685ZM31.6327 15.5608L36.4112 3.50657H38.3262L43.1047 15.5608H41.3401L40.1983 12.4663H34.5607L33.4188 15.5608H31.6327ZM46.3513 14.2065V19H44.8085V6.51842H46.3513V7.88305C46.677 7.34547 47.0851 6.94917 47.579 6.69072C48.0801 6.42537 48.6708 6.29442 49.3544 6.29442C50.4963 6.29442 51.4233 6.73207 52.1356 7.60736C52.8551 8.47577 53.213 9.6233 53.213 11.05C53.213 12.4697 52.8551 13.6138 52.1356 14.4926C51.4233 15.361 50.4963 15.7952 49.3544 15.7952C48.6708 15.7952 48.0801 15.6677 47.579 15.4092C47.0851 15.1439 46.677 14.7407 46.3513 14.2065ZM51.6059 11.05C51.6059 9.95757 51.3696 9.0995 50.8972 8.47577C50.439 7.85203 49.8018 7.53844 48.9822 7.53844C48.166 7.53844 47.5182 7.85203 47.0457 8.47577C46.5804 9.0995 46.3477 9.95757 46.3477 11.05C46.3477 12.1424 46.5804 13.0004 47.0457 13.6242C47.5182 14.241 48.1625 14.5512 48.9822 14.5512C49.7983 14.5512 50.439 14.241 50.8972 13.6242C51.3696 13.0004 51.6059 12.1424 51.6059 11.05ZM57.2649 14.2065V19H55.7115V6.51842H57.2649V7.88305C57.5907 7.34547 57.9951 6.94917 58.482 6.69072C58.9831 6.42537 59.5773 6.29442 60.2681 6.29442C61.4028 6.29442 62.3262 6.73207 63.0386 7.60736C63.758 8.47577 64.116 9.6233 64.116 11.05C64.116 12.4697 63.758 13.6138 63.0386 14.4926C62.3262 15.361 61.4028 15.7952 60.2681 15.7952C59.5773 15.7952 58.9831 15.6677 58.482 15.4092C57.9951 15.1439 57.5871 14.7407 57.2649 14.2065ZM62.5088 11.05C62.5088 9.95757 62.2726 9.0995 61.8001 8.47577C61.3419 7.85203 60.7048 7.53844 59.8851 7.53844C59.069 7.53844 58.4211 7.85203 57.9486 8.47577C57.4904 9.0995 57.2614 9.95757 57.2614 11.05C57.2614 12.1424 57.4904 13.0004 57.9486 13.6242C58.4211 14.241 59.0654 14.5512 59.8851 14.5512C60.7012 14.5512 61.3419 14.241 61.8001 13.6242C62.2726 13.0004 62.5088 12.1424 62.5088 11.05ZM75.2193 13.8413V10.6054H72.4596V9.26147H76.9017V14.4443C76.2466 14.8923 75.5236 15.23 74.7325 15.4609C73.9486 15.6849 73.1111 15.7952 72.2162 15.7952C70.2547 15.7952 68.7227 15.2438 67.6166 14.1445C66.5178 13.0452 65.9665 11.5117 65.9665 9.54405C65.9665 7.57635 66.5178 6.04286 67.6166 4.94357C68.7227 3.83739 70.2583 3.28258 72.2162 3.28258C73.0323 3.28258 73.8055 3.38251 74.5321 3.57894C75.273 3.76847 75.9531 4.05449 76.5724 4.43356V6.17381C75.946 5.6569 75.2802 5.27094 74.575 5.01249C73.8699 4.75404 73.1289 4.62653 72.3558 4.62653C70.8274 4.62653 69.6748 5.03662 68.8981 5.85678C68.1357 6.68383 67.7562 7.91406 67.7562 9.5406C67.7562 11.1671 68.1357 12.3939 68.8981 13.2141C69.6748 14.0342 70.8274 14.4443 72.3558 14.4443C72.9536 14.4443 73.4905 14.3961 73.963 14.303C74.4283 14.2065 74.8471 14.0515 75.2193 13.8413ZM85.6784 11.0086H84.1464C82.8972 11.0086 82.0346 11.1465 81.5549 11.4256C81.0753 11.6978 80.8354 12.1665 80.8354 12.8316C80.8354 13.3623 81.0144 13.7827 81.3759 14.0928C81.7339 14.3995 82.2243 14.5512 82.8471 14.5512C83.7062 14.5512 84.3934 14.2582 84.9088 13.6759C85.4243 13.0935 85.682 12.3147 85.682 11.3429V11.0086H85.6784ZM87.2211 10.3987V15.5608H85.6784V14.1859C85.3276 14.7372 84.8874 15.1439 84.3683 15.4092C83.8386 15.6677 83.1943 15.7952 82.4319 15.7952C81.4726 15.7952 80.7066 15.5367 80.1375 15.0198C79.5719 14.496 79.2927 13.7965 79.2927 12.9212C79.2927 11.9115 79.6435 11.143 80.3486 10.6192C81.061 10.1023 82.1169 9.84385 83.52 9.84385H85.6784V9.70256C85.6784 9.0168 85.4458 8.48611 84.9804 8.11393C84.5151 7.74176 83.8601 7.55568 83.0153 7.55568C82.4784 7.55568 81.9594 7.6177 81.4511 7.73832C80.9428 7.85893 80.4525 8.04846 79.98 8.29657V6.9216C80.5455 6.71139 81.0932 6.55632 81.6301 6.45294C82.1598 6.34267 82.6717 6.29098 83.1728 6.29098C84.533 6.29098 85.5495 6.62869 86.2189 7.30756C86.8883 7.99332 87.2211 9.02025 87.2211 10.3987ZM90.4032 15.5608V3H91.946V15.5608H90.4032ZM95.1746 15.5608V3H96.7174V15.5608H95.1746ZM107.935 10.664V11.398H100.841C100.905 12.4146 101.22 13.1969 101.793 13.7379C102.369 14.2686 103.171 14.5305 104.195 14.5305C104.785 14.5305 105.358 14.4616 105.909 14.3272C106.475 14.1859 107.026 13.9757 107.57 13.6965V15.1025C107.019 15.3265 106.453 15.4988 105.866 15.6229C105.29 15.7366 104.699 15.7952 104.102 15.7952C102.605 15.7952 101.421 15.3748 100.537 14.5339C99.6632 13.7 99.2265 12.5662 99.2265 11.1327C99.2265 9.64743 99.6417 8.47232 100.476 7.61081C101.306 6.73552 102.43 6.29787 103.837 6.29787C105.1 6.29787 106.095 6.69072 106.829 7.47986C107.567 8.25867 107.935 9.32005 107.935 10.664ZM100.884 10.2367H106.393C106.378 9.42343 106.138 8.77213 105.673 8.28279C105.215 7.80034 104.606 7.55912 103.844 7.55912C102.985 7.55912 102.294 7.79345 101.771 8.26212C101.256 8.73078 100.963 9.38897 100.884 10.2367ZM115.846 6.37713L115.857 7.90372C115.681 7.80723 115.491 7.73832 115.284 7.69007C115.076 7.64183 114.858 7.61771 114.618 7.61771C113.745 7.61771 113.072 7.89339 112.599 8.44131C112.134 8.98579 111.901 9.76804 111.901 10.7915V15.5574H110.359V6.51842H111.901V7.9244C112.227 7.37304 112.649 6.9664 113.172 6.70106C113.695 6.42882 114.325 6.29442 115.065 6.29442C115.173 6.29442 115.291 6.30476 115.423 6.32544C115.549 6.33233 115.692 6.34956 115.846 6.37713ZM125.51 6.51842L121.387 16.3948C120.95 17.4734 120.524 18.1798 120.109 18.5107C119.694 18.838 119.139 19 118.448 19H117.21V17.7594H118.119C118.541 17.7594 118.874 17.6595 119.114 17.4631C119.346 17.2735 119.604 16.8152 119.887 16.0881L120.173 15.4161L116.365 6.51842H118.004L120.943 13.5828L123.871 6.51842H125.51Z" fill="currentColor"></path>
</svg>
