<svg width="92" height="16" viewBox="0 0 92 16" fill="none" xmlns="http://www.w3.org/2000/svg">
<path d="M7.87509 8.112L5.61605 2.11587L3.36752 8.112H7.87509ZM0 12.5608L4.68296 0.506569H6.55965L11.2426 12.5608H9.51325L8.39425 9.46629H2.86941L1.75041 12.5608H0ZM14.4242 11.2065V16H12.9123V3.51842H14.4242V4.88305C14.7434 4.34547 15.1433 3.94917 15.6274 3.69072C16.1185 3.42537 16.6973 3.29442 17.3673 3.29442C18.4863 3.29442 19.3948 3.73207 20.0929 4.60736C20.798 5.47577 21.1487 6.6233 21.1487 8.04997C21.1487 9.46974 20.798 10.6138 20.0929 11.4926C19.3948 12.361 18.4863 12.7952 17.3673 12.7952C16.6973 12.7952 16.1185 12.6677 15.6274 12.4092C15.1433 12.1439 14.7434 11.7407 14.4242 11.2065ZM19.5737 8.04997C19.5737 6.95757 19.3422 6.0995 18.8792 5.47577C18.4302 4.85203 17.8058 4.53844 17.0025 4.53844C16.2027 4.53844 15.5678 4.85203 15.1047 5.47577C14.6487 6.0995 14.4207 6.95757 14.4207 8.04997C14.4207 9.14236 14.6487 10.0004 15.1047 10.6242C15.5678 11.241 16.1992 11.5512 17.0025 11.5512C17.8023 11.5512 18.4302 11.241 18.8792 10.6242C19.3422 10.0004 19.5737 9.14236 19.5737 8.04997ZM25.1196 11.2065V16H23.5972V3.51842H25.1196V4.88305C25.4388 4.34547 25.8352 3.94917 26.3123 3.69072C26.8034 3.42537 27.3857 3.29442 28.0627 3.29442C29.1747 3.29442 30.0797 3.73207 30.7777 4.60736C31.4828 5.47577 31.8336 6.6233 31.8336 8.04997C31.8336 9.46974 31.4828 10.6138 30.7777 11.4926C30.0797 12.361 29.1747 12.7952 28.0627 12.7952C27.3857 12.7952 26.8034 12.6677 26.3123 12.4092C25.8352 12.1439 25.4353 11.7407 25.1196 11.2065ZM30.2586 8.04997C30.2586 6.95757 30.0271 6.0995 29.564 5.47577C29.115 4.85203 28.4906 4.53844 27.6873 4.53844C26.8876 4.53844 26.2526 4.85203 25.7896 5.47577C25.3406 6.0995 25.1161 6.95757 25.1161 8.04997C25.1161 9.14236 25.3406 10.0004 25.7896 10.6242C26.2526 11.241 26.884 11.5512 27.6873 11.5512C28.4871 11.5512 29.115 11.241 29.564 10.6242C30.0271 10.0004 30.2586 9.14236 30.2586 8.04997ZM42.7149 10.8413V7.60543H40.0104V6.26147H44.3636V11.4443C43.7217 11.8923 43.0131 12.23 42.2379 12.4609C41.4696 12.6849 40.6488 12.7952 39.7718 12.7952C37.8495 12.7952 36.3482 12.2438 35.2643 11.1445C34.1874 10.0452 33.6472 8.51174 33.6472 6.54405C33.6472 4.57635 34.1874 3.04286 35.2643 1.94357C36.3482 0.837389 37.8531 0.282578 39.7718 0.282578C40.5716 0.282578 41.3293 0.382514 42.0414 0.578939C42.7675 0.768471 43.434 1.05449 44.0409 1.43356V3.17381C43.427 2.6569 42.7745 2.27094 42.0835 2.01249C41.3925 1.75404 40.6663 1.62653 39.9086 1.62653C38.4108 1.62653 37.2813 2.03662 36.5201 2.85678C35.7729 3.68383 35.4011 4.91406 35.4011 6.5406C35.4011 8.16713 35.7729 9.39392 36.5201 10.2141C37.2813 11.0342 38.4108 11.4443 39.9086 11.4443C40.4944 11.4443 41.0206 11.3961 41.4837 11.303C41.9397 11.2065 42.3501 11.0515 42.7149 10.8413ZM52.9648 8.00862H51.4635C50.2392 8.00862 49.3938 8.14645 48.9238 8.42558C48.4537 8.69782 48.2187 9.16649 48.2187 9.83157C48.2187 10.3623 48.3941 10.7827 48.7484 11.0928C49.0992 11.3995 49.5798 11.5512 50.1901 11.5512C51.032 11.5512 51.7055 11.2582 52.2106 10.6759C52.7158 10.0935 52.9683 9.31467 52.9683 8.34288V8.00862H52.9648ZM54.4767 7.39866V12.5608H52.9648V11.1859C52.621 11.7372 52.1896 12.1439 51.6809 12.4092C51.1618 12.6677 50.5304 12.7952 49.7832 12.7952C48.8431 12.7952 48.0924 12.5367 47.5347 12.0198C46.9804 11.496 46.7068 10.7965 46.7068 9.92117C46.7068 8.91148 47.0506 8.14301 47.7416 7.61921C48.4397 7.1023 49.4745 6.84385 50.8496 6.84385H52.9648V6.70256C52.9648 6.0168 52.7368 5.48611 52.2808 5.11393C51.8248 4.74176 51.1828 4.55568 50.355 4.55568C49.8288 4.55568 49.3202 4.6177 48.8221 4.73832C48.3239 4.85893 47.8434 5.04846 47.3803 5.29657V3.9216C47.9346 3.71139 48.4713 3.55632 48.9974 3.45294C49.5166 3.34267 50.0182 3.29098 50.5093 3.29098C51.8423 3.29098 52.8385 3.62869 53.4945 4.30756C54.1505 4.99332 54.4767 6.02025 54.4767 7.39866ZM57.5952 12.5608V0H59.107V12.5608H57.5952ZM62.2711 12.5608V0H63.783V12.5608H62.2711ZM74.7765 7.66401V8.39802H67.824C67.8871 9.4146 68.1958 10.1969 68.7571 10.7379C69.3219 11.2686 70.1076 11.5305 71.1108 11.5305C71.6896 11.5305 72.2509 11.4616 72.7911 11.3272C73.3453 11.1859 73.8855 10.9757 74.4187 10.6965V12.1025C73.8785 12.3265 73.3243 12.4988 72.749 12.6229C72.1842 12.7366 71.6054 12.7952 71.0196 12.7952C69.5534 12.7952 68.3923 12.3748 67.5258 11.5339C66.6699 10.7 66.242 9.56623 66.242 8.13267C66.242 6.64743 66.6489 5.47232 67.4662 4.61081C68.28 3.73552 69.3815 3.29787 70.7601 3.29787C71.9983 3.29787 72.9735 3.69072 73.6926 4.47986C74.4152 5.25867 74.7765 6.32005 74.7765 7.66401ZM67.8661 7.2367H73.2647C73.2506 6.42343 73.0156 5.77213 72.5596 5.28279C72.1106 4.80034 71.5142 4.55912 70.7671 4.55912C69.9252 4.55912 69.2482 4.79345 68.736 5.26212C68.2309 5.73078 67.9433 6.38897 67.8661 7.2367ZM82.5288 3.37713L82.5394 4.90372C82.3675 4.80723 82.1816 4.73832 81.9781 4.69007C81.7747 4.64183 81.5607 4.61771 81.3257 4.61771C80.4697 4.61771 79.8103 4.89339 79.3472 5.44131C78.8912 5.98579 78.6632 6.76804 78.6632 7.79151V12.5574H77.1513V3.51842H78.6632V4.9244C78.9824 4.37304 79.3964 3.9664 79.9085 3.70106C80.4206 3.42882 81.038 3.29442 81.7641 3.29442C81.8694 3.29442 81.9851 3.30476 82.1149 3.32544C82.2377 3.33233 82.378 3.34956 82.5288 3.37713ZM92 3.51842L87.959 13.3948C87.531 14.4734 87.1136 15.1798 86.7067 15.5107C86.2998 15.838 85.7561 16 85.079 16H83.8653V14.7594H84.7563C85.1702 14.7594 85.4965 14.6595 85.7315 14.4631C85.9595 14.2735 86.2121 13.8152 86.4892 13.0881L86.7698 12.4161L83.0375 3.51842H84.6441L87.524 10.5828L90.3934 3.51842H92Z" fill="#10273D"/>
</svg>
