<svg height="24" width="120" viewBox="0 0 115 20" fill="none" xmlns="http://www.w3.org/2000/svg">
<path d="M54.3759 6.94005C51.8536 6.94005 49.8568 8.83198 49.8568 11.4597C49.8568 13.9822 51.8536 15.9793 54.3759 15.9793C56.8982 15.9793 58.8951 14.0874 58.8951 11.4597C58.8951 8.83198 56.7931 6.94005 54.3759 6.94005ZM54.3759 14.0874C53.0097 14.0874 51.8536 12.9312 51.8536 11.3546C51.8536 9.77795 53.0097 8.62177 54.3759 8.62177C55.7422 8.62177 56.8982 9.67284 56.8982 11.3546C56.8982 13.0363 55.7422 14.0874 54.3759 14.0874ZM44.602 6.94005C42.0797 6.94005 40.0829 8.83198 40.0829 11.4597C40.0829 13.9822 42.0797 15.9793 44.602 15.9793C47.1243 15.9793 49.1211 14.0874 49.1211 11.4597C49.016 8.83198 47.0192 6.94005 44.602 6.94005ZM44.602 14.0874C43.2358 14.0874 42.0797 12.9312 42.0797 11.3546C42.0797 9.77795 43.2358 8.62177 44.602 8.62177C45.9683 8.62177 47.1243 9.67284 47.1243 11.3546C47.1243 13.0363 45.9683 14.0874 44.602 14.0874ZM32.9363 8.30645V10.1984H37.4555C37.3504 11.2495 36.93 12.0903 36.4045 12.6159C35.7739 13.2465 34.723 13.9822 32.9363 13.9822C30.0987 13.9822 27.9968 11.775 27.9968 8.93709C27.9968 6.09919 30.2038 3.89193 32.9363 3.89193C34.4077 3.89193 35.5637 4.52258 36.4045 5.25833L37.7708 3.89193C36.6147 2.84086 35.1434 2 33.0414 2C29.258 2 26 5.15322 26 8.93709C26 12.721 29.258 15.8742 33.0414 15.8742C35.1434 15.8742 36.6147 15.2435 37.8759 13.8771C39.137 12.6159 39.5574 10.829 39.5574 9.46263C39.5574 9.0422 39.5574 8.62177 39.4523 8.30645H32.9363ZM80.5449 9.77795C80.1245 8.72688 79.0735 6.94005 76.7614 6.94005C74.4493 6.94005 72.5576 8.72688 72.5576 11.4597C72.5576 13.9822 74.4493 15.9793 76.9716 15.9793C78.9684 15.9793 80.2296 14.718 80.65 13.9822L79.1786 12.9312C78.6531 13.6669 78.0226 14.1925 76.9716 14.1925C75.9206 14.1925 75.2901 13.772 74.7646 12.8261L80.7551 10.3035L80.5449 9.77795ZM74.4493 11.2495C74.4493 9.56774 75.8155 8.62177 76.7614 8.62177C77.4971 8.62177 78.2328 9.0422 78.4429 9.56774L74.4493 11.2495ZM69.6149 15.5589H71.6117V2.42043H69.6149V15.5589ZM66.3569 7.88602C65.8314 7.36048 64.9906 6.83494 63.9397 6.83494C61.7327 6.83494 59.6307 8.83198 59.6307 11.3546C59.6307 13.8771 61.6276 15.7691 63.9397 15.7691C64.9906 15.7691 65.8314 15.2435 66.2518 14.718H66.3569V15.3486C66.3569 17.0304 65.411 17.9763 63.9397 17.9763C62.7836 17.9763 61.9429 17.1355 61.7327 16.3997L60.0511 17.1355C60.5766 18.2917 61.8378 19.7632 64.0448 19.7632C66.3569 19.7632 68.2486 18.3968 68.2486 15.1384V7.15026H66.3569V7.88602ZM64.1499 14.0874C62.7836 14.0874 61.6276 12.9312 61.6276 11.3546C61.6276 9.77795 62.7836 8.62177 64.1499 8.62177C65.5161 8.62177 66.5671 9.77795 66.5671 11.3546C66.5671 12.9312 65.5161 14.0874 64.1499 14.0874ZM89.7933 2.42043H85.064V15.5589H87.0608V10.6188H89.7933C92.0003 10.6188 94.1023 9.0422 94.1023 6.51962C94.1023 3.99704 91.8952 2.42043 89.7933 2.42043ZM89.7933 8.83198H86.9557V4.31236H89.7933C91.2647 4.31236 92.1054 5.57365 92.1054 6.51962C92.1054 7.57069 91.2647 8.83198 89.7933 8.83198ZM101.879 6.94005C100.408 6.94005 98.9367 7.5707 98.4112 8.93709L100.198 9.67284C100.618 8.93709 101.249 8.72688 101.984 8.72688C103.035 8.72688 103.981 9.35752 104.086 10.4086V10.5137C103.771 10.3035 102.93 9.98817 102.09 9.98817C100.198 9.98817 98.3061 11.0392 98.3061 12.9312C98.3061 14.718 99.8825 15.8742 101.564 15.8742C102.93 15.8742 103.561 15.2435 104.086 14.6129H104.191V15.664H106.083V10.6188C105.873 8.20134 104.191 6.94005 101.879 6.94005ZM101.669 14.0874C101.039 14.0874 100.093 13.772 100.093 12.9312C100.093 11.8801 101.249 11.5648 102.195 11.5648C103.035 11.5648 103.456 11.775 103.981 11.9852C103.876 13.2465 102.825 14.0874 101.669 14.0874ZM112.809 7.15026L110.602 12.8261H110.497L108.185 7.15026H106.083L109.551 15.1384L107.555 19.5529H109.551L114.911 7.15026H112.809ZM95.1532 15.5589H97.15V2.42043H95.1532V15.5589Z" fill="currentColor"></path>
<path fill-rule="evenodd" clip-rule="evenodd" d="M13.3397 12.446L10.6682 9.62042L13.3397 6.79484L13.2979 6.75527L16.763 8.75373C17.4302 9.13853 17.4302 10.1014 16.763 10.4862L13.3002 12.4834L13.3397 12.446ZM12.458 12.9691L9.98013 10.3482L1.84445 18.9532C2.00232 18.9489 2.16345 18.9063 2.31588 18.8183L12.458 12.9691ZM0.946087 18.4478C0.864139 18.3044 0.816284 18.1366 0.816284 17.9521V1.2879C0.816284 1.10366 0.864019 0.935954 0.945779 0.792698L9.29204 9.62042L0.946087 18.4478ZM1.84361 0.286743L9.98013 8.89263L12.4586 6.27123L2.31588 0.421635C2.16318 0.333566 2.00175 0.290914 1.84361 0.286743Z" fill="currentColor"></path>
</svg>
