<svg width="120" height="24" viewBox="0 0 120 24" fill="none" xmlns="http://www.w3.org/2000/svg">
<path d="M59.3759 8.94005C56.8536 8.94005 54.8568 10.832 54.8568 13.4597C54.8568 15.9822 56.8536 17.9793 59.3759 17.9793C61.8982 17.9793 63.8951 16.0874 63.8951 13.4597C63.8951 10.832 61.7931 8.94005 59.3759 8.94005ZM59.3759 16.0874C58.0097 16.0874 56.8536 14.9312 56.8536 13.3546C56.8536 11.778 58.0097 10.6218 59.3759 10.6218C60.7422 10.6218 61.8982 11.6728 61.8982 13.3546C61.8982 15.0363 60.7422 16.0874 59.3759 16.0874ZM49.602 8.94005C47.0797 8.94005 45.0829 10.832 45.0829 13.4597C45.0829 15.9822 47.0797 17.9793 49.602 17.9793C52.1243 17.9793 54.1211 16.0874 54.1211 13.4597C54.016 10.832 52.0192 8.94005 49.602 8.94005ZM49.602 16.0874C48.2358 16.0874 47.0797 14.9312 47.0797 13.3546C47.0797 11.778 48.2358 10.6218 49.602 10.6218C50.9683 10.6218 52.1243 11.6728 52.1243 13.3546C52.1243 15.0363 50.9683 16.0874 49.602 16.0874ZM37.9363 10.3064V12.1984H42.4555C42.3504 13.2495 41.93 14.0903 41.4045 14.6159C40.7739 15.2465 39.723 15.9822 37.9363 15.9822C35.0987 15.9822 32.9968 13.775 32.9968 10.9371C32.9968 8.09919 35.2038 5.89193 37.9363 5.89193C39.4077 5.89193 40.5637 6.52258 41.4045 7.25833L42.7708 5.89193C41.6147 4.84086 40.1434 4 38.0414 4C34.258 4 31 7.15322 31 10.9371C31 14.721 34.258 17.8742 38.0414 17.8742C40.1434 17.8742 41.6147 17.2435 42.8759 15.8771C44.137 14.6159 44.5574 12.829 44.5574 11.4626C44.5574 11.0422 44.5574 10.6218 44.4523 10.3064H37.9363ZM85.5449 11.778C85.1245 10.7269 84.0735 8.94005 81.7614 8.94005C79.4493 8.94005 77.5576 10.7269 77.5576 13.4597C77.5576 15.9822 79.4493 17.9793 81.9716 17.9793C83.9684 17.9793 85.2296 16.718 85.65 15.9822L84.1786 14.9312C83.6531 15.6669 83.0226 16.1925 81.9716 16.1925C80.9206 16.1925 80.2901 15.772 79.7646 14.8261L85.7551 12.3035L85.5449 11.778ZM79.4493 13.2495C79.4493 11.5677 80.8155 10.6218 81.7614 10.6218C82.4971 10.6218 83.2328 11.0422 83.4429 11.5677L79.4493 13.2495ZM74.6149 17.5589H76.6117V4.42043H74.6149V17.5589ZM71.3569 9.88602C70.8314 9.36048 69.9906 8.83494 68.9397 8.83494C66.7327 8.83494 64.6307 10.832 64.6307 13.3546C64.6307 15.8771 66.6276 17.7691 68.9397 17.7691C69.9906 17.7691 70.8314 17.2435 71.2518 16.718H71.3569V17.3486C71.3569 19.0304 70.411 19.9763 68.9397 19.9763C67.7836 19.9763 66.9429 19.1355 66.7327 18.3997L65.0511 19.1355C65.5766 20.2917 66.8378 21.7632 69.0448 21.7632C71.3569 21.7632 73.2486 20.3968 73.2486 17.1384V9.15026H71.3569V9.88602ZM69.1499 16.0874C67.7836 16.0874 66.6276 14.9312 66.6276 13.3546C66.6276 11.778 67.7836 10.6218 69.1499 10.6218C70.5161 10.6218 71.5671 11.778 71.5671 13.3546C71.5671 14.9312 70.5161 16.0874 69.1499 16.0874ZM94.7933 4.42043H90.064V17.5589H92.0608V12.6188H94.7933C97.0003 12.6188 99.1023 11.0422 99.1023 8.51962C99.1023 5.99704 96.8952 4.42043 94.7933 4.42043ZM94.7933 10.832H91.9557V6.31236H94.7933C96.2647 6.31236 97.1054 7.57365 97.1054 8.51962C97.1054 9.57069 96.2647 10.832 94.7933 10.832ZM106.879 8.94005C105.408 8.94005 103.937 9.5707 103.411 10.9371L105.198 11.6728C105.618 10.9371 106.249 10.7269 106.984 10.7269C108.035 10.7269 108.981 11.3575 109.086 12.4086V12.5137C108.771 12.3035 107.93 11.9882 107.09 11.9882C105.198 11.9882 103.306 13.0392 103.306 14.9312C103.306 16.718 104.883 17.8742 106.564 17.8742C107.93 17.8742 108.561 17.2435 109.086 16.6129H109.191V17.664H111.083V12.6188C110.873 10.2013 109.191 8.94005 106.879 8.94005ZM106.669 16.0874C106.039 16.0874 105.093 15.772 105.093 14.9312C105.093 13.8801 106.249 13.5648 107.195 13.5648C108.035 13.5648 108.456 13.775 108.981 13.9852C108.876 15.2465 107.825 16.0874 106.669 16.0874ZM117.809 9.15026L115.602 14.8261H115.497L113.185 9.15026H111.083L114.551 17.1384L112.555 21.5529H114.551L119.911 9.15026H117.809ZM100.153 17.5589H102.15V4.42043H100.153V17.5589Z" fill="#10273D"/>
<path d="M21.7636 10.7537C22.4308 11.1385 22.4308 12.1015 21.7636 12.4863L7.31648 20.8184C6.64981 21.2028 5.81688 20.7217 5.81688 19.9521L5.81688 3.28791C5.81688 2.51831 6.64981 2.03716 7.31648 2.42165L21.7636 10.7537Z" fill="#10273D"/>
<path d="M17.9772 8.45134L5.99219 21.1277M17.9772 14.7895L5.99219 2.11316" stroke="#F2F4F8"/>
</svg>
