<svg xmlns="http://www.w3.org/2000/svg" width="256" height="256" fill="none" viewBox="0 0 256 256"><g clip-path="url(#a)"><rect width="256" height="256" fill="#FDFDFD" rx="48"/><path fill="#173B57" d="M0 0h256v256H0z"/><path fill="#F3F3F3" d="M68.404 148.183V95H25.6v53.183h9.34v-45.407h24.124v45.407zm14.713-19.709c0-9.096 4.854-13.57 10.444-13.57s10.443 4.474 10.443 13.57-4.854 13.498-10.443 13.498c-5.59 0-10.444-4.401-10.444-13.498m10.444-20.686c-9.635 0-19.49 6.455-19.49 20.686 0 14.305 9.855 20.614 19.49 20.614s19.49-6.309 19.49-20.614c0-14.231-9.856-20.686-19.49-20.686m55.656 7.825v-6.895h-35.744v6.895h13.532v32.57h8.752v-32.57zm9.452 12.911c0-9.096 4.854-13.571 10.444-13.571s10.444 4.475 10.444 13.571-4.854 13.497-10.444 13.497-10.444-4.401-10.444-13.497m10.444-20.687c-9.635 0-19.49 6.456-19.49 20.687 0 14.304 9.855 20.613 19.49 20.613s19.49-6.309 19.49-20.613c0-14.231-9.855-20.687-19.49-20.687m51.211 40.346H230.4l-15.96-20.319 14.93-19.146h-10.003l-11.399 15.331h-4.781v-15.331h-8.826v39.465h8.826v-17.238h4.119z"/></g><defs><clipPath id="a"><rect width="256" height="256" fill="#fff" rx="48"/></clipPath></defs></svg>