<svg width="24" height="32" viewBox="0 0 24 32" fill="none" xmlns="http://www.w3.org/2000/svg">
<path d="M4 17C4 16.4477 4.44771 16 5 16C5.55229 16 6 16.4477 6 17C6 17.5523 5.55229 18 5 18C4.44771 18 4 17.5523 4 17ZM5 20C4.44771 20 4 20.4477 4 21C4 21.5523 4.44771 22 5 22C5.55229 22 6 21.5523 6 21C6 20.4477 5.55229 20 5 20ZM4 25C4 24.4477 4.44771 24 5 24C5.55229 24 6 24.4477 6 25C6 25.5523 5.55229 26 5 26C4.44771 26 4 25.5523 4 25ZM9 16C8.44772 16 8 16.4477 8 17C8 17.5523 8.44772 18 9 18H19C19.5523 18 20 17.5523 20 17C20 16.4477 19.5523 16 19 16H9ZM8 21C8 20.4477 8.44772 20 9 20H19C19.5523 20 20 20.4477 20 21C20 21.5523 19.5523 22 19 22H9C8.44772 22 8 21.5523 8 21ZM9 24C8.44772 24 8 24.4477 8 25C8 25.5523 8.44772 26 9 26H19C19.5523 26 20 25.5523 20 25C20 24.4477 19.5523 24 19 24H9ZM4 0C1.79086 0 0 1.79086 0 4V28C0 30.2091 1.79086 32 4 32H20C22.2091 32 24 30.2091 24 28V10.8284C24 10.0328 23.6839 9.26972 23.1213 8.70711L15.2929 0.87868C14.7303 0.316071 13.9672 0 13.1716 0H4ZM2 4C2 2.89543 2.89543 2 4 2H12V9C12 10.6569 13.3431 12 15 12H22V28C22 29.1046 21.1046 30 20 30H4C2.89543 30 2 29.1046 2 28V4ZM21.5858 10H15C14.4477 10 14 9.55229 14 9V2.41421L21.5858 10Z" fill="#10273D"/>
</svg>
