<svg width="28" height="32" viewBox="0 0 28 32" fill="none" xmlns="http://www.w3.org/2000/svg">
<path d="M14 8C14.5523 8 15 8.44771 15 9V19C15 19.5523 14.5523 20 14 20C13.4477 20 13 19.5523 13 19V9C13 8.44771 13.4477 8 14 8ZM14 25C14.8284 25 15.5 24.3284 15.5 23.5C15.5 22.6716 14.8284 22 14 22C13.1716 22 12.5 22.6716 12.5 23.5C12.5 24.3284 13.1716 25 14 25ZM13.4453 0.16795C13.7812 -0.0559832 14.2188 -0.0559832 14.5547 0.16795C18.4311 2.75221 22.6233 4.36461 27.1414 5.01005C27.6341 5.08043 28 5.50235 28 6V15C28 22.7827 23.386 28.4614 14.359 31.9333C14.1279 32.0222 13.8721 32.0222 13.641 31.9333C4.61399 28.4614 0 22.7827 0 15V6C0 5.50235 0.36593 5.08043 0.858579 5.01005C5.37667 4.36461 9.56892 2.75221 13.4453 0.16795ZM13.1983 2.69165C9.70549 4.79213 5.97082 6.18109 2 6.85573V15C2 21.7841 5.93589 26.7267 14 29.9264C22.0641 26.7267 26 21.7841 26 15V6.85573C22.0292 6.18109 18.2945 4.79213 14.8017 2.69165L14 2.1943L13.1983 2.69165Z" fill="#10273D"/>
</svg>
