<svg width="30" height="34" viewBox="0 0 30 34" fill="none" xmlns="http://www.w3.org/2000/svg">
<path d="M6 4C6 1.79086 7.79086 0 10 0H19.1716C19.9672 0 20.7303 0.31607 21.2929 0.87868L29.1213 8.70711C29.6839 9.26972 30 10.0328 30 10.8284V28C30 30.2091 28.2091 32 26 32H17.4857C17.9929 31.3858 18.4348 30.7156 18.8006 30H26C27.1046 30 28 29.1046 28 28V12H21C19.3431 12 18 10.6569 18 9V2H10C8.89543 2 8 2.89543 8 4V14.0448C7.31318 14.1067 6.64456 14.2318 6 14.4141V4ZM20 2.41421V9C20 9.55229 20.4477 10 21 10H27.5858L20 2.41421ZM15.364 31.364C11.8492 34.8787 6.15078 34.8787 2.63605 31.364C-0.878683 27.8492 -0.878683 22.1508 2.63605 18.636C6.15078 15.1213 11.8492 15.1213 15.364 18.636C18.8787 22.1508 18.8787 27.8492 15.364 31.364ZM4.8075 30.6067C7.54931 32.6623 11.4562 32.4433 13.9498 29.9498C16.4433 27.4562 16.6623 23.5493 14.6067 20.8075L4.8075 30.6067ZM3.39328 29.1925L13.1925 19.3933C10.4507 17.3377 6.54384 17.5567 4.05026 20.0503C1.55669 22.5438 1.3377 26.4507 3.39328 29.1925Z" fill="#10273D"/>
</svg>
