<svg width="1155" height="755" viewBox="0 0 1155 755" fill="none" xmlns="http://www.w3.org/2000/svg">
<path d="M-24.6877 39.4998C153.01 168.109 606.964 442.194 735.874 399.07C864.784 355.945 815.226 156.873 706.179 194.385C597.133 231.897 588.521 447.176 776.701 409.32C964.88 371.464 1041.4 284.55 1084 307C1126.6 329.45 1098.5 427.639 1072.5 409.32C1046.5 391 1076.98 359.738 1108.93 386.914C1154.78 425.917 1117.81 515.23 1007.19 535C896.583 554.77 728.02 505.955 656.483 565.61C584.945 625.265 502.931 679.778 381.5 656.257C260.069 632.737 278.498 63.0424 -82.5016 552.5" stroke="#000C2E" stroke-width="4"/>
<path d="M-30.0354 49.9644C147.662 178.574 601.616 452.659 730.526 409.534C859.437 366.41 809.878 167.338 700.832 204.85C591.786 242.361 583.173 457.64 771.353 419.784C959.533 381.928 1036.06 295.015 1078.65 317.465C1121.25 339.915 1093.15 438.104 1067.15 419.784C1041.15 401.465 1071.64 370.203 1103.59 397.379C1149.44 436.381 1112.46 525.694 1001.85 545.465C891.235 565.235 722.673 516.419 651.135 576.075C579.597 635.73 497.583 690.242 376.152 666.722C254.721 643.201 273.15 73.507 -87.8493 562.965" stroke="#000C2E" stroke-width="3"/>
<path d="M-35.383 60.4285C142.314 189.038 596.268 463.123 725.179 419.998C854.089 376.874 804.53 177.802 695.484 215.314C586.438 252.825 577.826 468.105 766.005 430.248C954.185 392.392 1030.71 305.479 1073.3 327.929C1115.9 350.379 1087.8 448.568 1061.8 430.248C1035.8 411.929 1066.29 380.667 1098.24 407.843C1144.09 446.846 1107.11 536.159 996.498 555.929C885.887 575.699 717.325 526.883 645.787 586.539C574.25 646.194 492.235 700.707 370.804 677.186C249.373 653.665 267.803 83.9712 -93.1969 573.429" stroke="#000C2E" stroke-width="2"/>
<path d="M-40.7287 70.8928C136.969 199.502 590.923 473.587 719.833 430.463C848.743 387.338 799.185 188.266 690.138 225.778C581.092 263.29 572.48 478.569 760.66 440.713C948.839 402.857 1025.36 315.943 1067.96 338.393C1110.56 360.843 1082.46 459.032 1056.46 440.713C1030.46 422.393 1060.94 391.131 1092.89 418.307C1138.74 457.31 1101.76 546.623 991.153 566.393C880.541 586.163 711.979 537.348 640.442 597.003C568.904 656.658 486.89 711.171 365.459 687.65C244.028 664.13 262.457 94.4354 -98.5426 583.893" stroke="#000C2E"/>
<path d="M515.312 437V200L397.312 380.5H570.312" stroke="#000C2E" stroke-width="9"/>
<path d="M961.312 437V200L843.312 380.5H1016.31" stroke="#000C2E" stroke-width="9"/>
</svg>
