<svg width="1183" height="477" viewBox="0 0 1183 477" fill="none" xmlns="http://www.w3.org/2000/svg">
<g clip-path="url(#clip0_2348_8820)">
<path opacity="0.1" d="M1 0L1.00002 450" stroke="black" stroke-width="2"/>
<path opacity="0.1" d="M1183 255L2 255" stroke="black" stroke-dasharray="5 5"/>
<path opacity="0.1" d="M1183 156L2 156" stroke="black" stroke-dasharray="5 5"/>
<path opacity="0.2" d="M1164 57.0001L2 57" stroke="black" stroke-dasharray="5 5"/>
<path opacity="0.1" d="M1183 354L2 354" stroke="black" stroke-dasharray="5 5"/>
<path d="M22.2579 255.034C75.3393 221.473 181.754 165.958 287.036 165.958V163.435C180.999 163.435 74.0815 219.328 21 252.889L22.2579 255.034ZM287.036 165.958C312.445 165.958 333.703 166.084 363.011 172.519C392.319 178.954 429.677 191.823 487.161 217.183L488.167 214.912C430.557 189.426 393.073 176.556 363.514 169.996C333.954 163.435 312.445 163.435 287.036 163.435V165.958ZM487.161 217.183C581.374 258.819 695.21 284.305 771.185 290.866L771.436 288.343C695.587 281.908 582.003 256.422 488.167 214.912L487.161 217.183ZM771.185 290.866C979.234 308.53 1092.44 212.262 1182 159.145L1180.74 157C1090.93 210.244 978.479 306.007 771.436 288.343L771.185 290.866Z" fill="#F7CB4A"/>
<path d="M21 253.977H852.388C867.407 253.977 881.864 259.68 892.838 269.932V269.932C909.275 285.289 932.991 290.014 954.058 282.128L1032.1 252.917C1068.51 239.288 1108.19 236.931 1145.95 246.153L1178 253.977" stroke="#4F65BE" stroke-width="3"/>
<path d="M21.5 254L143.905 236.137C201.146 227.784 259.435 230.04 315.859 242.793L348.239 250.112C414.377 265.061 483.405 260.87 547.249 238.03V238.03C609.442 215.78 676.588 211.216 741.219 224.847L854.616 248.761C868.638 251.718 882.156 256.696 894.746 263.539L900.564 266.701C944.077 290.349 996.977 288.615 1038.85 262.17V262.17C1070.25 242.338 1108.36 236.134 1144.43 244.984L1178 253.22" stroke="#EA3D31" stroke-width="3"/>
<path d="M21 254.047L48.9272 252.257C78.4516 250.364 107.537 260.153 129.908 279.513V279.513C150.395 297.242 176.582 307 203.676 307H208.377C216.782 307 225.166 306.155 233.401 304.477L1183 111" stroke="#04CCD9" stroke-width="3"/>
<path d="M22.1159 366.228V365.196H18.2999V366.228H22.1159ZM27.6456 361.8V365.82H24.5376L27.6456 361.8ZM30.3456 365.82H28.7496V360.3H27.6336L23.3256 365.82V366.852H27.6456V369H28.7496V366.852H30.3456V365.82ZM37.0298 364.644C37.0298 367.08 36.1898 368.244 34.8098 368.244C33.4298 368.244 32.5898 367.08 32.5898 364.644C32.5898 362.232 33.4298 361.056 34.8098 361.056C36.1658 361.056 37.0298 362.232 37.0298 364.644ZM38.1938 364.644C38.1938 361.896 37.1258 360.144 34.8098 360.144C32.4938 360.144 31.4258 361.896 31.4258 364.644C31.4258 367.392 32.4938 369.156 34.8098 369.156C37.1258 369.156 38.1938 367.392 38.1938 364.644ZM41.4234 365.28C42.7314 365.28 43.4034 364.236 43.4034 362.748C43.4034 361.26 42.7314 360.216 41.4234 360.216C40.1274 360.216 39.4674 361.26 39.4674 362.748C39.4674 364.236 40.1274 365.28 41.4234 365.28ZM41.4234 364.62C40.7514 364.62 40.3794 363.948 40.3794 362.748C40.3794 361.548 40.7514 360.864 41.4234 360.864C42.1314 360.864 42.4914 361.548 42.4914 362.748C42.4914 363.948 42.1314 364.62 41.4234 364.62ZM42.6234 369L48.6234 360.3H47.4114L41.4114 369H42.6234ZM48.6234 369.084C49.9314 369.084 50.6034 368.04 50.6034 366.552C50.6034 365.064 49.9314 364.02 48.6234 364.02C47.3274 364.02 46.6674 365.064 46.6674 366.552C46.6674 368.04 47.3274 369.084 48.6234 369.084ZM48.6234 368.424C47.9514 368.424 47.5794 367.752 47.5794 366.552C47.5794 365.352 47.9514 364.668 48.6234 364.668C49.3314 364.668 49.6914 365.352 49.6914 366.552C49.6914 367.752 49.3314 368.424 48.6234 368.424Z" fill="#10273D"/>
<path d="M22.7 467.544H20.168C18.68 467.544 17.768 468.204 17.768 469.536C17.768 470.496 18.32 471.12 19.136 471.396L17.18 474H18.536L20.288 471.696C20.348 471.708 20.408 471.708 20.468 471.708H21.608V474H22.7V467.544ZM21.608 468.492V470.76H20.324C19.568 470.76 18.884 470.484 18.884 469.608C18.884 468.828 19.424 468.492 20.228 468.492H21.608ZM30.1611 474V467.544H29.0691V470.232H25.8771V467.544H24.7851V474H25.8771V471.18H29.0691V474H30.1611ZM32.2438 467.544V474H35.2438C36.6238 474 37.6678 473.46 37.6678 472.116C37.6678 471.252 37.1758 470.796 36.5038 470.604C37.1038 470.352 37.4038 469.872 37.4038 469.188C37.4038 467.88 36.3478 467.544 35.0518 467.544H32.2438ZM33.3358 470.256V468.492H34.9438C35.7598 468.492 36.2638 468.636 36.2638 469.308C36.2638 470.04 35.7838 470.256 34.9798 470.256H33.3358ZM33.3358 471.156H35.0398C36.0478 471.156 36.5278 471.384 36.5278 472.104C36.5278 472.776 36.0358 473.052 35.0758 473.052H33.3358V471.156ZM43.195 471.3C43.195 472.824 42.223 473.292 41.203 473.292C40.423 473.292 39.955 472.884 39.955 472.272C39.955 471.384 41.215 471.084 43.195 470.892V471.3ZM40.963 474.156C42.115 474.156 42.775 473.784 43.171 473.112C43.183 473.496 43.219 473.76 43.255 474H44.359C44.227 473.388 44.179 472.656 44.191 471.564L44.203 470.076C44.215 468.252 43.423 467.412 41.635 467.412C40.387 467.412 39.139 468.192 39.043 469.584H40.171C40.219 468.78 40.735 468.3 41.647 468.3C42.463 468.3 43.111 468.684 43.111 469.872V470.028C40.471 470.316 38.743 470.772 38.743 472.296C38.743 473.484 39.751 474.156 40.963 474.156ZM46.1301 467.544V476.1H47.2221V473.028C47.6181 473.712 48.2901 474.156 49.3341 474.156C50.8221 474.156 52.0941 472.944 52.0941 470.796C52.0941 468.684 50.8221 467.436 49.3341 467.436C48.2901 467.436 47.6181 467.88 47.2221 468.564V467.544H46.1301ZM47.1741 470.796C47.1741 469.092 48.0861 468.372 49.0581 468.372C50.1741 468.372 50.9061 469.248 50.9061 470.796C50.9061 472.344 50.1741 473.22 49.0581 473.22C48.0861 473.22 47.1741 472.5 47.1741 470.796ZM54.7746 469.824V467.544H53.6826V474H56.2986C57.7866 474 58.7226 473.46 58.7226 471.864C58.7226 470.484 58.0026 469.824 56.3106 469.824H54.7746ZM54.7746 473.052V470.772H56.1786C57.1506 470.772 57.6546 471.012 57.6546 471.864C57.6546 472.728 57.1626 473.052 56.2026 473.052H54.7746Z" fill="#10273D"/>
<path d="M124.2 465.3H123.108V467.556C121.236 467.556 119.784 468.6 119.784 470.796C119.784 473.064 121.236 474.06 123.108 474.06V476.1H124.2V474.06C126.06 474.06 127.524 473.064 127.524 470.796C127.524 468.6 126.084 467.556 124.2 467.556V465.3ZM123.108 473.124C121.824 473.124 120.948 472.404 120.948 470.832C120.948 469.248 121.86 468.492 123.108 468.492V473.124ZM124.2 468.492C125.484 468.492 126.36 469.248 126.36 470.832C126.36 472.404 125.448 473.124 124.2 473.124V468.492ZM134.84 471.132C134.972 469.08 133.808 467.436 131.828 467.436C130.064 467.436 128.696 468.732 128.696 470.784C128.696 472.692 129.824 474.156 131.864 474.156C133.436 474.156 134.468 473.232 134.756 472.128H133.628C133.352 472.764 132.824 473.196 131.864 473.196C130.916 473.196 129.908 472.524 129.872 471.132H134.84ZM131.828 468.372C132.992 468.372 133.652 469.284 133.688 470.196H129.884C129.98 468.9 130.868 468.372 131.828 468.372ZM136.424 467.544V474H139.424C140.804 474 141.848 473.46 141.848 472.116C141.848 471.252 141.356 470.796 140.684 470.604C141.284 470.352 141.584 469.872 141.584 469.188C141.584 467.88 140.528 467.544 139.232 467.544H136.424ZM137.516 470.256V468.492H139.124C139.94 468.492 140.444 468.636 140.444 469.308C140.444 470.04 139.964 470.256 139.16 470.256H137.516ZM137.516 471.156H139.22C140.228 471.156 140.708 471.384 140.708 472.104C140.708 472.776 140.216 473.052 139.256 473.052H137.516V471.156ZM143.367 467.544V476.1H144.459V473.028C144.855 473.712 145.527 474.156 146.571 474.156C148.059 474.156 149.331 472.944 149.331 470.796C149.331 468.684 148.059 467.436 146.571 467.436C145.527 467.436 144.855 467.88 144.459 468.564V467.544H143.367ZM144.411 470.796C144.411 469.092 145.323 468.372 146.295 468.372C147.411 468.372 148.143 469.248 148.143 470.796C148.143 472.344 147.411 473.22 146.295 473.22C145.323 473.22 144.411 472.5 144.411 470.796ZM154.928 471.3C154.928 472.824 153.956 473.292 152.936 473.292C152.156 473.292 151.688 472.884 151.688 472.272C151.688 471.384 152.948 471.084 154.928 470.892V471.3ZM152.696 474.156C153.848 474.156 154.508 473.784 154.904 473.112C154.916 473.496 154.952 473.76 154.988 474H156.092C155.96 473.388 155.912 472.656 155.924 471.564L155.936 470.076C155.948 468.252 155.156 467.412 153.368 467.412C152.12 467.412 150.872 468.192 150.776 469.584H151.904C151.952 468.78 152.468 468.3 153.38 468.3C154.196 468.3 154.844 468.684 154.844 469.872V470.028C152.204 470.316 150.476 470.772 150.476 472.296C150.476 473.484 151.484 474.156 152.696 474.156ZM162.963 467.544H158.655L158.559 469.752C158.427 472.428 157.875 473.052 157.299 473.052H157.179V474H157.383C158.883 474 159.447 472.656 159.603 470.052L159.699 468.492H161.871V474H162.963V467.544ZM166.144 469.824V467.544H165.052V474H167.668C169.156 474 170.092 473.46 170.092 471.864C170.092 470.484 169.372 469.824 167.68 469.824H166.144ZM166.144 473.052V470.772H167.548C168.52 470.772 169.024 471.012 169.024 471.864C169.024 472.728 168.532 473.052 167.572 473.052H166.144Z" fill="#10273D"/>
<path d="M238.707 467.544H237.147L235.215 472.512L233.211 467.544H231.651V474H232.719V468.888L234.783 474H235.563L237.639 468.816V474H238.707V467.544ZM244.805 471.3C244.805 472.824 243.833 473.292 242.813 473.292C242.033 473.292 241.565 472.884 241.565 472.272C241.565 471.384 242.825 471.084 244.805 470.892V471.3ZM242.573 474.156C243.725 474.156 244.385 473.784 244.781 473.112C244.793 473.496 244.829 473.76 244.865 474H245.969C245.837 473.388 245.789 472.656 245.801 471.564L245.813 470.076C245.825 468.252 245.033 467.412 243.245 467.412C241.997 467.412 240.749 468.192 240.653 469.584H241.781C241.829 468.78 242.345 468.3 243.257 468.3C244.073 468.3 244.721 468.684 244.721 469.872V470.028C242.081 470.316 240.353 470.772 240.353 472.296C240.353 473.484 241.361 474.156 242.573 474.156ZM247.74 467.544V476.1H248.832V473.028C249.228 473.712 249.9 474.156 250.944 474.156C252.432 474.156 253.704 472.944 253.704 470.796C253.704 468.684 252.432 467.436 250.944 467.436C249.9 467.436 249.228 467.88 248.832 468.564V467.544H247.74ZM248.784 470.796C248.784 469.092 249.696 468.372 250.668 468.372C251.784 468.372 252.516 469.248 252.516 470.796C252.516 472.344 251.784 473.22 250.668 473.22C249.696 473.22 248.784 472.5 248.784 470.796ZM259.846 468.492V467.544H254.338V468.492H256.546V474H257.638V468.492H259.846Z" fill="#10273D"/>
<path d="M325.023 471.3C325.023 472.824 324.051 473.292 323.031 473.292C322.251 473.292 321.783 472.884 321.783 472.272C321.783 471.384 323.043 471.084 325.023 470.892V471.3ZM322.791 474.156C323.943 474.156 324.603 473.784 324.999 473.112C325.011 473.496 325.047 473.76 325.083 474H326.187C326.055 473.388 326.007 472.656 326.019 471.564L326.031 470.076C326.043 468.252 325.251 467.412 323.463 467.412C322.215 467.412 320.967 468.192 320.871 469.584H321.999C322.047 468.78 322.563 468.3 323.475 468.3C324.291 468.3 324.939 468.684 324.939 469.872V470.028C322.299 470.316 320.571 470.772 320.571 472.296C320.571 473.484 321.579 474.156 322.791 474.156ZM333.274 467.544H327.958V474H329.05V468.492H332.182V474H333.274V467.544ZM335.358 467.544V476.1H336.45V473.028C336.846 473.712 337.518 474.156 338.562 474.156C340.05 474.156 341.322 472.944 341.322 470.796C341.322 468.684 340.05 467.436 338.562 467.436C337.518 467.436 336.846 467.88 336.45 468.564V467.544H335.358ZM336.402 470.796C336.402 469.092 337.314 468.372 338.286 468.372C339.402 468.372 340.134 469.248 340.134 470.796C340.134 472.344 339.402 473.22 338.286 473.22C337.314 473.22 336.402 472.5 336.402 470.796ZM348.644 471.132C348.776 469.08 347.612 467.436 345.632 467.436C343.868 467.436 342.5 468.732 342.5 470.784C342.5 472.692 343.628 474.156 345.668 474.156C347.24 474.156 348.272 473.232 348.56 472.128H347.432C347.156 472.764 346.628 473.196 345.668 473.196C344.72 473.196 343.712 472.524 343.676 471.132H348.644ZM345.632 468.372C346.796 468.372 347.456 469.284 347.492 470.196H343.688C343.784 468.9 344.672 468.372 345.632 468.372ZM355.329 467.544H351.021L350.925 469.752C350.793 472.428 350.241 473.052 349.665 473.052H349.545V474H349.749C351.249 474 351.813 472.656 351.969 470.052L352.065 468.492H354.237V474H355.329V467.544ZM358.51 469.824V467.544H357.418V474H360.034C361.522 474 362.458 473.46 362.458 471.864C362.458 470.484 361.738 469.824 360.046 469.824H358.51ZM358.51 473.052V470.772H359.914C360.886 470.772 361.39 471.012 361.39 471.864C361.39 472.728 360.898 473.052 359.938 473.052H358.51Z" fill="#10273D"/>
<path d="M430.435 467.544H428.875L426.943 472.512L424.939 467.544H423.379V474H424.447V468.888L426.511 474H427.291L429.367 468.816V474H430.435V467.544ZM436.533 471.3C436.533 472.824 435.561 473.292 434.541 473.292C433.761 473.292 433.293 472.884 433.293 472.272C433.293 471.384 434.553 471.084 436.533 470.892V471.3ZM434.301 474.156C435.453 474.156 436.113 473.784 436.509 473.112C436.521 473.496 436.557 473.76 436.593 474H437.697C437.565 473.388 437.517 472.656 437.529 471.564L437.541 470.076C437.553 468.252 436.761 467.412 434.973 467.412C433.725 467.412 432.477 468.192 432.381 469.584H433.509C433.557 468.78 434.073 468.3 434.985 468.3C435.801 468.3 436.449 468.684 436.449 469.872V470.028C433.809 470.316 432.081 470.772 432.081 472.296C432.081 473.484 433.089 474.156 434.301 474.156ZM443.332 465.3C443.284 465.684 442.984 466.032 442.276 466.032C441.568 466.032 441.28 465.684 441.232 465.3H440.38C440.44 466.02 440.944 466.752 442.264 466.752C443.632 466.752 444.088 466.02 444.184 465.3H443.332ZM443.896 474H444.988V467.544H443.896L440.56 472.416V467.544H439.468V474H440.56L443.896 469.128V474Z" fill="#10273D"/>
<path d="M511.17 474H512.262V467.544H511.17L507.834 472.416V467.544H506.742V474H507.834L511.17 469.128V474ZM519.657 467.436C518.337 467.436 516.981 468.276 516.753 470.232H515.445V467.544H514.353V474H515.445V471.18H516.729C516.885 473.244 518.313 474.156 519.657 474.156C521.157 474.156 522.753 473.136 522.753 470.796C522.753 468.456 521.157 467.436 519.657 467.436ZM519.657 473.196C518.757 473.196 517.881 472.524 517.881 470.796C517.881 469.032 518.757 468.396 519.657 468.396C520.653 468.396 521.589 469.068 521.589 470.796C521.589 472.452 520.653 473.196 519.657 473.196ZM529.743 474V467.544H528.651V470.232H525.459V467.544H524.367V474H525.459V471.18H528.651V474H529.743ZM532.918 469.824V467.544H531.826V474H534.442C535.93 474 536.866 473.46 536.866 471.864C536.866 470.484 536.146 469.824 534.454 469.824H532.918ZM532.918 473.052V470.772H534.322C535.294 470.772 535.798 471.012 535.798 471.864C535.798 472.728 535.306 473.052 534.346 473.052H532.918Z" fill="#10273D"/>
<path d="M602.534 474H603.626V467.544H602.534L599.198 472.416V467.544H598.106V474H599.198L602.534 469.128V474ZM611.021 467.436C609.701 467.436 608.345 468.276 608.117 470.232H606.809V467.544H605.717V474H606.809V471.18H608.093C608.249 473.244 609.677 474.156 611.021 474.156C612.521 474.156 614.117 473.136 614.117 470.796C614.117 468.456 612.521 467.436 611.021 467.436ZM611.021 473.196C610.121 473.196 609.245 472.524 609.245 470.796C609.245 469.032 610.121 468.396 611.021 468.396C612.017 468.396 612.953 469.068 612.953 470.796C612.953 472.452 612.017 473.196 611.021 473.196ZM620.736 467.544H616.428L616.332 469.752C616.2 472.428 615.648 473.052 615.072 473.052H614.952V474H615.156C616.656 474 617.22 472.656 617.376 470.052L617.472 468.492H619.644V474H620.736V467.544ZM623.918 469.824V467.544H622.826V474H625.442C626.93 474 627.866 473.46 627.866 471.864C627.866 470.484 627.146 469.824 625.454 469.824H623.918ZM623.918 473.052V470.772H625.322C626.294 470.772 626.798 471.012 626.798 471.864C626.798 472.728 626.306 473.052 625.346 473.052H623.918Z" fill="#10273D"/>
<path d="M692.477 471.3C692.477 472.824 691.505 473.292 690.485 473.292C689.705 473.292 689.237 472.884 689.237 472.272C689.237 471.384 690.497 471.084 692.477 470.892V471.3ZM690.245 474.156C691.397 474.156 692.057 473.784 692.453 473.112C692.465 473.496 692.501 473.76 692.537 474H693.641C693.509 473.388 693.461 472.656 693.473 471.564L693.485 470.076C693.497 468.252 692.705 467.412 690.917 467.412C689.669 467.412 688.421 468.192 688.325 469.584H689.453C689.501 468.78 690.017 468.3 690.929 468.3C691.745 468.3 692.393 468.684 692.393 469.872V470.028C689.753 470.316 688.025 470.772 688.025 472.296C688.025 473.484 689.033 474.156 690.245 474.156ZM695.413 467.544V474H698.413C699.793 474 700.837 473.46 700.837 472.116C700.837 471.252 700.345 470.796 699.673 470.604C700.273 470.352 700.573 469.872 700.573 469.188C700.573 467.88 699.517 467.544 698.221 467.544H695.413ZM696.505 470.256V468.492H698.113C698.929 468.492 699.433 468.636 699.433 469.308C699.433 470.04 698.953 470.256 698.149 470.256H696.505ZM696.505 471.156H698.209C699.217 471.156 699.697 471.384 699.697 472.104C699.697 472.776 699.205 473.052 698.245 473.052H696.505V471.156ZM706.472 468.492V467.544H702.356V474H703.448V468.492H706.472ZM707.544 476.1H708.108C709.56 476.1 709.872 475.668 710.352 474.276L712.656 467.544H711.516L709.92 472.524L708.276 467.544H707.064L709.392 474L709.344 474.132C709.056 475.14 708.708 475.188 707.988 475.188H707.544V476.1ZM716.374 467.436C714.466 467.436 713.254 468.864 713.254 470.784C713.254 472.752 714.406 474.156 716.266 474.156C717.778 474.156 718.918 473.112 719.146 471.9H718.018C717.862 472.572 717.226 473.196 716.302 473.196C715.342 473.196 714.442 472.404 714.442 470.772C714.442 469.152 715.342 468.396 716.302 468.396C717.154 468.396 717.814 468.936 717.97 469.704H719.074C718.918 468.6 717.958 467.436 716.374 467.436ZM725.23 468.492V467.544H719.722V468.492H721.93V474H723.022V468.492H725.23Z" fill="#10273D"/>
<path d="M788.449 467.436C786.541 467.436 785.329 468.864 785.329 470.784C785.329 472.752 786.481 474.156 788.341 474.156C789.853 474.156 790.993 473.112 791.221 471.9H790.093C789.937 472.572 789.301 473.196 788.377 473.196C787.417 473.196 786.517 472.404 786.517 470.772C786.517 469.152 787.417 468.396 788.377 468.396C789.229 468.396 789.889 468.936 790.045 469.704H791.149C790.993 468.6 790.033 467.436 788.449 467.436ZM798.451 471.132C798.583 469.08 797.419 467.436 795.439 467.436C793.675 467.436 792.307 468.732 792.307 470.784C792.307 472.692 793.435 474.156 795.475 474.156C797.047 474.156 798.079 473.232 798.367 472.128H797.239C796.963 472.764 796.435 473.196 795.475 473.196C794.527 473.196 793.519 472.524 793.483 471.132H798.451ZM795.439 468.372C796.603 468.372 797.263 469.284 797.299 470.196H793.495C793.591 468.9 794.479 468.372 795.439 468.372ZM805.412 474V467.544H804.32V470.232H801.128V467.544H800.036V474H801.128V471.18H804.32V474H805.412ZM812.259 468.492V467.544H806.751V468.492H808.959V474H810.051V468.492H812.259ZM813.606 467.544V476.1H814.698V473.028C815.094 473.712 815.766 474.156 816.81 474.156C818.298 474.156 819.57 472.944 819.57 470.796C819.57 468.684 818.298 467.436 816.81 467.436C815.766 467.436 815.094 467.88 814.698 468.564V467.544H813.606ZM814.65 470.796C814.65 469.092 815.562 468.372 816.534 468.372C817.65 468.372 818.382 469.248 818.382 470.796C818.382 472.344 817.65 473.22 816.534 473.22C815.562 473.22 814.65 472.5 814.65 470.796ZM825.934 467.544H823.402C821.914 467.544 821.002 468.204 821.002 469.536C821.002 470.496 821.554 471.12 822.37 471.396L820.414 474H821.77L823.522 471.696C823.582 471.708 823.642 471.708 823.702 471.708H824.842V474H825.934V467.544ZM824.842 468.492V470.76H823.558C822.802 470.76 822.118 470.484 822.118 469.608C822.118 468.828 822.658 468.492 823.462 468.492H824.842ZM830.923 467.916C829.963 467.916 829.099 468.336 828.667 469.236C828.823 467.628 829.579 467.04 831.151 466.692L833.215 466.248V465.276L831.091 465.696C828.499 466.212 827.731 467.568 827.695 469.896V470.64C827.695 472.992 829.063 474.156 830.731 474.156C832.315 474.156 833.647 473.052 833.647 470.976C833.647 468.936 832.387 467.916 830.923 467.916ZM830.731 473.208C829.639 473.208 828.871 472.356 828.871 470.988C828.871 469.536 829.759 468.864 830.743 468.864C831.739 468.864 832.483 469.584 832.483 471C832.483 472.404 831.787 473.208 830.731 473.208ZM840.273 467.544H835.965L835.869 469.752C835.737 472.428 835.185 473.052 834.609 473.052H834.489V474H834.693C836.193 474 836.757 472.656 836.913 470.052L837.009 468.492H839.181V474H840.273V467.544ZM843.455 469.824V467.544H842.363V474H844.979C846.467 474 847.403 473.46 847.403 471.864C847.403 470.484 846.683 469.824 844.991 469.824H843.455ZM843.455 473.052V470.772H844.859C845.831 470.772 846.335 471.012 846.335 471.864C846.335 472.728 845.843 473.052 844.883 473.052H843.455Z" fill="#10273D"/>
<path d="M908.881 470.796C908.881 469.032 909.817 468.396 910.813 468.396C911.809 468.396 912.745 469.068 912.745 470.796C912.745 472.452 911.809 473.196 910.813 473.196C909.817 473.196 908.881 472.524 908.881 470.796ZM910.813 467.436C909.313 467.436 907.717 468.456 907.717 470.796C907.717 473.136 909.313 474.156 910.813 474.156C912.313 474.156 913.909 473.136 913.909 470.796C913.909 468.456 912.313 467.436 910.813 467.436ZM919.667 474H921.023L918.335 470.592L920.771 467.544H919.475L917.423 470.184H916.619V467.544H915.515V474H916.619V471.132H917.447L919.667 474ZM927.07 468.492V467.544H921.562V468.492H923.77V474H924.862V468.492H927.07ZM932.959 467.544H930.427C928.939 467.544 928.027 468.204 928.027 469.536C928.027 470.496 928.579 471.12 929.395 471.396L927.439 474H928.795L930.547 471.696C930.607 471.708 930.667 471.708 930.727 471.708H931.867V474H932.959V467.544ZM931.867 468.492V470.76H930.583C929.827 470.76 929.143 470.484 929.143 469.608C929.143 468.828 929.683 468.492 930.487 468.492H931.867ZM937.948 467.916C936.988 467.916 936.124 468.336 935.692 469.236C935.848 467.628 936.604 467.04 938.176 466.692L940.24 466.248V465.276L938.116 465.696C935.524 466.212 934.756 467.568 934.72 469.896V470.64C934.72 472.992 936.088 474.156 937.756 474.156C939.34 474.156 940.672 473.052 940.672 470.976C940.672 468.936 939.412 467.916 937.948 467.916ZM937.756 473.208C936.664 473.208 935.896 472.356 935.896 470.988C935.896 469.536 936.784 468.864 937.768 468.864C938.764 468.864 939.508 469.584 939.508 471C939.508 472.404 938.812 473.208 937.756 473.208ZM942.198 467.544V476.1H943.29V473.028C943.686 473.712 944.358 474.156 945.402 474.156C946.89 474.156 948.162 472.944 948.162 470.796C948.162 468.684 946.89 467.436 945.402 467.436C944.358 467.436 943.686 467.88 943.29 468.564V467.544H942.198ZM943.242 470.796C943.242 469.092 944.154 468.372 945.126 468.372C946.242 468.372 946.974 469.248 946.974 470.796C946.974 472.344 946.242 473.22 945.126 473.22C944.154 473.22 943.242 472.5 943.242 470.796ZM950.842 469.824V467.544H949.75V474H952.366C953.854 474 954.79 473.46 954.79 471.864C954.79 470.484 954.07 469.824 952.378 469.824H950.842ZM950.842 473.052V470.772H952.246C953.218 470.772 953.722 471.012 953.722 471.864C953.722 472.728 953.23 473.052 952.27 473.052H950.842Z" fill="#10273D"/>
<path d="M1020.94 474V467.544H1019.84V470.232H1016.65V467.544H1015.56V474H1016.65V471.18H1019.84V474H1020.94ZM1023.7 470.796C1023.7 469.032 1024.64 468.396 1025.63 468.396C1026.63 468.396 1027.57 469.068 1027.57 470.796C1027.57 472.452 1026.63 473.196 1025.63 473.196C1024.64 473.196 1023.7 472.524 1023.7 470.796ZM1025.63 467.436C1024.13 467.436 1022.54 468.456 1022.54 470.796C1022.54 473.136 1024.13 474.156 1025.63 474.156C1027.13 474.156 1028.73 473.136 1028.73 470.796C1028.73 468.456 1027.13 467.436 1025.63 467.436ZM1035.11 467.544H1032.58C1031.09 467.544 1030.18 468.204 1030.18 469.536C1030.18 470.496 1030.73 471.12 1031.55 471.396L1029.59 474H1030.95L1032.7 471.696C1032.76 471.708 1032.82 471.708 1032.88 471.708H1034.02V474H1035.11V467.544ZM1034.02 468.492V470.76H1032.74C1031.98 470.76 1031.3 470.484 1031.3 469.608C1031.3 468.828 1031.84 468.492 1032.64 468.492H1034.02ZM1040.1 467.916C1039.14 467.916 1038.28 468.336 1037.85 469.236C1038 467.628 1038.76 467.04 1040.33 466.692L1042.39 466.248V465.276L1040.27 465.696C1037.68 466.212 1036.91 467.568 1036.87 469.896V470.64C1036.87 472.992 1038.24 474.156 1039.91 474.156C1041.49 474.156 1042.83 473.052 1042.83 470.976C1042.83 468.936 1041.57 467.916 1040.1 467.916ZM1039.91 473.208C1038.82 473.208 1038.05 472.356 1038.05 470.988C1038.05 469.536 1038.94 468.864 1039.92 468.864C1040.92 468.864 1041.66 469.584 1041.66 471C1041.66 472.404 1040.97 473.208 1039.91 473.208ZM1044.35 467.544V476.1H1045.44V473.028C1045.84 473.712 1046.51 474.156 1047.56 474.156C1049.04 474.156 1050.32 472.944 1050.32 470.796C1050.32 468.684 1049.04 467.436 1047.56 467.436C1046.51 467.436 1045.84 467.88 1045.44 468.564V467.544H1044.35ZM1045.4 470.796C1045.4 469.092 1046.31 468.372 1047.28 468.372C1048.4 468.372 1049.13 469.248 1049.13 470.796C1049.13 472.344 1048.4 473.22 1047.28 473.22C1046.31 473.22 1045.4 472.5 1045.4 470.796ZM1053 469.824V467.544H1051.9V474H1054.52C1056.01 474 1056.94 473.46 1056.94 471.864C1056.94 470.484 1056.22 469.824 1054.53 469.824H1053ZM1053 473.052V470.772H1054.4C1055.37 470.772 1055.88 471.012 1055.88 471.864C1055.88 472.728 1055.38 473.052 1054.42 473.052H1053Z" fill="#10273D"/>
<path d="M1123.96 473.052H1123.06V467.544H1118.7L1118.62 469.62C1118.52 472.092 1118.14 473.052 1117.41 473.052H1117.12V475.428H1118.18V474H1122.9V475.428H1123.96V473.052ZM1121.97 473.052H1118.82C1119.33 472.572 1119.6 471.636 1119.7 469.728L1119.76 468.492H1121.97V473.052ZM1130.94 471.132C1131.07 469.08 1129.91 467.436 1127.93 467.436C1126.16 467.436 1124.8 468.732 1124.8 470.784C1124.8 472.692 1125.92 474.156 1127.96 474.156C1129.54 474.156 1130.57 473.232 1130.86 472.128H1129.73C1129.45 472.764 1128.92 473.196 1127.96 473.196C1127.02 473.196 1126.01 472.524 1125.97 471.132H1130.94ZM1127.93 468.372C1129.09 468.372 1129.75 469.284 1129.79 470.196H1125.98C1126.08 468.9 1126.97 468.372 1127.93 468.372ZM1136.68 474H1138.03L1135.35 470.592L1137.78 467.544H1136.49L1134.43 470.184H1133.63V467.544H1132.53V474H1133.63V471.132H1134.46L1136.68 474ZM1143.17 471.3C1143.17 472.824 1142.2 473.292 1141.18 473.292C1140.4 473.292 1139.93 472.884 1139.93 472.272C1139.93 471.384 1141.19 471.084 1143.17 470.892V471.3ZM1140.94 474.156C1142.09 474.156 1142.75 473.784 1143.15 473.112C1143.16 473.496 1143.2 473.76 1143.23 474H1144.34C1144.2 473.388 1144.16 472.656 1144.17 471.564L1144.18 470.076C1144.19 468.252 1143.4 467.412 1141.61 467.412C1140.36 467.412 1139.12 468.192 1139.02 469.584H1140.15C1140.2 468.78 1140.71 468.3 1141.62 468.3C1142.44 468.3 1143.09 468.684 1143.09 469.872V470.028C1140.45 470.316 1138.72 470.772 1138.72 472.296C1138.72 473.484 1139.73 474.156 1140.94 474.156ZM1149.01 467.916C1148.05 467.916 1147.19 468.336 1146.75 469.236C1146.91 467.628 1147.67 467.04 1149.24 466.692L1151.3 466.248V465.276L1149.18 465.696C1146.59 466.212 1145.82 467.568 1145.78 469.896V470.64C1145.78 472.992 1147.15 474.156 1148.82 474.156C1150.4 474.156 1151.73 473.052 1151.73 470.976C1151.73 468.936 1150.47 467.916 1149.01 467.916ZM1148.82 473.208C1147.73 473.208 1146.96 472.356 1146.96 470.988C1146.96 469.536 1147.85 468.864 1148.83 468.864C1149.83 468.864 1150.57 469.584 1150.57 471C1150.57 472.404 1149.87 473.208 1148.82 473.208ZM1153.26 467.544V476.1H1154.35V473.028C1154.75 473.712 1155.42 474.156 1156.46 474.156C1157.95 474.156 1159.22 472.944 1159.22 470.796C1159.22 468.684 1157.95 467.436 1156.46 467.436C1155.42 467.436 1154.75 467.88 1154.35 468.564V467.544H1153.26ZM1154.3 470.796C1154.3 469.092 1155.22 468.372 1156.19 468.372C1157.3 468.372 1158.04 469.248 1158.04 470.796C1158.04 472.344 1157.3 473.22 1156.19 473.22C1155.22 473.22 1154.3 472.5 1154.3 470.796ZM1161.91 469.824V467.544H1160.81V474H1163.43C1164.92 474 1165.85 473.46 1165.85 471.864C1165.85 470.484 1165.13 469.824 1163.44 469.824H1161.91ZM1161.91 473.052V470.772H1163.31C1164.28 470.772 1164.79 471.012 1164.79 471.864C1164.79 472.728 1164.29 473.052 1163.33 473.052H1161.91Z" fill="#10273D"/>
<path d="M24.0298 267.644C24.0298 270.08 23.1898 271.244 21.8098 271.244C20.4298 271.244 19.5898 270.08 19.5898 267.644C19.5898 265.232 20.4298 264.056 21.8098 264.056C23.1658 264.056 24.0298 265.232 24.0298 267.644ZM25.1938 267.644C25.1938 264.896 24.1258 263.144 21.8098 263.144C19.4938 263.144 18.4258 264.896 18.4258 267.644C18.4258 270.392 19.4938 272.156 21.8098 272.156C24.1258 272.156 25.1938 270.392 25.1938 267.644ZM28.4234 268.28C29.7314 268.28 30.4034 267.236 30.4034 265.748C30.4034 264.26 29.7314 263.216 28.4234 263.216C27.1274 263.216 26.4674 264.26 26.4674 265.748C26.4674 267.236 27.1274 268.28 28.4234 268.28ZM28.4234 267.62C27.7514 267.62 27.3794 266.948 27.3794 265.748C27.3794 264.548 27.7514 263.864 28.4234 263.864C29.1314 263.864 29.4914 264.548 29.4914 265.748C29.4914 266.948 29.1314 267.62 28.4234 267.62ZM29.6234 272L35.6234 263.3H34.4114L28.4114 272H29.6234ZM35.6234 272.084C36.9314 272.084 37.6034 271.04 37.6034 269.552C37.6034 268.064 36.9314 267.02 35.6234 267.02C34.3274 267.02 33.6674 268.064 33.6674 269.552C33.6674 271.04 34.3274 272.084 35.6234 272.084ZM35.6234 271.424C34.9514 271.424 34.5794 270.752 34.5794 269.552C34.5794 268.352 34.9514 267.668 35.6234 267.668C36.3314 267.668 36.6914 268.352 36.6914 269.552C36.6914 270.752 36.3314 271.424 35.6234 271.424Z" fill="#10273D"/>
<path d="M21.6456 165.8V169.82H18.5376L21.6456 165.8ZM24.3456 169.82H22.7496V164.3H21.6336L17.3256 169.82V170.852H21.6456V173H22.7496V170.852H24.3456V169.82ZM31.0298 168.644C31.0298 171.08 30.1898 172.244 28.8098 172.244C27.4298 172.244 26.5898 171.08 26.5898 168.644C26.5898 166.232 27.4298 165.056 28.8098 165.056C30.1658 165.056 31.0298 166.232 31.0298 168.644ZM32.1938 168.644C32.1938 165.896 31.1258 164.144 28.8098 164.144C26.4938 164.144 25.4258 165.896 25.4258 168.644C25.4258 171.392 26.4938 173.156 28.8098 173.156C31.1258 173.156 32.1938 171.392 32.1938 168.644ZM35.4234 169.28C36.7314 169.28 37.4034 168.236 37.4034 166.748C37.4034 165.26 36.7314 164.216 35.4234 164.216C34.1274 164.216 33.4674 165.26 33.4674 166.748C33.4674 168.236 34.1274 169.28 35.4234 169.28ZM35.4234 168.62C34.7514 168.62 34.3794 167.948 34.3794 166.748C34.3794 165.548 34.7514 164.864 35.4234 164.864C36.1314 164.864 36.4914 165.548 36.4914 166.748C36.4914 167.948 36.1314 168.62 35.4234 168.62ZM36.6234 173L42.6234 164.3H41.4114L35.4114 173H36.6234ZM42.6234 173.084C43.9314 173.084 44.6034 172.04 44.6034 170.552C44.6034 169.064 43.9314 168.02 42.6234 168.02C41.3274 168.02 40.6674 169.064 40.6674 170.552C40.6674 172.04 41.3274 173.084 42.6234 173.084ZM42.6234 172.424C41.9514 172.424 41.5794 171.752 41.5794 170.552C41.5794 169.352 41.9514 168.668 42.6234 168.668C43.3314 168.668 43.6914 169.352 43.6914 170.552C43.6914 171.752 43.3314 172.424 42.6234 172.424Z" fill="#10273D"/>
<path d="M20.8541 65.144C19.0781 65.144 17.9501 66.08 17.9501 67.364C17.9501 68.084 18.2861 68.888 19.1501 69.368C18.0101 69.812 17.6741 70.772 17.6741 71.552C17.6741 73.22 19.0661 74.156 20.8541 74.156C22.6301 74.156 24.0221 73.22 24.0221 71.552C24.0221 70.76 23.6741 69.812 22.5581 69.368C23.4221 68.888 23.7581 68.084 23.7581 67.364C23.7581 66.08 22.6301 65.144 20.8541 65.144ZM20.8541 69.824C22.0901 69.824 22.8701 70.532 22.8701 71.552C22.8701 72.572 22.0901 73.244 20.8541 73.244C19.6061 73.244 18.8381 72.572 18.8381 71.552C18.8381 70.532 19.6061 69.824 20.8541 69.824ZM22.6541 67.496C22.6541 68.372 21.9461 69.02 20.8541 69.02C19.7621 69.02 19.0421 68.372 19.0421 67.496C19.0421 66.632 19.7501 66.056 20.8541 66.056C21.9461 66.056 22.6541 66.632 22.6541 67.496ZM31.0298 69.644C31.0298 72.08 30.1898 73.244 28.8098 73.244C27.4298 73.244 26.5898 72.08 26.5898 69.644C26.5898 67.232 27.4298 66.056 28.8098 66.056C30.1658 66.056 31.0298 67.232 31.0298 69.644ZM32.1938 69.644C32.1938 66.896 31.1258 65.144 28.8098 65.144C26.4938 65.144 25.4258 66.896 25.4258 69.644C25.4258 72.392 26.4938 74.156 28.8098 74.156C31.1258 74.156 32.1938 72.392 32.1938 69.644ZM35.4234 70.28C36.7314 70.28 37.4034 69.236 37.4034 67.748C37.4034 66.26 36.7314 65.216 35.4234 65.216C34.1274 65.216 33.4674 66.26 33.4674 67.748C33.4674 69.236 34.1274 70.28 35.4234 70.28ZM35.4234 69.62C34.7514 69.62 34.3794 68.948 34.3794 67.748C34.3794 66.548 34.7514 65.864 35.4234 65.864C36.1314 65.864 36.4914 66.548 36.4914 67.748C36.4914 68.948 36.1314 69.62 35.4234 69.62ZM36.6234 74L42.6234 65.3H41.4114L35.4114 74H36.6234ZM42.6234 74.084C43.9314 74.084 44.6034 73.04 44.6034 71.552C44.6034 70.064 43.9314 69.02 42.6234 69.02C41.3274 69.02 40.6674 70.064 40.6674 71.552C40.6674 73.04 41.3274 74.084 42.6234 74.084ZM42.6234 73.424C41.9514 73.424 41.5794 72.752 41.5794 71.552C41.5794 70.352 41.9514 69.668 42.6234 69.668C43.3314 69.668 43.6914 70.352 43.6914 71.552C43.6914 72.752 43.3314 73.424 42.6234 73.424Z" fill="#10273D"/>
<path opacity="0.1" d="M1183 451H0" stroke="#10273D" stroke-width="2"/>
<circle cx="856" cy="7" r="4.5" stroke="#04CCD9"/>
<path d="M874.944 11H873.72V3.356H869.376V11H868.152V2.3H874.944V11ZM877.942 7.796C877.942 8.604 878.126 9.208 878.494 9.608C878.862 10 879.322 10.196 879.874 10.196C880.418 10.196 880.874 9.992 881.242 9.584C881.618 9.176 881.806 8.58 881.806 7.796C881.806 6.988 881.622 6.388 881.254 5.996C880.886 5.596 880.426 5.396 879.874 5.396C879.322 5.396 878.862 5.592 878.494 5.984C878.126 6.368 877.942 6.972 877.942 7.796ZM877.702 5.3C878.318 4.724 879.042 4.436 879.874 4.436C880.706 4.436 881.43 4.724 882.046 5.3C882.662 5.876 882.97 6.708 882.97 7.796C882.97 8.884 882.662 9.716 882.046 10.292C881.43 10.868 880.706 11.156 879.874 11.156C879.042 11.156 878.318 10.868 877.702 10.292C877.086 9.716 876.778 8.884 876.778 7.796C876.778 6.708 877.086 5.876 877.702 5.3ZM889.129 5.492H886.921V11H885.829V5.492H883.621V4.544H889.129V5.492ZM890.949 7.796C890.949 8.604 891.133 9.208 891.501 9.608C891.869 10 892.329 10.196 892.881 10.196C893.425 10.196 893.881 9.992 894.249 9.584C894.625 9.176 894.813 8.58 894.813 7.796C894.813 6.988 894.629 6.388 894.261 5.996C893.893 5.596 893.433 5.396 892.881 5.396C892.329 5.396 891.869 5.592 891.501 5.984C891.133 6.368 890.949 6.972 890.949 7.796ZM890.709 5.3C891.325 4.724 892.049 4.436 892.881 4.436C893.713 4.436 894.437 4.724 895.053 5.3C895.669 5.876 895.977 6.708 895.977 7.796C895.977 8.884 895.669 9.716 895.053 10.292C894.437 10.868 893.713 11.156 892.881 11.156C892.049 11.156 891.325 10.868 890.709 10.292C890.093 9.716 889.785 8.884 889.785 7.796C889.785 6.708 890.093 5.876 890.709 5.3ZM901.735 11L899.515 8.132H898.687V11H897.583V4.544H898.687V7.184H899.491L901.543 4.544H902.839L900.403 7.592L903.091 11H901.735Z" fill="black"/>
<circle cx="933" cy="7" r="4.5" stroke="#4F65BE"/>
<path d="M950.336 11L948.452 7.328C948.3 7.336 948.08 7.34 947.792 7.34H946.256V11H945.032V2.3H947.792C948.368 2.3 948.856 2.336 949.256 2.408C949.664 2.472 950.04 2.592 950.384 2.768C950.728 2.944 950.984 3.204 951.152 3.548C951.328 3.884 951.416 4.304 951.416 4.808C951.416 6.048 950.84 6.824 949.688 7.136L951.704 11H950.336ZM947.888 3.332H946.256V6.308H947.888C948.256 6.308 948.556 6.296 948.788 6.272C949.028 6.24 949.26 6.176 949.484 6.08C949.716 5.984 949.884 5.832 949.988 5.624C950.1 5.416 950.156 5.152 950.156 4.832C950.156 4.568 950.116 4.344 950.036 4.16C949.956 3.976 949.852 3.832 949.724 3.728C949.604 3.616 949.44 3.532 949.232 3.476C949.024 3.412 948.82 3.372 948.62 3.356C948.42 3.34 948.176 3.332 947.888 3.332ZM953.226 2.3H954.45V7.592C954.45 8.464 954.622 9.1 954.966 9.5C955.318 9.9 955.894 10.1 956.694 10.1C957.502 10.1 958.082 9.884 958.434 9.452C958.794 9.012 958.974 8.348 958.974 7.46V2.3H960.198V7.364C960.198 8.66 959.922 9.616 959.37 10.232C958.826 10.848 957.934 11.156 956.694 11.156C955.47 11.156 954.586 10.876 954.042 10.316C953.498 9.748 953.226 8.796 953.226 7.46V2.3ZM962.375 11V2.3H968.279V3.356H963.599V5.996H968.003V7.052H963.599V9.944H968.279V11H962.375ZM968.943 2.3H970.287L972.663 6.548L975.087 2.3H976.431L973.239 7.628V11H972.015V7.604L968.943 2.3ZM977.703 11V2.3H980.835C982.875 2.3 983.895 3.016 983.895 4.448C983.895 4.864 983.811 5.248 983.643 5.6C983.475 5.944 983.239 6.2 982.935 6.368C983.815 6.736 984.255 7.424 984.255 8.432C984.255 9.304 983.967 9.952 983.391 10.376C982.823 10.792 982.071 11 981.135 11H977.703ZM978.927 6.992V9.968H981.147C982.379 9.968 982.995 9.46 982.995 8.444C982.995 7.94 982.839 7.572 982.527 7.34C982.215 7.108 981.731 6.992 981.075 6.992H978.927ZM978.927 3.332V6.02H981.027C982.115 6.02 982.659 5.552 982.659 4.616C982.659 4.184 982.515 3.864 982.227 3.656C981.939 3.44 981.539 3.332 981.027 3.332H978.927ZM992.113 8.228H993.301C993.117 9.164 992.685 9.888 992.005 10.4C991.325 10.904 990.501 11.156 989.533 11.156C988.309 11.156 987.345 10.74 986.641 9.908C985.937 9.068 985.585 7.976 985.585 6.632C985.585 5.288 985.953 4.204 986.689 3.38C987.425 2.556 988.405 2.144 989.629 2.144C990.541 2.144 991.325 2.404 991.981 2.924C992.637 3.436 993.061 4.152 993.253 5.072H992.065C991.937 4.504 991.653 4.048 991.213 3.704C990.781 3.352 990.233 3.176 989.569 3.176C988.769 3.176 988.113 3.48 987.601 4.088C987.089 4.696 986.833 5.544 986.833 6.632C986.833 7.72 987.089 8.576 987.601 9.2C988.113 9.816 988.781 10.124 989.605 10.124C990.277 10.124 990.825 9.956 991.249 9.62C991.681 9.276 991.969 8.812 992.113 8.228ZM994.651 4.52C994.651 4 994.819 3.552 995.155 3.176C995.491 2.8 995.887 2.536 996.343 2.384C996.807 2.224 997.291 2.144 997.795 2.144C998.635 2.144 999.351 2.344 999.943 2.744C1000.54 3.136 1000.93 3.728 1001.1 4.52H999.907C999.771 4.056 999.499 3.716 999.091 3.5C998.683 3.284 998.235 3.176 997.747 3.176C997.315 3.176 996.899 3.28 996.499 3.488C996.099 3.696 995.899 4.016 995.899 4.448C995.899 5.128 996.371 5.572 997.315 5.78L998.323 6.008C998.635 6.072 998.907 6.14 999.139 6.212C999.379 6.284 999.639 6.388 999.919 6.524C1000.2 6.66 1000.43 6.812 1000.6 6.98C1000.79 7.148 1000.94 7.368 1001.06 7.64C1001.19 7.912 1001.25 8.216 1001.25 8.552C1001.25 9.36 1000.93 9.996 1000.28 10.46C999.639 10.924 998.859 11.156 997.939 11.156C996.923 11.156 996.099 10.9 995.467 10.388C994.843 9.876 994.475 9.18 994.363 8.3H995.563C995.795 9.516 996.595 10.124 997.963 10.124C998.603 10.124 999.099 9.992 999.451 9.728C999.811 9.456 999.991 9.1 999.991 8.66C999.991 8.228 999.831 7.9 999.511 7.676C999.191 7.452 998.727 7.268 998.119 7.124L997.039 6.896C996.351 6.744 995.779 6.476 995.323 6.092C994.875 5.708 994.651 5.184 994.651 4.52ZM1004.62 11V3.356H1001.79V2.3H1008.68V3.356H1005.85V11H1004.62ZM1015.26 11L1013.37 7.328C1013.22 7.336 1013 7.34 1012.71 7.34H1011.18V11H1009.95V2.3H1012.71C1013.29 2.3 1013.78 2.336 1014.18 2.408C1014.58 2.472 1014.96 2.592 1015.3 2.768C1015.65 2.944 1015.9 3.204 1016.07 3.548C1016.25 3.884 1016.34 4.304 1016.34 4.808C1016.34 6.048 1015.76 6.824 1014.61 7.136L1016.62 11H1015.26ZM1012.81 3.332H1011.18V6.308H1012.81C1013.18 6.308 1013.48 6.296 1013.71 6.272C1013.95 6.24 1014.18 6.176 1014.4 6.08C1014.64 5.984 1014.8 5.832 1014.91 5.624C1015.02 5.416 1015.08 5.152 1015.08 4.832C1015.08 4.568 1015.04 4.344 1014.96 4.16C1014.88 3.976 1014.77 3.832 1014.64 3.728C1014.52 3.616 1014.36 3.532 1014.15 3.476C1013.94 3.412 1013.74 3.372 1013.54 3.356C1013.34 3.34 1013.1 3.332 1012.81 3.332Z" fill="black"/>
<circle cx="1047" cy="7" r="4.5" stroke="#EA3D31"/>
<path d="M1060.26 2.3V11H1059.03V2.3H1060.26ZM1067.48 11H1066.19L1063.79 3.416V11H1062.56V2.3H1064.62L1066.84 9.548L1069.06 2.3H1071.11V11H1069.88V3.416L1067.48 11ZM1075.03 4.1C1074.5 4.708 1074.24 5.556 1074.24 6.644C1074.24 7.732 1074.5 8.584 1075.03 9.2C1075.57 9.816 1076.25 10.124 1077.07 10.124C1077.89 10.124 1078.57 9.816 1079.1 9.2C1079.63 8.584 1079.9 7.732 1079.9 6.644C1079.9 5.556 1079.63 4.708 1079.1 4.1C1078.57 3.484 1077.89 3.176 1077.07 3.176C1076.25 3.176 1075.57 3.484 1075.03 4.1ZM1080.03 3.404C1080.78 4.236 1081.15 5.316 1081.15 6.644C1081.15 7.972 1080.78 9.056 1080.03 9.896C1079.3 10.736 1078.31 11.156 1077.07 11.156C1075.83 11.156 1074.84 10.736 1074.09 9.896C1073.36 9.056 1072.99 7.972 1072.99 6.644C1072.99 5.316 1073.36 4.236 1074.09 3.404C1074.84 2.564 1075.83 2.144 1077.07 2.144C1078.31 2.144 1079.3 2.564 1080.03 3.404ZM1083.04 11V2.3H1088.94V3.356H1084.26V5.996H1088.67V7.052H1084.26V9.944H1088.94V11H1083.04ZM1089.6 11L1092.83 6.524L1089.82 2.3H1091.27L1093.56 5.516L1095.88 2.3H1097.26L1094.25 6.476L1097.48 11H1096.04L1093.52 7.484L1090.98 11H1089.6Z" fill="black"/>
<circle cx="1127" cy="7" r="4.5" stroke="#F7CB4A"/>
<path d="M1144.34 11L1142.45 7.328C1142.3 7.336 1142.08 7.34 1141.79 7.34H1140.26V11H1139.03V2.3H1141.79C1142.37 2.3 1142.86 2.336 1143.26 2.408C1143.66 2.472 1144.04 2.592 1144.38 2.768C1144.73 2.944 1144.98 3.204 1145.15 3.548C1145.33 3.884 1145.42 4.304 1145.42 4.808C1145.42 6.048 1144.84 6.824 1143.69 7.136L1145.7 11H1144.34ZM1141.89 3.332H1140.26V6.308H1141.89C1142.26 6.308 1142.56 6.296 1142.79 6.272C1143.03 6.24 1143.26 6.176 1143.48 6.08C1143.72 5.984 1143.88 5.832 1143.99 5.624C1144.1 5.416 1144.16 5.152 1144.16 4.832C1144.16 4.568 1144.12 4.344 1144.04 4.16C1143.96 3.976 1143.85 3.832 1143.72 3.728C1143.6 3.616 1143.44 3.532 1143.23 3.476C1143.02 3.412 1142.82 3.372 1142.62 3.356C1142.42 3.34 1142.18 3.332 1141.89 3.332ZM1150.92 2.144C1151.84 2.144 1152.62 2.384 1153.28 2.864C1153.93 3.344 1154.35 4 1154.52 4.832H1153.34C1153.18 4.32 1152.9 3.916 1152.48 3.62C1152.08 3.324 1151.54 3.176 1150.86 3.176C1150.06 3.176 1149.41 3.48 1148.9 4.088C1148.38 4.696 1148.13 5.544 1148.13 6.632C1148.13 7.712 1148.38 8.564 1148.88 9.188C1149.39 9.812 1150.05 10.124 1150.86 10.124C1151.18 10.124 1151.47 10.088 1151.75 10.016C1152.04 9.944 1152.31 9.828 1152.57 9.668C1152.83 9.5 1153.04 9.264 1153.19 8.96C1153.35 8.648 1153.43 8.276 1153.43 7.844V7.616H1151.13V6.56H1154.58V11H1153.62L1153.56 9.908C1153.04 10.74 1152.13 11.156 1150.82 11.156C1149.59 11.156 1148.63 10.74 1147.92 9.908C1147.23 9.068 1146.88 7.976 1146.88 6.632C1146.88 5.288 1147.25 4.204 1147.98 3.38C1148.72 2.556 1149.7 2.144 1150.92 2.144ZM1156.77 11V2.3H1159.91C1161.95 2.3 1162.97 3.016 1162.97 4.448C1162.97 4.864 1162.88 5.248 1162.71 5.6C1162.55 5.944 1162.31 6.2 1162.01 6.368C1162.89 6.736 1163.33 7.424 1163.33 8.432C1163.33 9.304 1163.04 9.952 1162.46 10.376C1161.89 10.792 1161.14 11 1160.21 11H1156.77ZM1158 6.992V9.968H1160.22C1161.45 9.968 1162.07 9.46 1162.07 8.444C1162.07 7.94 1161.91 7.572 1161.6 7.34C1161.29 7.108 1160.8 6.992 1160.15 6.992H1158ZM1158 3.332V6.02H1160.1C1161.19 6.02 1161.73 5.552 1161.73 4.616C1161.73 4.184 1161.59 3.864 1161.3 3.656C1161.01 3.44 1160.61 3.332 1160.1 3.332H1158ZM1166.3 2.3V11H1165.08V2.3H1166.3ZM1170.41 11V3.356H1167.58V2.3H1174.47V3.356H1171.63V11H1170.41ZM1181.04 11L1179.16 7.328C1179.01 7.336 1178.79 7.34 1178.5 7.34H1176.96V11H1175.74V2.3H1178.5C1179.08 2.3 1179.56 2.336 1179.96 2.408C1180.37 2.472 1180.75 2.592 1181.09 2.768C1181.44 2.944 1181.69 3.204 1181.86 3.548C1182.04 3.884 1182.12 4.304 1182.12 4.808C1182.12 6.048 1181.55 6.824 1180.4 7.136L1182.41 11H1181.04ZM1178.6 3.332H1176.96V6.308H1178.6C1178.96 6.308 1179.26 6.296 1179.5 6.272C1179.74 6.24 1179.97 6.176 1180.19 6.08C1180.42 5.984 1180.59 5.832 1180.7 5.624C1180.81 5.416 1180.86 5.152 1180.86 4.832C1180.86 4.568 1180.82 4.344 1180.74 4.16C1180.66 3.976 1180.56 3.832 1180.43 3.728C1180.31 3.616 1180.15 3.532 1179.94 3.476C1179.73 3.412 1179.53 3.372 1179.33 3.356C1179.13 3.34 1178.88 3.332 1178.6 3.332Z" fill="black"/>
</g>
<defs>
<clipPath id="clip0_2348_8820">
<rect width="1183" height="477" fill="white"/>
</clipPath>
</defs>
</svg>
