<svg width="767" height="746" viewBox="0 0 767 746" fill="none" xmlns="http://www.w3.org/2000/svg">
<mask id="mask0" mask-type="alpha" maskUnits="userSpaceOnUse" x="0" y="0" width="767" height="746">
<rect width="767" height="746" fill="#C4C4C4"/>
</mask>
<g mask="url(#mask0)">
<path d="M773.755 -235C787.814 -59.1784 766.723 408.367 494.561 419.413C154.359 433.221 17.4929 519.695 -4.99976 771" stroke="#4D556D" stroke-width="4"/>
<path d="M773.755 -217C787.814 -41.1784 766.723 426.367 494.561 437.413C154.359 451.221 17.4929 537.695 -4.99976 789" stroke="#4D556D" stroke-width="3"/>
<path d="M773.755 -198C787.814 -22.1784 766.723 445.367 494.561 456.413C154.359 470.221 17.4929 556.695 -4.99976 808" stroke="#4D556D" stroke-width="2"/>
<path d="M773.755 -180C787.814 -4.17844 766.723 463.367 494.561 474.413C154.359 488.221 17.4929 574.695 -4.99976 826" stroke="#4D556D"/>
</g>
</svg>
