<svg width="44" height="44" viewBox="0 0 44 44" fill="none" xmlns="http://www.w3.org/2000/svg">
<path d="M26.0938 11H16.9147C12.5851 11 11 12.5765 11 16.9062V26.0853C11 30.4149 12.5851 32 16.9147 32H26.0938C30.4149 32 32 30.4149 32 26.0853V16.9062C32 12.5765 30.4235 11 26.0938 11Z" fill="#10273D"/>
<path fill-rule="evenodd" clip-rule="evenodd" d="M19.962 23.672L19.7078 24.2375H19.1423L20.3475 21.4957H20.8359L22.0411 24.2375H21.4585L21.2129 23.672H19.962ZM20.1619 23.175H21.0044L20.5817 22.1954L20.1619 23.175ZM29.1068 21.4957H29.6637V24.2375H29.1068V21.4957ZM26.922 23.7405H28.4499V24.2375H26.3736V21.4957H28.39V22.0012H26.922V22.5582H27.9359V23.0637H26.922V23.7405ZM25.3426 21.4957H25.9253L24.9714 24.246H24.5001L23.8747 22.4411L23.2492 24.246H22.7923L21.8298 21.4957H22.4295L23.0379 23.3864L23.6548 21.4957H24.1117L24.7372 23.3864L25.3426 21.4957ZM18.2998 21.4957H18.8567V23.0494C18.8567 23.8348 18.4255 24.2889 17.6658 24.2889C16.9232 24.2889 16.492 23.8405 16.492 23.0665V21.4986H17.0489V23.0522C17.0489 23.5149 17.2688 23.7605 17.6743 23.7605C18.0799 23.7605 18.2998 23.5149 18.2998 23.0694V21.4957ZM15.1611 21.4957H15.718V24.246H15.1611V23.1236H13.9045V24.246H13.3475V21.4957H13.9045V22.601H15.1611V21.4957ZM21.5042 18.0029C19.5707 18.0029 18.0113 16.4349 18.0113 14.51H18.4997C18.4997 16.1636 19.8506 17.5059 21.5042 17.5059C23.1578 17.5059 24.5087 16.1636 24.5087 14.51H24.9971C24.9971 16.4321 23.4291 18.0029 21.5042 18.0029Z" fill="#F5F5F5"/>
</svg>
