<svg width="44" height="44" viewBox="0 0 44 44" fill="none" xmlns="http://www.w3.org/2000/svg">
<path fill-rule="evenodd" clip-rule="evenodd" d="M21.56 33C16.5819 33 14.0929 33 12.5464 31.4535C11 29.9071 11 27.418 11 22.44V21.56C11 16.5819 11 14.0929 12.5464 12.5464C14.0929 11 16.5819 11 21.56 11H22.44C27.4181 11 29.9071 11 31.4536 12.5464C33 14.0929 33 16.5819 33 21.56V22.44C33 27.418 33 29.9071 31.4536 31.4535C29.9071 33 27.4181 33 22.44 33H21.56ZM26.498 25.2514L27.9845 25.6227C28.6577 25.7909 29.3104 25.2843 29.3104 24.5936V17.4291C29.3104 16.821 28.8948 16.2907 28.3021 16.1427L24.0385 15.0776C23.3653 14.9095 22.7126 15.4161 22.7126 16.1068V17.3983L20.0263 16.7272C19.353 16.5591 18.7003 17.0657 18.7003 17.7564V19.0479L16.0138 18.3769C15.3406 18.2086 14.6879 18.7152 14.6879 19.406V26.5704C14.6879 27.1785 15.1035 27.7088 15.6963 27.8568L19.9598 28.9219C20.633 29.0901 21.2858 28.5835 21.2858 27.8927V26.7016L21.2849 26.7014L21.286 20.7388C21.286 20.1344 20.9043 19.7839 20.7655 19.6766C20.7391 19.656 20.7318 19.6179 20.7507 19.5903C20.7694 19.5632 20.8031 19.5504 20.8346 19.5599C21.3963 19.7295 21.9339 20.3054 21.9875 21.0296L22.173 26.5011C22.1791 26.6808 22.2954 26.8367 22.4627 26.8952L23.9722 27.2723C24.6454 27.4405 25.2981 26.934 25.2981 26.2432L25.2992 19.0899C25.2992 18.4855 24.9175 18.1351 24.7787 18.0277C24.7523 18.0072 24.745 17.969 24.7639 17.9415C24.7826 17.9144 24.8163 17.9015 24.8478 17.911C25.4095 18.0806 25.9471 18.6565 26.0007 19.3807L26.1863 24.8518C26.1926 25.039 26.319 25.2001 26.498 25.2514Z" fill="#10273D"/>
</svg>
