<svg width="140" height="48" viewBox="0 0 140 48" fill="none" xmlns="http://www.w3.org/2000/svg">
<path d="M4.32062 31.3621L0.0634766 15.6954H2.85395L6.12062 27.724L9.61586 15.6954H12.2159L15.7301 27.7907L19.0063 15.6954H21.7968L17.5397 31.3526H14.3111L10.9206 19.6573L7.52062 31.3526H4.32062V31.3621ZM23.7111 15.7049H26.3682V31.3526H23.7111V15.7049ZM32.0444 28.8954H38.5016V31.3526H29.4444V15.7049H32.0444V28.8954ZM46.6635 15.724C48.8349 15.724 50.6444 16.4859 52.073 17.9811C52.7869 18.7155 53.3474 19.5847 53.7219 20.538C54.0963 21.4913 54.2772 22.5096 54.254 23.5335C54.254 25.724 53.5206 27.5811 52.073 29.0954C51.3808 29.8309 50.5412 30.4121 49.609 30.8011C48.6769 31.19 47.6732 31.3779 46.6635 31.3526H40.4159V15.7049H46.6635V15.724ZM46.6635 28.9145C47.3444 28.9415 48.0229 28.8191 48.6514 28.5558C49.2799 28.2926 49.8432 27.8949 50.3016 27.3907C51.254 26.3907 51.7301 25.0859 51.7301 23.5526C51.7301 21.9811 51.254 20.724 50.3016 19.7049C49.8391 19.2065 49.2749 18.8133 48.6472 18.5521C48.0195 18.2908 47.343 18.1676 46.6635 18.1907H43.0444V28.9145H46.6635ZM68.2444 26.8764C68.2444 28.1621 67.7873 29.2288 66.854 30.0764C65.9357 30.9251 64.723 31.3828 63.473 31.3526H56.6825V15.7049H62.9778C64.2825 15.7049 65.3778 16.1335 66.273 16.943C66.7116 17.3283 67.06 17.8052 67.2937 18.3401C67.5275 18.875 67.6407 19.4548 67.6254 20.0383C67.647 20.6625 67.5109 21.2821 67.2295 21.8398C66.9482 22.3975 66.5308 22.8752 66.0159 23.2288C66.695 23.5628 67.2651 24.0831 67.6597 24.729C68.0543 25.3749 68.2571 26.1196 68.2444 26.8764V26.8764ZM59.3016 18.1145V22.2383H62.9968C64.1492 22.2383 65.0254 21.3335 65.0254 20.1811C65.0254 19.0288 64.1492 18.124 62.9968 18.124H59.3016V18.1145ZM63.492 28.9335C64.7016 28.9335 65.654 27.9811 65.654 26.7526C65.654 25.524 64.7016 24.5621 63.492 24.5621H59.3016V28.9526H63.492V28.9335V28.9335ZM73.3206 28.9049H80.3397V31.3526H70.7206V15.7049H80.2349V18.1621H73.3206V22.2192H79.6635V24.6573H73.3301V28.9049H73.3206ZM91.7206 31.3526L88.3587 25.6478H85.2825V31.3621H82.6825V15.6954H89.0349C90.4635 15.6954 91.673 16.1811 92.6349 17.1716C93.2278 17.7434 93.6669 18.4556 93.9114 19.2422C94.1559 20.0288 94.198 20.8644 94.0337 21.6716C93.8694 22.4788 93.5041 23.2315 92.9716 23.8599C92.4391 24.4884 91.7566 24.9723 90.9873 25.2669L94.5968 31.343H91.7111L91.7206 31.3526ZM85.2825 18.1145V23.3526H89.0159C89.351 23.3464 89.6816 23.2738 89.9885 23.139C90.2954 23.0041 90.5725 22.8097 90.8037 22.567C91.0349 22.3242 91.2157 22.038 91.3355 21.7249C91.4552 21.4119 91.5117 21.0781 91.5016 20.743C91.517 20.0668 91.2642 19.4118 90.7986 18.9212C90.3329 18.4305 89.692 18.1439 89.0159 18.124H85.2825V18.1145ZM105.616 31.3526L102.263 25.6478H99.1873V31.3621H96.5873V15.6859H102.94C104.368 15.6859 105.578 16.1716 106.54 17.1716C107.13 17.7446 107.567 18.4569 107.81 19.243C108.053 20.0291 108.095 20.8637 107.93 21.67C107.766 22.4762 107.402 23.2283 106.871 23.8568C106.34 24.4854 105.66 24.9703 104.892 25.2669L108.502 31.343H105.606L105.616 31.3526ZM99.1873 18.1145V23.3526H102.921C103.257 23.3464 103.588 23.2735 103.896 23.1381C104.203 23.0026 104.481 22.8074 104.712 22.5636C104.943 22.3199 105.124 22.0325 105.243 21.7183C105.362 21.4041 105.418 21.0694 105.406 20.7335C105.422 20.0588 105.17 19.4053 104.707 18.9149C104.243 18.4245 103.605 18.1369 102.93 18.1145H99.1873ZM110.406 15.6954H113.006V31.3526H110.406V15.6954ZM118.673 28.9049H125.711V31.3526H116.092V15.7049H125.597V18.1621H118.683V22.2192H125.035V24.6573H118.683V28.9049H118.673ZM127.521 27.7907L129.759 26.4954C130.406 28.2669 131.702 29.1335 133.692 29.1335C135.673 29.1335 136.644 28.2954 136.644 27.0764C136.644 26.4192 136.359 25.9526 135.854 25.6288C134.968 25.1315 134.02 24.7536 133.035 24.5049C131.511 24.0573 130.768 23.7716 129.702 23.0764C129.201 22.7255 128.798 22.2527 128.532 21.7027C128.265 21.1527 128.143 20.5438 128.178 19.9335C128.178 18.5335 128.663 17.4573 129.673 16.6383C130.686 15.8099 131.965 15.3768 133.273 15.4192C134.43 15.3845 135.571 15.6923 136.554 16.304C137.537 16.9156 138.317 17.8039 138.797 18.8573L136.606 20.1049C136.349 19.4378 135.889 18.8679 135.291 18.4751C134.693 18.0823 133.988 17.8863 133.273 17.9145C131.749 17.9145 130.787 18.6764 130.787 19.8764C130.787 21.0192 131.549 21.5716 133.987 22.3049C134.597 22.5049 135.035 22.6478 135.302 22.7621C135.597 22.8573 135.987 23.0097 136.473 23.2097C136.987 23.4002 137.387 23.6478 137.625 23.8383C138.473 24.4954 139.368 25.5526 139.263 27.0573C139.287 27.7026 139.158 28.3445 138.887 28.9304C138.615 29.5163 138.209 30.0297 137.702 30.4288C136.534 31.2986 135.099 31.7331 133.644 31.6573C130.568 31.6383 128.33 30.1907 127.511 27.7907H127.521Z" fill="#10273D"/>
</svg>
