<svg width="117" height="48" viewBox="0 0 117 48" fill="none" xmlns="http://www.w3.org/2000/svg">
<g clip-path="url(#clip0_2890_7449)">
<mask id="mask0_2890_7449" style="mask-type:alpha" maskUnits="userSpaceOnUse" x="0" y="-11" width="134" height="56">
<path d="M0 44.5012H133.492V-10.1441H0V44.5012V44.5012Z" fill="white"/>
</mask>
<g mask="url(#mask0_2890_7449)">
<path d="M13.1634 3.501C15.9535 3.501 16.8302 5.50224 17.5658 7.50035C17.8748 8.34884 25.1254 28.2045 25.3434 28.8005C25.4014 28.9667 25.3622 29.2396 25.1066 29.3384C24.8493 29.4357 21.0821 30.9005 20.8735 30.9789C20.6649 31.0589 20.4312 30.9429 20.3559 30.7343C20.2775 30.5288 18.7139 26.2001 18.5382 25.717H7.79169C7.6223 26.2001 6.03981 30.5382 5.96924 30.7343C5.89709 30.9334 5.67281 31.0683 5.4501 30.9789C5.22739 30.8911 1.44604 29.4262 1.2202 29.3384C1.00376 29.2537 0.904952 29.0075 0.980234 28.8005C1.24686 28.057 8.38767 8.5198 8.75153 7.50035C9.46044 5.53204 10.367 3.501 13.1634 3.501ZM0.406209 39.0294C0.180363 39.0294 0 39.2176 0 39.4466V44.0874C0 44.3164 0.180363 44.5015 0.406209 44.5015H25.9096C26.1401 44.5015 26.3205 44.3164 26.3205 44.0874V39.4466C26.3205 39.2176 26.1401 39.0294 25.9096 39.0294H0.406209ZM13.1383 9.98466L9.50592 20.8927H16.8302L13.1853 9.98466H13.1383V9.98466ZM67.644 27.8704C67.1092 28.0508 66.7563 28.0947 66.336 28.0947C65.4671 28.0947 64.9856 27.7512 64.9856 26.8604C64.9856 25.9319 65.5973 25.6214 66.7987 25.6214C67.092 25.6214 67.3805 25.6637 67.5154 25.7108V26.3758C67.5154 27.0925 67.5546 27.563 67.644 27.8704M70.7322 28.9338C70.0907 27.9598 69.9229 27.3858 69.9229 26.1577V23.664C69.9229 22.3215 69.766 21.8369 69.4116 21.3475C68.9175 20.6543 68.0941 20.3532 66.5807 20.3532C65.5095 20.3532 64.4696 20.4692 63.4627 20.7265L63.8266 22.4987C64.5073 22.4031 65.2209 22.3215 65.7243 22.3215C67.3319 22.3215 67.5154 22.5536 67.5154 23.7597V24.2098C67.1578 24.1142 66.7563 24.0451 66.2905 24.0451C63.8705 24.0451 62.5923 25.2293 62.5923 27.1897C62.5923 29.0279 63.9584 30.0301 65.6224 30.0301C66.2435 30.0301 66.8928 29.9156 67.4072 29.7054C67.7177 29.5705 67.8526 29.4905 68.2541 29.2302C68.4957 29.5815 68.9803 29.9407 69.1779 30.0081L70.7322 28.9338V28.9338ZM94.6703 27.8704C94.1323 28.0508 93.7857 28.0947 93.3622 28.0947C92.4902 28.0947 92.0025 27.7512 92.0025 26.8604C92.0025 25.9319 92.622 25.6214 93.8265 25.6214C94.1198 25.6214 94.4099 25.6637 94.5417 25.7108V26.3758C94.5417 27.0925 94.5793 27.563 94.6703 27.8704M97.7615 28.9338C97.1154 27.9598 96.9507 27.3858 96.9507 26.1577V23.664C96.9507 22.3215 96.7907 21.8369 96.4331 21.3475C95.9454 20.6543 95.1204 20.3532 93.6022 20.3532C92.5326 20.3532 91.4865 20.4692 90.4796 20.7265L90.8387 22.4987C91.521 22.4031 92.2362 22.3215 92.7537 22.3215C94.3519 22.3215 94.5417 22.5536 94.5417 23.7597V24.2098C94.1841 24.1142 93.7857 24.0451 93.3105 24.0451C90.8874 24.0451 89.6044 25.2293 89.6044 27.1897C89.6044 29.0279 90.9736 30.0301 92.6455 30.0301C93.2744 30.0301 93.9175 29.9156 94.4272 29.7054C94.7424 29.5705 94.8726 29.4905 95.2741 29.2302C95.5188 29.5815 96.0034 29.9407 96.2026 30.0081L97.7615 28.9338V28.9338ZM116.604 29.8215C116.604 29.8215 115.277 26.9937 114.953 26.3507C114.587 25.6261 114.248 25.1258 113.502 24.9454V24.9046C114.002 24.8089 114.4 24.5062 114.836 23.5809C115.249 22.6791 115.371 22.4846 115.614 22.2697C115.853 22.0564 116.179 22.1333 116.179 22.1333L116.301 20.4661C115.955 20.4191 115.57 20.4175 115.174 20.4395C114.515 20.4787 114.175 20.6684 113.85 20.9947C113.596 21.244 113.423 21.6173 113.21 22.0455C112.984 22.5128 112.805 22.8893 112.57 23.3645C112.336 23.8522 112.227 24.0718 111.598 24.0718H111.188V16.6863H108.765V29.8215H111.188V26.0448L111.519 26.0385C112.214 26.0385 112.336 26.2126 112.703 26.9451C113.133 27.8187 113.957 29.8215 113.957 29.8215H116.604V29.8215ZM48.342 29.8215H51.1384L46.9085 16.9059C46.4631 16.7569 45.9126 16.6644 45.3245 16.6644C44.683 16.6644 44.454 16.7491 43.9522 16.9059L39.476 29.8215H42.1595C42.1595 29.8215 42.5218 28.6891 42.9484 27.2854H47.5845C47.9986 28.6875 48.342 29.8215 48.342 29.8215ZM43.6291 25.1195C43.6291 25.1195 44.4038 22.527 44.5246 22.1239C44.832 21.0793 45.2994 19.42 45.2994 19.42H45.3762C45.3762 19.42 45.8091 21.1389 46.0914 22.1051C46.1981 22.4893 46.9383 25.1195 46.9383 25.1195H43.6291ZM74.8601 23.6421C74.0054 23.6421 73.3106 24.34 73.3106 25.1948C73.3106 26.0558 74.0054 26.749 74.8601 26.749C75.7165 26.749 76.4081 26.0558 76.4081 25.1948C76.4081 24.34 75.7165 23.6421 74.8601 23.6421ZM54.4587 16.6863H52.0293V29.8199H54.4587V16.6863V16.6863ZM102.725 22.4407C104.068 22.4689 104.234 22.7465 104.234 23.8726V29.8215H106.642V23.664C106.642 22.3215 106.485 21.8369 106.127 21.3475C105.633 20.6543 104.662 20.3532 103.02 20.3532C101.395 20.3532 100.36 20.5257 99.0288 20.9225V29.8215H101.461V22.5536C102.1 22.4611 102.213 22.4407 102.725 22.4407M60.4671 16.4526C58.949 16.4526 58.1224 16.7538 57.6362 17.4454C57.2786 17.9363 57.1202 18.4319 57.1202 19.7776V20.9225H55.9142V22.8861H57.1202V29.8215H59.5293L59.523 22.8861H61.9242V20.9225H59.523L59.5293 19.8701C59.5293 18.6656 59.7128 18.4319 61.3219 18.4319C61.496 18.4319 61.692 18.4413 61.9006 18.457L62.2802 16.5703C61.6858 16.4918 61.0772 16.4526 60.4671 16.4526M79.7958 16.575C80.6223 16.5264 82.4699 16.4573 83.6289 16.4573C83.8406 16.4573 84.0602 16.4589 84.2798 16.4699C86.5586 16.4699 87.8651 18.1292 87.8651 20.0772C87.8651 21.4024 87.2581 22.2823 85.8356 22.8061C87.5091 23.1763 88.3858 24.4827 88.3858 26.0809C88.3858 27.254 88.0549 28.1857 87.4479 28.8208C86.6606 29.5956 85.4686 30.0301 83.8814 30.0301C82.4699 30.0301 80.6976 29.9862 79.7958 29.9328V16.575V16.575ZM83.6289 18.7268C83.2274 18.7268 82.7302 18.7346 82.2378 18.7519V21.9059H83.6305C84.1825 21.9059 84.6264 21.7522 84.9291 21.4558C85.2177 21.1766 85.3682 20.7814 85.3682 20.3124C85.3682 19.3039 84.8224 18.7331 83.8077 18.7268H83.6289V18.7268ZM83.6791 27.7653H83.7842C85.0499 27.7653 85.8246 27.0925 85.834 25.7374C85.8215 25.2512 85.6349 24.8027 85.3008 24.478C84.9354 24.111 84.4178 23.9197 83.8108 23.9197H82.2378V27.7512C82.6816 27.7606 83.1709 27.7622 83.6791 27.7653" fill="#10273D"/>
</g>
</g>
<defs>
<clipPath id="clip0_2890_7449">
<rect width="116.604" height="41" fill="white" transform="translate(0 3.5)"/>
</clipPath>
</defs>
</svg>
