<svg width="100" height="48" viewBox="0 0 100 48" fill="none" xmlns="http://www.w3.org/2000/svg">
<g clip-path="url(#clip0_2890_7402)">
<path fill-rule="evenodd" clip-rule="evenodd" d="M12.4557 13.2247C10.23 12.9903 7.98638 13.4509 6.03314 14.5434C4.0799 15.6358 2.51296 17.3064 1.54769 19.3255C0.582424 21.3446 0.266216 23.6131 0.642531 25.8192C1.01885 28.0253 2.06921 30.0607 3.64925 31.6457C5.22929 33.2306 7.26144 34.2873 9.46638 34.6704C11.6713 35.0535 13.9408 34.7443 15.9629 33.7853C17.985 32.8263 19.6604 31.2645 20.7589 29.3147C21.8573 27.3648 22.3249 25.1226 22.0974 22.8962C21.8469 20.4215 20.7514 18.1086 18.9953 16.347C17.2392 14.5854 14.9297 13.4828 12.4557 13.2247V13.2247ZM12.1047 29.7303C10.9076 29.8909 9.69038 29.6724 8.62397 29.1054C7.55756 28.5385 6.69561 27.6516 6.15925 26.5695C5.6229 25.4874 5.43911 24.2644 5.63372 23.0724C5.82833 21.8805 6.39154 20.7794 7.24422 19.9241C8.09689 19.0688 9.19615 18.5021 10.3875 18.3038C11.5789 18.1054 12.8024 18.2854 13.8862 18.8183C14.97 19.3513 15.8596 20.2105 16.4298 21.2751C17.0001 22.3397 17.2225 23.5563 17.0656 24.7538C16.901 26.0134 16.3258 27.1836 15.429 28.0833C14.5321 28.9829 13.3637 29.5618 12.1047 29.7303V29.7303ZM27.8913 13.6533C27.5156 13.6542 27.1448 13.7388 26.8059 13.901C26.467 14.0633 26.1686 14.299 25.9323 14.5911C25.696 14.8832 25.5278 15.2243 25.4399 15.5896C25.352 15.9549 25.3467 16.3352 25.4243 16.7028C25.662 17.8938 26.7744 18.7075 27.9862 18.7075H35.0185L24.0746 33.1902C23.9937 33.2972 23.9441 33.4245 23.9315 33.558C23.9189 33.6915 23.9437 33.8259 24.0032 33.9461C24.0626 34.0663 24.1544 34.1675 24.2682 34.2385C24.382 34.3095 24.5133 34.3473 24.6474 34.3478H41.8139C43.0249 34.3478 44.1381 33.5343 44.3758 32.3432C44.4534 31.9756 44.4482 31.5954 44.3604 31.2301C44.2726 30.8649 44.1044 30.5238 43.8683 30.2317C43.6321 29.9395 43.3338 29.7037 42.995 29.5414C42.6562 29.3791 42.2855 29.2943 41.9099 29.2932H33.3415L44.277 14.8217C44.3588 14.7137 44.4088 14.5851 44.4215 14.4503C44.4342 14.3155 44.4091 14.1799 44.349 14.0585C44.2889 13.9372 44.1962 13.835 44.0813 13.7634C43.9663 13.6918 43.8337 13.6537 43.6983 13.6533H27.8913V13.6533ZM96.4877 13.7116C95.9194 13.8467 95.4142 14.1718 95.0557 14.633C94.6971 15.0942 94.5068 15.664 94.516 16.2481V24.6632L80.8803 13.8122C80.7734 13.7273 80.6447 13.6744 80.509 13.6594C80.3733 13.6444 80.2361 13.6681 80.1132 13.7276C79.9904 13.7871 79.8868 13.8802 79.8145 13.9959C79.7421 14.1117 79.7039 14.2456 79.7043 14.3821V31.7575C79.695 32.3416 79.8854 32.9114 80.2439 33.3727C80.6025 33.8339 81.1077 34.1589 81.6761 34.294C82.0451 34.3752 82.4277 34.3726 82.7956 34.2862C83.1634 34.1998 83.5072 34.032 83.8016 33.795C84.096 33.558 84.3334 33.258 84.4963 32.917C84.6592 32.5761 84.7435 32.2029 84.743 31.825V23.3371L98.3789 34.1883C98.4858 34.2731 98.6144 34.3261 98.7501 34.341C98.8857 34.356 99.0229 34.3323 99.1457 34.2728C99.2685 34.2133 99.372 34.1203 99.4443 34.0046C99.5166 33.8889 99.5548 33.7551 99.5545 33.6186V16.1798C99.5549 15.802 99.4705 15.4289 99.3075 15.0881C99.1445 14.7472 98.9071 14.4473 98.6128 14.2105C98.3185 13.9736 97.9748 13.8058 97.607 13.7194C97.2392 13.6331 96.8567 13.6304 96.4877 13.7116V13.7116ZM60.9841 18.2237C66.7517 18.2237 71.0611 21.2716 71.0611 23.998C71.0611 26.7244 66.7517 29.7723 60.9841 29.7723C55.2166 29.7723 50.9072 26.7244 50.9072 23.998C50.9072 21.2716 55.2166 18.2237 60.9841 18.2237M60.9841 13.1697C52.6359 13.1697 45.8685 18.0177 45.8685 23.998C45.8685 29.9783 52.6359 34.8263 60.9841 34.8263C69.3324 34.8263 76.0996 29.9783 76.0996 23.998C76.0996 18.0177 69.3322 13.1697 60.9841 13.1697V13.1697Z" fill="#10273D"/>
</g>
<defs>
<clipPath id="clip0_2890_7402">
<rect width="99" height="21.6705" fill="white" transform="translate(0.554688 13.1648)"/>
</clipPath>
</defs>
</svg>
