<svg width="1920" height="685" viewBox="0 0 1920 685" fill="none" xmlns="http://www.w3.org/2000/svg">
<path d="M-352 654.5C450.5 120.5 119.32 108.18 84.5 202C49.6799 295.82 295.708 549.866 666.621 603.611C1037.53 657.355 1104.34 435.184 913.589 438.147C722.834 441.109 817.751 657.355 1194.19 588.799C1570.64 520.244 1133.37 240.098 1720.38 240.098C2189.99 240.098 2215.85 80.6992 2170.09 1" stroke="black" stroke-width="4"/>
<path d="M-369 664.5C433.5 130.5 102.32 118.18 67.5 212C32.6799 305.82 278.708 559.866 649.621 613.611C1020.53 667.355 1087.34 445.184 896.589 448.147C705.834 451.109 800.751 667.355 1177.19 598.799C1553.64 530.244 1116.37 250.098 1703.38 250.098C2172.99 250.098 2198.85 90.6992 2153.09 11" stroke="black" stroke-width="3"/>
<path d="M-386 674.5C416.5 140.5 85.3201 128.18 50.5 222C15.6799 315.82 261.708 569.866 632.621 623.611C1003.53 677.355 1070.34 455.184 879.589 458.147C688.834 461.109 783.751 677.355 1160.19 608.799C1536.64 540.244 1099.37 260.098 1686.38 260.098C2155.99 260.098 2181.85 100.699 2136.09 21" stroke="black" stroke-width="2"/>
<path d="M-403 684.5C399.5 150.5 68.3201 138.18 33.5 232C-1.32007 325.82 244.708 579.866 615.621 633.611C986.534 687.355 1053.34 465.184 862.589 468.147C671.834 471.109 766.751 687.355 1143.19 618.799C1519.64 550.244 1082.37 270.098 1669.38 270.098C2138.99 270.098 2164.85 110.699 2119.09 31" stroke="black"/>
</svg>
