<svg width="32" height="32" viewBox="0 0 32 32" fill="none" xmlns="http://www.w3.org/2000/svg">
<g clip-path="url(#clip0_1_11266)">
<path d="M16 32C24.8367 32 32 24.8367 32 16C32 7.16333 24.8367 0 16 0C7.16333 0 0 7.16333 0 16C0 24.8367 7.16333 32 16 32Z" fill="#10273D"/>
<path d="M9.98731 8.7793V13.6917C10.7352 12.8 11.6318 12.3511 12.6716 12.3511C13.2071 12.3511 13.6867 12.4534 14.1169 12.6562C14.5484 12.8578 14.8709 13.1165 15.0887 13.4306C15.3077 13.7477 15.4557 14.0949 15.5358 14.4776C15.6152 14.8585 15.6549 15.4512 15.6549 16.2551V21.5075H13.3311V16.7768C13.3311 15.8381 13.289 15.2436 13.2005 14.9909C13.1176 14.7433 12.9532 14.5312 12.7342 14.3891C12.5103 14.2381 12.2317 14.1635 11.8954 14.1635C11.5103 14.1635 11.1649 14.2598 10.8646 14.4511C10.5577 14.6437 10.3375 14.9313 10.1979 15.3158C10.0559 15.7009 9.9849 16.2695 9.98731 17.0223L9.9849 21.5075H7.66406V8.7793H9.98791M19.1377 8.7793V13.6917C19.8862 12.8 20.7822 12.3511 21.8214 12.3511C22.3551 12.3511 22.8383 12.4534 23.2691 12.6562C23.6987 12.8578 24.0212 13.1165 24.2379 13.4306C24.4565 13.7456 24.6086 14.1018 24.6849 14.4776C24.765 14.8585 24.8047 15.4512 24.8047 16.2551V21.5075H22.4832V16.7768C22.4832 15.8381 22.4393 15.2436 22.3509 14.9909C22.268 14.743 22.1031 14.5307 21.8833 14.3891C21.6619 14.2381 21.3809 14.1635 21.0445 14.1635C20.66 14.1635 20.3146 14.2598 20.0138 14.4511C19.7111 14.6437 19.4897 14.9313 19.3483 15.3158C19.2087 15.7009 19.1377 16.2695 19.1377 17.0223V21.5075H16.8168V8.7793H19.1377Z" fill="white"/>
</g>
<defs>
<clipPath id="clip0_1_11266">
<rect width="32" height="32" fill="white"/>
</clipPath>
</defs>
</svg>
