<svg width="32" height="32" viewBox="0 0 32 32" fill="none" xmlns="http://www.w3.org/2000/svg">
<circle cx="16" cy="16" r="16" fill="#10273D"/>
<g clip-path="url(#clip0_1_11262)">
<path d="M22.9914 12.136C23.0984 11.781 22.9914 11.52 22.4834 11.52H20.8034C20.3764 11.52 20.1794 11.745 20.0724 11.994C20.0724 11.994 19.2174 14.07 18.0064 15.418C17.6164 15.808 17.4364 15.932 17.2234 15.932C17.1164 15.932 16.9564 15.808 16.9564 15.453V12.136C16.9564 11.71 16.8384 11.52 16.4814 11.52H13.8414C13.5744 11.52 13.4144 11.717 13.4144 11.905C13.4144 12.309 14.0194 12.401 14.0814 13.537V16.003C14.0814 16.543 13.9844 16.641 13.7704 16.641C13.2004 16.641 11.8154 14.556 10.9934 12.17C10.8314 11.707 10.6704 11.52 10.2404 11.52H8.56038C8.08038 11.52 7.98438 11.745 7.98438 11.994C7.98438 12.437 8.55437 14.637 10.6364 17.546C12.0254 19.534 13.9814 20.611 15.7624 20.611C16.8304 20.611 16.9624 20.371 16.9624 19.959V18.458C16.9624 17.98 17.0634 17.884 17.4024 17.884C17.6514 17.884 18.0784 18.008 19.0754 18.966C20.2144 20.102 20.4024 20.611 21.0434 20.611H22.7234C23.2034 20.611 23.4434 20.372 23.3054 19.901C23.1544 19.43 22.6094 18.747 21.8884 17.938C21.4974 17.477 20.9084 16.98 20.7314 16.732C20.4814 16.412 20.5534 16.27 20.7314 15.986C20.7314 15.986 22.7784 13.111 22.9914 12.136Z" fill="white"/>
</g>
<defs>
<clipPath id="clip0_1_11262">
<rect width="16" height="16" fill="white" transform="translate(7.66406 8)"/>
</clipPath>
</defs>
</svg>
