<svg width="34" height="60" viewBox="0 0 34 60" fill="none" xmlns="http://www.w3.org/2000/svg">
<path d="M4.00195 26.6445L13.7078 26.6445M30.4725 26.6445L23.6343 26.6445M20.3255 26.6445L18.1196 26.6445" stroke="#424242" stroke-width="1.76471" stroke-linecap="round" stroke-linejoin="round"/>
<rect x="30.4707" y="4" width="18.6445" height="26.4706" transform="rotate(90 30.4707 4)" stroke="#424242" stroke-width="1.76471" stroke-linecap="round" stroke-linejoin="round"/>
<path d="M4.00195 4L6.64901 5.55371M30.4725 4L18.1196 12.2864L15.4725 10.7327M9.29607 7.10742L12.8255 9.17903" stroke="#424242" stroke-width="1.76471" stroke-linecap="round" stroke-linejoin="round"/>
<circle cx="9.29791" cy="18.1177" r="1.76471" fill="#424242"/>
<path d="M4.00195 56.6445L13.7078 56.6445M30.4725 56.6445L23.6343 56.6445M20.3255 56.6445L18.1196 56.6445" stroke="#D03620" stroke-width="1.76471" stroke-linecap="round" stroke-linejoin="round"/>
<rect x="30.4707" y="34" width="18.6445" height="26.4706" transform="rotate(90 30.4707 34)" stroke="#D03620" stroke-width="1.76471" stroke-linecap="round" stroke-linejoin="round"/>
<path d="M4.00195 34L6.64901 35.5537M30.4725 34L18.1196 42.2864L15.4725 40.7327M9.29607 37.1074L12.8255 39.179" stroke="#D03620" stroke-width="1.76471" stroke-linecap="round" stroke-linejoin="round"/>
<circle cx="9.29791" cy="48.1177" r="0.882353" stroke="#D03620" stroke-width="1.76471"/>
</svg>
