<svg width="68" height="18" viewBox="0 0 68 18" fill="none" xmlns="http://www.w3.org/2000/svg">
<path d="M45.0699 9.15039C45.0699 10.6219 43.8786 11.8132 42.4071 11.8132V9.15039H45.0699Z" fill="#FF3D00"/>
<path d="M39.7429 9.15104C39.7429 7.67952 40.9342 6.48828 42.4057 6.48828V9.15104H39.7429Z" fill="#F8F8F8"/>
<path d="M42.4071 6.48047C43.8786 6.48047 45.0699 7.6717 45.0699 9.14323H42.4071V6.48047Z" fill="#3848D8"/>
<path d="M42.4064 11.8132C40.9349 11.8132 39.7437 10.6219 39.7437 9.15039H42.4064V11.8132Z" fill="#FFDB73"/>
<path d="M12.8365 9.19152C12.8365 7.73168 13.4438 6.55211 14.9037 6.55211C16.3635 6.55211 16.9708 7.73168 16.9708 9.19152V13.4776H18.7927V8.67182C18.7927 7.53313 19.692 6.56964 20.8306 6.55796C22.3139 6.5346 22.9095 7.72583 22.9095 9.19736V13.4484H24.6146V9.13897C24.6146 6.45285 23.254 4.66599 20.7839 4.66599C19.3533 4.66599 18.6584 5.33168 17.8409 6.37109L17.8292 6.35358C17.8292 6.34774 17.8175 6.3419 17.8175 6.33606C17.0876 5.29665 16.311 4.66016 14.9037 4.66016C14.057 4.66016 13.4029 5.00468 12.8307 5.52438V4.88205H11.0088V13.4718H12.8307L12.8365 9.19152Z" fill="#111111"/>
<path d="M57.15 6.00321C56.3325 5.16234 55.188 4.63679 53.9266 4.64263C51.4566 4.64847 49.4595 6.65722 49.4653 9.12728C49.4712 11.5973 51.4799 13.5944 53.95 13.5886C55.2055 13.5827 56.3325 13.0689 57.1442 12.2338L55.9062 11.0134C55.4274 11.4981 54.7617 11.8017 54.0259 11.8076C52.5661 11.8134 51.3807 10.6338 51.3807 9.17399C51.3748 7.71415 52.5544 6.52875 54.0142 6.52875C54.7442 6.52875 55.404 6.82072 55.8828 7.29955L57.15 6.00321Z" fill="#111111"/>
<path d="M62.4815 13.0753L60.4961 17.6884L62.534 17.6826L67.9997 4.83008L66.0785 4.83592L63.5909 10.7687L60.9515 4.8476L58.9194 4.85344L62.4815 13.0753Z" fill="#111111"/>
<path d="M31.7251 4.6248C30.7908 4.6248 29.9265 4.91093 29.2141 5.3956L29.2083 0C29.2083 0 27.4506 0 27.2346 0C27.0185 0 27.2346 13.4773 27.2346 13.4773H29.1674V12.7649C29.8915 13.2729 30.7732 13.5708 31.7251 13.5708C34.1951 13.5708 36.198 11.5678 36.198 9.09778C36.1922 6.62771 34.1893 4.6248 31.7251 4.6248ZM31.8068 11.7897C30.347 11.7897 29.1674 10.6102 29.1674 9.15033C29.1674 7.69048 30.347 6.51092 31.8068 6.51092C33.2667 6.51092 34.3703 7.69048 34.3703 9.15033C34.3703 10.6043 33.2608 11.7897 31.8068 11.7897Z" fill="#111111"/>
<path d="M44.9474 4.85176V5.16125L44.9532 5.37731C44.2408 4.89848 43.3883 4.62402 42.4657 4.62402C39.9956 4.62402 37.9927 6.62694 37.9927 9.097C37.9927 11.5671 39.9956 13.57 42.4657 13.57C43.4 13.57 44.2642 13.2838 44.9824 12.7933V13.5233H46.9678V4.85176H44.9474ZM42.4073 11.789C40.9474 11.789 39.7679 10.6094 39.7679 9.14955C39.7679 7.6897 40.9474 6.51015 42.4073 6.51015C43.8671 6.51015 45.0467 7.6897 45.0467 9.14955C45.0525 10.6036 43.8671 11.789 42.4073 11.789Z" fill="#111111"/>
<path d="M8.75909 9.08059C8.75909 6.59885 6.76786 4.66602 4.53721 4.66602C2.02627 4.66602 0 6.56382 0 9.08059C0 11.5974 2.03795 13.6295 4.54889 13.6295C5.79268 13.6295 6.92552 13.1273 7.74304 12.3156L6.37078 10.9434C5.89779 11.4455 5.22626 11.7609 4.47881 11.7609C3.23502 11.7609 2.16058 10.8908 1.90364 9.72293H8.71821C8.74741 9.51855 8.75909 9.29665 8.75909 9.08059ZM2.01459 8.15797C2.38247 7.18279 3.26422 6.56966 4.37954 6.56966C5.57662 6.56966 6.3591 7.20031 6.72698 8.15797H2.01459Z" fill="#111111"/>
</svg>
