<svg width="96" height="24" viewBox="0 0 96 24" fill="none" xmlns="http://www.w3.org/2000/svg">
<g opacity="0.5">
<path d="M12.0147 0C18.6532 0 24.0327 5.37325 24.0327 11.9995C24.0327 18.627 18.6532 24 12.0147 24C5.3795 24 0 18.6268 0 11.9995C0 5.37325 5.3795 0 12.0147 0ZM12.0147 0.92725C5.89075 0.92725 0.9285 5.88375 0.9285 11.9998C0.9285 18.1152 5.89075 23.0728 12.0147 23.0728C18.1402 23.0728 23.1035 18.1152 23.1035 11.9995C23.1035 5.88375 18.1402 0.927 12.0147 0.927V0.92725ZM12.781 3.37825C12.781 3.37825 13.0575 3.88125 14.347 3.65175C15.4135 3.46125 16.0037 3.73925 16.0037 4.0955C16.0037 4.0955 16.7625 4.18625 17.1007 4.4055C17.44 4.62475 17.0805 5.1725 17.0805 5.1725C17.0287 5.07175 16.9567 5.0125 16.7515 4.9675C16.7515 4.9675 15.9315 4.75675 15.646 5.29025C15.0227 5.3435 14.4843 5.71625 14.231 6.22325C14.2173 6.253 13.98 6.722 14.1275 7.66875C14.2045 8.16575 14.4505 8.58725 14.7997 8.94625C14.9522 9.10375 15.1422 9.2045 15.373 9.17825C15.7375 9.136 16.0403 8.9615 16.3005 8.70425C16.443 8.56275 16.487 8.40175 16.3775 8.2165C16.3633 8.192 16.3547 8.164 16.3445 8.136C16.0222 7.357 16.292 6.66775 16.8395 6.25975C17.2423 5.96075 17.707 5.92525 18.1793 5.99225C21.2933 6.43075 21.3975 9.57625 21.3975 10.5465V10.8055C21.4 13.413 21.44 15.2503 21.4595 15.6133C21.4907 16.1823 21.6892 16.3018 21.8155 16.3915C21.6172 16.5288 19.996 16.019 19.607 15.5355C19.5807 15.5032 19.5273 15.4897 19.4865 15.4788C18.521 15.2543 18.519 14.246 18.5005 13.9403C17.6925 13.9403 17.3798 13.0588 17.294 12.8293C17.2206 12.6236 17.1716 12.4099 17.1483 12.1928C17.1483 12.622 16.5133 12.9902 15.8298 12.306C15.8298 13.0097 14.9912 12.8853 14.5742 12.4685C14.5377 12.611 14.3062 12.9735 14.3062 12.9735C14.7852 13.0605 15.0007 13.1655 15.227 13.3635C15.7577 13.8293 15.818 14.6065 15.818 15.008C15.818 15.008 16.5487 15.7208 16.838 15.985C16.9235 16.0648 17.0177 16.134 17.1117 16.205C17.8612 15.367 18.1105 15.6938 18.1098 15.6963C18.6643 15.4728 18.971 15.8682 18.8498 16.0697C18.7203 15.9233 18.5107 15.9665 18.3845 16.0798C19.133 16.206 18.9583 16.7547 18.7565 16.8697C18.7565 16.7122 18.7075 16.5373 18.4715 16.521C18.4835 16.7633 18.32 16.8055 18.1647 16.8115C17.7935 16.8275 17.1737 16.8445 16.9848 17.029C16.876 17.134 16.9287 17.4423 16.8125 17.5473C16.7157 17.6335 16.6133 17.6235 16.559 17.6243C16.5413 17.7378 16.575 17.8655 16.7192 18.0163C16.18 18.0603 15.7765 17.5863 16.0435 17.333C16.1555 17.2273 16.5317 16.8705 16.5513 16.715C16.576 16.55 16.4013 16.3643 16.28 16.2568C16.1234 16.1191 15.9621 15.9869 15.7965 15.8603L15.4653 15.6047C15.3805 15.5409 15.291 15.4838 15.1975 15.4338C15.1559 15.4109 15.1102 15.3965 15.063 15.3914C15.0158 15.3863 14.968 15.3907 14.9225 15.4042C14.7158 15.4685 14.7183 15.4635 14.665 15.428C14.4615 15.2942 14.0935 14.9928 13.328 14.908C13.3787 14.9403 13.4145 14.974 13.444 15.0138C13.4847 15.0712 13.5145 15.14 13.5578 15.2332C13.6078 15.339 13.6458 15.4475 13.6908 15.5532C14.1858 16.7232 14.6758 17.8722 15.1695 19.0425C15.333 19.4295 15.187 19.7682 14.788 19.9545C14.497 20.09 14.1655 20.017 13.9705 19.736C14.0265 19.929 14.053 20.096 13.974 20.2567C13.896 20.4175 13.7697 20.5328 13.6042 20.603C13.445 20.6733 13.2568 20.698 13.083 20.663C12.9055 20.6275 12.788 20.5105 12.6973 20.3387C12.6818 20.7207 12.43 21 12.0147 21C11.5992 21 11.3473 20.7207 11.3323 20.3387C11.2415 20.5107 11.1235 20.6275 10.9463 20.663C10.7704 20.6961 10.5887 20.6751 10.425 20.603C10.2595 20.5328 10.1333 20.4175 10.0553 20.2567C9.9765 20.0957 10.0028 19.9298 10.0588 19.736C9.86375 20.017 9.53225 20.09 9.24125 19.9545C8.842 19.7682 8.69625 19.4295 8.85975 19.0425C9.35325 17.8725 9.84325 16.7232 10.3385 15.5532C10.3835 15.4475 10.4215 15.339 10.4715 15.2332C10.5148 15.1392 10.5437 15.0708 10.5842 15.0138C10.614 14.974 10.6495 14.9403 10.7013 14.908C9.93575 14.9918 9.567 15.2942 9.36425 15.428C9.311 15.4635 9.3135 15.4685 9.10675 15.4042C9.06125 15.3907 9.0135 15.3863 8.96629 15.3914C8.91907 15.3964 8.87334 15.4108 8.83175 15.4338C8.73925 15.4847 8.6445 15.5412 8.564 15.6047C8.2885 15.819 8.0085 16.0265 7.749 16.2568C7.628 16.3643 7.45325 16.5497 7.478 16.715C7.4965 16.87 7.87375 17.2273 7.9855 17.333C8.253 17.5863 7.84925 18.0613 7.31 18.0163C7.45425 17.8655 7.48725 17.7378 7.4695 17.6243C7.416 17.6235 7.3135 17.6335 7.21675 17.5473C7.09975 17.4423 7.15225 17.134 7.04475 17.029C6.85475 16.8445 6.23475 16.8275 5.8645 16.8115C5.7095 16.8055 5.54575 16.7633 5.5575 16.521C5.321 16.5362 5.2725 16.7115 5.2725 16.8697C5.07 16.7547 4.89625 16.2052 5.645 16.0798C5.5185 15.9665 5.30825 15.9233 5.1795 16.0697C5.05825 15.8682 5.365 15.4728 5.9195 15.6963C5.91775 15.6938 6.168 15.3678 6.9175 16.2052C7.0115 16.134 7.10575 16.0648 7.19125 15.9853C7.4805 15.7218 8.21125 15.0077 8.21125 15.0077C8.21125 14.6075 8.27125 13.8303 8.80125 13.3638C9.02875 13.1655 9.24375 13.0605 9.723 12.9732C9.723 12.9732 9.4915 12.6108 9.455 12.4688C9.038 12.8862 8.1995 13.0097 8.1995 12.3062C7.516 12.9895 6.881 12.622 6.881 12.1928C6.85762 12.4099 6.8087 12.6236 6.73525 12.8293C6.6495 13.0588 6.33675 13.9403 5.52875 13.9403C5.51 14.246 5.50825 15.2535 4.54275 15.4788C4.502 15.4888 4.4485 15.5032 4.42225 15.5355C4.03225 16.0197 2.41225 16.5288 2.21275 16.3915C2.33925 16.3008 2.53775 16.1823 2.569 15.6133C2.58925 15.2383 2.63075 13.2907 2.63075 10.5465L2.631 10.4825C2.6365 9.445 2.8015 6.4215 5.85 5.99225C6.3225 5.92525 6.787 5.96075 7.1895 6.25975C7.73725 6.66775 8.007 7.35725 7.68475 8.136C7.67475 8.164 7.666 8.192 7.65175 8.2165C7.54225 8.402 7.5865 8.56275 7.72875 8.704C7.989 8.9615 8.29175 9.136 8.65625 9.17825C8.887 9.2045 9.077 9.10375 9.2295 8.94625C9.57875 8.58725 9.81625 8.16475 9.902 7.66875C10.0638 6.72625 9.812 6.253 9.7985 6.22325C9.545 5.71625 9.0065 5.3435 8.3835 5.29025C8.09775 4.75675 7.27775 4.96775 7.27775 4.96775C7.07275 5.01275 7.0005 5.07175 6.94775 5.17275C6.94775 5.17275 6.58925 4.62475 6.92775 4.40525C7.26675 4.18625 8.0255 4.0955 8.0255 4.0955C8.0255 3.739 8.6155 3.46125 9.6815 3.65175C10.971 3.88125 11.2482 3.37825 11.2482 3.37825C11.3015 3.99475 10.8303 4.31225 10.6793 4.39875C11.1685 4.92875 11.8517 5.988 12.0147 7.49075C12.1772 5.988 12.8608 4.92875 13.3498 4.39875C13.1983 4.31225 12.7277 3.99475 12.781 3.37825ZM38.996 10.2055C40.2422 10.2055 41.1073 10.8193 41.1073 12.301V15.241C41.1073 15.846 41.2367 15.9875 41.4852 15.9875C41.5822 15.9843 41.6783 15.9681 41.771 15.9393L41.8413 16.2248C41.4633 16.4143 41.1073 16.4508 40.952 16.4508C40.561 16.4508 40.3127 16.273 40.217 15.9282L40.1465 15.6693C39.5055 16.178 38.8053 16.4508 38.2238 16.4508C37.1427 16.4508 36.4415 15.8807 36.4415 14.8853C36.4415 13.8182 37.2385 13.3195 38.3298 13.1197L39.5387 12.8937C39.9437 12.8225 40.1592 12.704 40.1592 12.4088C40.1592 11.1173 39.6125 10.7855 38.7103 10.7855C38.0107 10.7855 37.487 10.987 37.1077 11.7582H36.9645V11.0208C37.4285 10.4532 38.2812 10.2055 38.996 10.2055ZM74.7322 10.2055C75.3502 10.2055 76.025 10.323 76.7855 10.726L76.4898 11.6135H76.3465C75.931 10.9385 75.3503 10.666 74.6975 10.666C73.3078 10.666 72.644 12.0055 72.644 13.3085C72.644 14.8133 73.473 15.9867 74.9457 15.9867C75.4342 15.9867 75.8725 15.9165 76.56 15.1688L76.6677 15.2992L76.5245 15.88C75.952 16.26 75.3145 16.45 74.5788 16.45C72.7262 16.45 71.5163 15.1578 71.5163 13.3325C71.5163 11.4248 72.822 10.2055 74.7322 10.2055ZM67.741 10.2055C69.545 10.2055 70.6735 11.5085 70.6735 13.285C70.6735 15.0995 69.495 16.45 67.635 16.45C65.8078 16.45 64.6667 15.1112 64.6667 13.4517C64.6667 11.4847 65.9242 10.2055 67.741 10.2055ZM80.7262 10.2055C81.3438 10.2055 82.0192 10.323 82.7787 10.726L82.4788 11.6135H82.338C81.9242 10.9385 81.3428 10.666 80.6905 10.666C79.3002 10.666 78.6355 12.0055 78.6355 13.3085C78.6355 14.8133 79.469 15.9867 80.939 15.9867C81.4233 15.9867 81.864 15.9165 82.5515 15.1688L82.6568 15.2992L82.516 15.88C81.9473 16.26 81.3045 16.45 80.5703 16.45C78.7195 16.45 77.5098 15.1578 77.5098 13.3325C77.5098 11.4248 78.8162 10.2055 80.7262 10.2055ZM89.2818 10.323C89.1893 11.1815 89.1735 12.6018 89.1725 13.2535V13.3205C89.1725 13.8182 89.186 15.4185 89.2818 16.3195C89.1006 16.2966 88.9183 16.285 88.7357 16.2847C88.5289 16.2843 88.3222 16.2959 88.1168 16.3195C88.2093 15.445 88.2245 13.912 88.2253 13.367V13.3205C88.2253 12.703 88.2117 11.947 88.2032 11.6965C87.3937 12.5153 85.2563 15.3127 84.5823 16.3195C84.4695 16.2953 84.3543 16.2836 84.239 16.2847C84.1667 16.2847 83.9533 16.306 83.8583 16.3195C83.9503 15.445 83.965 13.912 83.9658 13.367V13.3205C83.9658 12.716 83.9533 11.2122 83.8583 10.323C84.0608 10.335 84.3203 10.3587 84.4628 10.3587C84.5933 10.3587 84.8418 10.335 85.0215 10.323C84.933 11.1508 84.918 12.5012 84.9165 13.181V13.3205C84.9165 13.8182 84.9265 14.5168 84.9375 14.8495C85.5912 14.0563 87.9175 11.1055 88.4762 10.323C88.6028 10.346 88.6865 10.3587 88.83 10.3587C88.9003 10.3587 89.1488 10.335 89.2818 10.323ZM96 10.323C95.9115 11.1815 95.896 12.6018 95.895 13.2535V13.3205C95.895 13.8182 95.9085 15.4185 96 16.3195C95.8189 16.2965 95.6366 16.2849 95.454 16.2847C95.253 16.2847 95.014 16.2967 94.8385 16.3195C94.9307 15.445 94.943 13.912 94.9435 13.367V13.3205C94.9435 12.703 94.9335 11.947 94.9225 11.6965C94.1152 12.5153 91.9753 15.3127 91.2995 16.3195C91.1876 16.295 91.0733 16.2834 90.9587 16.2847C90.8867 16.2847 90.673 16.306 90.5807 16.3195C90.6732 15.4185 90.6858 13.8182 90.6858 13.3205C90.6858 12.716 90.6732 11.2122 90.5807 10.323C90.7807 10.335 91.0403 10.3587 91.1825 10.3587C91.3133 10.3587 91.5632 10.335 91.7412 10.323C91.6462 11.2122 91.6363 12.704 91.6363 13.3205C91.6363 13.8182 91.6462 14.5168 91.6575 14.8495C92.311 14.0563 94.635 11.1055 95.1927 10.323C95.3235 10.346 95.4072 10.3587 95.5498 10.3587C95.6203 10.3587 95.8712 10.335 96 10.323ZM54.6817 10.323L51.8457 12.859C52.2035 13.285 54.0875 15.4075 54.9413 16.3195C54.6225 16.2967 54.397 16.2847 54.2308 16.2847C54.0163 16.2847 53.6958 16.2967 53.4473 16.3195C53.0083 15.632 51.6668 14.0563 50.9328 13.2495H50.741V13.329C50.7425 13.8685 50.757 15.466 50.8435 16.3195C50.6633 16.2964 50.4819 16.2848 50.3003 16.2847C50.101 16.2847 49.8635 16.2967 49.682 16.3195C49.7738 15.4715 49.7912 14.0043 49.793 13.4195V13.3205C49.793 12.716 49.7795 11.2122 49.682 10.323C49.8865 10.334 50.1485 10.3587 50.2907 10.3587C50.4182 10.3587 50.6683 10.335 50.8438 10.323C50.752 11.2122 50.7412 12.716 50.7412 12.931H50.9328C51.3235 12.931 53.3285 10.6543 53.5195 10.323C53.6845 10.335 53.956 10.3587 54.0985 10.3587C54.2198 10.3587 54.5045 10.335 54.6817 10.323ZM48.072 10.323C47.9795 11.1815 47.9653 12.6018 47.9645 13.2535V13.3205C47.9645 13.8182 47.9762 15.4185 48.072 16.3195C47.8907 16.2965 47.708 16.2849 47.5252 16.2847C47.3242 16.2847 47.086 16.2967 46.9098 16.3195C47.003 15.4185 47.0158 13.8182 47.0158 13.4408C46.4933 13.4032 45.7812 13.3568 45.5083 13.3568C45.1852 13.3568 44.3932 13.378 43.916 13.4142C43.916 13.8182 43.9295 15.4178 44.0235 16.3195C43.8427 16.2966 43.6607 16.285 43.4785 16.2847C43.2767 16.2847 43.0392 16.2967 42.8605 16.3195C42.949 15.4715 42.9648 14.0043 42.9663 13.4195V13.3205C42.9663 12.716 42.9545 11.2122 42.8605 10.323C43.0623 10.334 43.325 10.3587 43.4683 10.3587C43.599 10.3587 43.8465 10.335 44.0245 10.323C43.9305 11.223 43.917 12.716 43.917 12.7752C44.4162 12.7997 45.1385 12.8242 45.522 12.8242C45.9128 12.8242 46.6605 12.8005 47.0165 12.7752C47.0165 12.705 47.004 11.2122 46.9105 10.323C47.109 10.335 47.3717 10.3587 47.5132 10.3587C47.6457 10.3587 47.894 10.335 48.072 10.323ZM30.0168 7.7025C30.7763 7.739 32.0327 7.80925 32.3083 7.80925C32.9705 7.80925 34.322 7.75 35.0942 7.70325C35.0743 7.84471 35.0625 7.98719 35.0588 8.13C35.0588 8.21225 35.0832 8.40275 35.0942 8.5325C34.405 8.4375 33.2665 8.36725 32.9128 8.36725C32.6645 8.36725 31.7012 8.39 31.1797 8.43725V11.4137H31.7842C33.0205 11.4137 35.62 11.65 35.62 13.7945C35.62 15.5363 34.1592 16.3305 32.238 16.3188C32.0225 16.3188 31.2172 16.2838 30.7035 16.2838C30.4805 16.2838 30.2075 16.2957 30.0168 16.3188C30.0895 15.0138 30.1118 13.213 30.1118 11.7192V11.5327C30.1105 10.1992 30.0985 8.324 30.0168 7.70275V7.7025ZM58.9845 7.7025C59.378 7.7135 59.912 7.739 60.185 7.739C60.598 7.739 61.1345 7.70325 61.4408 7.70325C63.6365 7.70325 64.4928 8.36725 64.4928 9.859C64.4928 11.793 62.8653 12.4077 60.9345 12.4077C60.827 12.4077 60.374 12.3848 60.1478 12.3603V14.4093C60.1478 15.002 60.1715 15.726 60.2445 16.3188C60.0432 16.2957 59.8408 16.284 59.6383 16.2838C59.4228 16.2838 59.1745 16.2957 58.9845 16.3188C59.054 15.0738 59.079 13.375 59.081 11.9247V11.5325C59.08 10.199 59.0655 8.32375 58.9845 7.7025ZM67.7053 10.666C66.4235 10.666 65.7952 12.0055 65.7952 13.4153C65.7952 14.7548 66.353 15.9867 67.6103 15.9867C68.821 15.9867 69.546 14.825 69.546 13.2375C69.546 11.9572 69.0465 10.666 67.7053 10.666ZM40.1592 13.261L39.3742 13.3787C38.5195 13.51 37.5692 13.8055 37.5692 14.7083C37.5692 15.395 37.9508 15.7623 38.7205 15.7623C39.196 15.7623 39.671 15.5955 40.1592 15.0868V13.2612V13.261ZM31.1797 12.0392V15.6318C31.4885 15.6438 31.8547 15.6558 32.188 15.6558C33.5895 15.6558 34.405 15.0027 34.405 13.782C34.405 12.467 33.4342 12.0395 31.18 12.0395L31.1797 12.0392ZM61.2048 8.36725C61.0047 8.36725 60.3148 8.37825 60.1478 8.40275V11.7313C60.2928 11.7575 60.5285 11.7803 60.647 11.7803C62.3088 11.7803 63.282 11.1165 63.282 9.859C63.282 8.6865 62.3563 8.36725 61.205 8.36725H61.2048Z" fill="#10273D"/>
</g>
</svg>
