<svg width="344" height="170" viewBox="0 0 344 170" fill="none" xmlns="http://www.w3.org/2000/svg">
<circle cx="5.02933" cy="6.03518" r="4.52639" stroke="#04CCD9" stroke-width="1.00587"/>
<path d="M22.7526 9.03223V1.7397H17.0594V9.03223H18.0854V2.62487H21.7266V9.03223H22.7526ZM25.2654 6.34657C25.2654 4.86794 26.0499 4.33484 26.8848 4.33484C27.7197 4.33484 28.5042 4.89812 28.5042 6.34657C28.5042 7.73466 27.7197 8.3583 26.8848 8.3583C26.0499 8.3583 25.2654 7.79501 25.2654 6.34657ZM26.8848 3.53014C25.6275 3.53014 24.2897 4.38513 24.2897 6.34657C24.2897 8.308 25.6275 9.16299 26.8848 9.16299C28.1421 9.16299 29.4799 8.308 29.4799 6.34657C29.4799 4.38513 28.1421 3.53014 26.8848 3.53014ZM34.6427 4.41531V3.62067H30.0258V4.41531H31.8766V9.03223H32.7919V4.41531H34.6427ZM36.1684 6.34657C36.1684 4.86794 36.953 4.33484 37.7878 4.33484C38.6227 4.33484 39.4073 4.89812 39.4073 6.34657C39.4073 7.73466 38.6227 8.3583 37.7878 8.3583C36.953 8.3583 36.1684 7.79501 36.1684 6.34657ZM37.7878 3.53014C36.5305 3.53014 35.1927 4.38513 35.1927 6.34657C35.1927 8.308 36.5305 9.16299 37.7878 9.16299C39.0452 9.16299 40.383 8.308 40.383 6.34657C40.383 4.38513 39.0452 3.53014 37.7878 3.53014ZM45.2095 9.03223H46.3462L44.093 6.17557L46.1349 3.62067H45.0486L43.3286 5.83358H42.6546V3.62067H41.7292V9.03223H42.6546V6.62821H43.3487L45.2095 9.03223Z" fill="#10273D"/>
<circle cx="76.2637" cy="6.03518" r="4.52639" stroke="#4F65BE" stroke-width="1.00587"/>
<path d="M92.6391 9.03223H93.7858L92.0959 5.79334C92.9911 5.55193 93.5444 4.99871 93.5444 3.84196C93.5444 2.09176 92.277 1.7397 90.5067 1.7397H88.1932V9.03223H89.2192V5.96434H90.5067C90.6978 5.96434 90.8688 5.96434 91.0599 5.95428L92.6391 9.03223ZM90.5871 2.60475C91.6634 2.60475 92.4882 2.73551 92.4882 3.86208C92.4882 4.98865 91.6634 5.09929 90.5871 5.09929H89.2192V2.60475H90.5871ZM95.0615 1.7397V6.06492C95.0615 8.33818 95.9467 9.16299 97.9684 9.16299C100.091 9.16299 100.906 8.11689 100.906 5.98446V1.7397H99.8796V6.06492C99.8796 7.50331 99.3666 8.27783 97.9684 8.27783C96.6005 8.27783 96.0875 7.61396 96.0875 6.17557V1.7397H95.0615ZM102.731 9.03223H107.68V8.14707H103.757V5.72293H107.448V4.83777H103.757V2.62487H107.68V1.7397H102.731V9.03223ZM108.236 1.7397L110.811 6.18563V9.03223H111.837V6.20575L114.512 1.7397H113.386L111.354 5.30047L109.362 1.7397H108.236ZM115.579 9.03223H118.455C119.914 9.03223 121.071 8.42871 121.071 6.87968C121.071 5.98446 120.658 5.44129 119.964 5.14959C120.477 4.85789 120.769 4.23425 120.769 3.5402C120.769 2.09176 119.562 1.7397 118.204 1.7397H115.579V9.03223ZM116.605 5.67264H118.405C119.502 5.67264 120.014 6.03475 120.014 6.88973C120.014 7.7246 119.512 8.16718 118.465 8.16718H116.605V5.67264ZM116.605 2.60475H118.365C119.18 2.60475 119.733 2.92662 119.733 3.68102C119.733 4.53601 119.21 4.85789 118.365 4.85789H116.605V2.60475ZM127.658 6.70868C127.426 7.64413 126.722 8.29794 125.556 8.29794C124.198 8.29794 123.232 7.22167 123.232 5.37088C123.232 3.47985 124.238 2.47399 125.525 2.47399C126.682 2.47399 127.406 3.14792 127.618 4.06325H128.613C128.292 2.50416 127.084 1.60894 125.576 1.60894C123.524 1.60894 122.186 3.11774 122.186 5.37088C122.186 7.58378 123.403 9.16299 125.495 9.16299C127.074 9.16299 128.332 8.31806 128.654 6.70868H127.658ZM129.785 3.60055C129.785 4.80759 130.781 5.37088 131.787 5.59217L132.692 5.78328C133.597 5.99451 134.261 6.29627 134.261 7.07079C134.261 7.79501 133.647 8.29794 132.561 8.29794C131.435 8.29794 130.74 7.7749 130.549 6.76903H129.543C129.735 8.21748 130.821 9.16299 132.541 9.16299C133.989 9.16299 135.317 8.39853 135.317 6.98026C135.317 5.5117 133.979 5.08924 132.863 4.84783L132.018 4.65671C131.334 4.50583 130.831 4.18396 130.831 3.5402C130.831 2.72545 131.817 2.47399 132.38 2.47399C133.104 2.47399 133.949 2.76569 134.191 3.60055H135.186C134.895 2.2024 133.738 1.60894 132.42 1.60894C131.243 1.60894 129.785 2.2024 129.785 3.60055ZM138.142 9.03223H139.168V2.62487H141.542V1.7397H135.768V2.62487H138.142V9.03223ZM147.056 9.03223H148.203L146.513 5.79334C147.408 5.55193 147.962 4.99871 147.962 3.84196C147.962 2.09176 146.694 1.7397 144.924 1.7397H142.61V9.03223H143.636V5.96434H144.924C145.115 5.96434 145.286 5.96434 145.477 5.95428L147.056 9.03223ZM145.004 2.60475C146.081 2.60475 146.906 2.73551 146.906 3.86208C146.906 4.98865 146.081 5.09929 145.004 5.09929H143.636V2.60475H145.004Z" fill="#10273D"/>
<circle cx="178.499" cy="6.03518" r="4.52639" stroke="#EA3D31" stroke-width="1.00587"/>
<path d="M191.454 1.7397H190.428V9.03223H191.454V1.7397ZM197.513 9.03223L199.525 2.67516V9.03223H200.551V1.7397H198.831L196.97 7.81513L195.109 1.7397H193.389V9.03223H194.415V2.67516L196.427 9.03223H197.513ZM203.174 5.38094C203.174 3.49997 204.22 2.47399 205.548 2.47399C206.876 2.47399 207.922 3.49997 207.922 5.38094C207.922 7.2619 206.876 8.29794 205.548 8.29794C204.22 8.29794 203.174 7.2619 203.174 5.38094ZM208.968 5.38094C208.968 3.17809 207.65 1.60894 205.548 1.60894C203.446 1.60894 202.128 3.17809 202.128 5.38094C202.128 7.58378 203.446 9.16299 205.548 9.16299C207.65 9.16299 208.968 7.58378 208.968 5.38094ZM210.55 9.03223H215.499V8.14707H211.576V5.72293H215.267V4.83777H211.576V2.62487H215.499V1.7397H210.55V9.03223ZM216.055 9.03223H217.211L219.334 6.08504L221.446 9.03223H222.653L219.947 5.24012L222.472 1.7397H221.315L219.374 4.43542L217.453 1.7397H216.236L218.76 5.28035L216.055 9.03223Z" fill="#10273D"/>
<circle cx="252.733" cy="6.03518" r="4.52639" stroke="#F7CB4A" stroke-width="1.00587"/>
<path d="M269.109 9.03223H270.255L268.565 5.79334C269.461 5.55193 270.014 4.99871 270.014 3.84196C270.014 2.09176 268.746 1.7397 266.976 1.7397H264.663V9.03223H265.689V5.96434H266.976C267.167 5.96434 267.338 5.96434 267.529 5.95428L269.109 9.03223ZM267.057 2.60475C268.133 2.60475 268.958 2.73551 268.958 3.86208C268.958 4.98865 268.133 5.09929 267.057 5.09929H265.689V2.60475H267.057ZM274.63 1.60894C272.578 1.60894 271.24 3.11774 271.24 5.37088C271.24 7.58378 272.447 9.16299 274.54 9.16299C275.515 9.16299 276.37 8.87129 276.843 8.11689L276.893 9.03223H277.698V5.31053H274.801V6.19569H276.732V6.3868C276.732 7.8956 275.546 8.29794 274.58 8.29794C273.242 8.29794 272.287 7.22167 272.287 5.37088C272.287 3.47985 273.292 2.47399 274.58 2.47399C275.747 2.47399 276.411 3.04733 276.652 3.86208H277.648C277.346 2.45387 276.139 1.60894 274.63 1.60894ZM279.534 9.03223H282.411C283.869 9.03223 285.026 8.42871 285.026 6.87968C285.026 5.98446 284.614 5.44129 283.92 5.14959C284.433 4.85789 284.724 4.23425 284.724 3.5402C284.724 2.09176 283.517 1.7397 282.159 1.7397H279.534V9.03223ZM280.56 5.67264H282.361C283.457 5.67264 283.97 6.03475 283.97 6.88973C283.97 7.7246 283.467 8.16718 282.421 8.16718H280.56V5.67264ZM280.56 2.60475H282.32C283.135 2.60475 283.688 2.92662 283.688 3.68102C283.688 4.53601 283.165 4.85789 282.32 4.85789H280.56V2.60475ZM287.519 1.7397H286.493V9.03223H287.519V1.7397ZM290.964 9.03223H291.99V2.62487H294.363V1.7397H288.59V2.62487H290.964V9.03223ZM299.878 9.03223H301.025L299.335 5.79334C300.23 5.55193 300.783 4.99871 300.783 3.84196C300.783 2.09176 299.516 1.7397 297.745 1.7397H295.432V9.03223H296.458V5.96434H297.745C297.937 5.96434 298.108 5.96434 298.299 5.95428L299.878 9.03223ZM297.826 2.60475C298.902 2.60475 299.727 2.73551 299.727 3.86208C299.727 4.98865 298.902 5.09929 297.826 5.09929H296.458V2.60475H297.826Z" fill="#10273D"/>
<path opacity="0.1" d="M0.291016 31.1818L0.291021 161.655" stroke="#10273D" stroke-width="0.579882"/>
<path opacity="0.1" d="M343 105.117L0.57959 105.117" stroke="#10273D" stroke-width="0.289941" stroke-dasharray="1.45 1.45"/>
<path opacity="0.1" d="M343 76.4134L0.57959 76.4133" stroke="#10273D" stroke-width="0.289941" stroke-dasharray="1.45 1.45"/>
<path opacity="0.2" d="M337.491 47.7086L0.57959 47.7086" stroke="#10273D" stroke-width="0.289941" stroke-dasharray="1.45 1.45"/>
<path opacity="0.1" d="M343 133.82L0.57959 133.82" stroke="#10273D" stroke-width="0.289941" stroke-dasharray="1.45 1.45"/>
<path d="M6.45455 103.968C21.845 94.237 52.6989 78.141 83.2246 78.141V77.4094C52.4801 77.4094 21.4803 93.6151 6.08984 103.346L6.45455 103.968ZM83.2246 78.141C90.5916 78.141 96.7551 78.1776 105.253 80.0433C113.75 81.9089 124.582 85.6403 141.249 92.9932L141.541 92.3348C124.837 84.9452 113.969 81.2139 105.399 79.3116C96.828 77.4094 90.5916 77.4094 83.2246 77.4094V78.141ZM141.249 92.9932C168.565 105.065 201.571 112.455 223.599 114.357L223.672 113.625C201.68 111.76 168.748 104.37 141.541 92.3348L141.249 92.9932ZM223.599 114.357C283.921 119.478 316.744 91.5665 342.711 76.1656L342.346 75.5437C316.307 90.9812 283.702 118.747 223.672 113.625L223.599 114.357Z" fill="#F7CB4A"/>
<path d="M6.08984 103.66H247.143C251.498 103.66 255.69 105.313 258.871 108.286V108.286C263.637 112.739 270.513 114.108 276.622 111.822L299.25 103.353C309.807 99.401 321.309 98.7177 332.26 101.391L341.551 103.66" stroke="#4F65BE" stroke-width="0.869822"/>
<path d="M6.23242 103.668L41.7227 98.4886C58.3191 96.0667 75.2195 96.7209 91.579 100.419L100.967 102.541C120.144 106.875 140.157 105.66 158.668 99.0374V99.0374C176.701 92.5863 196.169 91.2631 214.908 95.2151L247.787 102.149C251.852 103.006 255.772 104.45 259.422 106.434L261.109 107.35C273.725 114.207 289.063 113.704 301.203 106.036V106.036C310.307 100.287 321.358 98.4877 331.816 101.054L341.549 103.442" stroke="#EA3D31" stroke-width="0.869822"/>
<path d="M6.08984 103.68L14.1871 103.161C22.7474 102.612 31.1804 105.451 37.6667 111.064V111.064C43.6068 116.204 51.1995 119.034 59.055 119.034H60.4181C62.855 119.034 65.2858 118.788 67.6737 118.302L343.001 62.2052" stroke="#04CCD9" stroke-width="0.869822"/>
<path d="M4.77425 137.178V136.879H3.66783V137.178H4.77425ZM6.37752 135.894V137.06H5.47639L6.37752 135.894ZM7.16036 137.06H6.69762V135.46H6.37404L5.12498 137.06V137.359H6.37752V137.982H6.69762V137.359H7.16036V137.06ZM9.09841 136.719C9.09841 137.425 8.85486 137.763 8.45474 137.763C8.05462 137.763 7.81107 137.425 7.81107 136.719C7.81107 136.02 8.05462 135.679 8.45474 135.679C8.8479 135.679 9.09841 136.02 9.09841 136.719ZM9.4359 136.719C9.4359 135.922 9.12624 135.414 8.45474 135.414C7.78324 135.414 7.47358 135.922 7.47358 136.719C7.47358 137.516 7.78324 138.027 8.45474 138.027C9.12624 138.027 9.4359 137.516 9.4359 136.719ZM10.3723 136.903C10.7515 136.903 10.9464 136.601 10.9464 136.169C10.9464 135.738 10.7515 135.435 10.3723 135.435C9.99653 135.435 9.80517 135.738 9.80517 136.169C9.80517 136.601 9.99653 136.903 10.3723 136.903ZM10.3723 136.712C10.1774 136.712 10.0696 136.517 10.0696 136.169C10.0696 135.821 10.1774 135.623 10.3723 135.623C10.5776 135.623 10.6819 135.821 10.6819 136.169C10.6819 136.517 10.5776 136.712 10.3723 136.712ZM10.7202 137.982L12.4599 135.46H12.1085L10.3688 137.982H10.7202ZM12.4599 138.006C12.8391 138.006 13.0339 137.704 13.0339 137.272C13.0339 136.841 12.8391 136.538 12.4599 136.538C12.0841 136.538 11.8927 136.841 11.8927 137.272C11.8927 137.704 12.0841 138.006 12.4599 138.006ZM12.4599 137.815C12.265 137.815 12.1572 137.62 12.1572 137.272C12.1572 136.924 12.265 136.726 12.4599 136.726C12.6651 136.726 12.7695 136.924 12.7695 137.272C12.7695 137.62 12.6651 137.815 12.4599 137.815Z" fill="#10273D"/>
<path d="M6.58186 166.552H5.84773C5.4163 166.552 5.15187 166.744 5.15187 167.13C5.15187 167.408 5.31192 167.589 5.54851 167.669L4.98139 168.424H5.37455L5.88252 167.756C5.89992 167.76 5.91732 167.76 5.93471 167.76H6.26525V168.424H6.58186V166.552ZM6.26525 166.827V167.485H5.89296C5.67377 167.485 5.47545 167.405 5.47545 167.151C5.47545 166.925 5.63202 166.827 5.86513 166.827H6.26525ZM8.74514 168.424V166.552H8.42852V167.332H7.50303V166.552H7.18642V168.424H7.50303V167.607H8.42852V168.424H8.74514ZM9.34901 166.552V168.424H10.2188C10.619 168.424 10.9217 168.268 10.9217 167.878C10.9217 167.627 10.779 167.495 10.5842 167.44C10.7581 167.366 10.8451 167.227 10.8451 167.029C10.8451 166.65 10.5389 166.552 10.1632 166.552H9.34901ZM9.66563 167.339V166.827H10.1319C10.3684 166.827 10.5146 166.869 10.5146 167.064C10.5146 167.276 10.3754 167.339 10.1423 167.339H9.66563ZM9.66563 167.6H10.1597C10.4519 167.6 10.5911 167.666 10.5911 167.874C10.5911 168.069 10.4485 168.149 10.1701 168.149H9.66563V167.6ZM12.5242 167.641C12.5242 168.083 12.2424 168.219 11.9466 168.219C11.7205 168.219 11.5848 168.101 11.5848 167.923C11.5848 167.666 11.9501 167.579 12.5242 167.523V167.641ZM11.877 168.469C12.2111 168.469 12.4024 168.362 12.5172 168.167C12.5207 168.278 12.5311 168.355 12.5416 168.424H12.8617C12.8234 168.247 12.8095 168.035 12.813 167.718L12.8165 167.286C12.8199 166.758 12.5903 166.514 12.0719 166.514C11.71 166.514 11.3482 166.74 11.3204 167.144H11.6474C11.6613 166.911 11.8109 166.772 12.0754 166.772C12.312 166.772 12.4998 166.883 12.4998 167.227V167.273C11.7344 167.356 11.2334 167.488 11.2334 167.93C11.2334 168.275 11.5256 168.469 11.877 168.469ZM13.3752 166.552V169.033H13.6918V168.142C13.8066 168.341 14.0015 168.469 14.3042 168.469C14.7356 168.469 15.1044 168.118 15.1044 167.495C15.1044 166.883 14.7356 166.521 14.3042 166.521C14.0015 166.521 13.8066 166.65 13.6918 166.848V166.552H13.3752ZM13.6779 167.495C13.6779 167.001 13.9423 166.792 14.2241 166.792C14.5477 166.792 14.76 167.046 14.76 167.495C14.76 167.944 14.5477 168.198 14.2241 168.198C13.9423 168.198 13.6779 167.989 13.6779 167.495ZM15.8816 167.213V166.552H15.565V168.424H16.3235C16.7549 168.424 17.0263 168.268 17.0263 167.805C17.0263 167.405 16.8175 167.213 16.3269 167.213H15.8816ZM15.8816 168.149V167.488H16.2887C16.5705 167.488 16.7166 167.558 16.7166 167.805C16.7166 168.055 16.574 168.149 16.2956 168.149H15.8816Z" fill="#10273D"/>
<path d="M36.1888 165.902H35.8722V166.556C35.3294 166.556 34.9084 166.859 34.9084 167.495C34.9084 168.153 35.3294 168.442 35.8722 168.442V169.033H36.1888V168.442C36.7281 168.442 37.1525 168.153 37.1525 167.495C37.1525 166.859 36.735 166.556 36.1888 166.556V165.902ZM35.8722 168.17C35.4999 168.17 35.2459 167.961 35.2459 167.506C35.2459 167.046 35.5103 166.827 35.8722 166.827V168.17ZM36.1888 166.827C36.5611 166.827 36.815 167.046 36.815 167.506C36.815 167.961 36.5506 168.17 36.1888 168.17V166.827ZM39.2737 167.593C39.312 166.998 38.9745 166.521 38.4004 166.521C37.889 166.521 37.4923 166.897 37.4923 167.492C37.4923 168.045 37.8194 168.469 38.4108 168.469C38.8666 168.469 39.1659 168.202 39.2494 167.881H38.9223C38.8423 168.066 38.6892 168.191 38.4108 168.191C38.136 168.191 37.8437 167.996 37.8333 167.593H39.2737ZM38.4004 166.792C38.7379 166.792 38.9293 167.057 38.9397 167.321H37.8368C37.8646 166.945 38.1221 166.792 38.4004 166.792ZM39.7331 166.552V168.424H40.6029C41.003 168.424 41.3057 168.268 41.3057 167.878C41.3057 167.627 41.1631 167.495 40.9682 167.44C41.1422 167.366 41.2292 167.227 41.2292 167.029C41.2292 166.65 40.923 166.552 40.5472 166.552H39.7331ZM40.0497 167.339V166.827H40.5159C40.7525 166.827 40.8986 166.869 40.8986 167.064C40.8986 167.276 40.7595 167.339 40.5264 167.339H40.0497ZM40.0497 167.6H40.5438C40.836 167.6 40.9752 167.666 40.9752 167.874C40.9752 168.069 40.8325 168.149 40.5542 168.149H40.0497V167.6ZM41.7462 166.552V169.033H42.0628V168.142C42.1776 168.341 42.3725 168.469 42.6751 168.469C43.1066 168.469 43.4754 168.118 43.4754 167.495C43.4754 166.883 43.1066 166.521 42.6751 166.521C42.3725 166.521 42.1776 166.65 42.0628 166.848V166.552H41.7462ZM42.0489 167.495C42.0489 167.001 42.3133 166.792 42.5951 166.792C42.9187 166.792 43.1309 167.046 43.1309 167.495C43.1309 167.944 42.9187 168.198 42.5951 168.198C42.3133 168.198 42.0489 167.989 42.0489 167.495ZM45.098 167.641C45.098 168.083 44.8162 168.219 44.5205 168.219C44.2943 168.219 44.1586 168.101 44.1586 167.923C44.1586 167.666 44.524 167.579 45.098 167.523V167.641ZM44.4509 168.469C44.7849 168.469 44.9763 168.362 45.0911 168.167C45.0946 168.278 45.105 168.355 45.1154 168.424H45.4355C45.3973 168.247 45.3833 168.035 45.3868 167.718L45.3903 167.286C45.3938 166.758 45.1641 166.514 44.6457 166.514C44.2839 166.514 43.922 166.74 43.8942 167.144H44.2213C44.2352 166.911 44.3848 166.772 44.6492 166.772C44.8858 166.772 45.0737 166.883 45.0737 167.227V167.273C44.3082 167.356 43.8072 167.488 43.8072 167.93C43.8072 168.275 44.0995 168.469 44.4509 168.469ZM47.4278 166.552H46.1787L46.1509 167.193C46.1126 167.968 45.9525 168.149 45.7855 168.149H45.7507V168.424H45.8099C46.2448 168.424 46.4083 168.035 46.4535 167.28L46.4814 166.827H47.1111V168.424H47.4278V166.552ZM48.3501 167.213V166.552H48.0335V168.424H48.792C49.2234 168.424 49.4948 168.268 49.4948 167.805C49.4948 167.405 49.286 167.213 48.7955 167.213H48.3501ZM48.3501 168.149V167.488H48.7572C49.039 167.488 49.1851 167.558 49.1851 167.805C49.1851 168.055 49.0425 168.149 48.7642 168.149H48.3501Z" fill="#10273D"/>
<path d="M68.9578 166.552H68.5055L67.9453 167.993L67.3643 166.552H66.9119V168.424H67.2216V166.942L67.82 168.424H68.0462L68.6481 166.921V168.424H68.9578V166.552ZM70.7259 167.641C70.7259 168.083 70.4441 168.219 70.1483 168.219C69.9222 168.219 69.7865 168.101 69.7865 167.923C69.7865 167.666 70.1518 167.579 70.7259 167.523V167.641ZM70.0788 168.469C70.4128 168.469 70.6041 168.362 70.7189 168.167C70.7224 168.278 70.7329 168.355 70.7433 168.424H71.0634C71.0251 168.247 71.0112 168.035 71.0147 167.718L71.0182 167.286C71.0216 166.758 70.792 166.514 70.2736 166.514C69.9117 166.514 69.5499 166.74 69.5221 167.144H69.8491C69.863 166.911 70.0126 166.772 70.2771 166.772C70.5137 166.772 70.7015 166.883 70.7015 167.227V167.273C69.9361 167.356 69.4351 167.488 69.4351 167.93C69.4351 168.275 69.7273 168.469 70.0788 168.469ZM71.5769 166.552V169.033H71.8935V168.142C72.0083 168.341 72.2032 168.469 72.5059 168.469C72.9373 168.469 73.3061 168.118 73.3061 167.495C73.3061 166.883 72.9373 166.521 72.5059 166.521C72.2032 166.521 72.0083 166.65 71.8935 166.848V166.552H71.5769ZM71.8796 167.495C71.8796 167.001 72.144 166.792 72.4259 166.792C72.7494 166.792 72.9617 167.046 72.9617 167.495C72.9617 167.944 72.7494 168.198 72.4259 168.198C72.144 168.198 71.8796 167.989 71.8796 167.495ZM75.0868 166.827V166.552H73.4898V166.827H74.13V168.424H74.4466V166.827H75.0868Z" fill="#10273D"/>
<path d="M93.9315 167.641C93.9315 168.083 93.6496 168.219 93.3539 168.219C93.1277 168.219 92.992 168.101 92.992 167.923C92.992 167.666 93.3574 167.579 93.9315 167.523V167.641ZM93.2843 168.469C93.6183 168.469 93.8097 168.362 93.9245 168.167C93.928 168.278 93.9384 168.355 93.9488 168.424H94.2689C94.2307 168.247 94.2168 168.035 94.2202 167.718L94.2237 167.286C94.2272 166.758 93.9976 166.514 93.4791 166.514C93.1173 166.514 92.7555 166.74 92.7276 167.144H93.0547C93.0686 166.911 93.2182 166.772 93.4826 166.772C93.7192 166.772 93.9071 166.883 93.9071 167.227V167.273C93.1417 167.356 92.6406 167.488 92.6406 167.93C92.6406 168.275 92.9329 168.469 93.2843 168.469ZM96.3238 166.552H94.7825V168.424H95.0991V166.827H96.0072V168.424H96.3238V166.552ZM96.9281 166.552V169.033H97.2447V168.142C97.3595 168.341 97.5543 168.469 97.857 168.469C98.2885 168.469 98.6573 168.118 98.6573 167.495C98.6573 166.883 98.2885 166.521 97.857 166.521C97.5543 166.521 97.3595 166.65 97.2447 166.848V166.552H96.9281ZM97.2308 167.495C97.2308 167.001 97.4952 166.792 97.777 166.792C98.1006 166.792 98.3128 167.046 98.3128 167.495C98.3128 167.944 98.1006 168.198 97.777 168.198C97.4952 168.198 97.2308 167.989 97.2308 167.495ZM100.78 167.593C100.819 166.998 100.481 166.521 99.907 166.521C99.3955 166.521 98.9989 166.897 98.9989 167.492C98.9989 168.045 99.326 168.469 99.9174 168.469C100.373 168.469 100.672 168.202 100.756 167.881H100.429C100.349 168.066 100.196 168.191 99.9174 168.191C99.6426 168.191 99.3503 167.996 99.3399 167.593H100.78ZM99.907 166.792C100.244 166.792 100.436 167.057 100.446 167.321H99.3434C99.3712 166.945 99.6287 166.792 99.907 166.792ZM102.718 166.552H101.469L101.441 167.193C101.403 167.968 101.243 168.149 101.076 168.149H101.041V168.424H101.101C101.535 168.424 101.699 168.035 101.744 167.28L101.772 166.827H102.402V168.424H102.718V166.552ZM103.641 167.213V166.552H103.324V168.424H104.083C104.514 168.424 104.785 168.268 104.785 167.805C104.785 167.405 104.577 167.213 104.086 167.213H103.641ZM103.641 168.149V167.488H104.048C104.33 167.488 104.476 167.558 104.476 167.805C104.476 168.055 104.333 168.149 104.055 168.149H103.641Z" fill="#10273D"/>
<path d="M124.673 166.552H124.22L123.66 167.993L123.079 166.552H122.627V168.424H122.936V166.942L123.535 168.424H123.761L124.363 166.921V168.424H124.673V166.552ZM126.441 167.641C126.441 168.083 126.159 168.219 125.863 168.219C125.637 168.219 125.501 168.101 125.501 167.923C125.501 167.666 125.867 167.579 126.441 167.523V167.641ZM125.794 168.469C126.128 168.469 126.319 168.362 126.434 168.167C126.437 168.278 126.448 168.355 126.458 168.424H126.778C126.74 168.247 126.726 168.035 126.73 167.718L126.733 167.286C126.736 166.758 126.507 166.514 125.988 166.514C125.627 166.514 125.265 166.74 125.237 167.144H125.564C125.578 166.911 125.727 166.772 125.992 166.772C126.229 166.772 126.416 166.883 126.416 167.227V167.273C125.651 167.356 125.15 167.488 125.15 167.93C125.15 168.275 125.442 168.469 125.794 168.469ZM128.412 165.902C128.398 166.013 128.311 166.114 128.106 166.114C127.901 166.114 127.817 166.013 127.803 165.902H127.556C127.574 166.11 127.72 166.323 128.102 166.323C128.499 166.323 128.631 166.11 128.659 165.902H128.412ZM128.576 168.424H128.892V166.552H128.576L127.608 167.965V166.552H127.292V168.424H127.608L128.576 167.012V168.424Z" fill="#10273D"/>
<path d="M147.768 168.424H148.085V166.552H147.768L146.801 167.965V166.552H146.484V168.424H146.801L147.768 167.012V168.424ZM150.229 166.521C149.846 166.521 149.453 166.765 149.387 167.332H149.008V166.552H148.691V168.424H149.008V167.607H149.38C149.425 168.205 149.839 168.469 150.229 168.469C150.664 168.469 151.126 168.174 151.126 167.495C151.126 166.817 150.664 166.521 150.229 166.521ZM150.229 168.191C149.968 168.191 149.714 167.996 149.714 167.495C149.714 166.984 149.968 166.799 150.229 166.799C150.518 166.799 150.789 166.994 150.789 167.495C150.789 167.975 150.518 168.191 150.229 168.191ZM153.153 168.424V166.552H152.836V167.332H151.911V166.552H151.594V168.424H151.911V167.607H152.836V168.424H153.153ZM154.073 167.213V166.552H153.757V168.424H154.515C154.947 168.424 155.218 168.268 155.218 167.805C155.218 167.405 155.009 167.213 154.519 167.213H154.073ZM154.073 168.149V167.488H154.481C154.762 167.488 154.909 167.558 154.909 167.805C154.909 168.055 154.766 168.149 154.488 168.149H154.073Z" fill="#10273D"/>
<path d="M174.625 168.424H174.942V166.552H174.625L173.658 167.965V166.552H173.342V168.424H173.658L174.625 167.012V168.424ZM177.086 166.521C176.704 166.521 176.31 166.765 176.244 167.332H175.865V166.552H175.548V168.424H175.865V167.607H176.237C176.283 168.205 176.697 168.469 177.086 168.469C177.521 168.469 177.984 168.174 177.984 167.495C177.984 166.817 177.521 166.521 177.086 166.521ZM177.086 168.191C176.825 168.191 176.571 167.996 176.571 167.495C176.571 166.984 176.825 166.799 177.086 166.799C177.375 166.799 177.646 166.994 177.646 167.495C177.646 167.975 177.375 168.191 177.086 168.191ZM179.903 166.552H178.654L178.626 167.193C178.588 167.968 178.428 168.149 178.261 168.149H178.226V168.424H178.285C178.72 168.424 178.884 168.035 178.929 167.28L178.957 166.827H179.587V168.424H179.903V166.552ZM180.826 167.213V166.552H180.509V168.424H181.267C181.699 168.424 181.97 168.268 181.97 167.805C181.97 167.405 181.762 167.213 181.271 167.213H180.826ZM180.826 168.149V167.488H181.233C181.514 167.488 181.661 167.558 181.661 167.805C181.661 168.055 181.518 168.149 181.24 168.149H180.826Z" fill="#10273D"/>
<path d="M200.361 167.641C200.361 168.083 200.079 168.219 199.784 168.219C199.557 168.219 199.422 168.101 199.422 167.923C199.422 167.666 199.787 167.579 200.361 167.523V167.641ZM199.714 168.469C200.048 168.469 200.239 168.362 200.354 168.167C200.358 168.278 200.368 168.355 200.379 168.424H200.699C200.66 168.247 200.646 168.035 200.65 167.718L200.653 167.286C200.657 166.758 200.427 166.514 199.909 166.514C199.547 166.514 199.185 166.74 199.157 167.144H199.484C199.498 166.911 199.648 166.772 199.912 166.772C200.149 166.772 200.337 166.883 200.337 167.227V167.273C199.571 167.356 199.07 167.488 199.07 167.93C199.07 168.275 199.363 168.469 199.714 168.469ZM201.212 166.552V168.424H202.082C202.482 168.424 202.785 168.268 202.785 167.878C202.785 167.627 202.642 167.495 202.447 167.44C202.621 167.366 202.708 167.227 202.708 167.029C202.708 166.65 202.402 166.552 202.026 166.552H201.212ZM201.529 167.339V166.827H201.995C202.232 166.827 202.378 166.869 202.378 167.064C202.378 167.276 202.239 167.339 202.005 167.339H201.529ZM201.529 167.6H202.023C202.315 167.6 202.454 167.666 202.454 167.874C202.454 168.069 202.312 168.149 202.033 168.149H201.529V167.6ZM204.419 166.827V166.552H203.225V168.424H203.542V166.827H204.419ZM204.729 169.033H204.893C205.314 169.033 205.404 168.908 205.544 168.504L206.212 166.552H205.881L205.418 167.996L204.942 166.552H204.59L205.265 168.424L205.251 168.462C205.168 168.755 205.067 168.769 204.858 168.769H204.729V169.033ZM207.29 166.521C206.736 166.521 206.385 166.935 206.385 167.492C206.385 168.062 206.719 168.469 207.258 168.469C207.697 168.469 208.027 168.167 208.093 167.815H207.766C207.721 168.01 207.537 168.191 207.269 168.191C206.99 168.191 206.729 167.961 206.729 167.488C206.729 167.019 206.99 166.799 207.269 166.799C207.516 166.799 207.707 166.956 207.752 167.179H208.072C208.027 166.859 207.749 166.521 207.29 166.521ZM209.858 166.827V166.552H208.261V166.827H208.901V168.424H209.217V166.827H209.858Z" fill="#10273D"/>
<path d="M227.815 166.521C227.262 166.521 226.911 166.935 226.911 167.492C226.911 168.062 227.245 168.469 227.784 168.469C228.222 168.469 228.553 168.167 228.619 167.815H228.292C228.247 168.01 228.062 168.191 227.794 168.191C227.516 168.191 227.255 167.961 227.255 167.488C227.255 167.019 227.516 166.799 227.794 166.799C228.041 166.799 228.233 166.956 228.278 167.179H228.598C228.553 166.859 228.274 166.521 227.815 166.521ZM230.715 167.593C230.754 166.998 230.416 166.521 229.842 166.521C229.331 166.521 228.934 166.897 228.934 167.492C228.934 168.045 229.261 168.469 229.852 168.469C230.308 168.469 230.607 168.202 230.691 167.881H230.364C230.284 168.066 230.131 168.191 229.852 168.191C229.578 168.191 229.285 167.996 229.275 167.593H230.715ZM229.842 166.792C230.179 166.792 230.371 167.057 230.381 167.321H229.278C229.306 166.945 229.564 166.792 229.842 166.792ZM232.733 168.424V166.552H232.417V167.332H231.491V166.552H231.175V168.424H231.491V167.607H232.417V168.424H232.733ZM234.719 166.827V166.552H233.122V166.827H233.762V168.424H234.078V166.827H234.719ZM235.109 166.552V169.033H235.426V168.142C235.541 168.341 235.735 168.469 236.038 168.469C236.47 168.469 236.838 168.118 236.838 167.495C236.838 166.883 236.47 166.521 236.038 166.521C235.735 166.521 235.541 166.65 235.426 166.848V166.552H235.109ZM235.412 167.495C235.412 167.001 235.676 166.792 235.958 166.792C236.282 166.792 236.494 167.046 236.494 167.495C236.494 167.944 236.282 168.198 235.958 168.198C235.676 168.198 235.412 167.989 235.412 167.495ZM238.684 166.552H237.95C237.518 166.552 237.254 166.744 237.254 167.13C237.254 167.408 237.414 167.589 237.65 167.669L237.083 168.424H237.476L237.984 167.756C238.002 167.76 238.019 167.76 238.036 167.76H238.367V168.424H238.684V166.552ZM238.367 166.827V167.485H237.995C237.776 167.485 237.577 167.405 237.577 167.151C237.577 166.925 237.734 166.827 237.967 166.827H238.367ZM240.13 166.66C239.852 166.66 239.601 166.782 239.476 167.043C239.521 166.577 239.741 166.406 240.196 166.305L240.795 166.177V165.895L240.179 166.017C239.427 166.166 239.205 166.559 239.194 167.234V167.45C239.194 168.132 239.591 168.469 240.075 168.469C240.534 168.469 240.92 168.149 240.92 167.547C240.92 166.956 240.555 166.66 240.13 166.66ZM240.075 168.195C239.758 168.195 239.535 167.948 239.535 167.551C239.535 167.13 239.793 166.935 240.078 166.935C240.367 166.935 240.582 167.144 240.582 167.554C240.582 167.961 240.381 168.195 240.075 168.195ZM242.841 166.552H241.592L241.564 167.193C241.526 167.968 241.366 168.149 241.199 168.149H241.164V168.424H241.223C241.658 168.424 241.822 168.035 241.867 167.28L241.895 166.827H242.525V168.424H242.841V166.552ZM243.764 167.213V166.552H243.447V168.424H244.205C244.637 168.424 244.908 168.268 244.908 167.805C244.908 167.405 244.699 167.213 244.209 167.213H243.764ZM243.764 168.149V167.488H244.171C244.452 167.488 244.599 167.558 244.599 167.805C244.599 168.055 244.456 168.149 244.178 168.149H243.764Z" fill="#10273D"/>
<path d="M263.112 167.495C263.112 166.984 263.384 166.799 263.673 166.799C263.961 166.799 264.233 166.994 264.233 167.495C264.233 167.975 263.961 168.191 263.673 168.191C263.384 168.191 263.112 167.996 263.112 167.495ZM263.673 166.521C263.238 166.521 262.775 166.817 262.775 167.495C262.775 168.174 263.238 168.469 263.673 168.469C264.108 168.469 264.57 168.174 264.57 167.495C264.57 166.817 264.108 166.521 263.673 166.521ZM266.24 168.424H266.633L265.854 167.436L266.56 166.552H266.184L265.589 167.318H265.356V166.552H265.036V168.424H265.356V167.593H265.596L266.24 168.424ZM268.386 166.827V166.552H266.789V166.827H267.429V168.424H267.746V166.827H268.386ZM270.094 166.552H269.359C268.928 166.552 268.664 166.744 268.664 167.13C268.664 167.408 268.824 167.589 269.06 167.669L268.493 168.424H268.886L269.394 167.756C269.412 167.76 269.429 167.76 269.446 167.76H269.777V168.424H270.094V166.552ZM269.777 166.827V167.485H269.405C269.185 167.485 268.987 167.405 268.987 167.151C268.987 166.925 269.144 166.827 269.377 166.827H269.777ZM271.54 166.66C271.262 166.66 271.011 166.782 270.886 167.043C270.931 166.577 271.15 166.406 271.606 166.305L272.205 166.177V165.895L271.589 166.017C270.837 166.166 270.615 166.559 270.604 167.234V167.45C270.604 168.132 271.001 168.469 271.484 168.469C271.944 168.469 272.33 168.149 272.33 167.547C272.33 166.956 271.965 166.66 271.54 166.66ZM271.484 168.195C271.168 168.195 270.945 167.948 270.945 167.551C270.945 167.13 271.203 166.935 271.488 166.935C271.777 166.935 271.992 167.144 271.992 167.554C271.992 167.961 271.791 168.195 271.484 168.195ZM272.772 166.552V169.033H273.089V168.142C273.204 168.341 273.399 168.469 273.701 168.469C274.133 168.469 274.502 168.118 274.502 167.495C274.502 166.883 274.133 166.521 273.701 166.521C273.399 166.521 273.204 166.65 273.089 166.848V166.552H272.772ZM273.075 167.495C273.075 167.001 273.339 166.792 273.621 166.792C273.945 166.792 274.157 167.046 274.157 167.495C274.157 167.944 273.945 168.198 273.621 168.198C273.339 168.198 273.075 167.989 273.075 167.495ZM275.279 167.213V166.552H274.962V168.424H275.721C276.152 168.424 276.423 168.268 276.423 167.805C276.423 167.405 276.215 167.213 275.724 167.213H275.279ZM275.279 168.149V167.488H275.686C275.968 167.488 276.114 167.558 276.114 167.805C276.114 168.055 275.971 168.149 275.693 168.149H275.279Z" fill="#10273D"/>
<path d="M295.33 168.424V166.552H295.014V167.332H294.088V166.552H293.772V168.424H294.088V167.607H295.014V168.424H295.33ZM296.132 167.495C296.132 166.984 296.404 166.799 296.693 166.799C296.981 166.799 297.253 166.994 297.253 167.495C297.253 167.975 296.981 168.191 296.693 168.191C296.404 168.191 296.132 167.996 296.132 167.495ZM296.693 166.521C296.258 166.521 295.795 166.817 295.795 167.495C295.795 168.174 296.258 168.469 296.693 168.469C297.128 168.469 297.59 168.174 297.59 167.495C297.59 166.817 297.128 166.521 296.693 166.521ZM299.441 166.552H298.707C298.275 166.552 298.011 166.744 298.011 167.13C298.011 167.408 298.171 167.589 298.407 167.669L297.84 168.424H298.233L298.741 167.756C298.759 167.76 298.776 167.76 298.794 167.76H299.124V168.424H299.441V166.552ZM299.124 166.827V167.485H298.752C298.533 167.485 298.334 167.405 298.334 167.151C298.334 166.925 298.491 166.827 298.724 166.827H299.124ZM300.887 166.66C300.609 166.66 300.358 166.782 300.233 167.043C300.278 166.577 300.498 166.406 300.953 166.305L301.552 166.177V165.895L300.936 166.017C300.184 166.166 299.962 166.559 299.951 167.234V167.45C299.951 168.132 300.348 168.469 300.832 168.469C301.291 168.469 301.677 168.149 301.677 167.547C301.677 166.956 301.312 166.66 300.887 166.66ZM300.832 168.195C300.515 168.195 300.292 167.948 300.292 167.551C300.292 167.13 300.55 166.935 300.835 166.935C301.124 166.935 301.34 167.144 301.34 167.554C301.34 167.961 301.138 168.195 300.832 168.195ZM302.12 166.552V169.033H302.436V168.142C302.551 168.341 302.746 168.469 303.049 168.469C303.48 168.469 303.849 168.118 303.849 167.495C303.849 166.883 303.48 166.521 303.049 166.521C302.746 166.521 302.551 166.65 302.436 166.848V166.552H302.12ZM302.422 167.495C302.422 167.001 302.687 166.792 302.968 166.792C303.292 166.792 303.504 167.046 303.504 167.495C303.504 167.944 303.292 168.198 302.968 168.198C302.687 168.198 302.422 167.989 302.422 167.495ZM304.626 167.213V166.552H304.309V168.424H305.068C305.499 168.424 305.771 168.268 305.771 167.805C305.771 167.405 305.562 167.213 305.071 167.213H304.626ZM304.626 168.149V167.488H305.033C305.315 167.488 305.461 167.558 305.461 167.805C305.461 168.055 305.318 168.149 305.04 168.149H304.626Z" fill="#10273D"/>
<path d="M325.379 168.149H325.118V166.552H323.855L323.831 167.154C323.803 167.871 323.692 168.149 323.479 168.149H323.396V168.838H323.702V168.424H325.073V168.838H325.379V168.149ZM324.802 168.149H323.89C324.036 168.01 324.116 167.739 324.144 167.186L324.161 166.827H324.802V168.149ZM327.403 167.593C327.441 166.998 327.104 166.521 326.53 166.521C326.018 166.521 325.622 166.897 325.622 167.492C325.622 168.045 325.949 168.469 326.54 168.469C326.996 168.469 327.295 168.202 327.379 167.881H327.052C326.972 168.066 326.819 168.191 326.54 168.191C326.265 168.191 325.973 167.996 325.963 167.593H327.403ZM326.53 166.792C326.867 166.792 327.059 167.057 327.069 167.321H325.966C325.994 166.945 326.251 166.792 326.53 166.792ZM329.066 168.424H329.459L328.68 167.436L329.386 166.552H329.011L328.416 167.318H328.183V166.552H327.862V168.424H328.183V167.593H328.423L329.066 168.424ZM330.949 167.641C330.949 168.083 330.667 168.219 330.372 168.219C330.146 168.219 330.01 168.101 330.01 167.923C330.01 167.666 330.375 167.579 330.949 167.523V167.641ZM330.302 168.469C330.636 168.469 330.828 168.362 330.942 168.167C330.946 168.278 330.956 168.355 330.967 168.424H331.287C331.248 168.247 331.235 168.035 331.238 167.718L331.242 167.286C331.245 166.758 331.015 166.514 330.497 166.514C330.135 166.514 329.773 166.74 329.745 167.144H330.072C330.086 166.911 330.236 166.772 330.5 166.772C330.737 166.772 330.925 166.883 330.925 167.227V167.273C330.159 167.356 329.658 167.488 329.658 167.93C329.658 168.275 329.951 168.469 330.302 168.469ZM332.642 166.66C332.364 166.66 332.113 166.782 331.988 167.043C332.033 166.577 332.253 166.406 332.708 166.305L333.307 166.177V165.895L332.691 166.017C331.939 166.166 331.717 166.559 331.706 167.234V167.45C331.706 168.132 332.103 168.469 332.587 168.469C333.046 168.469 333.432 168.149 333.432 167.547C333.432 166.956 333.067 166.66 332.642 166.66ZM332.587 168.195C332.27 168.195 332.047 167.948 332.047 167.551C332.047 167.13 332.305 166.935 332.59 166.935C332.879 166.935 333.095 167.144 333.095 167.554C333.095 167.961 332.893 168.195 332.587 168.195ZM333.875 166.552V169.033H334.191V168.142C334.306 168.341 334.501 168.469 334.804 168.469C335.235 168.469 335.604 168.118 335.604 167.495C335.604 166.883 335.235 166.521 334.804 166.521C334.501 166.521 334.306 166.65 334.191 166.848V166.552H333.875ZM334.177 167.495C334.177 167.001 334.442 166.792 334.723 166.792C335.047 166.792 335.259 167.046 335.259 167.495C335.259 167.944 335.047 168.198 334.723 168.198C334.442 168.198 334.177 167.989 334.177 167.495ZM336.381 167.213V166.552H336.064V168.424H336.823C337.254 168.424 337.526 168.268 337.526 167.805C337.526 167.405 337.317 167.213 336.826 167.213H336.381ZM336.381 168.149V167.488H336.788C337.07 167.488 337.216 167.558 337.216 167.805C337.216 168.055 337.073 168.149 336.795 168.149H336.381Z" fill="#10273D"/>
<path d="M5.11989 108.594C5.11989 109.3 4.87634 109.638 4.47622 109.638C4.0761 109.638 3.83255 109.3 3.83255 108.594C3.83255 107.895 4.0761 107.554 4.47622 107.554C4.86938 107.554 5.11989 107.895 5.11989 108.594ZM5.45738 108.594C5.45738 107.797 5.14773 107.289 4.47622 107.289C3.80472 107.289 3.49506 107.797 3.49506 108.594C3.49506 109.391 3.80472 109.902 4.47622 109.902C5.14773 109.902 5.45738 109.391 5.45738 108.594ZM6.39377 108.778C6.77302 108.778 6.96786 108.476 6.96786 108.044C6.96786 107.613 6.77302 107.31 6.39377 107.31C6.01801 107.31 5.82665 107.613 5.82665 108.044C5.82665 108.476 6.01801 108.778 6.39377 108.778ZM6.39377 108.587C6.19893 108.587 6.09108 108.392 6.09108 108.044C6.09108 107.696 6.19893 107.498 6.39377 107.498C6.59905 107.498 6.70343 107.696 6.70343 108.044C6.70343 108.392 6.59905 108.587 6.39377 108.587ZM6.7417 109.857L8.48135 107.335H8.12994L6.39029 109.857H6.7417ZM8.48135 109.881C8.86059 109.881 9.05543 109.579 9.05543 109.147C9.05543 108.716 8.86059 108.413 8.48135 108.413C8.10558 108.413 7.91422 108.716 7.91422 109.147C7.91422 109.579 8.10558 109.881 8.48135 109.881ZM8.48135 109.69C8.28651 109.69 8.17865 109.495 8.17865 109.147C8.17865 108.799 8.28651 108.601 8.48135 108.601C8.68663 108.601 8.791 108.799 8.791 109.147C8.791 109.495 8.68663 109.69 8.48135 109.69Z" fill="#10273D"/>
<path d="M5.38338 79.0634V80.229H4.48224L5.38338 79.0634ZM6.16622 80.229H5.70348V78.6285H5.3799L4.13084 80.229V80.5282H5.38338V81.151H5.70348V80.5282H6.16622V80.229ZM8.10427 79.888C8.10427 80.5943 7.86072 80.9318 7.4606 80.9318C7.06048 80.9318 6.81693 80.5943 6.81693 79.888C6.81693 79.1887 7.06048 78.8477 7.4606 78.8477C7.85376 78.8477 8.10427 79.1887 8.10427 79.888ZM8.44176 79.888C8.44176 79.0913 8.1321 78.5833 7.4606 78.5833C6.7891 78.5833 6.47944 79.0913 6.47944 79.888C6.47944 80.6848 6.7891 81.1962 7.4606 81.1962C8.1321 81.1962 8.44176 80.6848 8.44176 79.888ZM9.37815 80.0724C9.75739 80.0724 9.95223 79.7697 9.95223 79.3383C9.95223 78.9069 9.75739 78.6042 9.37815 78.6042C9.00239 78.6042 8.81102 78.9069 8.81102 79.3383C8.81102 79.7697 9.00239 80.0724 9.37815 80.0724ZM9.37815 79.8811C9.18331 79.8811 9.07545 79.6862 9.07545 79.3383C9.07545 78.9904 9.18331 78.792 9.37815 78.792C9.58343 78.792 9.68781 78.9904 9.68781 79.3383C9.68781 79.6862 9.58343 79.8811 9.37815 79.8811ZM9.72608 81.151L11.4657 78.6285H11.1143L9.37467 81.151H9.72608ZM11.4657 81.1754C11.845 81.1754 12.0398 80.8727 12.0398 80.4412C12.0398 80.0098 11.845 79.7071 11.4657 79.7071C11.09 79.7071 10.8986 80.0098 10.8986 80.4412C10.8986 80.8727 11.09 81.1754 11.4657 81.1754ZM11.4657 80.984C11.2709 80.984 11.163 80.7892 11.163 80.4412C11.163 80.0933 11.2709 79.895 11.4657 79.895C11.671 79.895 11.7754 80.0933 11.7754 80.4412C11.7754 80.7892 11.671 80.984 11.4657 80.984Z" fill="#10273D"/>
<path d="M5.15391 49.8815C4.63898 49.8815 4.31192 50.1529 4.31192 50.5252C4.31192 50.7339 4.40934 50.967 4.65985 51.1062C4.32932 51.2349 4.2319 51.5133 4.2319 51.7394C4.2319 52.2231 4.6355 52.4944 5.15391 52.4944C5.66885 52.4944 6.07244 52.2231 6.07244 51.7394C6.07244 51.5098 5.97154 51.2349 5.64797 51.1062C5.89848 50.967 5.9959 50.7339 5.9959 50.5252C5.9959 50.1529 5.66885 49.8815 5.15391 49.8815ZM5.15391 51.2384C5.51228 51.2384 5.73843 51.4437 5.73843 51.7394C5.73843 52.0352 5.51228 52.23 5.15391 52.23C4.79206 52.23 4.56939 52.0352 4.56939 51.7394C4.56939 51.4437 4.79206 51.2384 5.15391 51.2384ZM5.6758 50.5634C5.6758 50.8174 5.47053 51.0053 5.15391 51.0053C4.8373 51.0053 4.62854 50.8174 4.62854 50.5634C4.62854 50.3129 4.83382 50.1459 5.15391 50.1459C5.47053 50.1459 5.6758 50.3129 5.6758 50.5634ZM8.10427 51.1862C8.10427 51.8925 7.86072 52.23 7.4606 52.23C7.06048 52.23 6.81693 51.8925 6.81693 51.1862C6.81693 50.4869 7.06048 50.1459 7.4606 50.1459C7.85376 50.1459 8.10427 50.4869 8.10427 51.1862ZM8.44176 51.1862C8.44176 50.3895 8.1321 49.8815 7.4606 49.8815C6.7891 49.8815 6.47944 50.3895 6.47944 51.1862C6.47944 51.983 6.7891 52.4944 7.4606 52.4944C8.1321 52.4944 8.44176 51.983 8.44176 51.1862ZM9.37815 51.3706C9.75739 51.3706 9.95223 51.0679 9.95223 50.6365C9.95223 50.2051 9.75739 49.9024 9.37815 49.9024C9.00239 49.9024 8.81102 50.2051 8.81102 50.6365C8.81102 51.0679 9.00239 51.3706 9.37815 51.3706ZM9.37815 51.1793C9.18331 51.1793 9.07545 50.9844 9.07545 50.6365C9.07545 50.2886 9.18331 50.0903 9.37815 50.0903C9.58343 50.0903 9.68781 50.2886 9.68781 50.6365C9.68781 50.9844 9.58343 51.1793 9.37815 51.1793ZM9.72608 52.4492L11.4657 49.9267H11.1143L9.37467 52.4492H9.72608ZM11.4657 52.4736C11.845 52.4736 12.0398 52.1709 12.0398 51.7394C12.0398 51.308 11.845 51.0053 11.4657 51.0053C11.09 51.0053 10.8986 51.308 10.8986 51.7394C10.8986 52.1709 11.09 52.4736 11.4657 52.4736ZM11.4657 52.2822C11.2709 52.2822 11.163 52.0874 11.163 51.7394C11.163 51.3915 11.2709 51.1932 11.4657 51.1932C11.671 51.1932 11.7754 51.3915 11.7754 51.7394C11.7754 52.0874 11.671 52.2822 11.4657 52.2822Z" fill="#10273D"/>
<path opacity="0.1" d="M343 161.945H0" stroke="#10273D" stroke-width="0.579882"/>
</svg>
