<svg width="44" height="44" viewBox="0 0 44 44" fill="none" xmlns="http://www.w3.org/2000/svg">
<path d="M28.0341 21.7517C28.045 20.9046 28.2702 20.074 28.6888 19.3372C29.1075 18.6004 29.7058 17.9814 30.4283 17.5377C29.9694 16.8829 29.3639 16.3441 28.66 15.9639C27.956 15.5838 27.1731 15.3728 26.3733 15.3479C24.6672 15.169 23.0132 16.3677 22.1438 16.3677C21.2576 16.3677 19.919 15.3656 18.4776 15.3952C17.5452 15.4253 16.6366 15.6962 15.8401 16.1813C15.0437 16.6665 14.3867 17.3495 13.9331 18.1638C11.9681 21.5621 13.4338 26.5565 15.3161 29.3035C16.2578 30.6486 17.3584 32.1511 18.7985 32.0978C20.2078 32.0394 20.7341 31.2002 22.4352 31.2002C24.1205 31.2002 24.6143 32.0978 26.0837 32.0639C27.5958 32.0394 28.5486 30.7129 29.4573 29.355C30.1339 28.3966 30.6546 27.3373 31 26.2164C30.1215 25.8452 29.3717 25.2239 28.8443 24.43C28.3169 23.636 28.0351 22.7045 28.0341 21.7517V21.7517Z" fill="#10273D"/>
<path d="M25.2585 13.5427C26.083 12.5539 26.4892 11.2831 26.3908 10C25.1311 10.1322 23.9676 10.7336 23.1319 11.6844C22.7233 12.1488 22.4104 12.6892 22.211 13.2746C22.0116 13.8599 21.9297 14.4788 21.9699 15.0959C22.6 15.1023 23.2233 14.9659 23.7929 14.6969C24.3626 14.4278 24.8636 14.0332 25.2585 13.5427Z" fill="#10273D"/>
</svg>
