<svg width="137" height="48" viewBox="0 0 137 48" fill="none" xmlns="http://www.w3.org/2000/svg">
<g clip-path="url(#clip0_2890_7406)">
<path d="M117.153 28.4353L118.3 28.5882C117.459 31.8 112.259 30.6529 112.718 27.5176C113.176 24.3824 117.076 23.2353 118.3 26.0647L117.153 26.5235C117.008 26.1136 116.71 25.7757 116.322 25.5805C115.933 25.3854 115.484 25.3482 115.069 25.4767C114.654 25.6053 114.305 25.8896 114.094 26.27C113.884 26.6505 113.829 27.0976 113.941 27.5176C113.635 29.3529 116.541 30.4235 117.153 28.4353V28.4353ZM75.3235 37.1529C76.0882 37.0765 77.9235 37.4588 77.8471 36.3118C77.7706 35.1647 76.0882 35.5471 75.3235 35.4706V37.1529ZM74.1765 38.1471V32.3353H78.7647V33.3294H75.3235V34.4765H77.0059C79.7588 34.2471 79.6824 38.3765 77.0059 38.1471H74.1765ZM79.7588 38.1471V32.3353H80.9824V37.1529H81.1353L82.7412 32.3353H84.9588V38.1471H83.7353V33.3294H83.5824L81.9765 38.1471H79.7588ZM87.1765 35.3176C88.0941 35.3176 89.7765 35.5471 89.7 34.3235C89.6235 33.1 88.0176 33.4059 87.1765 33.3294V35.3176ZM86.0294 38.1471V32.3353H88.6294C91.8412 32.4118 91.9176 36.9235 87.1765 36.2353V38.1471H86.0294ZM90.9235 38.1471L92.8353 35.0882L90.9235 32.3353H92.3765L93.8294 34.6294H94.2882V32.3353H95.4353V34.6294H95.9706L97.3471 32.3353H98.8L96.8882 35.0882L98.8765 38.1471H97.5L95.9706 35.6235H95.4353V38.1471H94.2882V35.6235H93.8294L92.3 38.1471H90.9235ZM101.094 35.7H102.929L102.165 33.3294H101.859L101.094 35.7ZM99.1059 38.1471L101.171 32.3353H102.929L104.994 38.1471H103.771L103.235 36.6941H100.788L100.253 38.1471H99.1059ZM74.1 30.4235V24.6118H76.3941L77.4647 29.4294H77.6176L78.6118 24.6118H80.8294V30.4235H79.6824V25.6059H79.5294L78.5353 30.4235H76.5471L75.4765 25.6059H75.3235V30.4235H74.1ZM84.7294 29.5059C87.2529 29.5824 87.1765 25.3765 84.6529 25.4529C82.1294 25.5294 82.2059 29.5824 84.7294 29.5059ZM84.7294 30.5C80.6 30.6529 80.6 24.3059 84.7294 24.4588C88.8588 24.6118 88.7824 30.6529 84.7294 30.5ZM92.8353 28.4353L94.0588 28.5882C93.2176 31.8 88.0176 30.6529 88.4765 27.5176C88.9353 24.3824 92.8353 23.2353 93.9824 26.0647L92.8353 26.5235C92.0706 24.6118 89.3941 25.6059 89.7 27.5176C90.0059 29.4294 92.2235 30.4235 92.8353 28.4353V28.4353ZM94.9 30.4235V24.6118H96.1235V26.8294H96.7353L98.6471 24.6118H100.1L97.8059 27.2882L100.253 30.4235H98.8L96.7353 27.8235H96.1235V30.4235H94.9ZM103.312 29.5059C105.835 29.5824 105.759 25.3765 103.235 25.4529C100.712 25.5294 100.788 29.5824 103.312 29.5059ZM103.312 30.5C99.2588 30.6529 99.1824 24.3059 103.312 24.4588C107.441 24.6118 107.365 30.6529 103.312 30.5ZM108.359 26.9824C109.047 26.9059 110.806 27.2882 110.806 26.2941C110.806 25.3 109.047 25.6824 108.359 25.6059V26.9824ZM108.359 29.4294C109.047 29.2765 110.959 29.8118 110.959 28.6647C110.959 27.5176 109.047 27.9765 108.359 27.9V29.4294ZM107.212 30.4235V24.6118H110.041C111.953 24.3059 112.641 26.8294 110.959 27.4412C112.871 27.9765 112.029 30.6529 110.118 30.4235H107.212ZM119.218 30.4235V24.6118H120.441V26.8294H121.053L122.965 24.6118H124.418L122.047 27.2882L124.494 30.4235H123.041L121.053 27.8235H120.441V30.4235H119.218ZM126.712 27.9H128.547L127.782 25.6059H127.553L126.712 27.9ZM124.724 30.4235L126.788 24.6118H128.547L130.688 30.4235H129.388L128.929 28.8941H126.406L125.871 30.4235H124.724ZM134.971 27.2118V25.6059C134.206 25.6824 132.447 25.2235 132.524 26.3706C132.6 27.5176 134.206 27.1353 134.971 27.2118ZM131.224 30.4235C131.453 29.5824 131.3 28.0529 132.371 27.7471C130.459 26.9059 131.453 24.3824 133.441 24.6118H136.118V30.4235H134.971V28.2059C132.371 28.0529 132.829 28.2824 132.447 30.4235H131.224ZM0 43.5V19.1059H26.3824V4.5H68.4412V43.5H0Z" fill="#10273D"/>
<path d="M14.3047 35.775H13.7694L11.093 24.6103H6.0459V38.1456H8.6459V26.9808H9.18119L11.8577 38.1456H16.293L18.9694 26.9808H19.5047V38.1456H22.1047V24.6103H17.0577L14.3047 35.775ZM40.84 38.1456H50.093V35.775H43.5165V32.4103H49.1753V30.1161H43.5165V26.9808H50.093V24.6103H40.84V38.1456ZM31.5106 36.1573C28.5283 36.1573 27.1518 34.0926 27.1518 31.3397C27.1518 28.5867 28.5283 26.5985 31.5106 26.5985C34.493 26.5985 35.8694 28.6632 35.8694 31.3397C35.8694 34.0161 34.493 36.1573 31.5106 36.1573ZM31.5106 24.2279C26.9988 24.2279 24.3988 27.1338 24.3988 31.3397C24.3988 35.5456 26.9988 38.5279 31.5106 38.5279C36.0224 38.5279 38.6224 35.5456 38.6224 31.3397C38.6224 27.1338 36.0224 24.2279 31.5106 24.2279V24.2279ZM51.9283 38.1456H54.7577L57.893 32.7926L61.3341 38.1456H64.1635L59.6518 31.0338L63.9341 24.6103H61.0283L58.0459 29.4279L55.0635 24.6103H52.1577L56.2871 30.9573L51.9283 38.1456Z" fill="#F2F4F8"/>
</g>
<defs>
<clipPath id="clip0_2890_7406">
<rect width="136.118" height="39" fill="white" transform="translate(0 4.5)"/>
</clipPath>
</defs>
</svg>
