<svg width="184" height="48" viewBox="0 0 184 48" fill="none" xmlns="http://www.w3.org/2000/svg">
<g clip-path="url(#clip0_2890_7411)">
<path d="M54.0534 22.4529L54.7555 20.2194L52.4328 20.2917C52.2366 20.2917 50.8102 20.2515 49.4265 19.2543C49.5296 19.2644 49.6327 19.2784 49.738 19.2784C51.1623 19.2784 52.54 18.426 53.0924 17.2076L54.0919 15.0062C52.8395 15.0223 51.6944 14.8655 51.6944 14.8655C51.6842 14.8634 50.7819 14.7489 49.738 13.6893C48.9893 12.9294 48.0628 12.5272 47.0592 12.5272C46.6203 12.5272 46.2277 12.6056 45.8899 12.7122C45.9425 12.5333 45.993 12.3523 46.0215 12.1653C46.341 10.1046 45.0058 8.53239 45.0058 8.53451L43.2598 6.38532L42.1774 8.9104C42.1733 8.91847 41.9002 9.50962 41.4106 9.79904C41.2629 9.05717 40.9008 8.22287 40.1259 7.42468C38.6651 5.92083 36.8868 5.69765 35.9561 5.69765C35.5251 5.69765 35.2177 5.74393 35.1427 5.75596L33.0347 6.16821C33.156 5.69977 33.415 4.88544 33.8884 4.15163L35.0518 2.3503L32.1242 2.68203L31.1915 0.713711L29.3869 1.63857L27.7178 0L26.0526 1.63857L24.2419 0.713711L23.3112 2.68203L20.3858 2.3503L21.551 4.15163C22.0245 4.88544 22.2835 5.69765 22.4029 6.1661L20.3917 5.77209L20.323 5.76006C20.2218 5.74393 19.9164 5.69765 19.4834 5.69765C18.5527 5.69765 16.7744 5.92282 15.3176 7.42468C14.5407 8.22089 14.1786 9.05717 14.0289 9.79904C13.5434 9.51358 13.2722 8.9305 13.2722 8.9305L12.1878 6.39126L10.4135 8.55461C10.197 8.83398 9.12678 10.3118 9.41807 12.1694C9.44848 12.3544 9.49699 12.5353 9.54962 12.7143C9.21378 12.6077 8.82123 12.5293 8.38227 12.5293C7.37874 12.5293 6.45217 12.9314 5.70157 13.6914C4.66154 14.7469 3.76326 14.8655 3.77145 14.8655C3.77145 14.8655 2.82253 15.0343 1.35372 15.0081L2.34708 17.2097C2.89948 18.4301 4.27917 19.2805 5.70157 19.2805C5.8088 19.2805 5.91192 19.2663 6.01717 19.2563C4.63735 20.2535 3.21099 20.2937 3.03897 20.2957L0.671875 20.2194L1.3881 22.4509C1.74826 23.601 2.95196 25.5069 5.2585 25.7119C5.00755 26.7574 4.45118 27.9275 3.22923 28.4321L1.46703 29.1538L2.42799 30.8165C2.97022 31.7132 4.2428 32.7626 6.05551 32.7626C6.44807 32.7606 6.82634 32.7224 7.1906 32.6461C7.28368 33.0562 7.40095 33.4664 7.53859 33.8724C8.0787 35.4687 7.61342 36.5825 7.60734 36.5946L6.73736 38.406L8.67963 38.9147C8.70395 38.9227 9.2906 39.0815 10.0251 39.0815C10.3589 39.0815 10.6765 39.0474 10.976 38.9771C11.2025 38.9247 11.4191 38.8544 11.6274 38.7699C11.8783 39.2182 12.1838 39.6264 12.5399 39.9922C13.7842 41.2609 15.5464 41.9042 17.7799 41.9042H17.788L19.3823 41.8841L16.0885 43.2432L18.5892 44.4435C19.4976 44.8838 20.5759 45.4044 21.6725 45.8025L21.3609 46.651L22.2228 47.041C22.2996 47.0751 23.9566 47.813 26.7123 47.9698C26.7123 47.9698 27.3779 48 27.744 48C28.1102 48 28.7677 47.9679 28.7677 47.9679C31.5052 47.807 33.1499 47.0772 33.2269 47.041L34.0907 46.649L33.7751 45.7986C34.9041 45.3884 36.0208 44.8475 36.8908 44.4254L39.3449 43.2412L36.0612 41.8802L37.6616 41.9003C39.8973 41.9003 41.6615 41.2569 42.9036 39.9863C43.2577 39.6224 43.5633 39.2143 43.8162 38.7659C44.0246 38.8504 44.243 38.9207 44.4696 38.973C44.767 39.0433 45.0847 39.0776 45.4185 39.0776C46.1407 39.0776 46.7336 38.9188 46.7497 38.9147L48.7001 38.4021L47.8503 36.6248C47.8301 36.5785 47.3648 35.4667 47.905 33.8684C48.0425 33.4603 48.1578 33.0502 48.2509 32.642C48.6172 32.7184 48.9995 32.7586 49.3941 32.7586C51.7024 32.7586 52.8091 31.1442 53.0236 30.7944L53.9745 29.1499L52.2123 28.4301C50.9883 27.9254 50.434 26.7533 50.1851 25.71C52.4591 25.5169 53.6811 23.611 54.0534 22.4529ZM22.5565 6.93613L22.5324 6.94221L22.5526 6.91604L22.5565 6.93613Z" fill="#F2F4F8"/>
<path d="M27.7144 6.83789C25.849 6.83987 24.4511 7.44702 24.1455 8.16073L27.7144 9.56012L31.2833 8.16073C30.9798 7.44702 29.5818 6.83987 27.7144 6.83789Z" fill="#F2F4F8"/>
<path d="M27.7584 43.8812H27.7543H27.7239H27.6895H27.6875C26.5565 43.8893 25.0007 43.658 24.2501 43.4409L23.3477 45.8675C23.9426 46.0787 25.9577 46.4807 27.7239 46.4807C29.4861 46.4807 31.5032 46.0767 32.096 45.8675L31.1956 43.4409C30.4431 43.66 28.8892 43.8893 27.7584 43.8812Z" fill="#F2F4F8"/>
<path d="M34.5908 41.4682C33.9191 41.8462 32.4199 42.4131 31.5479 42.6765L32.2803 44.6809C33.6297 44.3149 34.7424 43.8868 35.6631 43.4284L34.1436 42.9257L34.5908 41.4682Z" fill="#F2F4F8"/>
<path d="M20.8477 41.4682L21.2968 42.9257L19.7754 43.4284C20.6939 43.8868 21.8127 44.3149 23.1561 44.6809L23.8885 42.6765C23.0205 42.4131 21.5193 41.8441 20.8477 41.4682Z" fill="#F2F4F8"/>
<path d="M27.7236 4.5169C29.1297 4.5169 30.5095 4.85062 31.5696 5.4378C31.6668 5.114 31.8023 4.72197 31.9864 4.31183L31.5859 4.36009L31.165 4.40438L30.9869 4.02439L30.4508 2.89856L29.4736 3.40508L29.0933 3.59812L28.7898 3.30063L27.7276 2.25519L26.6675 3.30063L26.364 3.59812L25.9837 3.40508L25.0004 2.89856L24.4703 4.02439L24.2883 4.40438L23.8674 4.36009L23.4668 4.31183C23.651 4.72395 23.7845 5.114 23.8836 5.4378C24.9458 4.85062 26.3215 4.5169 27.7236 4.5169Z" fill="#F2F4F8"/>
<path d="M49.1915 17.5291C49.3737 17.5914 49.5597 17.6195 49.7439 17.6195C50.5389 17.6195 51.3078 17.1089 51.5728 16.5238C51.5728 16.5238 50.1141 16.4354 48.5461 14.8531C48.0465 14.3404 47.5184 14.1877 47.0652 14.1877C46.3611 14.1877 45.833 14.5576 45.833 14.5576C47.7268 15.5588 48.1131 17.1672 49.1915 17.5291Z" fill="#F2F4F8"/>
<path d="M5.701 17.6195C5.88505 17.6195 6.07121 17.5914 6.24931 17.5291C7.33164 17.1672 7.7201 15.5588 9.61385 14.5576C9.61385 14.5576 9.08366 14.1877 8.3837 14.1877C7.92847 14.1877 7.4004 14.3404 6.89863 14.8531C5.33278 16.4354 3.87402 16.5238 3.87402 16.5238C4.13502 17.1089 4.90585 17.6195 5.701 17.6195Z" fill="#F2F4F8"/>
<path d="M49.7071 24.0656C49.7395 24.0675 49.7678 24.0675 49.8022 24.0675C51.7869 24.0675 52.4607 21.9544 52.4607 21.9544H52.4222C52.0581 21.9544 49.1062 21.8701 47.0203 19.2343C45.6466 17.5014 44.5216 15.9774 42.2981 15.3782L42.0797 15.34L42.0311 15.1189C41.9704 14.7811 42.2031 14.4655 42.7312 14.1237C45.7983 12.1274 43.7164 9.58202 43.7164 9.58202C43.7164 9.58202 42.8404 11.6187 40.88 11.6187C40.8334 11.6187 40.7828 11.6166 40.7343 11.6166C40.5118 11.6046 40.2973 11.5965 40.0807 11.5504L39.7186 11.4799C39.7186 11.4799 40.2771 9.97008 38.9296 8.58285C37.9139 7.53543 36.6778 7.35852 35.9636 7.35852C35.6034 7.35852 35.3748 7.40466 35.3748 7.40466C36.0526 8.28523 36.5422 9.74491 35.7593 10.6456C35.0836 11.4196 33.4326 11.4578 33.4326 12.6118C33.4326 13.1004 33.8919 13.6714 34.7173 14.184C37.1998 15.7381 39.664 17.7988 40.6877 20.5613C41.9684 24.0072 40.5259 26.2932 38.4663 27.604C38.4663 27.604 39.1117 28.195 40.0485 28.2694C40.2386 28.2875 40.4248 28.2955 40.5988 28.2955C42.5754 28.2955 43.5971 27.3747 43.5971 27.3747C43.5971 27.3747 43.4291 28.6473 42.3993 29.8295C41.4505 30.9212 40.2042 31.5626 38.3044 31.5907C38.3044 31.5907 38.2437 32.4672 39.0854 33.2252C39.6235 33.7037 40.8678 33.8605 40.8678 33.8605C40.8678 33.8605 38.5391 34.3289 38.2822 37.7468C38.1425 39.5983 37.6671 40.2417 37.6671 40.2417H37.7097C43.1135 40.2417 42.9739 35.6358 42.9739 35.6358C42.9739 35.6358 43.3502 36.9988 44.8575 37.3547C45.0395 37.403 45.2338 37.4211 45.4199 37.4211C45.9056 37.4211 46.3263 37.3085 46.3263 37.3085C46.3263 37.3085 45.5373 35.6539 46.3202 33.3398C46.9697 31.4198 46.8645 29.9964 46.8645 29.9964C46.8645 29.9964 47.5928 31.0901 49.3976 31.1002H49.4157C50.919 31.1002 51.5744 29.9683 51.5744 29.9683C47.9712 28.4825 48.3273 23.6856 48.3273 23.6856C48.3273 23.6856 48.7947 24.0313 49.7071 24.0656ZM48.6226 29.0755C47.1578 28.3579 46.2312 26.452 46.0067 25.7643C45.7638 29.544 43.9066 32.1677 41.7357 34.6928C40.6088 36.0016 40.2164 37.2742 40.2164 37.2742C40.2164 37.2742 40.4328 35.8328 41.4079 34.6587C43.4332 32.24 45.3573 29.2304 45.5009 25.7503C45.6 23.3216 44.9708 21.3514 43.9896 19.729C44.5378 21.4198 44.461 23.4905 42.5976 25.4225C42.5976 25.4225 46.3061 21.0055 41.1207 16.478C39.0449 14.7551 36.7749 13.6915 35.6056 12.9376C39.8299 14.3067 41.8916 12.7988 41.8916 12.7988C40.542 13.9608 38.7961 13.9407 37.7136 13.7739C38.007 13.9167 38.3126 14.0654 38.6423 14.2403C42.2031 16.1624 45.4038 19.3248 45.95 23.7057V23.6714C46.7795 27.9718 48.6226 29.0755 48.6226 29.0755Z" fill="#F2F4F8"/>
<path d="M14.5791 33.8605C14.5791 33.8605 15.8234 33.7057 16.3616 33.2252C17.2011 32.4672 17.1426 31.5907 17.1426 31.5907C15.2408 31.5645 13.9965 30.9212 13.0416 29.8316C12.0198 28.6494 11.8499 27.3767 11.8499 27.3767C11.8499 27.3767 12.8715 28.2976 14.8462 28.2976C15.0243 28.2976 15.2084 28.2895 15.3985 28.2714C16.3353 28.197 16.9827 27.6059 16.9827 27.6059C14.923 26.2951 13.4786 24.0072 14.7572 20.5613C15.783 17.8008 18.2451 15.7381 20.7277 14.184C21.5531 13.6714 22.0123 13.1023 22.0123 12.6118C22.0123 11.4578 20.3634 11.4196 19.6876 10.6456C18.9048 9.74491 19.3964 8.28325 20.0721 7.40466C20.0721 7.40466 19.8475 7.35852 19.4853 7.35852C18.7732 7.35852 17.537 7.53543 16.5214 8.58285C15.1699 9.97008 15.7304 11.4799 15.7304 11.4799L15.3682 11.5504C15.1518 11.5965 14.9352 11.6046 14.7147 11.6166C14.6642 11.6166 14.6196 11.6187 14.5711 11.6187C12.6066 11.6187 11.7346 9.58401 11.7346 9.58401C11.7346 9.58401 9.65274 12.1294 12.7178 14.1257C13.2459 14.4675 13.4766 14.7831 13.4159 15.1209L13.3672 15.3421L13.1447 15.3803C10.9253 15.9794 9.79845 17.5033 8.42471 19.2363C6.34281 21.8681 3.39502 21.9544 3.02693 21.9544H2.98633C2.98633 21.9544 3.66012 24.0675 5.64483 24.0675C5.67723 24.0675 5.70552 24.0675 5.7399 24.0656C6.65233 24.0333 7.1217 23.6856 7.1217 23.6856C7.1217 23.6856 7.4738 28.4804 3.87457 29.9683C3.87457 29.9683 4.53011 31.1002 6.03329 31.1002H6.05153C7.85815 31.0901 8.58456 29.9964 8.58456 29.9964C8.58456 29.9964 8.47931 31.4198 9.12678 33.3398C9.90964 35.6539 9.12467 37.3085 9.12467 37.3085C9.12467 37.3085 9.54552 37.4211 10.029 37.4211C10.2172 37.4211 10.4094 37.403 10.5895 37.3547C12.0946 36.9988 12.473 35.6358 12.473 35.6358C12.473 35.6358 12.3354 40.2417 17.7394 40.2417H17.7777C17.7777 40.2417 17.3044 39.5983 17.1668 37.7468C16.9079 34.3289 14.5791 33.8605 14.5791 33.8605ZM13.7113 34.6928C11.5404 32.1677 9.68514 29.544 9.44027 25.7643C9.21577 26.45 8.29315 28.3579 6.82845 29.0755C6.82845 29.0755 8.66944 27.9718 9.49699 23.6714V23.7057C10.0453 19.3269 13.2439 16.1624 16.8066 14.2403C17.1324 14.0634 17.4419 13.9147 17.7333 13.7739C16.6509 13.9407 14.9049 13.9608 13.5554 12.7988C13.5554 12.7988 15.617 14.3067 19.8394 12.9376C18.6701 13.6915 16.402 14.7551 14.3262 16.478C9.13881 21.0055 12.8493 25.4225 12.8493 25.4225C10.984 23.4884 10.9092 21.4198 11.4574 19.729C10.4742 21.3534 9.84697 23.3216 9.94812 25.7503C10.0897 29.2304 12.0137 32.24 14.0349 34.6587C15.0122 35.8308 15.2327 37.2742 15.2327 37.2742C15.2327 37.2742 14.836 36.0016 13.7113 34.6928Z" fill="#F2F4F8"/>
<path d="M23.7301 17.0206C23.819 17.115 23.906 17.2177 23.9891 17.3201C24.0093 17.3443 24.0274 17.3664 24.0476 17.3946C24.1246 17.497 24.2035 17.6057 24.2784 17.7162C24.2945 17.7383 24.3108 17.7645 24.3289 17.7905C24.42 17.9273 24.505 18.0681 24.5899 18.2129C25.3688 19.5497 26.6172 20.3479 27.7238 20.3499C28.8325 20.3479 30.0768 19.5497 30.8598 18.2129C30.9468 18.064 31.0338 17.9193 31.1247 17.7846C31.1389 17.7645 31.1532 17.7464 31.1652 17.7263C31.2421 17.6117 31.3231 17.4991 31.4081 17.3905C31.4262 17.3664 31.4424 17.3463 31.4586 17.3262C31.5456 17.2196 31.6346 17.1151 31.7257 17.0185C31.7418 17.0025 31.7539 16.9884 31.7681 16.9764C32.1646 16.5723 32.6381 16.2646 33.2571 16.0938L32.982 15.935H32.9659L31.8692 15.3017L30.7424 14.6603L27.7319 16.2888L27.7238 16.2827L27.7177 16.2888L24.7052 14.6603L23.5804 15.2996L22.4818 15.9329H22.4696L22.1904 16.0918C22.8115 16.2626 23.2829 16.5662 23.6815 16.9703C23.6996 16.9864 23.7118 17.0045 23.7301 17.0206ZM26.5058 16.8899H27.7804H29.053V17.7584C28.7537 17.3946 28.171 17.469 28.171 17.469V18.7215C28.171 18.7215 28.1932 19.3367 28.4096 19.604H27.7804H27.1492C27.3697 19.3387 27.39 18.7215 27.39 18.7215V17.469C27.39 17.469 26.8093 17.3946 26.5058 17.7584V16.8899Z" fill="#F2F4F8"/>
<path d="M27.4624 15.2055V10.1211L24.2051 9.02325L25.0649 13.951L27.4624 15.2055ZM26.7624 11.3696V12.1858L26.6046 12.1134C26.5965 12.1074 26.3659 12.0551 25.9612 11.7374C25.2936 11.2228 25.2815 10.7483 25.2815 10.7483L26.7624 11.3696Z" fill="#F2F4F8"/>
<path d="M30.3858 13.951L31.2416 9.02325L27.9863 10.1211V15.2055L30.3858 13.951ZM28.6864 11.3696L30.1672 10.7503C30.1672 10.7503 30.1552 11.2248 29.4855 11.7394C29.0829 12.0571 28.8502 12.1093 28.8421 12.1154L28.6842 12.1877V11.3696H28.6864Z" fill="#F2F4F8"/>
<path d="M22.8578 26.9925C23.1755 27.107 23.5599 27.1312 23.7561 27.1312C23.7643 27.107 23.7743 27.0768 23.7845 27.0407C23.8026 26.9824 23.8189 26.9261 23.8311 26.8617C23.8857 26.5804 23.9059 26.2607 23.9099 26.0556C23.7763 25.9731 23.5882 25.8263 23.4831 25.6072C23.3617 25.3539 23.1897 25.2373 22.9367 25.2373C22.609 25.2373 22.257 25.4323 22.1072 25.5249C21.988 26.2264 22.5078 26.8638 22.8578 26.9925Z" fill="#F2F4F8"/>
<path d="M30.0557 24.2946C29.4508 24.948 28.2672 26.086 28.2085 26.1443L28.1377 26.2167L24.3969 26.1583C24.3948 26.5263 24.3341 26.8399 24.2755 27.0691C24.2654 27.1073 24.2553 27.1475 24.2451 27.1877L28.6961 27.9819C29.1594 27.6602 30.434 26.7353 30.9277 26.3735C30.5675 25.8508 30.5331 25.2315 30.614 24.7953C30.3794 24.6445 30.1993 24.4756 30.0557 24.2946Z" fill="#F2F4F8"/>
<path d="M30.5618 19.8234C29.6998 20.6738 28.8724 20.9874 28.134 21.0598C28.0004 21.0739 27.8649 21.0818 27.7273 21.0818H27.7171H27.709C27.5715 21.0818 27.4339 21.0739 27.3003 21.0598C27.1709 21.0477 27.0354 21.0276 26.8999 20.9975C26.8512 21.1884 26.7905 21.5885 26.9645 21.9665C27.1203 22.3103 27.438 22.5656 27.9013 22.7346L28.057 22.7948L28.0591 22.9617C28.0591 23.0119 28.0955 24.0936 29.2831 24.3931C29.4773 24.1941 29.6533 24.0152 29.7829 23.8663C29.54 23.2994 29.6674 22.7204 30.0195 22.4369C30.0034 22.4972 29.8496 23.9167 30.9948 24.4433L31.1829 24.5319L31.1262 24.7309C31.1079 24.7912 30.7256 26.1644 32.1115 26.675L32.3563 26.7675L32.247 27.0048C32.2228 27.057 31.6786 28.3036 32.9593 29.0112H35.737V26.8198C34.7498 26.6991 34.3309 25.9111 34.2237 25.3521C33.7645 25.2737 33.4084 25.0767 33.1655 24.755C32.5828 23.993 33.0846 23.2954 33.0907 23.2572C33.0887 23.2633 33.0907 24.0071 33.552 24.4655C33.7806 24.6866 34.0518 24.8576 34.4624 24.8958L34.6647 24.9139L34.683 25.119C34.6869 25.1631 34.7983 26.1684 35.739 26.3272L35.737 21.8519C35.737 21.1583 35.9414 20.4607 36.1862 19.8173H30.5618V19.8234Z" fill="#F2F4F8"/>
<path d="M23.0924 21.8732L23.0176 24.7241L23.3432 24.7724L24.1404 22.0381L23.7358 21.1977L23.0924 21.8732Z" fill="#F2F4F8"/>
<path d="M31.8777 34.9475C31.902 34.9475 31.9303 34.9516 31.9566 34.9576C32.4523 35.0984 32.5778 36.8756 33.4477 37.0344C33.5327 37.0525 33.6116 37.0565 33.6804 37.0565C33.9313 37.0565 34.081 36.9499 34.2428 36.761C34.2428 36.761 33.8058 36.0774 33.4781 35.6171C33.0431 35.0139 32.7053 34.284 31.896 34.284C31.8777 34.284 31.8535 34.284 31.8333 34.2862C31.5662 34.3002 31.4023 34.4288 31.4023 34.4288C31.0745 34.2238 30.7691 34.1534 30.4918 34.1534C29.9841 34.1534 29.5896 34.3847 29.3932 34.3847H29.3852L27.5764 34.2078C27.2932 34.1816 27.0707 33.8981 26.9898 33.7876C26.9695 33.7573 26.9594 33.7393 26.9594 33.7393C26.9594 33.691 26.9594 33.6408 26.9554 33.5965C26.8947 32.1269 25.7496 31.4976 25.3429 31.4875C25.3429 31.4875 25.3914 31.2081 25.2802 31.1016L24.8816 31.582L23.5726 30.9286L24.5053 32.0123L23.7142 32.8948C23.615 32.9955 23.6272 33.1322 23.6677 33.1884L24.0096 33.488L24.4426 33.2266C24.4648 33.2106 24.5033 33.2065 24.5518 33.2065C24.6712 33.2065 24.8513 33.2366 25.0131 33.2366C25.1891 33.2366 25.3429 33.1984 25.3611 33.0335C25.3065 33.5784 24.7987 34.5253 25.1325 35.2692L25.3794 35.8302L23.781 35.6009L23.0324 36.8575C22.8018 37.2757 22.7654 37.728 22.9879 37.9733L23.267 38.3212C23.267 38.3212 23.6596 37.9069 23.7486 37.6355L23.6211 37.4968C23.5139 37.3802 23.52 37.2757 23.5848 37.1491L24.0541 36.3749L25.9417 36.8173L26.0408 36.6484C26.1683 36.4373 26.3525 36.3729 26.5548 36.3729C26.6377 36.3729 26.7227 36.383 26.8117 36.3971C27.1618 36.4655 27.7384 36.5579 28.315 36.5579C28.9482 36.5579 29.5754 36.4454 29.9091 36.0735C30.593 37.0807 31.9789 37.2415 31.8696 37.7521L31.5055 39.4772C31.7463 39.4671 31.9789 39.451 32.1994 39.4208L32.5454 37.6254C32.5839 37.4304 32.6202 37.167 32.6202 37.167C32.4867 37.0324 32.163 36.7469 31.981 36.4011C31.7361 35.9346 31.8696 35.6914 31.641 35.0842C31.6491 35.0883 31.7179 34.9475 31.8777 34.9475ZM24.8169 32.4264C24.7238 32.4244 24.657 32.346 24.661 32.2536C24.6692 32.1651 24.744 32.0947 24.835 32.1027C24.9281 32.1068 24.9949 32.1872 24.9909 32.2757C24.9827 32.3641 24.9059 32.4325 24.8169 32.4264Z" fill="#F2F4F8"/>
<path d="M22.2405 36.58C22.2405 36.58 22.8656 36.3247 22.9222 36.1417L22.8393 35.9346C22.7806 35.7999 22.7887 35.6531 22.902 35.5728L23.5777 35.1083L24.7067 35.3234C24.7067 35.3234 24.5023 35.0701 24.5226 34.7303L23.4463 34.5031L22.4306 35.1183C21.9956 35.442 21.9632 35.9707 22.1069 36.2843L22.2405 36.58Z" fill="#F2F4F8"/>
<path d="M30.2207 39.5039C30.423 39.4959 30.6455 39.4919 30.8904 39.4919C30.8904 39.4919 31.4711 37.8051 31.5033 37.7509C31.1777 37.6081 30.5019 37.2521 30.2409 37.0894C30.4129 37.3447 30.8317 37.6382 30.7488 37.8634L30.2207 39.5039Z" fill="#F2F4F8"/>
<path d="M35.7462 29.4995H19.6963V35.4987C19.6963 37.9515 21.4829 39.4876 24.119 39.4876C26.3223 39.4876 26.9028 39.5719 27.7223 40.3802C28.2868 39.8213 28.7542 39.6121 29.7131 39.5337L29.7353 39.4413L30.2411 37.8872C30.2128 37.853 29.3854 36.9182 29.3854 36.9182C29.0576 37.0268 28.7825 37.0449 28.3192 37.0449C27.8437 37.0449 27.3076 36.9905 26.7269 36.882C26.6682 36.868 26.6136 36.8639 26.5589 36.8639C26.4881 36.8639 26.4821 36.8699 26.4639 36.9041L26.3627 37.0689L26.1786 37.3705L25.8327 37.2921L24.293 36.9322L24.0825 37.2781L24.1149 37.3142L24.3031 37.5193L24.2202 37.7867C24.1068 38.1365 23.7386 38.5446 23.6274 38.6573L23.2429 39.0674L22.893 38.6271L22.63 38.2994C22.3527 37.9918 22.2881 37.5193 22.4438 37.0248C22.4397 37.0287 22.4336 37.0307 22.4277 37.0307L21.9927 37.2097L21.7963 36.7874L21.6588 36.488C21.4222 35.9612 21.509 35.1912 22.1465 34.7267L23.3867 34.0311L24.5662 34.2624C24.5945 34.1497 24.6369 33.7476 24.6713 33.6452C24.6491 33.6432 24.6269 33.6371 24.6045 33.6371L23.9248 33.8884L23.2692 33.4381C23.2692 33.4381 23.0123 33.1927 23.2449 32.9475L23.8802 31.9926L22.2718 29.986L24.7441 30.9954L24.9081 30.7923L25.2418 30.3962L25.6202 30.7541C25.7274 30.8566 25.7881 30.9832 25.8184 31.1099C26.5002 31.3733 27.7202 32.1514 27.8274 33.4159L27.4451 33.5687V33.5788C27.5321 33.6813 27.6049 33.7236 27.6271 33.7275L29.3914 33.9005C29.4359 33.8924 29.4926 33.8723 29.5553 33.8542C29.7738 33.7799 30.1036 33.6733 30.494 33.6733C30.8117 33.6733 31.1191 33.7456 31.4145 33.8824C31.5238 33.8422 31.6574 33.812 31.8112 33.802L31.896 33.8C32.8409 33.8 33.3102 34.5015 33.6867 35.0606C33.7493 35.1569 33.812 35.2495 33.8768 35.3399C34.2065 35.8024 34.6374 36.4799 34.6557 36.5081L34.8499 36.8097L34.6111 37.0851C34.4271 37.2961 34.1519 37.5435 33.6785 37.5435C33.5814 37.5435 33.4742 37.5334 33.3589 37.5112C33.2578 37.4932 33.1667 37.4629 33.0777 37.4268C33.0635 37.5193 33.0453 37.6299 33.027 37.7243L32.7175 39.3287C34.5687 38.8764 35.7442 37.4871 35.7442 35.5008L35.7462 29.4995Z" fill="#10273D"/>
<path d="M19.7018 29.017H32.1828C31.5596 28.3777 31.5678 27.5675 31.7276 27.0407C31.5455 26.9542 31.3958 26.8496 31.2623 26.7371C30.7747 27.0949 29.2856 28.1726 28.8972 28.4419L28.8143 28.4983L23.9161 27.6177H23.817C23.6997 27.6177 23.5277 27.6136 23.3395 27.5915C23.2869 27.8107 23.0968 27.9615 22.8782 27.9615C22.8539 27.9615 22.8256 27.9595 22.7993 27.9534C22.6718 27.9313 22.5607 27.8669 22.4858 27.7604C22.4089 27.6559 22.3786 27.5312 22.4008 27.4026L22.419 27.298C21.9132 26.9442 21.4479 26.154 21.6542 25.3217L21.6744 25.2333L21.7453 25.183C21.7554 25.175 21.8403 25.1187 21.9658 25.0463L21.6097 24.992C21.4762 24.9679 21.3872 24.8452 21.4075 24.7146C21.4297 24.5819 21.5551 24.4873 21.6866 24.5135L22.5343 24.6462L22.6112 21.6787L23.8737 20.3518L24.6607 21.9985L23.8291 24.8533L24.5778 24.9699C24.7092 24.99 24.8003 25.1126 24.7801 25.2473C24.7598 25.3659 24.6587 25.4484 24.5393 25.4484C24.5271 25.4484 24.513 25.4484 24.5008 25.4464L23.8918 25.3479C23.9 25.3659 23.912 25.3759 23.9202 25.396C23.9849 25.5288 24.1286 25.6253 24.2135 25.6655L27.9484 25.7238C28.1061 25.571 28.4987 25.189 28.9013 24.7849C27.9828 24.4391 27.6489 23.651 27.5922 23.1282C27.0784 22.9111 26.7243 22.5855 26.5281 22.1612C26.2893 21.6366 26.3743 21.1118 26.437 20.8565C25.9393 20.6755 25.4154 20.3459 24.8812 19.8191H19.2568C19.4976 20.4623 19.7018 21.1601 19.7018 21.8537V29.017Z" fill="#10273D"/>
<path d="M24.8384 32.1027C24.7473 32.0946 24.6705 32.1649 24.6644 32.2534C24.6583 32.3458 24.7271 32.4242 24.8202 32.4262C24.9091 32.4343 24.9881 32.3659 24.9961 32.2755C24.9961 32.187 24.9315 32.1047 24.8384 32.1027Z" fill="#10273D"/>
<path d="M35.7334 42.9814L34.8088 42.6295L35.0637 41.6806L35.3449 40.6452C35.3449 40.6452 33.7061 41.5279 31.3977 42.1914C30.7422 42.3783 30.2465 42.4627 30.2465 42.4627V43.1663C30.2465 43.1663 29.0124 43.3795 27.7641 43.3795H27.7498H27.7317H27.7074H27.6932C26.445 43.3795 25.2108 43.1663 25.2108 43.1663V42.4627C25.2108 42.4627 24.713 42.3783 24.0596 42.1914C21.7511 41.5279 20.1144 40.6452 20.1144 40.6452L20.3915 41.6806L20.6525 42.6295L19.7259 42.9814L18.6982 43.3633C19.8777 43.9283 21.5103 44.7527 23.0056 45.1587L22.6535 46.1157C22.6535 46.1157 24.5492 46.9742 27.7074 46.9823V46.9843H27.7176H27.7317H27.7439H27.7519V46.9823C30.9142 46.9742 32.8078 46.1157 32.8078 46.1157L32.4537 45.1587C33.9488 44.7527 35.5857 43.9283 36.7591 43.3633L35.7334 42.9814ZM19.7947 43.4277L21.3161 42.9252L20.867 41.4675C21.5366 41.8455 23.04 42.4124 23.9098 42.6758L23.1755 44.6802C21.832 44.3124 20.7132 43.8841 19.7947 43.4277ZM27.7317 46.4796C25.9654 46.4796 23.9483 46.0755 23.3556 45.8665L24.2578 43.4398C25.0064 43.657 26.5643 43.8881 27.6952 43.88H27.6973H27.7317H27.762H27.7661C28.8971 43.8881 30.4508 43.657 31.2035 43.4398L32.1037 45.8665C31.511 46.0775 29.4959 46.4796 27.7317 46.4796ZM32.2838 44.6802L31.5515 42.6758C32.4234 42.4124 33.9225 41.8455 34.5943 41.4675L34.1472 42.9252L35.6666 43.4277C34.746 43.8841 33.6332 44.3124 32.2838 44.6802Z" fill="#10273D"/>
<path d="M27.7247 5.10428C29.6063 5.10428 31.1114 5.72359 31.943 6.38507C31.943 6.38507 32.1898 4.90728 33.0335 3.60256L31.5181 3.77338L30.7251 2.09872L29.2016 2.8788L27.7247 1.42719L26.2518 2.8788L24.7264 2.09872L23.9353 3.77338L22.4199 3.60256C23.2635 4.90728 23.5104 6.38507 23.5104 6.38507C24.3439 5.72359 25.8451 5.10428 27.7247 5.10428ZM23.8664 4.36043L24.2873 4.40472L24.4694 4.02473L24.9994 2.89889L25.9827 3.40344L26.3631 3.59647L26.6666 3.29898L27.7267 2.25355L28.7889 3.29898L29.0924 3.59647L29.4727 3.40344L30.45 2.89889L30.9861 4.02473L31.1641 4.40472L31.5849 4.36043L31.9855 4.31217C31.8014 4.72442 31.6658 5.11433 31.5686 5.43813C30.5085 4.85109 29.1287 4.51724 27.7227 4.51724C26.3227 4.51724 24.9448 4.85109 23.8806 5.43813C23.7816 5.11433 23.648 4.7223 23.4638 4.31217L23.8664 4.36043Z" fill="#10273D"/>
<path d="M49.8011 24.7128C52.2351 24.7128 53.0483 22.2521 53.0827 22.1475L53.3538 21.2809L52.4413 21.3091H52.4374C52.1157 21.3091 49.4309 21.2387 47.5271 18.8342L47.347 18.6111C46.1028 17.0389 44.9233 15.5451 42.8151 14.8635C42.8758 14.8093 42.9628 14.7409 43.0822 14.6645C44.201 13.9327 44.8524 13.044 45.0163 12.0127C45.255 10.4606 44.2597 9.22419 44.2152 9.17394L43.5374 8.34163L43.1146 9.32877C43.0863 9.39105 42.374 10.9713 40.8769 10.9713H40.7656C40.6625 10.9652 40.5653 10.9612 40.4682 10.9531C40.5209 10.2475 40.3913 9.15583 39.396 8.13247C38.2002 6.90007 36.7314 6.71509 35.9627 6.71509C35.5519 6.71509 35.2788 6.76534 35.2504 6.76944L34.2268 6.97041L34.858 7.79677C35.3537 8.43406 35.8028 9.61026 35.2706 10.2254C35.1007 10.4204 34.7508 10.5792 34.4149 10.738C33.725 11.0536 32.7842 11.4919 32.7842 12.6098C32.7842 13.3336 33.3487 14.0895 34.3724 14.7328C37.4032 16.6267 39.2725 18.603 40.0798 20.7843C41.3281 24.1399 39.6994 26.0538 38.1173 27.0611L37.4071 27.5154L38.0283 28.0823C38.1112 28.1548 38.872 28.8202 39.9948 28.9168C40.2072 28.9308 40.4115 28.9428 40.6018 28.9428C41.322 28.9428 41.9351 28.8303 42.4327 28.6794C42.2951 28.9187 42.1272 29.162 41.9148 29.4073C41.0105 30.4486 39.8977 30.9232 38.2974 30.9473L37.7025 30.9574L37.656 31.5504C37.6499 31.669 37.6055 32.7688 38.6534 33.7037C38.8133 33.8483 39.0075 33.9671 39.2098 34.0656C38.4997 34.7009 37.7773 35.8066 37.6379 37.7025C37.5205 39.2847 37.1401 39.8698 37.1361 39.8757L36.4786 40.8729L37.6662 40.8891C39.6287 40.8891 41.1318 40.3503 42.1737 39.2847C42.7888 38.6534 43.1409 37.9417 43.3493 37.3105C43.6912 37.5999 44.1323 37.8532 44.7067 37.9879C44.9253 38.0382 45.1641 38.0663 45.421 38.0663C45.9754 38.0663 46.4387 37.9497 46.4913 37.9377L47.2499 37.7366L46.9141 37.0329C46.8898 36.9767 46.2566 35.5653 46.9383 33.5508C47.2317 32.6803 47.3814 31.9002 47.4542 31.2931C47.9317 31.5403 48.5711 31.7454 49.3985 31.7474C51.276 31.7474 52.1035 30.3542 52.142 30.2959L52.5122 29.6565L51.8264 29.3751C49.5887 28.4523 49.0931 25.9733 48.9939 24.6304C49.1962 24.6686 49.4269 24.7048 49.6878 24.7128H49.8011ZM51.5754 29.9681C51.5754 29.9681 50.9199 31.1001 49.4167 31.1001H49.3985C47.5938 31.09 46.8655 29.9963 46.8655 29.9963C46.8655 29.9963 46.9707 31.4198 46.3193 33.3397C45.5363 35.6538 46.3253 37.3085 46.3253 37.3085C46.3253 37.3085 45.9045 37.421 45.419 37.421C45.2328 37.421 45.0386 37.4029 44.8565 37.3546C43.3493 36.9988 42.973 35.6357 42.973 35.6357C42.973 35.6357 43.1125 40.2417 37.7086 40.2417H37.6662C37.6662 40.2417 38.1416 39.5983 38.2832 37.7466C38.5401 34.3289 40.8689 33.8605 40.8689 33.8605C40.8689 33.8605 39.6265 33.7057 39.0884 33.2252C38.2467 32.4672 38.3054 31.5906 38.3054 31.5906C40.2072 31.5645 41.4515 30.9212 42.4003 29.8295C43.4282 28.6473 43.5981 27.3747 43.5981 27.3747C43.5981 27.3747 42.5763 28.2955 40.5998 28.2955C40.4258 28.2955 40.2396 28.2874 40.0494 28.2693C39.1147 28.195 38.4673 27.6038 38.4673 27.6038C40.5248 26.293 41.9694 24.0051 40.6888 20.5591C39.663 17.7988 37.1988 15.7361 34.7184 14.182C33.8929 13.6693 33.4336 13.1004 33.4336 12.6098C33.4336 11.4558 35.0846 11.4196 35.7624 10.6435C36.5432 9.74288 36.0536 8.28134 35.3759 7.40276C35.3759 7.40276 35.6045 7.35648 35.9646 7.35648C36.6788 7.35648 37.915 7.53537 38.9306 8.58082C40.2801 9.96804 39.7196 11.4779 39.7196 11.4779L40.0818 11.5483C40.2983 11.5945 40.5128 11.6026 40.7353 11.6126C40.7838 11.6126 40.8324 11.6146 40.8809 11.6146C42.8414 11.6146 43.7175 9.578 43.7175 9.578C43.7175 9.578 45.8014 12.1253 42.7342 14.1196C42.2061 14.4614 41.9734 14.777 42.0342 15.1148L42.0828 15.336L42.3012 15.3742C44.5247 15.9733 45.6496 17.4973 47.0233 19.2302C49.1092 21.866 52.0611 21.9505 52.4252 21.9505H52.4637C52.4637 21.9505 51.7899 24.0634 49.8052 24.0634C49.7728 24.0634 49.7445 24.0634 49.7101 24.0615C48.7977 24.0292 48.3303 23.6815 48.3303 23.6815C48.3303 23.6815 47.9722 28.4804 51.5754 29.9681Z" fill="#10273D"/>
<path d="M45.511 15.1289C46.4193 15.6093 46.9474 16.2527 47.4107 16.8236C47.8659 17.3805 48.2989 17.9173 48.9745 18.1405C49.2153 18.223 49.4702 18.2612 49.7292 18.2612C50.7448 18.2612 51.7646 17.6439 52.1509 16.7895L52.5394 15.933L51.5987 15.8767C51.5541 15.8747 50.3443 15.7661 48.9969 14.397C48.4425 13.8362 47.7728 13.5405 47.0505 13.5405C46.1685 13.5405 45.5149 13.9788 45.4421 14.0231L44.5762 14.6283L45.511 15.1289ZM47.0526 14.188C47.5057 14.188 48.0338 14.3407 48.5336 14.8534C50.1014 16.4357 51.5602 16.5241 51.5602 16.5241C51.2952 17.1071 50.5264 17.6198 49.7312 17.6198C49.5472 17.6198 49.363 17.5917 49.1789 17.5294C48.1006 17.1675 47.7141 15.5591 45.8184 14.5578C45.8184 14.5578 46.3486 14.188 47.0526 14.188Z" fill="#10273D"/>
<path d="M45.9422 23.6713V23.7036C45.396 19.3248 42.1953 16.1623 38.6345 14.2383C38.3048 14.0633 38.0013 13.9146 37.7059 13.7718C38.7903 13.9387 40.5363 13.9588 41.8837 12.7967C41.8837 12.7967 39.8221 14.3046 35.5977 12.9355C36.7672 13.6894 39.0392 14.753 41.1129 16.4759C46.2984 21.0034 42.5878 25.4204 42.5878 25.4204C44.4512 23.4885 44.528 21.4177 43.9798 19.7269C44.961 21.3493 45.5882 23.3195 45.491 25.7482C45.3475 29.2283 43.4234 32.238 41.3981 34.6566C40.425 35.8307 40.2066 37.2722 40.2066 37.2722C40.2066 37.2722 40.599 35.9996 41.7259 34.6907C43.8968 32.1657 45.752 29.5419 45.9948 25.7622C46.2194 26.4479 47.144 28.3558 48.6108 29.0735C48.6148 29.0755 46.7717 27.9718 45.9422 23.6713Z" fill="#10273D"/>
<path d="M18.3126 39.8732C18.3106 39.8672 17.9343 39.2821 17.813 37.6998C17.6714 35.804 16.951 34.6982 16.2389 34.0629C16.4453 33.9664 16.6354 33.8478 16.7953 33.7011C17.8413 32.7661 17.7967 31.6665 17.7906 31.5479L17.7502 30.9548L17.1513 30.9447C15.5551 30.9185 14.4402 30.4441 13.5359 29.4046C13.3255 29.1594 13.1556 28.9161 13.018 28.6769C13.5156 28.8276 14.1246 28.9403 14.8469 28.9403C15.0412 28.9403 15.2415 28.9281 15.4539 28.9141C16.5767 28.8176 17.3375 28.1541 17.4224 28.0798L18.0435 27.5129L17.3334 27.0584C15.7452 26.0492 14.1226 24.1352 15.3689 20.7818C16.1761 18.6004 18.0435 16.6241 21.0783 14.7302C22.1021 14.0868 22.6624 13.331 22.6624 12.6072C22.6624 11.4894 21.7237 11.0491 21.0338 10.7354C20.6979 10.5766 20.348 10.4178 20.1781 10.2228C19.6439 9.60961 20.095 8.43155 20.5887 7.79413L21.224 6.9679L20.1962 6.7668C20.1659 6.76283 19.8968 6.71259 19.4841 6.71259C18.7152 6.71259 17.2505 6.89756 16.0527 8.12996C15.0553 9.1553 14.9239 10.2469 14.9744 10.9505C14.8773 10.9586 14.7802 10.9627 14.679 10.9686H14.5698C13.0686 10.9686 12.3585 9.38853 12.3302 9.32613L11.9072 8.339L11.2234 9.1713C11.185 9.22168 10.1856 10.46 10.4283 12.0101C10.5902 13.0414 11.2416 13.93 12.3604 14.6619C12.4818 14.7383 12.5668 14.8066 12.6275 14.861C10.5214 15.5424 9.34391 17.0383 8.09961 18.6104L7.91953 18.8336C6.01784 21.2381 3.32695 21.3086 3.00527 21.3086L2.08887 21.2804L2.36798 22.1468C2.40037 22.2514 3.21166 24.7122 5.6475 24.7122L5.76491 24.7083C6.02181 24.7002 6.25253 24.666 6.45892 24.6258C6.35764 25.9667 5.86196 28.4457 3.62232 29.3705L2.93849 29.652L3.30884 30.2913C3.3452 30.3496 4.17473 31.7429 6.05618 31.7429C6.87765 31.7408 7.51692 31.5357 7.99648 31.2885C8.06933 31.8956 8.219 32.6757 8.51239 33.5462C9.19424 35.5607 8.55893 36.9721 8.5346 37.0284L8.19877 37.7321L8.95955 37.9331C9.01006 37.9451 9.47745 38.0617 10.0297 38.0617C10.2887 38.0617 10.5275 38.0336 10.742 37.9833C11.3186 37.8486 11.7636 37.5954 12.1014 37.3058C12.3078 37.937 12.6619 38.6488 13.275 39.2801C14.3188 40.3456 15.82 40.8844 17.7825 40.8844L18.9722 40.8684L18.3126 39.8732ZM17.738 40.2411C12.3341 40.2411 12.4718 35.6351 12.4718 35.6351C12.4718 35.6351 12.0955 36.9982 10.5882 37.3541C10.4081 37.4023 10.2159 37.4205 10.0277 37.4205C9.54223 37.4205 9.12337 37.3078 9.12337 37.3078C9.12337 37.3078 9.90834 35.6532 9.12535 33.3392C8.47801 31.4191 8.58326 29.9958 8.58326 29.9958C8.58326 29.9958 7.85686 31.0895 6.05024 31.0995H6.03199C4.52881 31.0995 3.87327 29.9676 3.87327 29.9676C7.47448 28.4819 7.1204 23.6849 7.1204 23.6849C7.1204 23.6849 6.65315 24.0307 5.7386 24.0649C5.70621 24.0669 5.67593 24.0669 5.64353 24.0669C3.6567 24.0669 2.98504 21.9539 2.98504 21.9539H3.02549C3.39174 21.9539 6.33953 21.8694 8.42539 19.2337C9.79913 17.5007 10.926 15.9787 13.1454 15.3777L13.3679 15.3395L13.4166 15.1183C13.4773 14.7805 13.2466 14.4649 12.7186 14.1231C9.65144 12.1267 11.7353 9.58144 11.7353 9.58144C11.7353 9.58144 12.6073 11.6161 14.5718 11.6161C14.6203 11.6161 14.6649 11.614 14.7154 11.614C14.9359 11.6019 15.1545 11.5939 15.3689 11.5477L15.7311 11.4773C15.7311 11.4773 15.1706 9.96751 16.5221 8.58029C17.5378 7.53286 18.7739 7.35596 19.486 7.35596C19.8482 7.35596 20.0728 7.4021 20.0728 7.4021C19.3971 8.28267 18.9075 9.74235 19.6883 10.643C20.3641 11.417 22.013 11.4552 22.013 12.6092C22.013 13.0977 21.5538 13.6688 20.7284 14.1814C18.2458 15.7355 15.7817 17.7982 14.7579 20.5586C13.4793 24.0046 14.9218 26.2904 16.9834 27.6033C16.9834 27.6033 16.336 28.1943 15.3993 28.2688C15.2091 28.2869 15.025 28.2949 14.8469 28.2949C12.8723 28.2949 11.8506 27.374 11.8506 27.374C11.8506 27.374 12.0205 28.6468 13.0423 29.8289C13.9972 30.9205 15.2415 31.5639 17.1433 31.5901C17.1433 31.5901 17.204 32.4667 16.3623 33.2245C15.8222 33.703 14.5798 33.8598 14.5798 33.8598C14.5798 33.8598 16.9106 34.3283 17.1655 37.7461C17.3051 39.5977 17.7765 40.2411 17.7765 40.2411H17.738Z" fill="#10273D"/>
<path d="M5.70266 18.2635C5.96366 18.2635 6.21857 18.2252 6.45921 18.1427C7.13907 17.9196 7.56997 17.3828 8.02519 16.8259C8.4906 16.2549 9.01458 15.6116 9.92291 15.1311L10.8577 14.6325L9.98969 14.0273C9.91684 13.9811 9.26539 13.5449 8.38535 13.5449C7.66107 13.5449 6.9894 13.8384 6.437 14.4012C5.08957 15.7684 3.88176 15.8789 3.8372 15.881L2.89648 15.9352L3.28295 16.7937C3.67127 17.6441 4.68895 18.2635 5.70266 18.2635ZM6.90029 14.8557C7.40205 14.3429 7.93013 14.1902 8.38535 14.1902C9.08531 14.1902 9.61538 14.56 9.61538 14.56C7.72176 15.5633 7.3333 17.1698 6.25084 17.5316C6.07287 17.5939 5.88671 17.6221 5.70266 17.6221C4.9075 17.6221 4.13866 17.1114 3.87568 16.5264C3.87568 16.5244 5.33232 16.4358 6.90029 14.8557Z" fill="#10273D"/>
<path d="M9.93917 25.7506C9.83803 23.3219 10.4653 21.3516 11.4485 19.7292C10.9002 21.42 10.9751 23.4908 12.8405 25.4229C12.8405 25.4229 9.12987 21.0059 14.3173 16.4783C16.3932 14.7553 18.6632 13.6917 19.8306 12.9378C15.6082 14.3069 13.5465 12.7991 13.5465 12.7991C14.8939 13.9612 16.64 13.9411 17.7245 13.7723C17.4311 13.9149 17.1235 14.0637 16.7977 14.2386C13.233 16.1626 10.0342 19.3251 9.48593 23.7039V23.6698C8.65852 27.9702 6.81738 29.0739 6.81738 29.0739C8.28222 28.3561 9.20484 26.4502 9.42934 25.7627C9.67421 29.5424 11.5294 32.166 13.7003 34.6912C14.8272 35.9999 15.2238 37.2726 15.2238 37.2726C15.2238 37.2726 15.0033 35.831 14.0261 34.6569C12.0049 32.2424 10.0808 29.2307 9.93917 25.7506Z" fill="#10273D"/>
<path d="M26.5 16.8906V17.7591C26.8015 17.3952 27.3842 17.4697 27.3842 17.4697V18.7222C27.3842 18.7222 27.3639 19.3374 27.1434 19.6047H27.7746H28.4038C28.1874 19.3394 28.165 18.7222 28.165 18.7222V17.4697C28.165 17.4697 28.7477 17.3952 29.0472 17.7591V16.8906H27.7746H26.5Z" fill="#10273D"/>
<path d="M25.9619 11.7395C26.3645 12.0573 26.5972 12.1095 26.6053 12.1156L26.7631 12.1879V11.3696L25.2822 10.7504C25.2822 10.7524 25.2963 11.2248 25.9619 11.7395Z" fill="#10273D"/>
<path d="M29.4837 11.7395C30.1534 11.2248 30.1655 10.7504 30.1655 10.7504L28.6846 11.3696V12.1879L28.8403 12.1156C28.8505 12.1095 29.0811 12.0573 29.4837 11.7395Z" fill="#10273D"/>
<path d="M32.1472 8.40795C32.1472 7.16749 30.0451 6.0517 27.7245 6.0517H27.7225H27.7165H27.7104C25.3898 6.0517 23.2877 7.16749 23.2877 8.40795L23.3343 8.71351L24.2608 13.999L23.3303 14.5358L20.9226 15.9331H20.9308C20.9308 15.9331 20.3886 16.2085 20.1376 16.3794C19.2212 17.0128 19.027 17.9355 19.559 18.3175C19.6906 17.5656 20.2894 16.7775 21.4102 16.7775C22.2175 16.7775 22.8325 17.1916 23.3303 17.8129C23.4577 17.9697 23.5791 18.1366 23.6924 18.3175C23.8319 18.5446 23.9715 18.7438 24.1112 18.9368H17.9102C18.3654 19.8475 18.7983 20.8126 18.7983 21.86V35.499C18.7983 38.8002 21.3536 40.3764 24.1172 40.3764C26.2537 40.3764 26.5411 40.2799 27.7206 41.4459C28.894 40.2779 29.1813 40.3764 31.3198 40.3764C34.0854 40.3764 36.6367 38.8002 36.6367 35.499V21.86C36.6367 20.8126 37.0697 19.8475 37.5269 18.9368H31.3238C31.4614 18.7457 31.601 18.5446 31.7405 18.3175C31.8559 18.1366 31.9752 17.9697 32.1007 17.8129C32.6024 17.1897 33.2154 16.7775 34.0227 16.7775C35.1435 16.7775 35.7404 17.5636 35.8739 18.3175C36.4061 17.9355 36.2138 17.0128 35.2912 16.3794C35.0444 16.2085 34.5021 15.9331 34.5021 15.9331H34.5103L32.1027 14.5358L31.1761 13.999L32.1027 8.71351L32.1472 8.40795ZM24.2001 9.02316L27.4575 10.1208V15.2053L25.0601 13.9488L24.2001 9.02316ZM24.8739 19.8233C25.4081 20.352 25.9321 20.6798 26.4297 20.8607C26.3649 21.1161 26.2801 21.6429 26.5208 22.1675C26.717 22.5897 27.0731 22.9155 27.5849 23.1326C27.6416 23.6554 27.9734 24.4414 28.894 24.7893C28.4914 25.1933 28.0988 25.5733 27.939 25.7281L24.2062 25.6698C24.1213 25.6275 23.9776 25.5331 23.913 25.3984C23.9048 25.3803 23.8927 25.3702 23.8867 25.3501L24.4955 25.4486C24.5098 25.4506 24.5218 25.4506 24.534 25.4506C24.6514 25.4506 24.7545 25.3702 24.7748 25.2496C24.795 25.1149 24.704 24.9922 24.5725 24.9721L23.8239 24.8555L24.6554 22.0026L23.8684 20.3561L22.606 21.6831L22.529 24.6504L21.6814 24.5178C21.5498 24.4916 21.4244 24.5882 21.4022 24.7188C21.3819 24.8496 21.4709 24.9721 21.6044 24.9963L21.9605 25.0505C21.8331 25.123 21.7502 25.1792 21.74 25.1872L21.6671 25.2375L21.6469 25.3261C21.4406 26.1584 21.9079 26.9485 22.4118 27.3023L22.3935 27.4068C22.3733 27.5356 22.4016 27.6601 22.4785 27.7647C22.5513 27.8713 22.6646 27.9356 22.79 27.9577C22.8164 27.9617 22.8446 27.9637 22.869 27.9637C23.0874 27.9637 23.2777 27.8129 23.3323 27.5939C23.5204 27.6159 23.6924 27.6199 23.8097 27.6199H23.9089L28.807 28.4985L28.8899 28.4443C29.2803 28.1728 30.7674 27.0953 31.255 26.7393C31.3885 26.854 31.5382 26.9586 31.7203 27.0449C31.5625 27.5716 31.5524 28.3819 32.1776 29.0213H19.6946V21.862C19.6946 21.1684 19.4903 20.4708 19.2495 19.8274H24.8739V19.8233ZM30.9272 26.3735C30.4316 26.7354 29.157 27.6601 28.6957 27.9818L24.2447 27.1877C24.2549 27.1475 24.2649 27.1093 24.2751 27.0691C24.3337 26.8398 24.3924 26.5262 24.3965 26.1584L28.1373 26.2187L28.2081 26.1462C28.2648 26.09 29.4504 24.952 30.0553 24.2966C30.1989 24.4755 30.3789 24.6465 30.6136 24.7972C30.5327 25.2315 30.5671 25.8507 30.9272 26.3735ZM23.4759 25.6074C23.5811 25.8266 23.7712 25.9734 23.9028 26.0558C23.8987 26.2608 23.8785 26.5805 23.8239 26.862C23.8117 26.9243 23.7956 26.9826 23.7773 27.0409C23.7673 27.0772 23.7571 27.1073 23.749 27.1314C23.5528 27.1314 23.1663 27.1073 22.8507 26.9927C22.5008 26.864 21.9788 26.2267 22.1001 25.5251C22.2519 25.4325 22.6019 25.2375 22.9297 25.2375C23.1826 25.2355 23.3545 25.3541 23.4759 25.6074ZM23.0126 24.7249L23.0874 21.876L23.7308 21.1985L24.1355 22.0389L23.3383 24.7731L23.0126 24.7249ZM30.8868 39.4938C30.644 39.4938 30.4194 39.4978 30.2171 39.5059L30.7472 37.8673C30.8302 37.6401 30.4113 37.3486 30.2393 37.0933C30.5003 37.2562 31.1761 37.612 31.5019 37.7548C31.4675 37.807 30.8868 39.4938 30.8868 39.4938ZM32.5498 37.6321L32.2039 39.4255C31.9834 39.4556 31.7487 39.4716 31.5079 39.4817L31.8721 37.7568C31.9813 37.244 30.5955 37.0852 29.9117 36.078C29.5778 36.4519 28.9486 36.5626 28.3174 36.5626C27.7408 36.5626 27.1642 36.47 26.8141 36.4017C26.7251 36.3877 26.6401 36.3776 26.5572 36.3776C26.3549 36.3776 26.1707 36.4399 26.0433 36.653L25.9421 36.8219L24.0546 36.3796L23.5852 37.1516C23.5184 37.2763 23.5143 37.3829 23.6216 37.4993L23.749 37.6382C23.662 37.9116 23.2696 38.3237 23.2696 38.3237L22.9884 37.9758C22.7657 37.7286 22.8022 37.2783 23.0349 36.8601L23.7834 35.6035L25.3818 35.8327L25.1329 35.2698C24.7991 34.5259 25.3069 33.579 25.3615 33.0341C25.3433 33.199 25.1915 33.2352 25.0135 33.2352C24.8517 33.2352 24.6716 33.205 24.5522 33.205C24.5057 33.205 24.4652 33.209 24.443 33.2251L24.01 33.4865L23.6681 33.1869C23.6276 33.1286 23.6135 32.9939 23.7146 32.8934L24.5057 32.0128L23.5711 30.9292L24.88 31.5826L25.2785 31.1021C25.3879 31.2087 25.3413 31.4881 25.3413 31.4881C25.75 31.4981 26.895 32.1275 26.9558 33.5951C26.9598 33.6392 26.9598 33.6896 26.9598 33.7377C26.9598 33.7377 26.97 33.7559 26.9902 33.786C27.0711 33.8967 27.2936 34.1801 27.5768 34.2062L29.3856 34.3832H29.3936C29.592 34.3832 29.9865 34.152 30.4922 34.152C30.7674 34.152 31.0749 34.2223 31.4027 34.4274C31.4027 34.4274 31.5665 34.2987 31.8336 34.2846C31.8538 34.2826 31.8762 34.2826 31.8964 34.2826C32.7077 34.2826 33.0435 35.0105 33.4785 35.6156C33.8063 36.076 34.2433 36.7596 34.2433 36.7596C34.0814 36.9505 33.9316 37.0551 33.6808 37.0551C33.6121 37.0551 33.5331 37.049 33.4481 37.033C32.5781 36.8741 32.4528 35.0969 31.9571 34.9561C31.9308 34.9481 31.9025 34.9461 31.8782 34.9461C31.7183 34.9461 31.6476 35.0869 31.6476 35.0869C31.874 35.6919 31.7426 35.9373 31.9854 36.4037C32.1674 36.7495 32.4911 37.035 32.6247 37.1697C32.6247 37.1737 32.5883 37.4351 32.5498 37.6321ZM22.8366 35.9352L22.9195 36.1424C22.8649 36.3233 22.2378 36.5806 22.2378 36.5806L22.1021 36.287C21.9585 35.9734 21.9888 35.4447 22.4259 35.121L23.4415 34.5058L24.5179 34.7329C24.4976 35.0727 24.7019 35.3261 24.7019 35.3261L23.573 35.111L22.8973 35.5754C22.784 35.6538 22.7759 35.8006 22.8366 35.9352ZM32.7198 39.327L33.0294 37.7225C33.0455 37.6281 33.0657 37.5175 33.0799 37.425C33.1669 37.4613 33.26 37.4914 33.3611 37.5095C33.4764 37.5316 33.5836 37.5416 33.6808 37.5416C34.1543 37.5416 34.4294 37.2943 34.6135 37.0832L34.8523 36.8078L34.658 36.5063C34.6398 36.4761 34.2109 35.8006 33.8791 35.3381C33.8143 35.2477 33.7515 35.1572 33.6889 35.0587C33.3126 34.4997 32.8412 33.7982 31.8964 33.7982L31.8114 33.8002C31.6556 33.8102 31.5221 33.8403 31.4149 33.8805C31.1174 33.7418 30.8119 33.6715 30.4942 33.6715C30.1038 33.6715 29.774 33.7781 29.5555 33.8524C29.4928 33.8705 29.4362 33.8906 29.3917 33.8987L27.6254 33.7257C27.6032 33.7218 27.5303 33.6796 27.4433 33.575V33.5669L27.8257 33.4141C27.7185 32.1496 26.4965 31.3715 25.8147 31.1081C25.7844 30.9814 25.7237 30.8547 25.6165 30.7523L25.2361 30.3944L24.9022 30.7925L24.7384 30.9956L22.2661 29.9862L23.8745 31.9927L23.2392 32.9477C23.0065 33.193 23.2635 33.4383 23.2635 33.4383L23.9189 33.8866L24.5988 33.6353C24.623 33.6353 24.6433 33.6414 24.6655 33.6433C24.6332 33.7458 24.5907 34.1479 24.5623 34.2605L23.3828 34.0293L22.1426 34.725C21.5053 35.1894 21.4183 35.9594 21.6551 36.4862L21.7926 36.7856L21.9888 37.2079L22.4218 37.0289C22.4279 37.0269 22.434 37.0249 22.4379 37.021C22.2822 37.5155 22.345 37.9859 22.6241 38.2956L22.8871 38.6253L23.2372 39.0656L23.6216 38.6554C23.7349 38.5428 24.1011 38.1348 24.2144 37.7849L24.2973 37.5174L24.1092 37.3124L24.0788 37.2763L24.2893 36.9304L25.8288 37.2903L26.1748 37.3687L26.3589 37.0671L26.4601 36.9022C26.4783 36.8681 26.4843 36.862 26.5552 36.862C26.6098 36.862 26.6644 36.8681 26.7231 36.8802C27.3037 36.9887 27.8398 37.0431 28.3153 37.0431C28.7766 37.0431 29.0517 37.0249 29.3815 36.9164C29.3815 36.9164 30.209 37.8492 30.2373 37.8854L29.7316 39.4375L29.7093 39.532C28.7503 39.6083 28.283 39.8175 27.7185 40.3784C26.8991 39.5701 26.3184 39.4858 24.1153 39.4858C21.479 39.4858 19.6926 37.9498 19.6926 35.497V29.4998H35.7404L35.7445 35.497C35.7464 37.4873 34.571 38.8745 32.7198 39.327ZM36.1895 19.8233C35.9448 20.4667 35.7404 21.1644 35.7404 21.858L35.7425 26.3333C34.8016 26.1765 34.6904 25.1691 34.6863 25.125L34.6681 24.9199L34.4658 24.9018C34.0571 24.8636 33.786 24.6906 33.5574 24.4696C33.0961 24.0112 33.094 23.2673 33.0961 23.2612C33.0901 23.2994 32.5883 23.997 33.171 24.759C33.4157 25.0807 33.7698 25.2778 34.2291 25.3562C34.3363 25.9151 34.7551 26.7031 35.7425 26.8238V29.0152H32.9666C31.6859 28.3076 32.2281 27.061 32.2544 27.0088L32.3637 26.7715L32.1189 26.679C30.733 26.1684 31.1134 24.7932 31.1336 24.7349L31.1902 24.5338L31.0021 24.4454C29.8569 23.9186 30.0128 22.4973 30.027 22.439C29.6749 22.7224 29.5474 23.3014 29.7902 23.8684C29.6587 24.0172 29.4828 24.1981 29.2905 24.3951C28.1049 24.0957 28.0686 23.012 28.0686 22.9618L28.0664 22.7948L27.9107 22.7345C27.4474 22.5636 27.1297 22.3083 26.9739 21.9644C26.798 21.5846 26.8606 21.1865 26.9093 20.9954C27.0448 21.0256 27.1803 21.0478 27.3098 21.0578C27.4433 21.0718 27.5809 21.0799 27.7185 21.0799H27.7266H27.7367C27.8743 21.0799 28.0099 21.0718 28.1434 21.0578C28.8818 20.9854 29.7093 20.6698 30.5712 19.8213H36.1895V19.8233ZM31.864 15.2997L32.9605 15.9331H32.9767L33.2519 16.0919C32.6328 16.2628 32.1594 16.5704 31.7629 16.9745C31.7487 16.9866 31.7346 17.0027 31.7203 17.0167C31.6293 17.1132 31.5382 17.2178 31.4533 17.3244C31.4371 17.3445 31.4209 17.3666 31.4027 17.3887C31.3177 17.4972 31.2389 17.6079 31.1619 17.7244C31.1498 17.7446 31.1356 17.7647 31.1215 17.7827C31.0304 17.9174 30.9435 18.0622 30.8565 18.2109C30.0755 19.5479 28.8292 20.3461 27.7206 20.3481C26.6139 20.3461 25.3676 19.5479 24.5866 18.2109C24.5016 18.0661 24.4167 17.9255 24.3256 17.7887C24.3074 17.7626 24.2912 17.7365 24.2751 17.7143C24.1982 17.6038 24.1213 17.4952 24.0424 17.3928C24.0222 17.3646 24.0039 17.3424 23.9837 17.3183C23.8987 17.2157 23.8117 17.1132 23.7247 17.0187C23.7066 17.0047 23.6944 16.9866 23.6762 16.9705C23.2777 16.5664 22.8062 16.2608 22.1851 16.0919L22.4643 15.9331H22.4764L23.573 15.2997L24.6999 14.6585L27.7104 16.2869L27.7165 16.2809L27.7245 16.2869L30.735 14.6585L31.864 15.2997ZM30.3789 13.9507L27.9795 15.2073V10.1208L31.2348 9.02316L30.3789 13.9507ZM27.7185 9.56195L24.1496 8.1607C24.4531 7.44699 25.8531 6.83972 27.7185 6.83773C29.5859 6.83972 30.9859 7.44699 31.2874 8.1607L27.7185 9.56195Z" fill="#10273D"/>
<path d="M71.9216 30.8392V22.789H76.6734V19.8596H63.71V22.789H68.4616V30.8392H71.9216ZM81.4027 26.249V19.8596H78.0581V30.8392H81.0106L86.7772 24.4498V30.8392H90.1219V19.8596H87.1693L81.4027 26.249ZM101.374 26.7565V30.8392H104.719V19.8596H101.374V23.8731H95.9995V19.8596H92.6549V30.8392H95.9995V26.7565H101.374ZM114.033 30.8392C114.794 30.8392 115.486 30.7701 116.132 30.5855C117.863 30.1012 118.992 28.694 118.992 26.7795C118.992 24.9573 118.024 23.6887 116.479 23.1119C115.739 22.8352 114.864 22.8121 114.033 22.8121H110.596V19.8596H107.252V30.8392H114.033ZM113.456 25.3956C113.918 25.3956 114.356 25.3956 114.748 25.534C115.302 25.7185 115.625 26.1798 115.625 26.7334C115.625 27.3101 115.302 27.7945 114.771 28.0251C114.402 28.1866 114.033 28.1866 113.456 28.1866H110.596V25.3956H113.456ZM124.989 26.6873L128.98 30.8392H133.431L127.873 25.1187L133.224 19.8596H129.026L124.989 23.9885H124.067V19.8596H120.723V30.8392H124.067V26.6873H124.989ZM140.313 19.5598C135.815 19.5598 133.117 22.097 133.117 25.3724C133.117 28.648 135.815 31.1853 140.313 31.1853C144.789 31.1853 147.488 28.648 147.488 25.3724C147.488 22.097 144.789 19.5598 140.313 19.5598ZM140.313 28.5096C138.076 28.5096 136.647 27.1717 136.647 25.3724C136.647 23.5734 138.076 22.2585 140.313 22.2585C142.528 22.2585 143.981 23.5734 143.981 25.3724C143.981 27.1717 142.528 28.5096 140.313 28.5096ZM158.627 19.2368H155.282V20.3439C151.084 20.4362 148.569 22.2123 148.569 25.3494C148.569 28.4864 151.084 30.1242 155.282 30.2165V31.3237H158.627V30.2165C162.847 30.1242 165.362 28.4864 165.362 25.3494C165.362 22.2123 162.847 20.4362 158.627 20.3439V19.2368ZM155.282 27.8637C152.975 27.7714 151.96 26.8257 151.96 25.3494C151.96 23.8731 152.975 22.8121 155.282 22.7199V27.8637ZM158.627 22.7199C160.957 22.8121 161.948 23.8731 161.948 25.3494C161.948 26.8257 160.957 27.7714 158.627 27.8637V22.7199ZM176.489 19.2368H173.144V20.3439C168.946 20.4362 166.433 22.2123 166.433 25.3494C166.433 28.4864 168.946 30.1242 173.144 30.2165V31.3237H176.489V30.2165C180.711 30.1242 183.225 28.4864 183.225 25.3494C183.225 22.2123 180.711 20.4362 176.489 20.3439V19.2368ZM173.144 27.8637C170.838 27.7714 169.823 26.8257 169.823 25.3494C169.823 23.8731 170.838 22.8121 173.144 22.7199V27.8637ZM176.489 22.7199C178.819 22.8121 179.811 23.8731 179.811 25.3494C179.811 26.8257 178.819 27.7714 176.489 27.8637V22.7199Z" fill="#10273D"/>
</g>
<defs>
<clipPath id="clip0_2890_7411">
<rect width="182.6" height="48" fill="white" transform="translate(0.671875)"/>
</clipPath>
</defs>
</svg>
