<svg xmlns="http://www.w3.org/2000/svg" width="175" height="46" fill="none" viewBox="0 0 175 46"><g fill="#10273D" clip-path="url(#a)"><path d="M89.398 36.289c-1.43-.096-3.079-.346-4.38-.723a22 22 0 0 1-1.508-.559c-4.529-2.097-7.683-6.676-7.683-11.988 0-7.286 5.927-13.221 13.218-13.221 7.226 0 13.114 5.833 13.215 13.037h4.776c-.102-9.836-8.13-17.807-17.99-17.807-9.92 0-17.993 8.07-17.993 17.99 0 6.84 3.846 12.79 9.478 15.829 1.017.538 2.477 1.092 2.973 1.244 1.605.478 3.575.795 5.33.928.595.045 2.675.069 3.281.071H125v-4.756H92.17c-.436 0-2.344-.017-2.772-.045m2.772-7.469c-.347 0-2.163-.011-2.499-.04-.568-.048-1.392-.133-1.922-.254-.598-.16-1.16-.372-1.412-.51a5.68 5.68 0 0 1-2.983-4.997 5.69 5.69 0 0 1 5.691-5.694 5.69 5.69 0 0 1 5.683 5.51h4.588c-.096-5.591-4.654-10.097-10.27-10.097-5.68 0-10.284 4.602-10.284 10.28 0 4.005 2.296 7.463 5.638 9.157.515.301 1.482.617 1.758.689.944.248 2.212.418 3.24.493.38.032 2.243.046 2.636.048v.007h32.965V28.82zM68.11 41.072h-4.807V9.808h-7.025V5H68.11zM51 12.211v4.623h5.278v24.239h4.619V12.21zm65.508-6.875c-1.732 0-3.168 1.38-3.168 3.113s1.436 3.169 3.168 3.169a3.155 3.155 0 0 0 3.165-3.169c0-1.733-1.381-3.113-3.165-3.113m0 5.77c-1.431 0-2.663-1.123-2.663-2.657 0-1.456 1.232-2.608 2.663-2.608 1.429 0 2.655 1.152 2.655 2.608a2.64 2.64 0 0 1-2.655 2.658"/><path d="M117.711 9.302c0-.35-.052-.674-.452-.802.501-.175.55-.503.55-.702 0-.804-.729-.906-1.029-.906h-1.381v3.113h.575V8.728h.454c.652 0 .706.3.706.574 0 .531 0 .631.125.703h.576c-.124-.126-.075-.224-.124-.703m-1.057-1.028h-.68v-.98h.582c.402 0 .676.126.676.504 0 .199-.098.476-.578.476"/></g><defs><clipPath id="a"><path fill="#fff" d="M51 5h74v36.09H51z"/></clipPath></defs></svg>