<svg xmlns="http://www.w3.org/2000/svg" width="175" height="46" fill="none" viewBox="0 0 175 46"><g clip-path="url(#a)"><path fill="#10273D" d="M43.842 3c2.722 0 3.578 1.953 4.295 3.902l7.588 20.78c.057.163.019.43-.23.526-.252.095-3.927 1.524-4.13 1.6a.393.393 0 0 1-.506-.238c-.076-.2-1.602-4.424-1.773-4.895H38.602c-.166.471-1.71 4.703-1.778 4.895-.07.194-.29.325-.507.238l-4.127-1.6a.415.415 0 0 1-.234-.525c.26-.725 7.227-19.786 7.582-20.78C40.23 4.981 41.114 3 43.842 3M31.396 37.663a.4.4 0 0 0-.396.407v4.528a.4.4 0 0 0 .396.404h24.882a.4.4 0 0 0 .4-.404V38.07a.403.403 0 0 0-.4-.407zM43.818 9.326l-3.544 10.642h7.146L43.864 9.326zm53.176 17.45a3.6 3.6 0 0 1-1.276.218c-.848 0-1.317-.335-1.317-1.204 0-.906.596-1.209 1.768-1.209.287 0 .568.042.7.088v.648c0 .7.038 1.159.125 1.459m3.013 1.037c-.626-.95-.79-1.51-.79-2.708v-2.433c0-1.31-.153-1.783-.498-2.26-.482-.677-1.286-.97-2.762-.97-1.045 0-2.06.113-3.042.364l.355 1.729c.664-.093 1.36-.173 1.851-.173 1.569 0 1.748.226 1.748 1.403v.44a4.6 4.6 0 0 0-1.195-.161c-2.361 0-3.608 1.155-3.608 3.067 0 1.794 1.332 2.771 2.956 2.771.606 0 1.24-.111 1.741-.316.303-.132.435-.21.826-.464.236.343.709.693.902.76zm23.354-1.037c-.525.175-.863.218-1.276.218-.851 0-1.326-.335-1.326-1.204 0-.906.604-1.209 1.779-1.209.286 0 .569.042.698.088v.648c0 .7.036 1.159.125 1.459m3.016 1.037c-.63-.95-.791-1.51-.791-2.708v-2.433c0-1.31-.156-1.783-.505-2.26-.476-.677-1.281-.97-2.762-.97-1.043 0-2.064.113-3.046.364l.35 1.729c.666-.093 1.363-.173 1.868-.173 1.56 0 1.745.226 1.745 1.403v.44a4.6 4.6 0 0 0-1.201-.161c-2.364 0-3.616 1.155-3.616 3.067 0 1.794 1.336 2.771 2.967 2.771.613 0 1.241-.111 1.738-.316.308-.132.435-.21.826-.464.239.343.712.693.906.76zm18.383.866s-1.294-2.759-1.611-3.386c-.357-.707-.687-1.195-1.416-1.371v-.04c.489-.093.877-.389 1.303-1.291.402-.88.521-1.07.758-1.28.233-.208.551-.133.551-.133l.12-1.626a6 6 0 0 0-1.1-.026c-.643.038-.975.223-1.292.541-.248.244-.416.608-.624 1.026-.221.456-.395.823-.624 1.287-.228.475-.336.69-.949.69h-.4v-7.206h-2.364V28.68h2.364v-3.684l.323-.007c.678 0 .798.17 1.156.885.419.852 1.222 2.806 1.222 2.806zm-66.597 0h2.728l-4.127-12.6a5 5 0 0 0-1.545-.236c-.626 0-.85.082-1.339.235L69.513 28.68h2.618s.354-1.105.77-2.474h4.523c.404 1.368.739 2.474.739 2.474m-4.598-4.587.874-2.923c.3-1.019.756-2.638.756-2.638h.075s.422 1.677.697 2.62c.104.375.826 2.94.826 2.94zm30.469-1.442c-.834 0-1.511.681-1.511 1.515a1.511 1.511 0 1 0 3.022 0c0-.834-.675-1.515-1.511-1.515M84.13 15.864h-2.37v12.813h2.37zm47.09 5.614c1.31.028 1.472.299 1.472 1.397v5.804h2.349v-6.007c0-1.31-.153-1.783-.502-2.26-.482-.677-1.429-.97-3.031-.97-1.586 0-2.595.168-3.895.555v8.682h2.374v-7.09c.622-.09.733-.11 1.233-.11m-41.228-5.842c-1.48 0-2.287.294-2.761.969-.35.479-.504.962-.504 2.275v1.117H85.55v1.916h1.177v6.766h2.35l-.006-6.766h2.343v-1.916H89.07l.006-1.027c0-1.175.18-1.403 1.75-1.403q.256.001.564.025l.37-1.841a14 14 0 0 0-1.769-.115m18.858.12a81 81 0 0 1 3.739-.115c.207 0 .421.001.635.012 2.223 0 3.498 1.619 3.498 3.52 0 1.292-.592 2.15-1.98 2.662 1.633.36 2.488 1.636 2.488 3.195 0 1.144-.323 2.053-.915 2.673-.768.756-1.931 1.18-3.479 1.18-1.378 0-3.107-.043-3.986-.095zm3.739 2.099c-.392 0-.877.008-1.357.024v3.077h1.359c.538 0 .971-.15 1.267-.439.281-.272.428-.658.428-1.115 0-.984-.532-1.54-1.522-1.547zm.049 8.818h.103c1.234 0 1.99-.656 2-1.978a1.76 1.76 0 0 0-.521-1.23c-.356-.357-.861-.544-1.453-.544h-1.535v3.738c.433.01.91.011 1.406.014"/></g><defs><clipPath id="a"><path fill="#fff" d="M31 3h113.76v40H31z"/></clipPath></defs></svg>