<svg xmlns="http://www.w3.org/2000/svg" width="175" height="47" fill="none" viewBox="0 0 175 47"><g fill="#10273D" fill-rule="evenodd" clip-path="url(#a)" clip-rule="evenodd"><path d="M109.714 14.651h3.857v3.215h-3.857zm5.786 14.143h3.857v3.214H115.5zm11.595-9.642h3.191v2.571h-3.343c-.643 0-1.788.509-1.8 1.929v8.357h-3.857v-8.65c0-.954.311-1.88.91-2.675q.763-1.04 2.063-1.347c.554-.13 1.612-.185 2.836-.185m-13.524 0v12.857h-3.857V19.152zm-41.704 0c1.226 0 1.957.108 2.55.324.605.2 1.172.508 1.603.925.563.559.93 1.074 1.221 1.77.188.645.343.808.343 2.557v7.28h-9.488c-1.053 0-1.961-.224-2.695-.928-.736-.702-1.111-1.976-1.111-3.05 0-1.133.42-2.099 1.097-2.828.677-.746 1.266-.895 2.289-.895l6.267-.004-.01-.738c.059-.696-.707-1.827-1.836-1.838l-1.716-.008-5.024.014v-2.581zm-18.724-5.143v5.15h4.464c1.517.06 2.795.716 3.802 2.024.937 1.219 1.406 2.683 1.406 4.36 0 1.75-.469 3.259-1.392 4.535-1.006 1.38-2.282 1.93-3.86 1.93h-8.232v-18zm45 0v11.6l5.05-6.39h4.58l-5.427 6.394 5.44 6.396h-4.619l-5.024-6.393v6.393h-3.857v-18zm-11.19 5.143c1.173 0 2.034.055 2.563.185q1.246.307 1.976 1.347a4.42 4.42 0 0 1 .857 2.63l.008 8.695H88.5l.014-8.236c-.007-2.12-2.144-2.061-2.144-2.061l-3.013.005v10.292l-3.857-.016V19.152zm49.163 0-.014 8.236c.008 2.12 2.145 2.06 2.145 2.06l3.012-.004V19.152l3.857.015V32.01h-7.452c-1.173 0-2.034-.056-2.563-.186a3.3 3.3 0 0 1-1.976-1.346 4.4 4.4 0 0 1-.858-2.63l-.008-8.695zm-79.833 2.571h-3.16v7.714h3.327c.846 0 1.527-.39 2.041-1.148.526-.76.791-1.659.791-2.657 0-1.028-.277-1.94-.848-2.728-.566-.795-1.276-1.18-2.15-1.18m17.632 5.143-4.925.008s-.64.007-.97.28c-.311.269-.516.633-.516 1.077 0 .399.198.72.495.973.313.258.557.233.949.233h4.985zM38.357 14.009h7.072v3.857h-7.072zM34.5 21.08h10.929v3.858H34.5zM30 28.151h15.429v3.857H30z"/></g><defs><clipPath id="a"><path fill="#fff" d="M30 14.009h115.071v18H30z"/></clipPath></defs></svg>