<svg xmlns="http://www.w3.org/2000/svg" width="175" height="47" fill="none" viewBox="0 0 175 47"><g clip-path="url(#a)"><path fill="#10273D" d="M118.48 6.993H78.856V20.52H58v18.067h60.48z"/><path fill="#fff" d="m88.23 13.085-.425.02c-1.619.084-2.621 1.086-2.621 2.725 0 1.599.982 2.705 2.621 2.789l.425.02zm0 7.992v-.765l-.425-.02c-2.725-.128-4.408-1.703-4.408-4.453 0-2.917 1.728-4.26 4.408-4.388l.425-.02v-.775h1.792v.765l.424.02c2.75.128 4.433 1.427 4.433 4.389 0 2.75-1.683 4.324-4.433 4.452l-.424.02v.765H88.23zm1.787-2.429.424-.02c1.6-.083 2.641-1.234 2.641-2.789 0-1.599-1.041-2.64-2.64-2.724l-.425-.02zm.128 15.614v-1.575h1.042c.34 0 .617-.148.725-.424l-3.065-7.306h2.004l2.068 5.647h.34l2.044-5.647h1.96l-2.789 6.733c-.637 1.535-1.555 2.577-3.347 2.577h-.982zm6.244-13.763v-9.31h1.852v7.627h.34l2.108-7.627h3.47v9.31h-1.851v-7.646h-.34l-2.044 7.646zm9.33 13.763v-9.31h1.851v7.627h.341l2.108-7.627h3.495v9.31h-1.851v-7.627h-.341l-2.068 7.627zm-28.996-3.174 1.851.256c-.469 1.98-2.024 3.155-4.048 3.155-3.006 0-4.408-2.192-4.408-4.922 0-2.789 1.491-4.857 4.497-4.857 1.832 0 3.239.893 3.875 2.621l-1.767.79c-.405-.958-1.086-1.703-2.197-1.703-1.85 0-2.492 1.51-2.492 3.154 0 1.664.68 3.219 2.576 3.219 1.136-.01 1.837-.672 2.113-1.713m29.356-10.589v-9.31h1.852v3.772h3.727v-3.772h1.851v9.31h-1.851v-3.855h-3.727v3.855zM79.196 34.262V32.47h.578c.81 0 1.105-.45 1.13-1.767l.109-5.712v-.044h6.52v9.31h-1.84v-7.622H82.75l-.084 3.94c-.064 2.576-.873 3.687-2.685 3.687zm19.385 0v-9.31h5.924v1.683h-4.068v7.627zm-35.64 0v-1.575h1.041c.341 0 .617-.148.726-.424l-3.065-7.306h2.004l2.068 5.647h.34l2.044-5.647h1.96L67.27 31.69c-.637 1.535-1.555 2.577-3.347 2.577h-.982z"/></g><defs><clipPath id="a"><path fill="#fff" d="M58 6.993h60.929v31.593H58z"/></clipPath></defs></svg>