<svg xmlns="http://www.w3.org/2000/svg" width="169" height="46" fill="none" viewBox="0 0 169 46"><g clip-path="url(#a)"><path fill="#10273D" d="m119.304 27.156.992.142c-.213 1.132-1.204 1.77-2.266 1.77-1.699 0-2.477-1.204-2.477-2.832s.849-2.76 2.548-2.76c1.062 0 1.841.495 2.195 1.486l-.992.425c-.212-.567-.637-.92-1.274-.92-1.061 0-1.486.849-1.486 1.84 0 .99.425 1.84 1.486 1.84.708 0 1.133-.354 1.274-.99m-35.817 8.07h1.345c.495 0 .849-.283.849-.779 0-.495-.354-.779-.85-.779h-1.344zm-.991.92v-5.38h3.893v.92h-2.902v1.062h1.486c1.062 0 1.699.496 1.699 1.628 0 1.062-.637 1.77-1.699 1.77zm4.813 0v-5.38h.991v4.46h.142l1.345-4.46h1.91v5.38h-.99v-4.46h-.142l-1.345 4.46zm6.37-2.619h1.275c.566 0 .85-.425.85-.92q0-.85-.85-.85H93.68zm-.99 2.62v-5.38h2.265c1.133 0 1.911.636 1.911 1.769s-.778 1.84-1.911 1.84H93.68v1.77zm4.176 0 1.699-2.832-1.628-2.549h1.203l1.204 2.124h.424v-2.124h.991v2.124h.425l1.204-2.124h1.203l-1.628 2.549 1.699 2.831h-1.204l-1.274-2.336h-.425v2.336h-.99V33.81h-.425l-1.275 2.336zm8.707-2.266h1.557l-.637-2.195h-.212zm-1.699 2.265 1.77-5.38h1.486l1.77 5.38h-1.062l-.425-1.345h-2.123l-.425 1.345zm-21.377-7.15v-5.38h1.91l.921 4.46h.142l.849-4.46h1.911v5.38h-.99v-4.459h-.142l-.85 4.46h-1.699l-.92-4.46h-.141v4.46zm9.06-.849c1.133 0 1.558-.85 1.558-1.84 0-1.062-.567-1.84-1.629-1.84-1.132 0-1.557.849-1.557 1.84 0 .99.496 1.84 1.628 1.84m0 .92c-1.699 0-2.619-1.203-2.619-2.831s.991-2.76 2.62-2.76c1.698 0 2.618 1.203 2.618 2.76s-.92 2.831-2.619 2.831m7.008-1.91.991.14c-.212 1.133-1.203 1.77-2.265 1.77-1.699 0-2.478-1.203-2.478-2.831s.85-2.76 2.549-2.76c1.061 0 1.84.495 2.194 1.486l-.991.425c-.212-.567-.637-.92-1.274-.92-1.062 0-1.487.849-1.487 1.84 0 .99.425 1.84 1.487 1.84.708 0 1.062-.354 1.274-.99m1.77 1.84v-5.38h.991v2.123h.566l1.628-2.123h1.274l-2.053 2.477 2.124 2.903h-1.274l-1.699-2.336h-.566v2.336zm7.149-.85c1.133 0 1.557-.85 1.557-1.84 0-1.062-.566-1.84-1.628-1.84-1.132 0-1.557.849-1.557 1.84 0 .99.496 1.84 1.628 1.84m0 .92c-1.699 0-2.619-1.203-2.619-2.831s.92-2.76 2.619-2.76 2.619 1.203 2.619 2.76-.991 2.831-2.619 2.831m4.318-3.256h1.345c.425 0 .779-.212.779-.637 0-.495-.283-.637-.779-.637h-1.345zm0 2.265h1.416c.495 0 .849-.141.849-.707 0-.567-.354-.708-.849-.708h-1.416zm-.991-4.46h2.478c.849 0 1.557.355 1.557 1.346 0 .637-.212 1.062-.779 1.345.637.141.921.637.921 1.274 0 .99-.708 1.486-1.629 1.486h-2.548zm10.335 5.38v-5.38h.991v2.124h.566l1.628-2.123h1.274l-1.982 2.477 2.053 2.903h-1.274l-1.699-2.336h-.566v2.336zm6.371-2.335h1.557l-.637-2.195h-.212zm-1.699 2.336 1.84-5.38h1.487l1.769 5.38h-1.061l-.425-1.345h-2.194l-.425 1.345zm8.777-4.46h-1.203c-.566 0-.92.142-.92.779s.354.778.92.778h1.203zm-3.185 4.46.212-1.487c.071-.495.283-.779.779-.99-.566-.213-.92-.78-.92-1.417 0-.99.92-1.486 1.84-1.486h2.265v5.38h-.991v-2.053h-1.203c-.495 0-.637.141-.708.708l-.212 1.415h-1.062zM19 41.1V18.52h22.58V5h36.102v36.101z"/><path fill="#fff" d="M31.246 33.953h-.495l-2.336-10.406h-4.248v12.6h2.265V25.812h.496l2.194 10.335h3.823L35.21 25.74h.496v10.406h2.265v-12.53h-4.318zm22.793 2.194h7.858v-2.194h-5.593v-3.115h4.814v-2.124h-4.814v-2.973h5.593v-2.194h-7.858zm-8.07-1.84c-2.548 0-3.751-1.912-3.751-4.39s1.203-4.388 3.752-4.388 3.751 1.911 3.751 4.389c0 2.477-1.203 4.389-3.751 4.389m0-11.043c-3.822 0-6.087 2.619-6.087 6.583S42.147 36.5 45.97 36.5s6.087-2.76 6.087-6.654c0-3.893-2.265-6.583-6.087-6.583m17.485 12.883h2.407l2.76-4.955 2.903 4.955h2.406l-3.893-6.583 3.68-6.017h-2.406l-2.548 4.46-2.62-4.46h-2.406l3.54 5.946z"/></g><defs><clipPath id="a"><path fill="#fff" d="M19 5h126v36.101H19z"/></clipPath></defs></svg>