<svg xmlns="http://www.w3.org/2000/svg" width="69" height="39" fill="none" viewBox="0 0 69 39"><path fill="#fff" fill-rule="evenodd" d="M0 14.606V39h68.441V0H26.382v14.606zm13.77 16.67h.535l2.753-11.166h5.047v13.536h-2.6V22.48h-.535l-2.677 11.165h-4.435L9.18 22.48h-.535v11.165h-2.6V20.11h5.047zm36.323 2.37H40.84V20.11h9.253v2.371h-6.576v3.135h5.659v2.294h-5.66v3.365h6.577zM27.152 26.84c0 2.753 1.377 4.817 4.359 4.817s4.359-2.14 4.359-4.817-1.377-4.741-4.36-4.741c-2.982 0-4.358 1.988-4.358 4.74m-2.753 0c0-4.206 2.6-7.112 7.112-7.112s7.112 2.906 7.112 7.112-2.6 7.188-7.112 7.188-7.112-2.982-7.112-7.188m30.359 6.806h-2.83l4.36-7.189-4.13-6.347h2.906l2.982 4.818 2.983-4.818h2.905l-4.282 6.424 4.512 7.112h-2.83l-3.44-5.353z" clip-rule="evenodd"/></svg>