<svg xmlns="http://www.w3.org/2000/svg" width="175" height="46" fill="none" viewBox="0 0 175 46"><path fill="#10273D" fill-rule="evenodd" d="M56.67 14.053a8.76 8.76 0 0 0-8.814 4.926 8.74 8.74 0 0 0 1.698 9.95 8.755 8.755 0 0 0 14.908-7.066 8.735 8.735 0 0 0-7.791-7.81m-.283 13.329a4.67 4.67 0 0 1-4.804-2.553A4.664 4.664 0 0 1 55 18.154a4.67 4.67 0 0 1 4.883 2.4 4.663 4.663 0 0 1-3.495 6.828m12.757-12.983a2.043 2.043 0 0 0-1.994 2.462c.192.962 1.091 1.62 2.07 1.62h5.683L66.06 30.175a.582.582 0 0 0 .462.934h13.872c.979 0 1.879-.657 2.07-1.618a2.04 2.04 0 0 0-1.992-2.463h-6.924l8.837-11.687a.588.588 0 0 0-.468-.943zm55.431.047a2.074 2.074 0 0 0-1.593 2.048v6.796l-11.019-8.763a.58.58 0 0 0-.62-.068.58.58 0 0 0-.33.528V29.02a2.066 2.066 0 0 0 1.593 2.048 2.04 2.04 0 0 0 2.279-1.112c.132-.275.2-.577.2-.882V22.22l11.019 8.763a.584.584 0 0 0 .949-.46V16.439a2 2 0 0 0-.199-.882 2.05 2.05 0 0 0-1.374-1.105 2.04 2.04 0 0 0-.905-.006m-28.69 3.644c4.661 0 8.144 2.46 8.144 4.663 0 2.201-3.483 4.663-8.144 4.663s-8.142-2.462-8.142-4.663 3.482-4.663 8.142-4.663m0-4.082c-6.746 0-12.214 3.915-12.214 8.745s5.468 8.744 12.214 8.744 12.215-3.915 12.215-8.744c0-4.83-5.469-8.745-12.215-8.745" clip-rule="evenodd"/></svg>