<svg xmlns="http://www.w3.org/2000/svg" width="175" height="47" fill="none" viewBox="0 0 175 47"><g fill="#10273D" clip-path="url(#a)"><path d="M24.657 17.24c-1.835 0-3.223.753-4.117 2v-1.694H18v16.465h2.54v-6.375c.894 1.224 2.282 1.977 4.117 1.977 3.198 0 5.856-2.683 5.856-6.187 0-3.48-2.658-6.185-5.856-6.185m-.4 9.95c-2.118 0-3.717-1.576-3.717-3.764 0-2.188 1.6-3.763 3.716-3.763 2.117 0 3.717 1.576 3.717 3.763s-1.6 3.764-3.716 3.764m17.637-9.645v1.67c-.893-1.223-2.28-1.974-4.116-1.974-3.199 0-5.856 2.68-5.856 6.185 0 3.482 2.657 6.187 5.856 6.187 1.835 0 3.223-.753 4.116-2v1.693h2.54v-11.76zM38.18 27.19c-2.118 0-3.717-1.576-3.717-3.763s1.599-3.763 3.716-3.763 3.716 1.576 3.716 3.763-1.599 3.763-3.715 3.763m15.59-3.904c.918-.564 1.365-1.505 1.365-2.61 0-1.812-1.576-3.434-4.304-3.434-2.093 0-3.623.94-4.469 2.633l2.07 1.177c.47-1.059 1.316-1.553 2.445-1.553 1.106 0 1.811.565 1.811 1.388 0 .847-.587 1.365-1.646 1.365h-1.246v2.233h1.67c1.082 0 1.693.542 1.693 1.342 0 .87-.752 1.505-2.116 1.505-1.506 0-2.377-.706-2.753-1.764l-2.07 1.222c.752 1.717 2.258 2.822 4.798 2.822 3.058 0 4.633-1.647 4.633-3.529 0-1.224-.681-2.257-1.881-2.799m12.095-.023c.823-.541 1.224-1.412 1.224-2.47 0-1.858-1.317-3.246-3.81-3.246h-5.551v11.76h6.02c2.564 0 3.858-1.458 3.858-3.34 0-1.223-.612-2.187-1.74-2.704m-2.775-3.553c.988 0 1.552.448 1.552 1.295 0 .87-.54 1.317-1.552 1.317h-2.94v-2.61zm.423 7.386H60.15v-2.681h3.363c1.012 0 1.6.47 1.6 1.294 0 .893-.588 1.387-1.6 1.387m14.673-9.55-6.02 7.457v-7.457H69.67v11.76h1.952l6.021-7.479v7.48h2.493v-11.76zm12.802 5.717c.824-.541 1.224-1.412 1.224-2.47 0-1.858-1.318-3.246-3.81-3.246H82.85v11.76h6.02c2.565 0 3.858-1.458 3.858-3.34 0-1.223-.61-2.187-1.74-2.704m-2.775-3.553c.988 0 1.552.448 1.552 1.295 0 .87-.54 1.317-1.552 1.317h-2.94v-2.61zm.424 7.386h-3.364v-2.681h3.364c1.011 0 1.6.47 1.6 1.294 0 .893-.589 1.387-1.6 1.387m15.472-9.55v1.67c-.894-1.223-2.281-1.974-4.115-1.974-3.2 0-5.858 2.68-5.858 6.185 0 3.482 2.658 6.187 5.857 6.187 1.835 0 3.222-.753 4.116-2v1.693h2.54v-11.76zm-3.716 9.644c-2.117 0-3.716-1.576-3.716-3.763s1.599-3.763 3.715-3.763c2.117 0 3.717 1.576 3.717 3.763s-1.599 3.763-3.716 3.763m17.497-9.644-6.022 7.457v-7.457h-2.493v11.76h1.952l6.022-7.479v7.48h2.493v-11.76zm6.428 12.044a1.778 1.778 0 0 0 1.764-1.765 1.759 1.759 0 0 0-1.088-1.63 1.766 1.766 0 0 0-.676-.133 1.747 1.747 0 0 0-1.764 1.763c0 .965.776 1.765 1.764 1.765M135.44 17.24c-1.835 0-3.223.752-4.117 1.998v-1.693h-2.54V34.01h2.54v-6.375c.894 1.224 2.282 1.977 4.117 1.977 3.199 0 5.857-2.683 5.857-6.187 0-3.48-2.658-6.185-5.857-6.185m-.4 9.95c-2.117 0-3.717-1.577-3.717-3.765s1.6-3.763 3.717-3.763 3.717 1.576 3.717 3.763-1.6 3.764-3.717 3.764m22.248-3.764c0-3.152-2.234-5.622-5.927-6.093V12.84h-2.494v4.492c-3.692.471-5.927 2.94-5.927 6.093 0 3.151 2.235 5.621 5.927 6.091v4.493h2.494v-4.493c3.693-.47 5.927-2.94 5.927-6.091m-5.927 3.668v-7.338c2.211.4 3.41 1.835 3.41 3.67 0 1.833-1.199 3.268-3.41 3.668m-5.904-3.669c0-1.835 1.223-3.27 3.41-3.669v7.338c-2.187-.4-3.41-1.834-3.41-3.669"/><path d="M113.816 19.456 119.838 12h-6.022z"/></g><defs><clipPath id="a"><path fill="#fff" d="M18 12h140v22.013H18z"/></clipPath></defs></svg>