<svg xmlns="http://www.w3.org/2000/svg" width="175" height="47" fill="none" viewBox="0 0 175 47"><g clip-path="url(#a)"><path fill="#fff" d="m51.16 21.518.673-2.14-2.226.07c-.188 0-1.556-.04-2.882-.995.1.01.198.023.299.023 1.365 0 2.685-.817 3.215-1.985l.958-2.11a17.5 17.5 0 0 1-2.298-.134c-.01-.002-.875-.112-1.875-1.127-.718-.729-1.606-1.114-2.567-1.114-.421 0-.797.075-1.121.177a4 4 0 0 0 .126-.524c.306-1.975-.973-3.482-.973-3.48l-1.674-2.06-1.037 2.42c-.004.008-.266.575-.735.852-.141-.71-.489-1.51-1.231-2.275-1.4-1.442-3.104-1.655-3.996-1.655a5 5 0 0 0-.78.055l-2.02.395c.116-.448.364-1.229.818-1.932l1.115-1.727-2.806.318L29.25.684l-1.73.886L25.92 0l-1.596 1.57L22.59.684l-.892 1.886-2.804-.318L20.01 3.98c.454.703.702 1.482.816 1.93L18.9 5.532l-.066-.012a5 5 0 0 0-.804-.06c-.892 0-2.597.216-3.993 1.656-.744.763-1.091 1.564-1.235 2.275-.465-.273-.725-.832-.725-.832l-1.04-2.434-1.7 2.074c-.207.267-1.233 1.684-.954 3.464.03.177.076.35.126.522a3.7 3.7 0 0 0-1.119-.177c-.961 0-1.85.385-2.569 1.114-.996 1.011-1.857 1.125-1.85 1.125 0 0-.909.162-2.317.136l.952 2.11c.53 1.17 1.852 1.985 3.215 1.985.103 0 .202-.014.303-.023-1.323.956-2.69.994-2.854.996L0 19.378l.686 2.139c.346 1.102 1.5 2.928 3.71 3.125-.24 1.002-.774 2.123-1.945 2.607l-1.689.691.921 1.594c.52.86 1.74 1.865 3.477 1.865a5.4 5.4 0 0 0 1.087-.112q.136.591.334 1.176c.518 1.53.072 2.597.066 2.608l-.834 1.736 1.861.488c.024.008.586.16 1.29.16a4 4 0 0 0 1.535-.299q.363.645.875 1.172c1.193 1.216 2.881 1.832 5.022 1.832h.008l1.528-.02-3.157 1.303 2.397 1.15c.87.423 1.904.922 2.954 1.303l-.298.813.826.374c.073.033 1.662.74 4.303.89 0 0 .637.03.988.03s.981-.032.981-.032c2.624-.154 4.2-.853 4.274-.888l.828-.376-.303-.815c1.082-.393 2.153-.911 2.986-1.316l2.352-1.135-3.147-1.304 1.534.02c2.143 0 3.834-.617 5.024-1.835q.51-.524.875-1.17.3.123.626.199.429.1.91.1c.691 0 1.26-.152 1.275-.156l1.87-.491-.815-1.704c-.02-.044-.466-1.11.052-2.641q.197-.587.332-1.176.526.112 1.095.112a4.07 4.07 0 0 0 3.479-1.882l.911-1.576-1.689-.69c-1.173-.484-1.704-1.607-1.943-2.607 2.18-.185 3.35-2.012 3.708-3.122M20.974 6.648l-.023.005.019-.025z"/><path fill="#fff" d="M25.922 6.553c-1.788.002-3.127.584-3.42 1.268l3.42 1.341 3.42-1.341c-.29-.684-1.63-1.266-3.42-1.268m.035 35.501h-.068c-1.084.008-2.575-.214-3.294-.422l-.865 2.326c.57.202 2.501.587 4.194.587 1.689 0 3.622-.387 4.19-.587l-.863-2.326c-.721.21-2.21.43-3.294.422m6.544-2.312c-.643.362-2.08.906-2.916 1.158l.702 1.921c1.293-.35 2.36-.761 3.242-1.2l-1.456-.482zm-13.156 0 .43 1.397-1.457.482c.88.439 1.952.85 3.24 1.2l.701-1.92c-.832-.253-2.27-.799-2.914-1.159M25.922 4.33c1.348 0 2.67.32 3.686.882a9 9 0 0 1 .4-1.08l-.384.047-.403.043-.171-.365-.514-1.079-.936.486-.365.185-.29-.285-1.019-1.002-1.016 1.002-.29.285-.365-.185-.942-.486-.508 1.08-.175.364-.403-.043-.384-.046c.176.395.304.769.4 1.079 1.017-.563 2.336-.883 3.68-.883M46.497 16.8q.262.088.529.086c.762 0 1.499-.489 1.753-1.05 0 0-1.398-.085-2.9-1.6-.48-.492-.986-.639-1.42-.639-.675 0-1.181.355-1.181.355 1.815.96 2.185 2.5 3.219 2.848m-41.677.086c.176 0 .354-.027.525-.086 1.037-.347 1.41-1.889 3.224-2.848 0 0-.508-.355-1.179-.355-.436 0-.942.147-1.423.638-1.5 1.517-2.899 1.601-2.899 1.601.25.561.99 1.05 1.751 1.05"/><path fill="#fff" d="M46.99 23.064q.044.003.09.002c1.903 0 2.549-2.025 2.549-2.025h-.037c-.35 0-3.178-.081-5.177-2.607-1.317-1.661-2.395-3.122-4.526-3.696l-.21-.037-.046-.212c-.058-.323.165-.626.671-.953 2.94-1.913.944-4.353.944-4.353s-.84 1.952-2.718 1.952l-.14-.002c-.213-.011-.419-.02-.626-.063l-.347-.068s.535-1.447-.756-2.776c-.974-1.004-2.158-1.174-2.843-1.174-.345 0-.564.044-.564.044.65.844 1.119 2.243.368 3.106-.647.742-2.23.779-2.23 1.885 0 .468.44 1.015 1.232 1.507 2.379 1.489 4.74 3.464 5.722 6.111 1.227 3.303-.155 5.494-2.13 6.75 0 0 .62.566 1.517.638q.275.025.527.025c1.895 0 2.874-.883 2.874-.883s-.161 1.22-1.148 2.353c-.91 1.046-2.104 1.66-3.924 1.688 0 0-.059.84.748 1.566.516.459 1.708.609 1.708.609s-2.232.449-2.478 3.725c-.134 1.774-.59 2.39-.59 2.39h.042c5.179 0 5.045-4.413 5.045-4.413s.36 1.306 1.805 1.647c.174.046.36.064.539.064.465 0 .868-.108.868-.108s-.756-1.586-.005-3.804c.622-1.84.521-3.204.521-3.204s.698 1.048 2.428 1.058h.017c1.441 0 2.07-1.085 2.07-1.085-3.454-1.424-3.113-6.021-3.113-6.021s.448.331 1.323.364m-1.04 4.801c-1.404-.687-2.292-2.514-2.507-3.173-.232 3.622-2.012 6.137-4.093 8.557-1.08 1.254-1.456 2.474-1.456 2.474s.207-1.382 1.142-2.507c1.94-2.318 3.785-5.202 3.922-8.538.096-2.327-.508-4.215-1.448-5.77.526 1.62.452 3.605-1.334 5.456 0 0 3.554-4.233-1.415-8.572-1.99-1.651-4.165-2.67-5.286-3.393 4.048 1.312 6.024-.133 6.024-.133-1.293 1.114-2.966 1.094-4.004.934.282.137.574.28.89.448 3.413 1.842 6.48 4.872 7.004 9.07v-.032c.795 4.121 2.561 5.18 2.561 5.18m-32.624 4.585s1.193-.148 1.709-.609c.804-.726.748-1.566.748-1.566-1.822-.025-3.015-.642-3.93-1.686-.98-1.133-1.142-2.353-1.142-2.353s.979.883 2.871.883q.257 0 .53-.025c.897-.072 1.518-.638 1.518-.638-1.974-1.256-3.358-3.45-2.133-6.752.983-2.645 3.343-4.622 5.722-6.111.791-.492 1.231-1.037 1.231-1.507 0-1.106-1.58-1.143-2.228-1.885-.75-.863-.279-2.264.369-3.106 0 0-.216-.044-.563-.044-.682 0-1.867.17-2.84 1.174-1.295 1.329-.758 2.776-.758 2.776l-.347.067c-.208.045-.415.052-.627.064l-.137.002c-1.883 0-2.719-1.95-2.719-1.95s-1.995 2.44.943 4.353c.506.327.727.63.669.953l-.047.212-.213.037c-2.127.574-3.207 2.035-4.524 3.696-1.995 2.522-4.82 2.605-5.173 2.605h-.039s.646 2.025 2.548 2.025c.031 0 .058 0 .091-.002.875-.031 1.324-.364 1.324-.364s.338 4.595-3.112 6.02c0 0 .629 1.086 2.07 1.086h.017c1.731-.01 2.427-1.058 2.427-1.058s-.1 1.364.52 3.204c.75 2.218-.002 3.803-.002 3.803s.403.108.867.108c.18 0 .364-.017.537-.063 1.442-.341 1.805-1.647 1.805-1.647s-.132 4.414 5.047 4.414h.037s-.454-.617-.586-2.391c-.248-3.276-2.48-3.725-2.48-3.725m-.831.798c-2.08-2.42-3.859-4.935-4.094-8.557-.215.657-1.099 2.485-2.503 3.173 0 0 1.765-1.058 2.558-5.179v.033c.525-4.197 3.59-7.23 7.005-9.071.312-.17.609-.313.888-.447-1.037.16-2.71.179-4.004-.935 0 0 1.976 1.445 6.023.133-1.12.723-3.295 1.742-5.284 3.393-4.971 4.34-1.415 8.572-1.415 8.572-1.788-1.853-1.86-3.836-1.334-5.456-.943 1.556-1.544 3.443-1.447 5.77.136 3.336 1.98 6.22 3.917 8.538.937 1.123 1.148 2.507 1.148 2.507s-.38-1.22-1.458-2.474m9.598-16.937a5 5 0 0 1 .526.667l.048.071q.13.197.25.405c.747 1.281 1.943 2.046 3.004 2.048 1.062-.002 2.255-.767 3.005-2.048a8 8 0 0 1 .254-.41l.039-.056a5.4 5.4 0 0 1 .537-.679l.04-.04a3.1 3.1 0 0 1 1.428-.846l-.264-.152h-.015l-1.052-.607-1.08-.615-2.885 1.561-.007-.006-.006.006-2.887-1.56-1.078.612-1.053.607h-.012l-.268.152a3.1 3.1 0 0 1 1.43.842c.017.016.029.033.046.048m2.66-.125h2.442v.832c-.287-.348-.846-.277-.846-.277v1.2s.021.59.229.846H25.37c.211-.254.23-.845.23-.845v-1.2s-.556-.072-.847.277z"/><path fill="#fff" d="M25.672 14.572V9.7l-3.121-1.052.824 4.723zm-.67-3.676v.782l-.152-.07c-.008-.005-.229-.055-.616-.36-.64-.493-.652-.947-.652-.947zm3.47 2.474.82-4.723-3.12 1.052v4.873zm-1.628-2.474 1.419-.594s-.012.455-.653.948c-.386.305-.61.355-.617.36l-.151.07v-.784zM21.257 25.87c.305.109.673.132.861.132q.013-.034.027-.087.028-.081.045-.171a5 5 0 0 0 .076-.773 1.1 1.1 0 0 1-.41-.43c-.116-.242-.28-.354-.523-.354-.314 0-.651.187-.795.276-.114.672.384 1.283.72 1.406m6.904-2.586c-.58.626-1.714 1.717-1.77 1.773l-.069.07-3.585-.057c-.002.353-.06.654-.116.873l-.03.114 4.267.761c.444-.308 1.665-1.195 2.138-1.541-.345-.501-.378-1.095-.3-1.513a2.2 2.2 0 0 1-.535-.48"/><path fill="#fff" d="M28.649 18.999c-.826.815-1.62 1.115-2.327 1.185a4 4 0 0 1-.39.02h-.017a3.8 3.8 0 0 1-.776-.08c-.046.183-.105.566.062.928.15.33.454.575.898.737l.15.057.001.16a1.48 1.48 0 0 0 1.173 1.372c.186-.19.355-.362.48-.505-.234-.543-.111-1.098.226-1.37-.016.058-.163 1.419.935 1.923l.18.085-.054.19c-.018.059-.384 1.375.944 1.864l.235.089-.105.227c-.023.05-.545 1.245.682 1.923h2.662v-2.1c-.946-.116-1.347-.871-1.45-1.407-.44-.075-.781-.264-1.014-.572-.558-.73-.077-1.399-.072-1.436-.002.006 0 .72.442 1.158.22.212.48.376.873.413l.194.017.017.197c.004.042.11 1.005 1.012 1.158l-.002-4.29c0-.664.196-1.333.431-1.95h-5.39zm-7.165 1.964-.071 2.732.312.047.764-2.62-.388-.806zm8.423 12.53q.036 0 .076.01c.475.135.595 1.838 1.429 1.99.081.018.157.021.223.021.24 0 .384-.102.539-.283 0 0-.419-.655-.733-1.096-.417-.578-.74-1.278-1.516-1.278l-.06.002c-.256.014-.413.137-.413.137a1.6 1.6 0 0 0-.873-.264c-.486 0-.865.222-1.053.222h-.008l-1.733-.17c-.271-.025-.485-.296-.562-.402l-.03-.047q0-.071-.003-.136c-.058-1.409-1.156-2.012-1.546-2.022 0 0 .047-.267-.06-.37l-.382.46-1.254-.625.894 1.038-.758.846c-.096.096-.084.227-.045.281l.328.287.415-.25c.02-.015.058-.02.104-.02.115 0 .287.03.442.03.169 0 .316-.037.334-.195-.052.522-.54 1.43-.22 2.143l.237.537-1.531-.22-.718 1.205c-.22.4-.256.834-.043 1.07l.268.333s.376-.397.461-.658l-.122-.133c-.102-.111-.097-.211-.035-.333l.45-.742 1.81.424.094-.162c.123-.202.299-.264.493-.264q.118.002.246.023c.336.066.888.155 1.44.155.608 0 1.209-.108 1.529-.465.655.966 1.983 1.12 1.878 1.61l-.348 1.652c.23-.01.453-.025.665-.054l.331-1.72c.037-.187.072-.44.072-.44-.128-.129-.438-.402-.613-.734-.235-.447-.107-.68-.326-1.262.008.004.074-.13.227-.13m-6.767-2.416a.154.154 0 0 1-.15-.166.156.156 0 0 1 .168-.144c.089.004.153.08.15.166a.16.16 0 0 1-.168.144"/><path fill="#fff" d="M20.67 35.058s.6-.245.653-.42l-.079-.199c-.056-.129-.048-.27.06-.346l.648-.446 1.082.206s-.196-.242-.177-.568l-1.031-.218-.974.59a.936.936 0 0 0-.31 1.117zm7.647 2.802q.29-.012.642-.012s.556-1.617.587-1.668a14 14 0 0 1-1.21-.634c.165.244.566.526.487.741z"/><path fill="#10273D" d="M33.614 28.272H18.232v5.75c0 2.35 1.712 3.822 4.239 3.822 2.111 0 2.668.081 3.453.856.541-.536.989-.736 1.908-.812l.021-.088.485-1.49-.82-.928c-.314.104-.578.121-1.022.121a8.4 8.4 0 0 1-1.526-.156.7.7 0 0 0-.161-.017c-.068 0-.074.006-.091.038l-.097.158-.176.29-.332-.076-1.476-.345-.201.332.03.034.181.197-.08.256c-.108.335-.46.727-.567.834l-.369.394-.335-.422-.252-.315c-.266-.294-.328-.747-.179-1.221a.02.02 0 0 1-.015.006l-.417.171-.188-.404-.132-.288a1.39 1.39 0 0 1 .467-1.687l1.189-.667 1.13.221c.027-.108.068-.493.101-.591-.021-.002-.043-.008-.064-.008l-.651.241-.629-.431s-.246-.236-.023-.47l.609-.916-1.542-1.923 2.37.968.157-.195.32-.38.362.343c.103.099.161.22.19.341.654.253 1.823.998 1.926 2.21l-.367.147v.01c.084.098.153.138.175.142l1.69.166c.043-.008.098-.027.158-.045.21-.07.525-.173.9-.173.304 0 .598.07.881.2a1.4 1.4 0 0 1 .38-.077l.082-.002c.906 0 1.355.673 1.716 1.209q.09.137.182.267c.316.444.73 1.093.747 1.12l.186.289-.229.264c-.176.202-.44.44-.894.44q-.14 0-.306-.032a1.3 1.3 0 0 1-.27-.08 8 8 0 0 1-.048.284l-.297 1.538c1.774-.434 2.901-1.765 2.901-3.669zm-15.381-.462h11.961c-.597-.613-.59-1.39-.436-1.894a2 2 0 0 1-.446-.291 195 195 0 0 1-2.267 1.634l-.08.054-4.694-.844h-.095c-.112 0-.277-.004-.457-.026a.456.456 0 0 1-.818.162.44.44 0 0 1-.082-.343l.018-.1c-.485-.339-.931-1.096-.733-1.894l.019-.085.068-.048a4 4 0 0 1 .211-.13l-.341-.053a.235.235 0 0 1-.194-.266.23.23 0 0 1 .268-.192l.812.127.074-2.844 1.21-1.272.754 1.578-.797 2.736.718.112c.126.02.213.137.194.266a.23.23 0 0 1-.231.193q-.02 0-.037-.002l-.584-.095c.008.018.02.027.027.046.062.128.2.22.282.259l3.579.056c.151-.147.527-.513.913-.9a1.92 1.92 0 0 1-1.255-1.588c-.492-.208-.831-.52-1.02-.927-.228-.503-.147-1.006-.087-1.25-.477-.174-.979-.49-1.49-.994h-5.39c.23.616.426 1.285.426 1.95z"/><path fill="#10273D" d="M23.16 30.767a.155.155 0 0 0-.167.144.153.153 0 0 0 .149.166.157.157 0 0 0 .169-.145c0-.084-.062-.163-.152-.165m10.434 10.426-.886-.338.244-.909.27-.992s-1.57.846-3.783 1.481c-.628.18-1.103.26-1.103.26v.675s-1.183.204-2.38.204h-.067c-1.197 0-2.38-.204-2.38-.204v-.674s-.477-.081-1.103-.26c-2.212-.636-3.78-1.482-3.78-1.482l.265.992.25.91-.888.337-.985.366c1.13.541 2.695 1.331 4.128 1.72l-.337.917s1.816.823 4.843.831v.002h.043v-.002c3.03-.008 4.845-.83 4.845-.83l-.339-.918c1.433-.389 3.002-1.179 4.126-1.72zm-15.276.428 1.459-.482-.43-1.397c.64.362 2.082.905 2.916 1.158l-.704 1.921c-1.288-.352-2.36-.763-3.24-1.2m7.607 2.924c-1.693 0-3.626-.387-4.194-.587l.864-2.326c.718.208 2.211.43 3.295.422h.068c1.084.008 2.572-.214 3.294-.422l.863 2.326c-.568.202-2.5.587-4.19.587m4.363-1.724-.702-1.92c.836-.253 2.273-.797 2.916-1.159l-.428 1.397 1.456.482c-.882.437-1.949.847-3.242 1.2M25.923 4.892c1.803 0 3.245.593 4.042 1.227 0 0 .237-1.416 1.045-2.666l-1.452.163-.76-1.605-1.46.748-1.416-1.391-1.411 1.391-1.462-.748-.758 1.605-1.453-.163c.809 1.25 1.046 2.666 1.046 2.666.798-.634 2.237-1.227 4.038-1.227m-3.698-.713.403.042.175-.364.508-1.079.942.484.364.185.291-.285 1.016-1.002 1.018 1.002.291.285.365-.185.936-.484.514 1.08.17.363.404-.042.384-.046a9 9 0 0 0-.4 1.079c-1.016-.563-2.338-.883-3.686-.883-1.341 0-2.662.32-3.682.883a9 9 0 0 0-.4-1.08zm24.855 19.505c2.332 0 3.112-2.358 3.145-2.459l.26-.83-.875.027h-.004c-.308 0-2.881-.067-4.706-2.372l-.172-.214c-1.193-1.506-2.323-2.938-4.344-3.591q.086-.08.256-.191c1.072-.701 1.697-1.553 1.854-2.542.229-1.487-.725-2.672-.768-2.72l-.65-.798-.405.946c-.027.06-.71 1.574-2.144 1.574h-.107q-.147-.007-.285-.017c.05-.676-.074-1.723-1.028-2.703-1.145-1.181-2.553-1.359-3.29-1.359-.394 0-.655.048-.683.052l-.98.193.604.792c.475.61.906 1.738.396 2.328-.163.186-.498.339-.82.49-.661.303-1.563.723-1.563 1.795 0 .693.54 1.418 1.522 2.034 2.905 1.815 4.696 3.71 5.47 5.8 1.196 3.216-.365 5.05-1.881 6.016l-.68.435.595.543c.08.07.808.707 1.884.8.204.013.4.025.582.025a6 6 0 0 0 1.755-.253c-.132.23-.293.463-.497.698-.866.998-1.933 1.453-3.466 1.476l-.57.01-.045.568c-.006.114-.048 1.168.956 2.064.153.138.34.252.533.346-.68.61-1.373 1.67-1.506 3.486-.113 1.516-.477 2.077-.481 2.083l-.63.956 1.138.015c1.88 0 3.321-.516 4.32-1.538a4.9 4.9 0 0 0 1.126-1.892 3.07 3.07 0 0 0 1.986.725c.531 0 .975-.112 1.026-.123l.727-.193-.322-.675c-.024-.053-.63-1.406.023-3.337.281-.834.425-1.582.494-2.164.458.237 1.07.434 1.864.436 1.799 0 2.592-1.335 2.629-1.391l.355-.613-.657-.27c-2.145-.884-2.62-3.26-2.715-4.547.194.037.415.071.665.079zm1.7 5.037s-.628 1.085-2.069 1.085h-.017c-1.73-.01-2.428-1.058-2.428-1.058s.1 1.364-.523 3.204c-.75 2.218.005 3.803.005 3.803s-.403.108-.868.108c-.179 0-.365-.017-.54-.063-1.444-.341-1.804-1.648-1.804-1.648s.133 4.415-5.046 4.415h-.04s.456-.617.591-2.391c.246-3.276 2.478-3.725 2.478-3.725s-1.19-.148-1.706-.609c-.807-.726-.75-1.566-.75-1.566 1.822-.025 3.015-.642 3.924-1.688.985-1.133 1.148-2.353 1.148-2.353s-.98.883-2.874.883a6 6 0 0 1-.527-.025 2.8 2.8 0 0 1-1.516-.638c1.972-1.256 3.356-3.45 2.129-6.752-.984-2.645-3.345-4.622-5.722-6.111-.792-.492-1.232-1.037-1.232-1.507 0-1.106 1.582-1.14 2.232-1.885.748-.863.28-2.264-.37-3.106 0 0 .219-.044.564-.044.684 0 1.87.171 2.843 1.173 1.293 1.33.756 2.777.756 2.777l.347.067c.207.045.413.052.626.062l.14.002c1.878 0 2.718-1.952 2.718-1.952s1.997 2.441-.942 4.353c-.506.327-.73.63-.671.954l.047.211.209.037c2.13.574 3.209 2.035 4.525 3.696 2 2.526 4.829 2.607 5.177 2.607h.037s-.646 2.025-2.548 2.025l-.09-.002c-.875-.031-1.323-.364-1.323-.364s-.343 4.6 3.11 6.025"/><path fill="#10273D" d="M42.981 14.5c.87.46 1.377 1.076 1.821 1.623.436.534.851 1.049 1.499 1.262.23.08.475.116.723.116.973 0 1.95-.591 2.32-1.41l.373-.821-.901-.054c-.043-.002-1.203-.106-2.494-1.418-.531-.538-1.173-.821-1.865-.821-.846 0-1.472.42-1.542.462l-.83.58zm1.478-.903c.434 0 .94.147 1.42.638 1.502 1.517 2.9 1.601 2.9 1.601-.254.559-.99 1.05-1.753 1.05a1.6 1.6 0 0 1-.53-.086c-1.033-.347-1.403-1.889-3.22-2.848 0 0 .508-.355 1.183-.355m-1.07 9.089v.031c-.524-4.196-3.592-7.227-7.004-9.071-.316-.168-.607-.31-.89-.447 1.039.16 2.712.179 4.004-.935 0 0-1.976 1.445-6.025.133 1.121.723 3.299 1.742 5.286 3.393 4.97 4.34 1.413 8.572 1.413 8.572 1.786-1.851 1.86-3.836 1.334-5.456.94 1.555 1.542 3.443 1.449 5.77-.138 3.336-1.982 6.22-3.923 8.538-.932 1.125-1.142 2.507-1.142 2.507s.376-1.22 1.456-2.474c2.08-2.42 3.859-4.935 4.092-8.557.215.657 1.1 2.486 2.507 3.173.004.002-1.762-1.055-2.557-5.177M16.904 38.214c-.002-.006-.363-.567-.479-2.083-.136-1.817-.826-2.877-1.509-3.486.198-.092.38-.206.534-.346 1.002-.896.96-1.95.954-2.064l-.04-.568-.573-.01c-1.53-.025-2.598-.48-3.465-1.476a4.6 4.6 0 0 1-.496-.697 6 6 0 0 0 1.752.252c.187 0 .379-.012.582-.025a3.45 3.45 0 0 0 1.887-.8l.595-.543-.68-.436c-1.523-.967-3.078-2.801-1.883-6.015.773-2.09 2.563-3.985 5.472-5.8.98-.616 1.518-1.34 1.518-2.034 0-1.072-.9-1.494-1.561-1.794-.322-.152-.657-.305-.82-.491-.512-.588-.08-1.717.393-2.328l.61-.792-.986-.193c-.029-.003-.287-.052-.682-.052-.737 0-2.141.178-3.289 1.359-.956.982-1.082 2.029-1.033 2.703q-.14.01-.284.017h-.104c-1.439 0-2.12-1.514-2.146-1.574l-.406-.946-.655.798c-.037.048-.995 1.235-.762 2.72.155.989.78 1.84 1.851 2.542a2 2 0 0 1 .256.19c-2.018.654-3.147 2.087-4.34 3.594l-.172.214c-1.822 2.304-4.401 2.372-4.71 2.372l-.878-.027.268.83c.03.1.808 2.459 3.143 2.459l.112-.004c.247-.008.468-.04.666-.079-.098 1.285-.573 3.661-2.719 4.547l-.655.27.355.613c.034.056.83 1.391 2.633 1.391a4 4 0 0 0 1.86-.436c.069.582.212 1.33.494 2.164.653 1.93.044 3.284.02 3.337l-.321.675.73.193c.048.011.495.123 1.025.123q.373-.002.682-.075c.553-.13.98-.372 1.303-.65a4.9 4.9 0 0 0 1.125 1.892c1 1.022 2.439 1.538 4.32 1.538l1.14-.015zm-.55.352c-5.18 0-5.048-4.414-5.048-4.414s-.36 1.306-1.805 1.648a2 2 0 0 1-.537.063 3.7 3.7 0 0 1-.867-.108s.752-1.586.002-3.803c-.62-1.84-.52-3.204-.52-3.204s-.696 1.048-2.427 1.057h-.018c-1.44 0-2.068-1.084-2.068-1.084 3.45-1.424 3.111-6.022 3.111-6.022s-.447.332-1.324.364l-.09.002c-1.905 0-2.549-2.025-2.549-2.025h.039c.351 0 3.176-.08 5.175-2.607 1.317-1.66 2.397-3.12 4.524-3.695l.213-.037.047-.212c.058-.324-.163-.626-.67-.953-2.939-1.914-.942-4.353-.942-4.353s.836 1.95 2.719 1.95l.137-.002c.212-.012.421-.02.627-.064L14.43 11s-.537-1.447.758-2.777c.973-1.003 2.158-1.173 2.84-1.173.348 0 .563.044.563.044-.648.844-1.117 2.243-.369 3.106.648.742 2.228.779 2.228 1.885 0 .468-.44 1.015-1.23 1.506-2.38 1.49-4.742 3.467-5.723 6.112-1.225 3.303.157 5.493 2.133 6.752 0 0-.62.566-1.518.637a6 6 0 0 1-.53.026c-1.892 0-2.871-.883-2.871-.883s.163 1.22 1.142 2.353c.915 1.046 2.108 1.663 3.93 1.688 0 0 .058.84-.748 1.566-.518.459-1.709.609-1.709.609s2.234.449 2.479 3.724c.133 1.775.585 2.391.585 2.391z"/><path fill="#10273D" d="M4.819 17.503q.377.002.725-.115c.651-.214 1.064-.729 1.5-1.262.447-.548.949-1.164 1.82-1.625l.895-.477-.832-.58c-.07-.045-.694-.463-1.537-.463-.694 0-1.338.281-1.867.82-1.292 1.311-2.45 1.417-2.492 1.42l-.902.051.37.823c.373.815 1.348 1.408 2.32 1.408m1.148-3.266c.48-.491.987-.637 1.423-.637.67 0 1.179.354 1.179.354-1.815.962-2.187 2.501-3.225 2.848a1.6 1.6 0 0 1-.525.087c-.762 0-1.5-.49-1.751-1.05 0-.002 1.396-.087 2.899-1.602m2.921 10.441c-.097-2.327.504-4.215 1.447-5.77-.526 1.62-.454 3.605 1.334 5.456 0 0-3.556-4.233 1.415-8.572 1.99-1.651 4.165-2.67 5.284-3.393-4.047 1.312-6.023-.133-6.023-.133 1.292 1.114 2.965 1.095 4.005.933-.281.136-.576.279-.889.447-3.416 1.843-6.481 4.874-7.007 9.071v-.033c-.793 4.122-2.557 5.18-2.557 5.18C7.3 27.175 8.185 25.348 8.4 24.69c.235 3.622 2.012 6.137 4.093 8.557 1.08 1.254 1.46 2.474 1.46 2.474s-.211-1.382-1.148-2.507c-1.937-2.314-3.781-5.2-3.917-8.536m15.865-8.491v.832c.29-.348.848-.277.848-.277v1.2s-.02.59-.231.846h1.208c-.207-.254-.229-.845-.229-.845v-1.2s.559-.072.846.277v-.833zm-.519-4.937c.385.305.608.355.616.361l.151.07v-.785l-1.419-.593c0 .002.014.454.651.948m3.377-.001c.641-.493.653-.947.653-.947l-1.42.593v.784l.15-.07c.01-.005.23-.055.617-.36"/><path fill="#10273D" d="M30.166 8.058c0-1.189-2.014-2.258-4.238-2.258h-.014c-2.224 0-4.239 1.069-4.239 2.258l.045.293.888 5.065-.892.515-2.307 1.339h.008s-.52.264-.76.428c-.879.607-1.065 1.49-.555 1.857.126-.72.7-1.476 1.774-1.476.774 0 1.363.397 1.84.992q.184.224.347.484c.134.218.268.409.402.593h-5.943c.436.873.85 1.798.85 2.802v13.071c0 3.164 2.45 4.675 5.098 4.675 2.048 0 2.323-.093 3.454 1.025 1.124-1.12 1.4-1.025 3.45-1.025 2.65 0 5.095-1.51 5.095-4.675V20.95c0-1.004.415-1.929.853-2.802h-5.945a10 10 0 0 0 .4-.593 6 6 0 0 1 .345-.484c.48-.597 1.068-.992 1.842-.992 1.074 0 1.646.753 1.774 1.476.51-.366.325-1.25-.559-1.857a9 9 0 0 0-.756-.428h.008l-3.195-1.854.888-5.065zm-7.615.59 3.121 1.051v4.873l-2.298-1.204zm.645 10.35c.512.507 1.014.82 1.49.994-.061.245-.143.75.088 1.253.188.404.53.716 1.02.925a1.92 1.92 0 0 0 1.254 1.587c-.385.387-.762.752-.915.9l-3.577-.056a.63.63 0 0 1-.281-.26c-.008-.017-.02-.027-.025-.046l.583.094.037.002a.23.23 0 0 0 .037-.458l-.718-.112.797-2.734-.754-1.578-1.21 1.271-.074 2.844-.812-.127c-.126-.025-.246.068-.268.193a.235.235 0 0 0 .194.266l.341.052c-.122.07-.201.123-.21.13l-.07.049-.02.085c-.198.798.25 1.555.733 1.894l-.017.1a.45.45 0 0 0 .08.343.45.45 0 0 0 .375.19.46.46 0 0 0 .444-.354c.18.021.345.025.458.025h.095l4.695.843.078-.053c.375-.26 1.8-1.293 2.267-1.634.128.11.271.21.446.293-.151.505-.16 1.281.438 1.894H18.232v-6.861c0-.665-.196-1.333-.427-1.95h5.39zm5.801 6.278c-.475.346-1.696 1.233-2.138 1.541l-4.266-.761.03-.114c.055-.22.111-.52.115-.873l3.585.058.068-.07c.054-.053 1.19-1.144 1.77-1.772.138.172.31.335.535.48-.077.416-.044 1.01.301 1.51m-7.14-.734c.1.21.283.35.409.43a5 5 0 0 1-.076.772q-.018.09-.045.171l-.027.087a2.8 2.8 0 0 1-.86-.133c-.336-.123-.836-.734-.72-1.406.145-.089.48-.276.795-.276.242-.002.407.112.524.355m-.445-.846.072-2.73.616-.65.389.805-.764 2.62zm7.546 14.154q-.35 0-.642.011l.509-1.57c.079-.218-.322-.497-.487-.742.25.156.897.497 1.21.634-.033.05-.59 1.667-.59 1.667m1.594-1.784-.331 1.718a7 7 0 0 1-.668.054l.35-1.653c.104-.491-1.224-.644-1.88-1.609-.32.359-.922.465-1.527.465a8 8 0 0 1-1.44-.155 2 2 0 0 0-.247-.023c-.194 0-.37.06-.493.264l-.097.162-1.809-.424-.45.74c-.064.12-.067.222.035.333l.122.133c-.083.263-.459.657-.459.657l-.27-.333c-.213-.237-.178-.668.045-1.07l.718-1.204 1.531.22-.238-.54c-.32-.712.167-1.62.219-2.142-.018.158-.163.193-.334.193-.155 0-.327-.03-.442-.03-.044 0-.083.005-.104.02l-.415.25-.328-.287c-.039-.055-.052-.184.045-.28l.758-.845-.895-1.038 1.254.626.382-.46c.105.102.06.37.06.37.392.009 1.489.612 1.547 2.019q.005.065.004.136l.029.047c.077.106.29.377.562.402l1.733.17h.008c.19 0 .568-.222 1.053-.222.264 0 .559.068.873.264 0 0 .157-.123.413-.136q.03-.003.06-.002c.777 0 1.1.697 1.516 1.277.314.441.733 1.096.733 1.096-.155.183-.299.284-.539.284q-.1 0-.223-.021c-.834-.153-.954-1.856-1.429-1.991a.3.3 0 0 0-.076-.01c-.153 0-.22.135-.22.135.216.58.09.815.323 1.262.175.332.485.605.613.735 0 .003-.035.254-.072.443m-9.308-1.627.08.199c-.053.173-.654.42-.654.42l-.13-.282a.93.93 0 0 1 .31-1.117l.973-.59 1.031.218a.9.9 0 0 0 .177.569l-1.082-.206-.648.444c-.108.076-.115.216-.057.345m9.471 3.251.297-1.538c.015-.09.035-.196.048-.285q.125.054.27.081.166.03.306.03c.454 0 .717-.236.894-.438l.229-.264-.187-.29a27 27 0 0 0-.746-1.119 6 6 0 0 1-.182-.268c-.36-.535-.813-1.208-1.718-1.208l-.082.002a1.3 1.3 0 0 0-.38.077 2.1 2.1 0 0 0-.882-.2c-.374 0-.69.102-.9.173-.06.018-.114.037-.157.045l-1.692-.166c-.022-.004-.091-.044-.175-.145v-.007l.367-.147c-.103-1.212-1.274-1.957-1.928-2.21a.7.7 0 0 0-.19-.34l-.364-.344-.32.382-.157.194-2.37-.967 1.542 1.923-.609.915c-.223.235.023.47.023.47l.628.43.652-.24q.034.002.064.007c-.031.098-.072.483-.099.591l-1.13-.221-1.189.666a1.39 1.39 0 0 0-.467 1.688l.132.287.188.405.415-.172q.008-.001.015-.007c-.15.474-.089.925.178 1.222l.252.316.336.422.368-.394c.109-.108.46-.499.569-.834l.079-.256-.18-.197-.03-.034.202-.332 1.476.345.331.075.177-.289.097-.158c.017-.033.023-.038.09-.038q.079 0 .162.017a8.4 8.4 0 0 0 1.526.156c.442 0 .706-.017 1.022-.121 0 0 .793.894.82.928l-.485 1.488-.021.09c-.92.074-1.367.274-1.908.812-.785-.775-1.342-.856-3.453-.856-2.527 0-4.239-1.472-4.239-3.823v-5.747h15.38l.004 5.747c.002 1.908-1.125 3.237-2.899 3.671m3.325-18.692c-.234.617-.43 1.285-.43 1.95l.002 4.29c-.902-.151-1.009-1.117-1.012-1.159l-.018-.197-.194-.017a1.37 1.37 0 0 1-.87-.414c-.442-.44-.444-1.152-.442-1.158-.006.037-.487.705.071 1.435.235.309.574.497 1.014.573.103.535.505 1.29 1.45 1.406v2.1h-2.66c-1.227-.678-.707-1.872-.682-1.922l.105-.228-.235-.089c-1.328-.489-.964-1.807-.944-1.863l.054-.192-.18-.085c-1.098-.505-.948-1.867-.935-1.923-.337.271-.46.826-.227 1.37-.126.142-.294.316-.479.505a1.48 1.48 0 0 1-1.17-1.374l-.003-.16-.149-.058c-.444-.164-.748-.408-.898-.738-.168-.364-.108-.745-.062-.929q.197.045.384.06.193.021.392.021h.017q.198 0 .39-.02c.708-.07 1.5-.373 2.327-1.186h5.384zm-4.145-4.335 1.05.607h.016l.264.152a3.1 3.1 0 0 0-1.427.846c-.014.011-.027.027-.04.04a5 5 0 0 0-.257.295l-.048.062a5 5 0 0 0-.27.377q-.13.196-.254.41c-.748 1.282-1.943 2.047-3.005 2.049-1.06-.002-2.255-.767-3.004-2.048a8 8 0 0 0-.25-.405l-.048-.071a8 8 0 0 0-.28-.38 7 7 0 0 0-.248-.287c-.017-.013-.029-.03-.046-.046a3.1 3.1 0 0 0-1.43-.842l.268-.152h.012l1.052-.607 1.079-.615 2.885 1.56.006-.005.008.006 2.885-1.56zm-1.423-1.293-2.3 1.204V9.7l3.12-1.052zm-2.55-4.206-3.42-1.343c.29-.684 1.632-1.266 3.42-1.268 1.79.002 3.131.584 3.42 1.268zm42.355 20.393V21.84h4.554v-2.808H60.407v2.808h4.554v7.715zm9.087-4.4v-6.123h-3.206v10.523h2.83l5.527-6.123v6.123h3.205V19.033h-2.83zm19.14.487v3.913h3.206V19.033h-3.206v3.847h-5.151v-3.847h-3.205v10.523h3.205v-3.913zm12.132 3.913c.729 0 1.393-.066 2.012-.243 1.659-.464 2.741-1.813 2.741-3.648 0-1.746-.928-2.962-2.409-3.515-.709-.265-1.548-.287-2.344-.287h-3.294v-2.83h-3.205v10.523zm-.553-5.217c.443 0 .863 0 1.238.133.531.176.841.618.841 1.149 0 .553-.31 1.017-.819 1.238-.353.155-.707.155-1.26.155h-2.741v-2.675zm11.053 1.238 3.825 3.979h4.266l-5.327-5.483 5.128-5.04h-4.023l-3.869 3.957h-.884v-3.957h-3.204v10.523h3.204v-3.98zm14.686-6.831c-4.311 0-6.896 2.432-6.896 5.57 0 3.14 2.585 5.572 6.896 5.572 4.29 0 6.877-2.432 6.877-5.571 0-3.14-2.587-5.571-6.877-5.571m0 8.577c-2.144 0-3.513-1.282-3.513-3.006s1.369-2.985 3.513-2.985c2.123 0 3.516 1.26 3.516 2.985s-1.393 3.006-3.516 3.006m17.552-8.887h-3.206v1.061c-4.023.089-6.433 1.791-6.433 4.798 0 3.006 2.41 4.576 6.433 4.664v1.061h3.206v-1.06c4.044-.09 6.455-1.659 6.455-4.665s-2.411-4.71-6.455-4.798zm-3.206 8.268c-2.211-.088-3.184-.995-3.184-2.41 0-1.414.973-2.431 3.184-2.52zm3.206-4.93c2.233.089 3.183 1.106 3.183 2.52 0 1.415-.95 2.322-3.183 2.41zm17.119-3.338h-3.206v1.061c-4.023.089-6.432 1.791-6.432 4.798 0 3.006 2.409 4.576 6.432 4.664v1.061h3.206v-1.06c4.046-.09 6.455-1.659 6.455-4.665s-2.409-4.71-6.455-4.798zm-3.206 8.268c-2.21-.088-3.183-.995-3.183-2.41 0-1.414.973-2.431 3.183-2.52zm3.206-4.93c2.233.089 3.183 1.106 3.183 2.52 0 1.415-.95 2.322-3.183 2.41z"/></g><defs><clipPath id="a"><path fill="#fff" d="M0 0h175v46.002H0z"/></clipPath></defs></svg>