<svg xmlns="http://www.w3.org/2000/svg" width="175" height="47" fill="none" viewBox="0 0 175 47"><g clip-path="url(#a)"><path fill="#10273D" fill-rule="evenodd" d="M133.433 19.536c-.147-.94-.825-1.467-1.691-1.778-1.488-.534-3.027-.563-4.582-.437-1.437.116-2.827.402-4.167 1.093l-.73-3.946c1.18-.574 2.363-.895 3.58-1.11 2.601-.459 5.209-.53 7.787.108 2.719.675 4.628 2.215 5.155 5.048.13.7.125 1.759.125 1.759v6.363c0 .277.034.868.052 1.143.096 1.471.231 1.615 1.766 1.837v3.029c-1.515.374-3.072.571-4.613-.14-.866-.4-1.265-1.138-1.455-2.01a2.924 2.924 0 0 1-.051-.373l-.001-.003a14.094 14.094 0 0 0-.025-.24c-1.86 2.616-4.522 3.26-7.448 3.098-3.278-.18-5.794-2.334-6.258-4.876-.754-4.136 1.378-7.227 5.633-7.85 2.69-.395 3.461-.227 6.938.93 0-.175.006-.35.014-.523.014-.382.029-.757-.029-1.123m-.091 5.26c-.893-.601-1.908-.917-2.969-1.049-1.102-.137-2.19-.065-3.126.642-.858.65-1.183 1.68-.868 2.743.241.817 1.092 1.457 2.094 1.55a5.783 5.783 0 0 0 2.797-.425c1.602-.668 2.229-1.723 2.072-3.462M65.82 33c-2.782.016-5.282-.776-7.358-2.57-2.302-1.988-3.211-4.577-3.189-7.512.02-2.434.69-4.649 2.367-6.52 1.504-1.677 3.419-2.675 5.654-3.129 2.806-.57 5.507-.25 7.992 1.121 3.135 1.73 4.683 4.44 4.874 7.89.168 3.034-.582 5.768-2.91 7.95-2.063 1.934-4.596 2.74-7.43 2.77m.067-15.094c-2.356.057-4.009 1.281-4.642 3.298-.388 1.242-.363 2.475.024 3.718.564 1.804 1.809 2.912 3.707 3.202 1.923.29 3.575-.326 4.626-1.957 1.195-1.857 1.218-3.84.264-5.805-.816-1.683-2.27-2.436-3.979-2.456m39.386 6.912h2.728l.445.1.64 1.137L112.994 33h5.916a11.307 11.307 0 0 1-.166-.43 4.7 4.7 0 0 0-.314-.726 1538.741 1538.741 0 0 0-3.05-5.215l-.007-.012-.005-.007c-.556-.95-1.114-1.9-1.669-2.85a8.786 8.786 0 0 1-.277-.516l-.002-.003-.133-.257c3.841-2.255 4.639-5.875 4.527-9.984h-5.268c0 1.612-.266 2.56-.579 3.674l-.121.438c-.412 1.506-1.436 2.513-2.898 3.023-.811.281-1.676.231-2.564.18a17.72 17.72 0 0 0-1.111-.042V13h-5.454v19.983l5.454.018v-8.182zM90.786 13h5.397v20h-5.45v-6.414c-.321.075-.634.155-.941.234-.652.167-1.28.328-1.919.415-2.472.334-4.829.03-6.845-1.677-1.56-1.32-2.475-3.09-2.75-5.098-.188-1.362-.205-3.15-.22-4.946-.007-.85-.016-1.7-.04-2.508L83.454 13v5.454c0 2.142 1.887 3.83 3.94 3.86 1.268.019 2.01-.29 3.328-1.127zM41.637 33h5.455V18.455h6.363V13H35.273v5.454h6.364z" clip-rule="evenodd"/></g><defs><clipPath id="a"><path fill="#fff" d="M35.273 13h105.455v20H35.273z"/></clipPath></defs></svg>