<svg xmlns="http://www.w3.org/2000/svg" width="175" height="46" fill="none" viewBox="0 0 175 46"><g clip-path="url(#a)"><path fill="#10273D" d="m18.54 31.18-4.47-16.45H17l3.43 12.63 3.67-12.63h2.73l3.69 12.7 3.44-12.7h2.93l-4.47 16.44h-3.39l-3.56-12.28-3.57 12.28h-3.36zM38.9 14.74h2.79v16.43H38.9zm8.75 13.85h6.78v2.58h-9.51V14.74h2.73zM63 14.76c2.28 0 4.18.8 5.68 2.37a8.099 8.099 0 0 1 2.29 5.83c0 2.3-.77 4.25-2.29 5.84A7.539 7.539 0 0 1 63 31.17h-6.56V14.74H63zm0 13.85a4.9 4.9 0 0 0 3.82-1.6c1-1.05 1.5-2.42 1.5-4.03 0-1.65-.5-2.97-1.5-4.04A4.98 4.98 0 0 0 63 17.35h-3.8v11.26zm22.66-2.14c0 1.35-.48 2.47-1.46 3.36a5.05 5.05 0 0 1-3.55 1.34h-7.13V14.74h6.61c1.37 0 2.52.45 3.46 1.3a4.18 4.18 0 0 1 1.42 3.25 3.9 3.9 0 0 1-1.69 3.35 4.19 4.19 0 0 1 2.34 3.83m-9.39-9.2v4.33h3.88c1.21 0 2.13-.95 2.13-2.16 0-1.21-.92-2.16-2.13-2.16h-3.88zm4.4 11.36c1.27 0 2.27-1 2.27-2.29s-1-2.3-2.27-2.3h-4.4v4.61h4.4zm10.32-.03h7.37v2.57h-10.1V14.74h9.99v2.58h-7.26v4.26h6.66v2.56H91v4.46zm19.32 2.57-3.53-5.99h-3.23v6h-2.73V14.73h6.67c1.5 0 2.77.51 3.78 1.55a5.14 5.14 0 0 1-1.73 8.5l3.79 6.38h-3.03zm-6.76-13.9v5.5h3.92a2.665 2.665 0 0 0 1.878-.825 2.675 2.675 0 0 0 .732-1.915 2.69 2.69 0 0 0-2.61-2.75h-3.92zm21.35 13.9-3.52-5.99h-3.23v6h-2.73V14.72h6.67c1.5 0 2.77.51 3.78 1.56a5.149 5.149 0 0 1-1.73 8.5l3.79 6.38h-3.04zm-6.75-13.9v5.5h3.92a2.66 2.66 0 0 0 2.61-2.75 2.685 2.685 0 0 0-2.6-2.75zm11.78-2.54h2.73v16.44h-2.73zm8.68 13.87H146v2.57h-10.1V14.74h9.98v2.58h-7.26v4.26h6.67v2.56h-6.67v4.46zm9.29-1.17 2.35-1.36c.68 1.86 2.04 2.77 4.13 2.77 2.08 0 3.1-.88 3.1-2.16 0-.69-.3-1.18-.83-1.52a12.084 12.084 0 0 0-2.96-1.18c-1.6-.47-2.38-.77-3.5-1.5a3.774 3.774 0 0 1-1.6-3.3c0-1.47.51-2.6 1.57-3.46a5.681 5.681 0 0 1 3.78-1.28 6.173 6.173 0 0 1 5.8 3.61l-2.3 1.31a3.594 3.594 0 0 0-3.5-2.3c-1.6 0-2.61.8-2.61 2.06 0 1.2.8 1.78 3.36 2.55.64.21 1.1.36 1.38.48.31.1.72.26 1.23.47.54.2.96.46 1.21.66.89.69 1.83 1.8 1.72 3.38a4.301 4.301 0 0 1-1.64 3.54 6.56 6.56 0 0 1-4.26 1.29c-3.23-.02-5.58-1.54-6.44-4.06z"/></g><defs><clipPath id="a"><path fill="#fff" d="M14 14h147v18H14z"/></clipPath></defs></svg>