<svg width="519" height="194" viewBox="0 0 519 194" fill="none" xmlns="http://www.w3.org/2000/svg">
<path d="M179.239 69.2813V110.861H147.319L179.239 69.2813ZM213.819 110.861H195.899V47.5813H179.379L129.119 111.421V125.281H179.239V149.081H195.899V125.281H213.819V110.861Z" fill="white"/>
<path d="M259.336 138.021C244.776 138.021 236.376 124.021 236.376 98.2613C236.376 72.5013 244.776 58.5013 259.336 58.5013C274.036 58.5013 282.436 72.5013 282.436 98.2613C282.436 124.021 274.036 138.021 259.336 138.021ZM259.336 150.901C286.496 150.901 299.796 129.481 299.796 98.2613C299.796 67.3213 286.496 45.7613 259.336 45.7613C232.456 45.7613 219.016 67.3213 219.016 98.2613C219.016 129.481 232.456 150.901 259.336 150.901Z" fill="white"/>
<path d="M355.131 69.2813V110.861H323.211L355.131 69.2813ZM389.711 110.861H371.791V47.5813H355.271L305.011 111.421V125.281H355.131V149.081H371.791V125.281H389.711V110.861Z" fill="white"/>
<path d="M24.4212 175.446C13.2875 139.546 13.6944 55.597 104.391 6.99999" stroke="white" stroke-width="14"/>
<path d="M494.579 18.5535C505.712 54.4536 505.306 138.403 414.609 187" stroke="white" stroke-width="14"/>
</svg>
