<svg width="40" height="40" viewBox="0 0 40 40" fill="none" xmlns="http://www.w3.org/2000/svg">
<path d="M20 12C20.5523 12 21 12.4477 21 13V23C21 23.5523 20.5523 24 20 24C19.4477 24 19 23.5523 19 23V13C19 12.4477 19.4477 12 20 12ZM20 29C20.8284 29 21.5 28.3284 21.5 27.5C21.5 26.6716 20.8284 26 20 26C19.1716 26 18.5 26.6716 18.5 27.5C18.5 28.3284 19.1716 29 20 29ZM19.4453 4.16795C19.7812 3.94402 20.2188 3.94402 20.5547 4.16795C24.4311 6.75221 28.6233 8.36461 33.1414 9.01005C33.6341 9.08043 34 9.50235 34 10V19C34 26.7827 29.386 32.4614 20.359 35.9333C20.1279 36.0222 19.8721 36.0222 19.641 35.9333C10.614 32.4614 6 26.7827 6 19V10C6 9.50235 6.36593 9.08043 6.85858 9.01005C11.3767 8.36461 15.5689 6.75221 19.4453 4.16795ZM19.1983 6.69165C15.7055 8.79213 11.9708 10.1811 8 10.8557V19C8 25.7841 11.9359 30.7267 20 33.9264C28.0641 30.7267 32 25.7841 32 19V10.8557C28.0292 10.1811 24.2945 8.79213 20.8017 6.69165L20 6.1943L19.1983 6.69165Z" fill="#10273D"/>
</svg>
