<svg width="40" height="40" viewBox="0 0 40 40" fill="none" xmlns="http://www.w3.org/2000/svg">
<path d="M12 4C9.79086 4 8 5.79086 8 8V32C8 34.2091 9.79086 36 12 36H28C30.2091 36 32 34.2091 32 32V14.8284C32 14.0328 31.6839 13.2697 31.1213 12.7071L23.2929 4.87868C22.7303 4.31607 21.9672 4 21.1716 4H12ZM10 8C10 6.89543 10.8954 6 12 6H20V13C20 14.6569 21.3431 16 23 16H30V32C30 33.1046 29.1046 34 28 34H12C10.8954 34 10 33.1046 10 32V8ZM29.5858 14H23C22.4477 14 22 13.5523 22 13V6.41421L29.5858 14Z" fill="#10273D"/>
</svg>
