<svg width="115" height="16" viewBox="0 0 115 16" fill="none" xmlns="http://www.w3.org/2000/svg">
<g clip-path="url(#clip0_3217_7223)">
<path d="M114.529 2.25487C114.529 1.47492 113.892 0.84215 113.107 0.84215C112.328 0.842247 111.686 1.48004 111.686 2.25478C111.686 3.0296 112.328 3.66701 113.108 3.66721C113.888 3.6675 114.529 3.0298 114.529 2.25487ZM111.445 2.25478C111.445 1.34823 112.195 0.602783 113.107 0.602783C114.024 0.602783 114.77 1.3433 114.77 2.25439C114.77 3.16074 114.02 3.90628 113.108 3.90657C112.195 3.90686 111.445 3.16132 111.445 2.25478Z" fill="#7F7F7F"/>
<path fill-rule="evenodd" clip-rule="evenodd" d="M113.058 1.04123C113.102 1.44604 113.43 1.21604 113.571 1.10298C113.623 1.0623 113.686 0.987403 113.721 0.966336C113.743 0.953194 113.776 0.962473 113.79 0.990012C113.803 1.0307 113.808 1.08201 113.783 1.1569C113.753 1.24494 113.701 1.33036 113.672 1.37636C113.597 1.49725 113.522 1.60365 113.434 1.71536C113.29 1.89414 113.107 2.036 112.957 2.21081C112.725 2.47888 112.594 2.89287 112.666 3.2424C112.684 3.33169 112.726 3.44476 112.812 3.49201C113.323 3.77332 113.697 2.56692 113.524 2.21081C113.5 2.16482 113.452 2.082 113.389 2.09388C113.069 2.15303 112.921 3.18587 113.12 3.26076C113.111 3.38301 112.916 3.4579 112.859 3.23187C112.84 3.15301 112.836 3.0702 112.839 2.98873C112.849 2.64442 113.126 2.12404 113.443 1.96507C113.587 1.89143 113.791 1.89279 113.872 2.05707C114.156 2.64181 113.388 3.72201 112.723 3.62344C112.401 3.57483 112.285 3.26869 112.31 2.9782C112.33 2.73912 112.43 2.51174 112.569 2.31721C112.85 1.92564 113.291 1.81132 113.505 1.50383C113.505 1.50383 113.513 1.49204 113.515 1.48546C113.518 1.4758 113.507 1.4644 113.492 1.4758C113.469 1.49687 113.346 1.55997 113.26 1.57041C113.087 1.59012 112.993 1.35491 112.964 1.22484C112.957 1.19594 112.955 1.17362 112.928 1.21034C112.843 1.31944 112.778 1.92922 112.692 1.96333L112.357 2.09611C112.357 2.09611 112.342 2.10287 112.337 2.08296C112.298 1.94101 112.645 1.44826 112.741 1.28263C112.755 1.26166 112.834 1.10791 112.849 1.09602C112.874 1.07505 113.027 1.03562 113.059 1.04084L113.058 1.04123Z" fill="#7F7F7F"/>
<path d="M12.4743 12.6278H7.84872L5.01574 7.95966L4.09526 8.91143V12.6278H0.228516V0.883301H4.09526V4.67385L7.41076 0.883301H11.9458L7.69372 5.26371L12.4743 12.6278ZM17.6517 8.27074C17.6517 7.73373 17.5249 7.24678 17.271 6.81549C17.0172 6.38421 16.6254 6.16716 16.0902 6.16716C15.6128 6.16716 15.2515 6.38421 15.0087 6.8183C14.7659 7.25509 14.6445 7.73933 14.6445 8.27074C14.6445 8.84118 14.7742 9.38099 15.0336 9.88465C15.2901 10.391 15.6873 10.6442 16.2198 10.6442C16.7331 10.6442 17.0999 10.3993 17.3207 9.90688C17.5414 9.41442 17.6517 8.86901 17.6517 8.27074ZM20.3336 10.9168C19.4199 12.2633 17.8538 12.8933 16.2341 12.8933C14.5649 12.8933 12.9561 12.2686 12.0231 10.8686C11.1674 9.58431 11.0579 7.49021 11.7788 6.11991C12.3333 5.06532 13.3498 4.30306 14.5152 3.99334C15.7989 3.63926 17.1882 3.7158 18.4207 4.22101C19.5731 4.69163 20.4305 5.65992 20.8038 6.81095C21.2114 8.0677 21.066 9.8373 20.3336 10.9168ZM50.299 7.40922C50.1781 6.8499 49.9791 6.46219 49.7047 6.24611C49.4277 6.02685 49.0782 5.91881 48.6506 5.91881C48.2365 5.91881 47.9084 6.02376 47.6663 6.23655C47.4243 6.44634 47.2414 6.83724 47.115 7.40922H50.299ZM53.6068 9.06789H47.1484C47.1484 9.33228 47.1941 9.5643 47.2856 9.76647C47.5635 10.3814 48.0663 10.7964 48.7862 10.7964C49.3148 10.7964 49.9245 10.5849 50.0382 10.0142H53.3459C53.2204 10.824 52.7004 11.5384 52.031 12.0078C51.3556 12.48 50.5263 12.743 49.7074 12.8359C48.6572 12.9642 47.4422 12.9293 46.4696 12.5257C45.3381 12.0584 44.4932 11.1944 44.0332 10.0794C43.6106 8.99261 43.6048 7.78717 44.0144 6.6917C44.4392 5.55526 45.3139 4.67636 46.4481 4.21028C47.8275 3.64593 49.7587 3.6842 51.0924 4.34509C52.2758 4.92935 53.083 5.92538 53.4186 7.18252C53.5842 7.8149 53.6471 8.42081 53.6068 9.06789H53.6068ZM62.8714 10.9332C62.2359 12.1369 61.0623 12.8889 59.6477 12.8889C58.6317 12.8889 57.9634 12.5607 57.2768 11.8604V15.543H53.8312V4.09906H56.8821V5.37504C57.5439 4.06456 59.1818 3.58843 60.5033 3.91902C61.943 4.2759 62.9127 5.47892 63.2578 6.83105C63.5805 8.0878 63.4686 9.81044 62.8714 10.9332ZM60.0648 8.15062C60.0648 7.78891 59.9442 7.39405 59.6998 6.96876C59.4555 6.54356 59.1015 6.33096 58.6404 6.33096C58.1821 6.33096 57.828 6.52974 57.581 6.9301C57.3339 7.32776 57.2104 7.73363 57.2104 8.15062C57.2104 8.66153 57.3065 9.1392 57.4987 9.58102C57.6934 10.0228 58.0723 10.2438 58.6404 10.2438C59.1948 10.2438 59.5681 10.0145 59.7684 9.55619C59.9498 9.11379 60.0648 8.63003 60.0648 8.15062ZM70.8475 12.5296C69.5086 12.9956 67.6888 13.0671 66.3559 12.5159C65.5165 12.1688 64.7725 11.5832 64.3026 10.8045C63.8434 10.0567 63.6048 9.19506 63.6048 8.31799C63.6048 7.73383 63.7284 7.15981 63.9362 6.61478C64.4178 5.38925 65.2505 4.68603 66.4528 4.19888C67.8288 3.64129 69.8725 3.66159 71.179 4.36809C72.424 5.04145 73.0758 5.96877 73.247 7.3354H69.7212C69.6592 6.91503 69.5399 6.65517 69.3655 6.43349C68.8718 5.80516 67.754 6.11218 67.3972 6.73219C66.9421 7.52335 66.8669 8.69197 67.1547 9.55918C67.3445 10.1308 67.9693 10.6154 68.5761 10.6154C69.4365 10.6154 69.6151 10.0397 69.8398 9.32397H73.247C73.2113 10.755 72.3503 12.0064 70.8475 12.5296ZM79.532 9.27411C79.532 9.11533 79.5176 8.98497 79.4887 8.88573C79.2523 9.01609 78.8832 9.12954 78.3815 9.22588C77.9994 9.29527 77.593 9.38012 77.2513 9.56614C76.767 9.80415 76.7931 10.4867 77.2167 10.7624C77.7068 11.0554 78.5287 11.0312 78.9408 10.6207C79.333 10.2493 79.532 9.80145 79.532 9.27411H79.532ZM83.3655 12.6278H79.8386L79.7046 11.7244C79.4473 12.0546 78.8729 12.3266 78.2927 12.5486C78.01 12.6568 77.7193 12.7425 77.4219 12.797C77.1244 12.8489 76.8082 12.8762 76.4786 12.8762C75.8837 12.8762 75.3397 12.7725 74.8467 12.565C74.3536 12.3576 73.9811 12.0328 73.7238 11.5961C73.4934 11.1157 73.3781 10.6298 73.3781 10.1331C73.3781 9.50526 73.6724 8.98758 74.0768 8.52353C74.3074 8.25885 74.5332 8.11012 74.9404 7.95464C75.1333 7.881 75.3241 7.81703 75.5112 7.76359C75.6965 7.71063 75.8722 7.66019 76.0391 7.63526L77.4835 7.41966C78.0965 7.32815 78.6895 7.2492 78.9516 7.16309C79.1128 7.11004 79.303 6.93687 79.3968 6.82767C79.4905 6.71857 79.4767 6.60386 79.4767 6.48654C79.4767 6.32545 79.399 6.19171 79.2409 6.08261C79.0829 5.97341 78.8577 5.91881 78.5657 5.91881C78.2147 5.91881 77.7783 5.9707 77.5666 6.07439C77.3549 6.17808 77.2182 6.38556 77.1539 6.69392H73.8869C73.9968 6.1344 73.9768 5.80777 74.1365 5.46607C74.2957 5.12543 74.5466 4.83291 74.8895 4.58997C75.2325 4.34712 75.7035 4.15829 76.3071 4.03315C76.5985 3.97275 76.945 3.93062 77.3388 3.89941C77.7355 3.8679 78.1749 3.85031 78.6626 3.85031C79.8497 3.85031 80.7388 3.99063 81.3316 4.27058C81.9232 4.55015 82.3091 4.77541 82.4892 5.19549C82.6683 5.61334 82.7893 6.15624 82.8456 6.82226V11.3313C82.8456 11.7953 83.0198 12.1393 83.3655 12.3631V12.6278V12.6278ZM92.9494 12.6278H89.5472V9.44022H87.0274V12.6278H83.658L83.6547 4.23203L83.658 4.10369H87.0274V6.95987H89.5092V4.10369H92.9494L92.9462 12.475L92.9494 12.6278ZM102.403 6.61594H99.4735V12.6278H96.0607V6.61594H93.1064V4.10369H102.403V6.61594ZM113.454 9.90002C113.454 10.6488 113.095 11.3066 112.518 11.7757C111.76 12.3992 110.711 12.6278 109.748 12.6278H104.481V6.61594H102.514V4.10369H107.765V7.09545H109.561C110.561 7.09545 111.67 7.28978 112.462 7.94246C113.058 8.43308 113.454 9.1193 113.454 9.90002ZM110.062 9.90872C110.062 9.37016 109.762 9.14423 109.247 9.08286C109.142 9.08286 108.935 9.07417 108.628 9.06112C108.322 9.0475 107.911 9.04208 107.765 9.04208V10.6884L108.618 10.7047C108.851 10.7096 109.042 10.6998 109.191 10.6884C109.714 10.6497 110.062 10.5082 110.062 9.90871V9.90872ZM27.6305 12.6277H25.9769L24.17 6.93339L24.449 9.16529V12.6277H21.4317V4.05451H25.3014L26.8037 8.79015L28.306 4.05451H32.1758V12.6277H29.1584V9.16529L29.4375 6.93339L27.6305 12.6277ZM38.9302 12.6277H37.2765L35.4696 6.93339L35.7487 9.16529V12.6277H32.7313V4.05451H36.6011L38.1034 8.79015L39.6056 4.05451H43.4754V12.6277H40.458V9.16529L40.7371 6.93339L38.9302 12.6277Z" fill="black"/>
</g>
<defs>
<clipPath id="clip0_3217_7223">
<rect width="115" height="16" fill="white"/>
</clipPath>
</defs>
</svg>
