<svg width="279" height="80" viewBox="0 0 279 80" fill="none" xmlns="http://www.w3.org/2000/svg">
<g clip-path="url(#clip0_2344_12851)">
<path d="M29.3089 64.1588H28.2118L22.7258 41.2568H12.3809V69.0216H17.7101V46.1196H18.8073L24.2932 69.0216H33.3842L38.8702 46.1196H39.9674V69.0216H45.2966V41.2568H34.9516L29.3089 64.1588V64.1588ZM83.6983 69.0216H102.664V64.1588H89.1842V57.2568H100.783V52.551H89.1842V46.1196H102.664V41.2568H83.6983V69.0216ZM64.5758 64.9431C58.4629 64.9431 55.6415 60.7078 55.6415 55.0608C55.6415 49.4137 58.4629 45.3353 64.5758 45.3353C70.6887 45.3353 73.5101 49.5706 73.5101 55.0608C73.5101 60.551 70.6887 64.9431 64.5758 64.9431ZM64.5758 40.4725C55.328 40.4725 49.9988 46.4333 49.9988 55.0608C49.9988 63.6882 55.328 69.8059 64.5758 69.8059C73.8235 69.8059 79.1528 63.6882 79.1528 55.0608C79.1528 46.4333 73.8235 40.4725 64.5758 40.4725V40.4725ZM106.426 69.0216H112.225L118.652 58.0412L125.705 69.0216H131.504L122.257 54.4333L131.034 41.2568H125.078L118.965 51.1392L112.852 41.2568H106.896L115.36 54.2765L106.426 69.0216V69.0216Z" fill="white"/>
<path d="M222.103 49.098L224.297 49.4118C223.827 51.9216 221.633 53.3333 219.281 53.3333C215.52 53.3333 213.795 50.6667 213.795 47.0588C213.795 43.451 215.676 40.9412 219.438 40.9412C221.789 40.9412 223.513 42.0392 224.297 44.2353L222.103 45.1765C221.633 43.9216 220.692 43.1373 219.281 43.1373C216.93 43.1373 215.99 45.0196 215.99 47.2157C215.99 49.4118 216.93 51.2941 219.281 51.2941C220.849 51.2941 221.789 50.5098 222.103 49.098V49.098ZM142.792 66.9804H145.77C146.867 66.9804 147.651 66.3529 147.651 65.2549C147.651 64.1569 146.867 63.5294 145.77 63.5294H142.792V66.9804ZM140.597 69.0196V57.098H149.218V59.1373H142.792V61.4902H146.083C148.434 61.4902 149.845 62.5882 149.845 65.098C149.845 67.451 148.434 69.0196 146.083 69.0196H140.597V69.0196ZM151.256 69.0196V57.098H153.45V66.9804H153.763L156.742 57.098H160.974V69.0196H158.779V59.1373H158.466L155.488 69.0196H151.256ZM165.362 63.2157H168.184C169.438 63.2157 170.065 62.2745 170.065 61.1765C170.065 59.9216 169.438 59.2941 168.184 59.2941H165.362V63.2157ZM163.168 69.0196V57.098H168.184C170.692 57.098 172.416 58.5098 172.416 61.0196C172.416 63.5294 170.692 65.098 168.184 65.098H165.362V69.0196H163.168ZM172.416 69.0196L176.178 62.7451L172.572 57.098H175.237L177.902 61.8039H178.842V57.098H181.036V61.8039H181.977L184.642 57.098H187.306L183.701 62.7451L187.463 69.0196H184.798L181.977 63.8431H181.036V69.0196H178.842V63.8431H177.902L175.08 69.0196H172.416ZM191.695 64H195.143L193.733 59.1373H193.262L191.695 64ZM187.933 69.0196L191.852 57.098H195.143L199.062 69.0196H196.711L195.77 66.0392H191.068L190.128 69.0196H187.933V69.0196ZM140.597 53.1765V41.2549H144.829L146.867 51.1373H147.18L149.061 41.2549H153.293V53.1765H151.099V43.2941H150.785L148.904 53.1765H145.143L143.105 43.2941H142.792V53.1765H140.597V53.1765ZM160.66 51.2941C163.168 51.2941 164.108 49.4118 164.108 47.2157C164.108 44.8627 162.854 43.1373 160.503 43.1373C157.995 43.1373 157.055 45.0196 157.055 47.2157C157.055 49.4118 158.152 51.2941 160.66 51.2941ZM160.66 53.3333C156.898 53.3333 154.861 50.6667 154.861 47.0588C154.861 43.451 157.055 40.9412 160.66 40.9412C164.422 40.9412 166.46 43.6078 166.46 47.0588C166.46 50.5098 164.422 53.3333 160.66 53.3333ZM176.178 49.098L178.372 49.4118C177.902 51.9216 175.707 53.3333 173.356 53.3333C169.594 53.3333 167.87 50.6667 167.87 47.0588C167.87 43.451 169.751 40.9412 173.513 40.9412C175.864 40.9412 177.588 42.0392 178.372 44.2353L176.178 45.1765C175.707 43.9216 174.767 43.1373 173.356 43.1373C171.005 43.1373 170.065 45.0196 170.065 47.2157C170.065 49.4118 171.005 51.2941 173.356 51.2941C174.924 51.2941 175.707 50.5098 176.178 49.098V49.098ZM180.096 53.1765V41.2549H182.29V45.9608H183.544L187.149 41.2549H189.971L185.425 46.7451L190.128 53.1765H187.306L183.544 48H182.29V53.1765H180.096V53.1765ZM195.927 51.2941C198.435 51.2941 199.375 49.4118 199.375 47.2157C199.375 44.8627 198.121 43.1373 195.77 43.1373C193.262 43.1373 192.322 45.0196 192.322 47.2157C192.322 49.4118 193.419 51.2941 195.927 51.2941ZM195.927 53.3333C192.165 53.3333 190.128 50.6667 190.128 47.0588C190.128 43.451 192.165 40.9412 195.927 40.9412C199.689 40.9412 201.726 43.6078 201.726 47.0588C201.726 50.5098 199.532 53.3333 195.927 53.3333V53.3333ZM205.488 46.1176H208.466C209.407 46.1176 210.19 45.6471 210.19 44.7059C210.19 43.6078 209.563 43.2941 208.466 43.2941H205.488V46.1176V46.1176ZM205.488 51.1373H208.623C209.72 51.1373 210.504 50.8235 210.504 49.5686C210.504 48.3137 209.72 48 208.623 48H205.488V51.1373ZM203.294 53.1765V41.2549H208.78C210.661 41.2549 212.228 42.0392 212.228 44.2353C212.228 45.6471 211.758 46.5882 210.504 47.2157C211.915 47.5294 212.542 48.6275 212.542 50.0392C212.542 52.2353 210.974 53.3333 208.936 53.3333H203.294V53.1765ZM226.178 53.1765V41.2549H228.372V45.9608H229.626L233.231 41.2549H236.053L231.664 46.7451L236.21 53.1765H233.388L229.626 48H228.372V53.1765H226.178ZM240.285 48H243.733L242.322 43.1373H241.852L240.285 48V48ZM236.523 53.1765L240.598 41.2549H243.89L247.808 53.1765H245.457L244.517 50.1961H239.658L238.717 53.1765H236.523V53.1765ZM255.959 46.5882V43.2941H253.294C252.04 43.2941 251.257 43.6078 251.257 45.0196C251.257 46.4314 252.04 46.7451 253.294 46.7451H255.959V46.5882ZM248.906 53.1765L249.376 49.8824C249.533 48.7843 250.003 48.1569 251.1 47.6863C249.846 47.2157 249.062 45.9608 249.062 44.549C249.062 42.3529 251.1 41.2549 253.138 41.2549H258.153V53.1765H255.959V48.6275H253.294C252.197 48.6275 251.884 48.9412 251.727 50.1961L251.257 53.3333H248.906V53.1765ZM0 80V29.9608H50.0006V0H129.939V80H0Z" fill="#10273D"/>
<path d="M27.1156 64.1588H26.0184L20.8459 41.1H11.4414V69.0216H16.4571V46.1196H17.5543L22.4133 69.0216H30.8774L35.8931 45.9627H36.9903V69.0216H42.006V41.2568H32.4448L27.1156 64.1588V64.1588ZM77.5864 69.0216H94.9847V64.1588H82.6021V57.2568H93.2605V52.551H82.6021V45.9627H94.9847V41.1H77.5864V69.0216ZM59.7178 64.9431C54.0751 64.9431 51.4105 60.7078 51.4105 55.2176C51.4105 49.7274 54.0751 45.4921 59.7178 45.4921C65.3605 45.4921 68.0251 49.7274 68.0251 55.2176C68.0251 60.7078 65.3605 64.9431 59.7178 64.9431ZM59.7178 40.4725C51.2538 40.4725 46.238 46.2765 46.238 55.0608C46.238 63.8451 51.2538 69.8059 59.7178 69.8059C68.1819 69.8059 73.1976 63.6882 73.1976 55.0608C73.1976 46.4333 68.1819 40.4725 59.7178 40.4725V40.4725ZM98.433 69.0216H103.762L109.875 58.0412L116.302 69.0216H121.631L113.01 54.4333L121.161 41.1H115.831L110.189 50.9823L104.389 41.1H99.0599L106.897 54.2765L98.433 69.0216V69.0216Z" fill="white"/>
</g>
<defs>
<clipPath id="clip0_2344_12851">
<rect width="279" height="80" fill="white"/>
</clipPath>
</defs>
</svg>
