<svg width="175" height="47" viewBox="0 0 175 47" fill="none" xmlns="http://www.w3.org/2000/svg">
<path fill-rule="evenodd" clip-rule="evenodd" d="M56.6706 14.0525C54.8721 13.8631 53.0591 14.2351 51.4807 15.1173C49.9023 15.9995 48.6361 17.3486 47.8561 18.9791C47.0761 20.6097 46.8206 22.4416 47.1246 24.2231C47.4287 26.0047 48.2775 27.6484 49.5543 28.9283C50.8311 30.2082 52.4733 31.0615 54.255 31.3709C56.0368 31.6803 57.8707 31.4306 59.5047 30.6562C61.1387 29.8817 62.4926 28.6205 63.3803 27.0459C64.2679 25.4713 64.6458 23.6606 64.4619 21.8627C64.2595 19.8642 63.3743 17.9964 61.9552 16.5739C60.5361 15.1513 58.6698 14.2609 56.6706 14.0525ZM56.387 27.3816C55.4197 27.5112 54.436 27.3348 53.5743 26.8769C52.7125 26.4191 52.016 25.7029 51.5826 24.829C51.1492 23.9552 51.0007 22.9676 51.1579 22.005C51.3152 21.0424 51.7703 20.1533 52.4593 19.4625C53.1484 18.7718 54.0367 18.3142 54.9994 18.154C55.9621 17.9939 56.9508 18.1392 57.8266 18.5696C58.7024 19 59.4212 19.6938 59.8821 20.5536C60.3429 21.4133 60.5226 22.3957 60.3958 23.3628C60.2628 24.38 59.798 25.325 59.0733 26.0515C58.3486 26.778 57.4044 27.2455 56.387 27.3816ZM69.1438 14.3985C68.8402 14.3993 68.5406 14.4676 68.2668 14.5986C67.9929 14.7297 67.7517 14.92 67.5608 15.1559C67.3699 15.3918 67.2339 15.6673 67.1629 15.9623C67.0919 16.2573 67.0876 16.5644 67.1503 16.8612C67.3424 17.823 68.2413 18.4801 69.2205 18.4801H74.9032L66.0597 30.1756C65.9943 30.2619 65.9542 30.3648 65.944 30.4726C65.9338 30.5804 65.9539 30.6889 66.0019 30.786C66.05 30.8831 66.1241 30.9648 66.2161 31.0221C66.308 31.0794 66.4141 31.11 66.5225 31.1104H80.3945C81.373 31.1104 82.2726 30.4535 82.4647 29.4915C82.5274 29.1947 82.5231 28.8877 82.4522 28.5927C82.3812 28.2978 82.2454 28.0223 82.0545 27.7864C81.8637 27.5505 81.6226 27.3601 81.3489 27.229C81.0751 27.0979 80.7756 27.0294 80.472 27.0286H73.5481L82.3848 15.3421C82.4509 15.2549 82.4913 15.1511 82.5016 15.0422C82.5119 14.9334 82.4916 14.8238 82.443 14.7258C82.3945 14.6278 82.3195 14.5453 82.2267 14.4875C82.1338 14.4297 82.0266 14.3989 81.9172 14.3985H69.1438ZM124.575 14.4456C124.116 14.5548 123.708 14.8173 123.418 15.1897C123.128 15.5622 122.975 16.0223 122.982 16.494V23.2896L111.963 14.5269C111.877 14.4584 111.773 14.4156 111.663 14.4035C111.554 14.3914 111.443 14.4105 111.343 14.4586C111.244 14.5067 111.16 14.5818 111.102 14.6753C111.044 14.7688 111.013 14.8769 111.013 14.9871V29.0186C111.005 29.4903 111.159 29.9504 111.449 30.3229C111.739 30.6954 112.147 30.9579 112.606 31.067C112.905 31.1326 113.214 31.1304 113.511 31.0606C113.808 30.9909 114.086 30.8553 114.324 30.664C114.562 30.4726 114.754 30.2303 114.885 29.955C115.017 29.6796 115.085 29.3783 115.085 29.0731V22.2187L126.104 30.9816C126.19 31.0501 126.294 31.0928 126.403 31.1049C126.513 31.117 126.624 31.0979 126.723 31.0498C126.822 31.0018 126.906 30.9267 126.964 30.8332C127.023 30.7398 127.054 30.6317 127.053 30.5215V16.4388C127.054 16.1337 126.986 15.8325 126.854 15.5572C126.722 15.282 126.53 15.0398 126.293 14.8485C126.055 14.6572 125.777 14.5217 125.48 14.452C125.183 14.3823 124.873 14.3801 124.575 14.4456ZM95.8855 18.0894C100.546 18.0894 104.029 20.5508 104.029 22.7524C104.029 24.9541 100.546 27.4154 95.8855 27.4154C91.2249 27.4154 87.7425 24.9541 87.7425 22.7524C87.7425 20.5508 91.2249 18.0894 95.8855 18.0894ZM95.8855 14.008C89.1395 14.008 83.6709 17.9231 83.6709 22.7524C83.6709 27.5818 89.1395 31.4968 95.8855 31.4968C102.632 31.4968 108.1 27.5818 108.1 22.7524C108.1 17.9231 102.631 14.008 95.8855 14.008Z" fill="#10273D"/>
</svg>
