<svg width="175" height="47" viewBox="0 0 175 47" fill="none" xmlns="http://www.w3.org/2000/svg">
<g clip-path="url(#clip0_2333_13698)">
<path d="M51.1597 21.5184L51.8326 19.3778L49.6066 19.4471C49.4185 19.4471 48.0515 19.4086 46.7254 18.4529C46.8242 18.4626 46.923 18.476 47.0239 18.476C48.3889 18.476 49.7093 17.6591 50.2387 16.4914L51.1966 14.3816C49.9963 14.3971 48.8989 14.2468 48.8989 14.2468C48.8891 14.2448 48.0244 14.135 47.0239 13.1195C46.3064 12.3913 45.4184 12.0058 44.4566 12.0058C44.036 12.0058 43.6597 12.0809 43.336 12.1831C43.3864 12.0117 43.4348 11.8382 43.4621 11.659C43.7683 9.68404 42.4887 8.17726 42.4887 8.1793L40.8153 6.11956L39.778 8.53954C39.7741 8.54727 39.5123 9.11382 39.0431 9.39119C38.9016 8.6802 38.5545 7.88063 37.8119 7.11566C36.4119 5.6744 34.7076 5.46051 33.8156 5.46051C33.4026 5.46051 33.108 5.50486 33.0361 5.51639L31.0158 5.91148C31.1321 5.46254 31.3803 4.6821 31.834 3.97883L32.949 2.25248L30.1432 2.5704L29.2493 0.684006L27.5199 1.57037L25.9202 0L24.3243 1.57037L22.589 0.684006L21.697 2.5704L18.8934 2.25248L20.0101 3.97883C20.4639 4.6821 20.7121 5.46051 20.8265 5.90946L18.899 5.53185L18.8332 5.52032C18.7362 5.50486 18.4435 5.46051 18.0285 5.46051C17.1366 5.46051 15.4323 5.67631 14.0361 7.11566C13.2916 7.87873 12.9445 8.6802 12.8011 9.39119C12.3358 9.11762 12.0759 8.5588 12.0759 8.5588L11.0366 6.12525L9.3362 8.19856C9.12864 8.4663 8.10301 9.88261 8.38216 11.6629C8.41131 11.8402 8.45781 12.0136 8.50825 12.1851C8.18639 12.083 7.81017 12.0078 7.38948 12.0078C6.42772 12.0078 5.53971 12.3932 4.82035 13.1216C3.82361 14.1331 2.96271 14.2468 2.97056 14.2468C2.97056 14.2468 2.06114 14.4086 0.653467 14.3834L1.60548 16.4934C2.13489 17.663 3.45715 18.478 4.82035 18.478C4.92312 18.478 5.02194 18.4644 5.12281 18.4548C3.80042 19.4105 2.43343 19.4491 2.26857 19.451L0 19.3778L0.686411 21.5165C1.03158 22.6187 2.18519 24.4453 4.39573 24.6417C4.15522 25.6437 3.62201 26.7651 2.45091 27.2487L0.76206 27.9404L1.68302 29.5339C2.20268 30.3933 3.4223 31.399 5.15956 31.399C5.53578 31.3971 5.89831 31.3605 6.2474 31.2873C6.33661 31.6804 6.44901 32.0735 6.58092 32.4626C7.09855 33.9925 6.65264 35.0599 6.64681 35.0715L5.81303 36.8075L7.67447 37.295C7.69778 37.3027 8.26001 37.4549 8.96391 37.4549C9.28386 37.4549 9.5882 37.4222 9.87523 37.3548C10.0923 37.3046 10.2999 37.2372 10.4995 37.1563C10.74 37.5859 11.0328 37.9771 11.374 38.3277C12.5666 39.5436 14.2554 40.1601 16.3959 40.1601H16.4037L17.9317 40.1408L14.7749 41.4434L17.1716 42.5937C18.0422 43.0157 19.0756 43.5146 20.1265 43.8962L19.8279 44.7093L20.6539 45.0831C20.7275 45.1158 22.3156 45.823 24.9566 45.9732C24.9566 45.9732 25.5945 46.0022 25.9453 46.0022C26.2963 46.0022 26.9264 45.9714 26.9264 45.9714C29.55 45.8172 31.1262 45.1178 31.2 45.0831L32.0279 44.7074L31.7254 43.8924C32.8074 43.4993 33.8776 42.9809 34.7114 42.5764L37.0634 41.4415L33.9164 40.1371L35.4502 40.1564C37.5928 40.1564 39.2836 39.5397 40.474 38.322C40.8133 37.9733 41.1062 37.5822 41.3486 37.1524C41.5483 37.2334 41.7576 37.3008 41.9748 37.3509C42.2598 37.4183 42.5643 37.4511 42.8842 37.4511C43.5763 37.4511 44.1446 37.299 44.16 37.295L46.0292 36.8038L45.2148 35.1004C45.1954 35.0561 44.7495 33.9905 45.2672 32.4588C45.399 32.0676 45.5095 31.6746 45.5987 31.2834C45.9498 31.3566 46.3162 31.3952 46.6943 31.3952C48.9066 31.3952 49.9672 29.8479 50.1728 29.5127L51.0841 27.9367L49.3952 27.2468C48.2222 26.7631 47.6909 25.6398 47.4524 24.6399C49.6318 24.4549 50.8029 22.6283 51.1597 21.5184ZM20.9737 6.64744L20.9506 6.65327L20.97 6.62819L20.9737 6.64744Z" fill="white"/>
<path d="M25.9221 6.55318C24.1343 6.55508 22.7946 7.13696 22.5017 7.82096L25.9221 9.16211L29.3424 7.82096C29.0515 7.13696 27.7117 6.55508 25.9221 6.55318Z" fill="white"/>
<path d="M25.9568 42.0542H25.8888C24.8049 42.062 23.3139 41.8403 22.5945 41.6322L21.7297 43.9578C22.2998 44.1602 24.231 44.5455 25.9237 44.5455C27.6126 44.5455 29.5457 44.1583 30.1138 43.9578L29.2509 41.6322C28.5297 41.8422 27.0405 42.062 25.9568 42.0542Z" fill="white"/>
<path d="M32.5012 39.742C31.8575 40.1043 30.4207 40.6476 29.585 40.9001L30.2869 42.821C31.5801 42.4703 32.6465 42.06 33.5289 41.6207L32.0726 41.1389L32.5012 39.742Z" fill="white"/>
<path d="M19.3451 39.742L19.7756 41.1389L18.3175 41.6207C19.1978 42.06 20.27 42.4703 21.5575 42.821L22.2594 40.9001C21.4275 40.6476 19.9888 40.1023 19.3451 39.742Z" fill="white"/>
<path d="M25.9224 4.32935C27.27 4.32935 28.5924 4.64919 29.6084 5.21193C29.7015 4.9016 29.8314 4.52589 30.0078 4.13282L29.624 4.17907L29.2206 4.22152L29.0499 3.85734L28.5361 2.77837L27.5996 3.26381L27.2351 3.44882L26.9442 3.16371L25.9263 2.16178L24.9103 3.16371L24.6194 3.44882L24.2549 3.26381L23.3126 2.77837L22.8045 3.85734L22.6301 4.22152L22.2267 4.17907L21.8428 4.13282C22.0193 4.52779 22.1473 4.9016 22.2422 5.21193C23.2602 4.64919 24.5787 4.32935 25.9224 4.32935Z" fill="white"/>
<path d="M46.4966 16.7997C46.6712 16.8594 46.8495 16.8863 47.026 16.8863C47.7879 16.8863 48.5248 16.397 48.7788 15.8362C48.7788 15.8362 47.3808 15.7515 45.8781 14.2351C45.3993 13.7437 44.8931 13.5974 44.4588 13.5974C43.784 13.5974 43.2779 13.9519 43.2779 13.9519C45.0929 14.9114 45.4631 16.4529 46.4966 16.7997Z" fill="white"/>
<path d="M4.81938 16.8863C4.99577 16.8863 5.17418 16.8594 5.34487 16.7997C6.38215 16.4529 6.75445 14.9114 8.56938 13.9519C8.56938 13.9519 8.06125 13.5974 7.39043 13.5974C6.95414 13.5974 6.44805 13.7437 5.96717 14.2351C4.46649 15.7515 3.06844 15.8362 3.06844 15.8362C3.31858 16.397 4.05733 16.8863 4.81938 16.8863Z" fill="white"/>
<path d="M46.9896 23.0638C47.0207 23.0656 47.0478 23.0656 47.0808 23.0656C48.9829 23.0656 49.6286 21.0405 49.6286 21.0405H49.5917C49.2428 21.0405 46.4137 20.9597 44.4147 18.4336C43.0981 16.7728 42.02 15.3123 39.889 14.738L39.6797 14.7014L39.6331 14.4895C39.5749 14.1658 39.798 13.8633 40.3041 13.5357C43.2435 11.6225 41.2483 9.18309 41.2483 9.18309C41.2483 9.18309 40.4087 11.135 38.5299 11.135C38.4853 11.135 38.4368 11.133 38.3903 11.133C38.1771 11.1215 37.9715 11.1137 37.7639 11.0695L37.4169 11.002C37.4169 11.002 37.9521 9.555 36.6607 8.22551C35.6873 7.22168 34.5026 7.05214 33.8182 7.05214C33.4729 7.05214 33.2539 7.09636 33.2539 7.09636C33.9035 7.94028 34.3727 9.3392 33.6224 10.2024C32.9748 10.9442 31.3925 10.9808 31.3925 12.0867C31.3925 12.555 31.8327 13.1022 32.6237 13.5935C35.0029 15.0829 37.3645 17.0579 38.3456 19.7054C39.573 23.0079 38.1906 25.1987 36.2167 26.455C36.2167 26.455 36.8352 27.0214 37.733 27.0927C37.9152 27.11 38.0937 27.1177 38.2604 27.1177C40.1548 27.1177 41.1339 26.2352 41.1339 26.2352C41.1339 26.2352 40.9729 27.4548 39.986 28.5878C39.0767 29.6341 37.8823 30.2488 36.0615 30.2757C36.0615 30.2757 36.0034 31.1157 36.81 31.8422C37.3257 32.3008 38.5182 32.451 38.5182 32.451C38.5182 32.451 36.2865 32.9 36.0403 36.1756C35.9064 37.95 35.4508 38.5667 35.4508 38.5667H35.4916C40.6705 38.5667 40.5367 34.1525 40.5367 34.1525C40.5367 34.1525 40.8973 35.4587 42.3419 35.7998C42.5163 35.8461 42.7025 35.8635 42.8809 35.8635C43.3464 35.8635 43.7495 35.7555 43.7495 35.7555C43.7495 35.7555 42.9934 34.1698 43.7437 31.952C44.3662 30.1119 44.2654 28.7478 44.2654 28.7478C44.2654 28.7478 44.9633 29.796 46.693 29.8056H46.7104C48.1511 29.8056 48.7792 28.7208 48.7792 28.7208C45.326 27.2969 45.6673 22.6996 45.6673 22.6996C45.6673 22.6996 46.1152 23.031 46.9896 23.0638ZM45.9503 27.8652C44.5464 27.1775 43.6584 25.3509 43.4433 24.6918C43.2105 28.3142 41.4306 30.8287 39.35 33.2487C38.27 34.503 37.8939 35.7227 37.8939 35.7227C37.8939 35.7227 38.1013 34.3413 39.0359 33.216C40.9769 30.898 42.8209 28.0137 42.9585 24.6784C43.0535 22.3508 42.4505 20.4626 41.5101 18.9077C42.0355 20.5281 41.9619 22.5127 40.176 24.3642C40.176 24.3642 43.7302 20.1311 38.7606 15.792C36.7712 14.1408 34.5957 13.1215 33.4751 12.399C37.5235 13.7111 39.4994 12.266 39.4994 12.266C38.206 13.3796 36.5328 13.3603 35.4953 13.2005C35.7765 13.3373 36.0694 13.4798 36.3854 13.6475C39.798 15.4896 42.8654 18.5203 43.3889 22.7189V22.686C44.1839 26.8074 45.9503 27.8652 45.9503 27.8652Z" fill="white"/>
<path d="M13.3264 32.451C13.3264 32.451 14.5189 32.3027 15.0347 31.8422C15.8393 31.1157 15.7832 30.2757 15.7832 30.2757C13.9606 30.2506 12.768 29.6341 11.8529 28.5898C10.8736 27.4568 10.7108 26.2371 10.7108 26.2371C10.7108 26.2371 11.6899 27.1197 13.5824 27.1197C13.7531 27.1197 13.9295 27.1119 14.1117 27.0946C15.0095 27.0233 15.63 26.4568 15.63 26.4568C13.656 25.2005 12.2717 23.0079 13.4971 19.7054C14.4802 17.0598 16.8398 15.0829 19.2191 13.5935C20.0101 13.1022 20.4502 12.5568 20.4502 12.0867C20.4502 10.9808 18.8699 10.9442 18.2223 10.2024C17.4721 9.3392 17.9432 7.93838 18.5908 7.09636C18.5908 7.09636 18.3755 7.05214 18.0284 7.05214C17.3459 7.05214 16.1612 7.22168 15.1879 8.22551C13.8926 9.555 14.4298 11.002 14.4298 11.002L14.0827 11.0695C13.8753 11.1137 13.6677 11.1215 13.4564 11.133C13.408 11.133 13.3652 11.135 13.3187 11.135C11.436 11.135 10.6003 9.185 10.6003 9.185C10.6003 9.185 8.60505 11.6244 11.5426 13.5376C12.0487 13.8652 12.2698 14.1677 12.2116 14.4914L12.1649 14.7034L11.9517 14.74C9.82467 15.3142 8.74469 16.7747 7.42813 18.4355C5.43288 20.9578 2.60778 21.0405 2.25501 21.0405H2.2161C2.2161 21.0405 2.86184 23.0656 4.76395 23.0656C4.795 23.0656 4.82211 23.0656 4.85506 23.0638C5.72952 23.0329 6.17935 22.6996 6.17935 22.6996C6.17935 22.6996 6.5168 27.2949 3.06737 28.7208C3.06737 28.7208 3.69562 29.8056 5.13624 29.8056H5.15372C6.88515 29.796 7.58132 28.7478 7.58132 28.7478C7.58132 28.7478 7.48045 30.1119 8.10098 31.952C8.85125 34.1698 8.09895 35.7555 8.09895 35.7555C8.09895 35.7555 8.50229 35.8635 8.96568 35.8635C9.14599 35.8635 9.33024 35.8461 9.50283 35.7998C10.9453 35.4587 11.308 34.1525 11.308 34.1525C11.308 34.1525 11.1761 38.5667 16.3552 38.5667H16.3919C16.3919 38.5667 15.9383 37.95 15.8064 36.1756C15.5583 32.9 13.3264 32.451 13.3264 32.451ZM12.4947 33.2487C10.4142 30.8287 8.6361 28.3142 8.40142 24.6918C8.18626 25.349 7.30204 27.1775 5.8983 27.8652C5.8983 27.8652 7.66267 26.8074 8.45578 22.686V22.7189C8.98127 18.5224 12.0468 15.4896 15.4612 13.6475C15.7734 13.4779 16.07 13.3354 16.3493 13.2005C15.312 13.3603 13.6386 13.3796 12.3453 12.266C12.3453 12.266 14.3211 13.7111 18.3678 12.399C17.2471 13.1215 15.0734 14.1408 13.084 15.792C8.11251 20.1311 11.6686 24.3642 11.6686 24.3642C9.88093 22.5106 9.80924 20.5281 10.3346 18.9077C9.39232 20.4645 8.79119 22.3508 8.88813 24.6784C9.02384 28.0137 10.8678 30.898 12.8048 33.216C13.7415 34.3393 13.9528 35.7227 13.9528 35.7227C13.9528 35.7227 13.5726 34.503 12.4947 33.2487Z" fill="white"/>
<path d="M22.0931 16.3124C22.1783 16.4029 22.2617 16.5013 22.3414 16.5995C22.3607 16.6227 22.3781 16.6439 22.3974 16.6709C22.4712 16.769 22.5468 16.8732 22.6186 16.9791C22.634 17.0003 22.6497 17.0254 22.667 17.0503C22.7543 17.1814 22.8358 17.3163 22.9172 17.4551C23.6636 18.7363 24.8601 19.5013 25.9206 19.5032C26.9832 19.5013 28.1757 18.7363 28.9261 17.4551C29.0095 17.3124 29.0929 17.1737 29.18 17.0446C29.1936 17.0254 29.2073 17.008 29.2188 16.9888C29.2925 16.8789 29.3701 16.771 29.4516 16.667C29.4689 16.6439 29.4844 16.6246 29.5 16.6053C29.5834 16.5032 29.6686 16.403 29.756 16.3104C29.7714 16.2951 29.783 16.2816 29.7966 16.2701C30.1766 15.8828 30.6304 15.5879 31.2236 15.4242L30.96 15.272H30.9445L29.8935 14.6651L28.8136 14.0504L25.9284 15.6111L25.9206 15.6053L25.9148 15.6111L23.0277 14.0504L21.9497 14.6631L20.8968 15.27H20.8851L20.6175 15.4223C21.2128 15.586 21.6646 15.877 22.0466 16.2642C22.0639 16.2797 22.0756 16.297 22.0931 16.3124ZM24.7533 16.1872H27.1945V17.0195C26.9077 16.6709 26.3492 16.7422 26.3492 16.7422V17.9426C26.3492 17.9426 26.3705 18.5322 26.5779 18.7883H25.3699C25.5813 18.5341 25.6007 17.9426 25.6007 17.9426V16.7422C25.6007 16.7422 25.0442 16.6709 24.7533 17.0195V16.1872Z" fill="white"/>
<path d="M25.6724 14.5723V9.69949L22.5506 8.64733L23.3747 13.37L25.6724 14.5723ZM25.0015 10.896V11.6783L24.8503 11.6089C24.8425 11.6031 24.6215 11.553 24.2337 11.2485C23.5938 10.7553 23.5822 10.3006 23.5822 10.3006L25.0015 10.896Z" fill="white"/>
<path d="M28.4724 13.37L29.2926 8.64733L26.1728 9.69949V14.5723L28.4724 13.37ZM26.8438 10.896L28.2629 10.3025C28.2629 10.3025 28.2514 10.7573 27.6096 11.2504C27.2238 11.5549 27.0007 11.6049 26.993 11.6108L26.8416 11.6801V10.896H26.8438Z" fill="white"/>
<path d="M21.2574 25.8692C21.5618 25.9789 21.9303 26.0021 22.1183 26.0021C22.1261 25.9789 22.1357 25.95 22.1455 25.9154C22.1628 25.8595 22.1785 25.8056 22.1902 25.7439C22.2425 25.4743 22.2618 25.1679 22.2657 24.9713C22.1376 24.8922 21.9574 24.7516 21.8566 24.5416C21.7403 24.2988 21.5755 24.1871 21.333 24.1871C21.0189 24.1871 20.6816 24.374 20.538 24.4627C20.4238 25.135 20.9219 25.7459 21.2574 25.8692Z" fill="white"/>
<path d="M28.1617 23.2832C27.582 23.9094 26.4476 25 26.3914 25.0559L26.3235 25.1253L22.7384 25.0693C22.7364 25.422 22.6782 25.7226 22.6221 25.9422C22.6124 25.9788 22.6027 26.0174 22.5929 26.0559L26.8587 26.817C27.3027 26.5087 28.5243 25.6223 28.9974 25.2756C28.6522 24.7746 28.6192 24.1811 28.6968 23.7631C28.4719 23.6185 28.2993 23.4567 28.1617 23.2832Z" fill="white"/>
<path d="M28.6487 18.9985C27.8225 19.8136 27.0296 20.1141 26.3219 20.1835C26.1939 20.197 26.064 20.2046 25.9321 20.2046H25.9146C25.7828 20.2046 25.6509 20.197 25.5229 20.1835C25.3989 20.1719 25.269 20.1526 25.1392 20.1238C25.0925 20.3067 25.0343 20.6902 25.2011 21.0524C25.3504 21.3819 25.6549 21.6266 26.0989 21.7886L26.2481 21.8463L26.2501 22.0062C26.2501 22.0543 26.285 23.091 27.4232 23.378C27.6093 23.1873 27.778 23.0159 27.9022 22.8732C27.6694 22.3299 27.7915 21.775 28.1289 21.5033C28.1135 21.5611 27.9661 22.9215 29.0636 23.4262L29.2439 23.5111L29.1896 23.7018C29.172 23.7596 28.8056 25.0756 30.1339 25.565L30.3685 25.6536L30.2637 25.881C30.2405 25.9311 29.719 27.1258 30.9464 27.8039H33.6085V25.7037C32.6623 25.5881 32.2609 24.8329 32.1581 24.2971C31.7181 24.222 31.3768 24.0332 31.144 23.7249C30.5855 22.9946 31.0665 22.326 31.0723 22.2894C31.0704 22.2953 31.0723 23.0081 31.5144 23.4474C31.7335 23.6593 31.9934 23.8232 32.3869 23.8598L32.5808 23.8772L32.5983 24.0737C32.6021 24.116 32.7088 25.0795 33.6104 25.2317L33.6085 20.9426C33.6085 20.2779 33.8044 19.6093 34.039 18.9927H28.6487V18.9985Z" fill="white"/>
<path d="M21.4844 20.963L21.4128 23.6953L21.7248 23.7416L22.4888 21.1211L22.1011 20.3157L21.4844 20.963Z" fill="white"/>
<path d="M29.9073 33.4933C29.9305 33.4933 29.9577 33.4972 29.9829 33.503C30.4579 33.6379 30.5782 35.3411 31.4119 35.4933C31.4934 35.5107 31.569 35.5145 31.6349 35.5145C31.8754 35.5145 32.0189 35.4123 32.1739 35.2313C32.1739 35.2313 31.7551 34.5762 31.441 34.135C31.0242 33.5569 30.7004 32.8574 29.9248 32.8574C29.9073 32.8574 29.8841 32.8574 29.8647 32.8595C29.6087 32.8729 29.4516 32.9962 29.4516 32.9962C29.1375 32.7997 28.8448 32.7322 28.579 32.7322C28.0925 32.7322 27.7144 32.9539 27.5262 32.9539H27.5185L25.785 32.7844C25.5136 32.7593 25.3003 32.4876 25.2228 32.3817C25.2033 32.3526 25.1937 32.3354 25.1937 32.3354C25.1937 32.2891 25.1937 32.241 25.1898 32.1985C25.1317 30.7901 24.0342 30.187 23.6444 30.1773C23.6444 30.1773 23.6909 29.9095 23.5844 29.8074L23.2023 30.2679L21.9478 29.6416L22.8417 30.6802L22.0835 31.526C21.9885 31.6225 22.0002 31.7535 22.039 31.8074L22.3666 32.0945L22.7816 31.844C22.8029 31.8287 22.8398 31.8247 22.8863 31.8247C23.0007 31.8247 23.1733 31.8536 23.3284 31.8536C23.497 31.8536 23.6444 31.817 23.6619 31.6589C23.6096 32.1812 23.1229 33.0887 23.4428 33.8016L23.6794 34.3392L22.1476 34.1195L21.4301 35.3238C21.2091 35.7246 21.1742 36.1581 21.3875 36.3931L21.6549 36.7266C21.6549 36.7266 22.0312 36.3295 22.1165 36.0694L21.9943 35.9365C21.8916 35.8247 21.8974 35.7246 21.9595 35.6032L22.4093 34.8613L24.2183 35.2853L24.3133 35.1234C24.4355 34.9211 24.612 34.8594 24.8059 34.8594C24.8854 34.8594 24.9668 34.869 25.0521 34.8825C25.3876 34.9481 25.9402 35.0367 26.4928 35.0367C27.0997 35.0367 27.7008 34.9288 28.0206 34.5724C28.676 35.5377 30.0042 35.6918 29.8995 36.1811L29.5506 37.8344C29.7813 37.8248 30.0042 37.8093 30.2156 37.7804L30.5472 36.0597C30.5841 35.8728 30.6189 35.6204 30.6189 35.6204C30.4909 35.4914 30.1807 35.2178 30.0063 34.8864C29.7715 34.4393 29.8995 34.2062 29.6804 33.6243C29.6882 33.6282 29.7541 33.4933 29.9073 33.4933ZM23.1403 31.0771C23.0511 31.0752 22.9871 31.0001 22.9909 30.9115C22.9988 30.8267 23.0705 30.7592 23.1577 30.7669C23.2469 30.7708 23.3109 30.8479 23.3071 30.9327C23.2992 31.0174 23.2256 31.083 23.1403 31.0771Z" fill="white"/>
<path d="M20.6702 35.0578C20.6702 35.0578 21.2693 34.8131 21.3235 34.6377L21.2441 34.4393C21.1878 34.3102 21.1956 34.1695 21.3042 34.0925L21.9517 33.6474L23.0338 33.8535C23.0338 33.8535 22.8379 33.6107 22.8573 33.2851L21.8258 33.0673L20.8524 33.6569C20.4355 33.9672 20.4044 34.4739 20.5422 34.7744L20.6702 35.0578Z" fill="white"/>
<path d="M28.3168 37.8596C28.5106 37.8519 28.7239 37.8481 28.9586 37.8481C28.9586 37.8481 29.5151 36.2315 29.546 36.1796C29.2339 36.0427 28.5863 35.7015 28.3361 35.5456C28.501 35.7903 28.9023 36.0715 28.8229 36.2874L28.3168 37.8596Z" fill="white"/>
<path d="M33.6139 28.2719H18.232V34.0214C18.232 36.3721 19.9443 37.8443 22.4707 37.8443C24.5822 37.8443 25.1386 37.9251 25.924 38.6997C26.465 38.1641 26.9129 37.9636 27.8319 37.8885L27.8532 37.7999L28.3379 36.3105C28.3108 36.2777 27.5179 35.3818 27.5179 35.3818C27.2037 35.4859 26.9401 35.5032 26.496 35.5032C26.0403 35.5032 25.5265 35.4511 24.97 35.3471C24.9138 35.3337 24.8614 35.3298 24.809 35.3298C24.7411 35.3298 24.7354 35.3355 24.718 35.3683L24.621 35.5262L24.4445 35.8153L24.113 35.7402L22.6374 35.3952L22.4357 35.7267L22.4667 35.7613L22.6471 35.9579L22.5676 36.2142C22.459 36.5494 22.1061 36.9405 21.9995 37.0485L21.631 37.4416L21.2957 37.0196L21.0436 36.7055C20.7779 36.4107 20.716 35.9579 20.8652 35.484C20.8612 35.4877 20.8554 35.4896 20.8497 35.4896L20.4328 35.6612L20.2446 35.2565L20.1128 34.9695C19.8861 34.4646 19.9693 33.7267 20.5802 33.2815L21.7688 32.6149L22.8992 32.8365C22.9264 32.7285 22.967 32.3432 23 32.245C22.9787 32.2431 22.9574 32.2373 22.9359 32.2373L22.2845 32.4781L21.6562 32.0466C21.6562 32.0466 21.41 31.8114 21.6329 31.5764L22.2418 30.6612L20.7003 28.7381L23.0697 29.7055L23.2269 29.5109L23.5467 29.1313L23.9094 29.4743C24.0121 29.5725 24.0703 29.6938 24.0993 29.8153C24.7527 30.0677 25.922 30.8134 26.0247 32.0253L25.6583 32.1717V32.1814C25.7417 32.2796 25.8115 32.3202 25.8327 32.3239L27.5236 32.4897C27.5663 32.4819 27.6206 32.4627 27.6807 32.4453C27.8901 32.3741 28.2062 32.272 28.5803 32.272C28.8848 32.272 29.1794 32.3413 29.4625 32.4724C29.5673 32.4338 29.6953 32.4049 29.8427 32.3953L29.924 32.3934C30.8295 32.3934 31.2793 33.0657 31.6401 33.6015C31.7001 33.6938 31.7602 33.7826 31.8223 33.8692C32.1383 34.3125 32.5513 34.9618 32.5688 34.9888L32.7549 35.2778L32.5261 35.5418C32.3497 35.744 32.086 35.9811 31.6323 35.9811C31.5392 35.9811 31.4365 35.9714 31.326 35.9501C31.2291 35.9329 31.1418 35.9038 31.0565 35.8692C31.0429 35.9579 31.0254 36.0639 31.0079 36.1544L30.7113 37.692C32.4854 37.2585 33.612 35.927 33.612 34.0234L33.6139 28.2719Z" fill="#10273D"/>
<path d="M18.2325 27.8097H30.1941C29.5968 27.197 29.6047 26.4205 29.7578 25.9157C29.5833 25.8328 29.4398 25.7325 29.3119 25.6247C28.8446 25.9676 27.4175 27.0005 27.0452 27.2585L26.9658 27.3126L22.2714 26.4686H22.1765C22.0641 26.4686 21.8992 26.4647 21.7188 26.4435C21.6684 26.6536 21.4862 26.7981 21.2767 26.7981C21.2535 26.7981 21.2263 26.7962 21.2011 26.7904C21.0789 26.7692 20.9725 26.7075 20.9007 26.6054C20.827 26.5053 20.7979 26.3857 20.8192 26.2625L20.8367 26.1623C20.3519 25.8232 19.906 25.0659 20.1037 24.2682L20.123 24.1835L20.191 24.1353C20.2007 24.1276 20.282 24.0737 20.4023 24.0043L20.061 23.9522C19.9331 23.9291 19.8478 23.8115 19.8673 23.6864C19.8885 23.5592 20.0087 23.4685 20.1347 23.4936L20.9472 23.6208L21.0209 20.7768L22.2308 19.5052L22.9851 21.0833L22.1881 23.8193L22.9056 23.931C23.0315 23.9503 23.1188 24.0678 23.0995 24.1969C23.08 24.3106 22.9831 24.3896 22.8687 24.3896C22.857 24.3896 22.8435 24.3896 22.8318 24.3877L22.2482 24.2933C22.256 24.3106 22.2675 24.3202 22.2754 24.3394C22.3374 24.4667 22.4751 24.5592 22.5565 24.5977L26.1359 24.6536C26.2871 24.5071 26.6633 24.141 27.0492 23.7537C26.1689 23.4223 25.8489 22.667 25.7945 22.166C25.3021 21.9579 24.9628 21.6459 24.7747 21.2393C24.5459 20.7365 24.6273 20.2335 24.6874 19.9889C24.2104 19.8154 23.7083 19.4995 23.1964 18.9946H17.8061C18.0368 19.6111 18.2325 20.2798 18.2325 20.9445V27.8097Z" fill="#10273D"/>
<path d="M23.1594 30.7668C23.0721 30.7591 22.9985 30.8264 22.9926 30.9113C22.9868 30.9998 23.0527 31.075 23.142 31.0769C23.2272 31.0846 23.3029 31.0191 23.3105 30.9324C23.3105 30.8476 23.2486 30.7688 23.1594 30.7668Z" fill="#10273D"/>
<path d="M33.5931 41.1926L32.707 40.8554L32.9513 39.946L33.2208 38.9537C33.2208 38.9537 31.6502 39.7996 29.4379 40.4355C28.8097 40.6146 28.3346 40.6955 28.3346 40.6955V41.3698C28.3346 41.3698 27.1519 41.5742 25.9555 41.5742H25.8876C24.6913 41.5742 23.5085 41.3698 23.5085 41.3698V40.6955C23.5085 40.6955 23.0314 40.6146 22.4052 40.4355C20.1928 39.7996 18.6242 38.9537 18.6242 38.9537L18.8898 39.946L19.1399 40.8554L18.2519 41.1926L17.267 41.5586C18.3974 42.1001 19.962 42.8902 21.3951 43.2793L21.0576 44.1965C21.0576 44.1965 22.8744 45.0193 25.9012 45.027V45.0289H25.9438V45.027C28.9745 45.0193 30.7893 44.1965 30.7893 44.1965L30.45 43.2793C31.8828 42.8902 33.4516 42.1001 34.5762 41.5586L33.5931 41.1926ZM18.3175 41.6207L19.7756 41.1389L19.3451 39.742C19.9869 40.1043 21.4281 40.6473 22.2617 40.8998L21.5575 42.821C20.2699 42.4685 19.1978 42.0581 18.3175 41.6207ZM25.9237 44.5455C24.2309 44.5455 22.2977 44.1581 21.7297 43.9578L22.5945 41.6322C23.3119 41.8404 24.805 42.062 25.8888 42.0542H25.9568C27.0407 42.062 28.5295 41.8404 29.2509 41.6322L30.1138 43.9578C29.5458 44.16 27.6145 44.5455 25.9237 44.5455ZM30.2869 42.821L29.585 40.9001C30.4207 40.6476 31.8575 40.1043 32.5012 39.742L32.0726 41.1389L33.5289 41.6207C32.6466 42.0581 31.5801 42.4685 30.2869 42.821Z" fill="#10273D"/>
<path d="M25.9225 4.89189C27.7257 4.89189 29.1682 5.48542 29.9652 6.11937C29.9652 6.11937 30.2017 4.70309 31.0103 3.45267L29.558 3.61638L28.798 2.01141L27.3379 2.75903L25.9225 1.36783L24.5109 2.75903L23.0489 2.01141L22.2908 3.61638L20.8384 3.45267C21.6469 4.70309 21.8836 6.11937 21.8836 6.11937C22.6824 5.48542 24.1211 4.89189 25.9225 4.89189ZM22.2247 4.179L22.6281 4.22144L22.8026 3.85727L23.3106 2.77829L24.253 3.26183L24.6175 3.44683L24.9084 3.16173L25.9244 2.1598L26.9424 3.16173L27.2332 3.44683L27.5977 3.26183L28.5343 2.77829L29.0481 3.85727L29.2187 4.22144L29.622 4.179L30.0059 4.13275C29.8295 4.52784 29.6995 4.90152 29.6064 5.21184C28.5904 4.64923 27.268 4.32928 25.9205 4.32928C24.5788 4.32928 23.2583 4.64923 22.2383 5.21184C22.1435 4.90152 22.0154 4.52581 21.8389 4.13275L22.2247 4.179Z" fill="#10273D"/>
<path d="M47.0785 23.684C49.4112 23.684 50.1906 21.3257 50.2235 21.2255L50.4834 20.3949L49.6088 20.422H49.6051C49.2968 20.422 46.7237 20.3545 44.8992 18.0501L44.7266 17.8362C43.5341 16.3295 42.4037 14.8979 40.3833 14.2446C40.4415 14.1927 40.5248 14.1271 40.6393 14.0539C41.7115 13.3526 42.3358 12.5009 42.4929 11.5125C42.7216 10.025 41.7678 8.83998 41.7251 8.79182L41.0755 7.99416L40.6703 8.94021C40.6432 8.9999 39.9605 10.5144 38.5257 10.5144H38.4191C38.3203 10.5086 38.2271 10.5047 38.1341 10.497C38.1846 9.82075 38.0604 8.77447 37.1065 7.7937C35.9605 6.61259 34.5528 6.43531 33.8161 6.43531C33.4224 6.43531 33.1606 6.48347 33.1334 6.4874L32.1524 6.68001L32.7574 7.47197C33.2324 8.08274 33.6628 9.20998 33.1528 9.79957C32.99 9.98645 32.6546 10.1386 32.3327 10.2908C31.6715 10.5933 30.7699 11.0134 30.7699 12.0847C30.7699 12.7784 31.3109 13.5028 32.292 14.1194C35.1966 15.9344 36.9881 17.8285 37.7618 19.919C38.9582 23.1349 37.3973 24.9692 35.881 25.9346L35.2004 26.3699L35.7957 26.9132C35.8752 26.9827 36.6043 27.6204 37.6804 27.713C37.8839 27.7264 38.0797 27.7379 38.2621 27.7379C38.9523 27.7379 39.5399 27.6301 40.0168 27.4855C39.8849 27.7148 39.724 27.948 39.5205 28.1831C38.6538 29.1811 37.5873 29.6359 36.0536 29.659L35.4835 29.6687L35.4389 30.237C35.4331 30.3507 35.3905 31.4047 36.3948 32.3007C36.548 32.4393 36.7342 32.5531 36.928 32.6475C36.2475 33.2564 35.5552 34.3161 35.4216 36.133C35.309 37.6494 34.9445 38.2101 34.9406 38.2158L34.3105 39.1715L35.4487 39.187C37.3295 39.187 38.77 38.6706 39.7686 37.6494C40.3581 37.0444 40.6955 36.3623 40.8952 35.7574C41.2229 36.0347 41.6457 36.2775 42.1962 36.4066C42.4057 36.4548 42.6345 36.4817 42.8807 36.4817C43.412 36.4817 43.8561 36.37 43.9065 36.3585L44.6335 36.1657L44.3117 35.4913C44.2884 35.4375 43.6815 34.0848 44.3349 32.1541C44.6161 31.3199 44.7595 30.5722 44.8293 29.9904C45.2869 30.2273 45.8997 30.4239 46.6927 30.4258C48.492 30.4258 49.2851 29.0906 49.322 29.0347L49.6768 28.4219L49.0195 28.1522C46.875 27.2678 46.4 24.892 46.3049 23.605C46.4988 23.6416 46.7199 23.6763 46.9699 23.684H47.0785ZM48.7792 28.7208C48.7792 28.7208 48.1511 29.8056 46.7104 29.8056H46.693C44.9633 29.796 44.2654 28.7478 44.2654 28.7478C44.2654 28.7478 44.3659 30.1118 43.7416 31.9518C42.9912 34.1696 43.7474 35.7554 43.7474 35.7554C43.7474 35.7554 43.3441 35.8633 42.8788 35.8633C42.7004 35.8633 42.5142 35.8459 42.3397 35.7996C40.8952 35.4586 40.5346 34.1523 40.5346 34.1523C40.5346 34.1523 40.6683 38.5666 35.4893 38.5666H35.4487C35.4487 38.5666 35.9045 37.9502 36.0403 36.1756C36.2865 32.9 38.5182 32.451 38.5182 32.451C38.5182 32.451 37.3274 32.3026 36.8117 31.8421C36.005 31.1156 36.0615 30.2757 36.0615 30.2757C37.8842 30.2507 39.0767 29.6341 39.986 28.5878C40.9711 27.4548 41.1339 26.2352 41.1339 26.2352C41.1339 26.2352 40.1548 27.1177 38.2604 27.1177C38.0937 27.1177 37.9152 27.11 37.733 27.0927C36.8372 27.0215 36.2167 26.455 36.2167 26.455C38.1886 25.1987 39.5728 23.0057 38.3455 19.7032C37.3624 17.0578 35.0007 15.0809 32.6236 13.5915C31.8324 13.1001 31.3922 12.5549 31.3922 12.0847C31.3922 10.9788 32.9745 10.9441 33.6241 10.2003C34.3724 9.33708 33.9032 7.93637 33.2537 7.09436C33.2537 7.09436 33.4728 7.05001 33.8179 7.05001C34.5024 7.05001 35.6871 7.22145 36.6605 8.22339C37.9538 9.55287 37.4166 10.9999 37.4166 10.9999L37.7637 11.0674C37.9712 11.1117 38.1768 11.1194 38.39 11.129C38.4365 11.129 38.4831 11.1309 38.5296 11.1309C40.4085 11.1309 41.2481 9.17907 41.2481 9.17907C41.2481 9.17907 43.2453 11.6204 40.3057 13.5317C39.7996 13.8593 39.5766 14.1617 39.6349 14.4855L39.6815 14.6975L39.8908 14.7341C42.0217 15.3082 43.0998 16.7688 44.4163 18.4296C46.4154 20.9557 49.2445 21.0367 49.5934 21.0367H49.6303C49.6303 21.0367 48.9845 23.0616 47.0824 23.0616C47.0514 23.0616 47.0243 23.0616 46.9913 23.0598C46.1169 23.0288 45.6689 22.6956 45.6689 22.6956C45.6689 22.6956 45.326 27.2951 48.7792 28.7208Z" fill="#10273D"/>
<path d="M42.9813 14.4992C43.8518 14.9596 44.358 15.5762 44.802 16.1234C45.2382 16.6571 45.6532 17.1715 46.3007 17.3854C46.5315 17.4645 46.7758 17.5011 47.024 17.5011C47.9973 17.5011 48.9747 16.9095 49.3449 16.0907L49.7172 15.2698L48.8157 15.2159C48.7729 15.214 47.6135 15.1099 46.3222 13.7978C45.7908 13.2603 45.149 12.9769 44.4568 12.9769C43.6115 12.9769 42.9851 13.397 42.9153 13.4394L42.0855 14.0194L42.9813 14.4992ZM44.4588 13.5974C44.8931 13.5974 45.3993 13.7437 45.8781 14.2351C47.3808 15.7515 48.7788 15.8362 48.7788 15.8362C48.5248 16.395 47.7881 16.8863 47.026 16.8863C46.8497 16.8863 46.673 16.8594 46.4966 16.7997C45.4632 16.4529 45.0928 14.9115 43.276 13.9519C43.276 13.9519 43.7841 13.5974 44.4588 13.5974Z" fill="#10273D"/>
<path d="M43.3889 22.686L43.3881 22.7171C42.8647 18.5205 39.7972 15.4896 36.3846 13.6457C36.0686 13.478 35.7778 13.3355 35.4946 13.1986C36.5339 13.3586 38.2072 13.3778 39.4986 12.2641C39.4986 12.2641 37.5228 13.7092 33.4742 12.3971C34.595 13.1197 36.7725 14.139 38.7598 15.7902C43.7295 20.1292 40.1734 24.3624 40.1734 24.3624C41.9592 22.5109 42.0328 20.5263 41.5074 18.9059C42.4478 20.4607 43.0489 22.3489 42.9557 24.6766C42.8182 28.0118 40.9742 30.8962 39.0332 33.2142C38.1006 34.3394 37.8913 35.7209 37.8913 35.7209C37.8913 35.7209 38.2673 34.5013 39.3473 33.2469C41.4279 30.827 43.2059 28.3124 43.4386 24.69C43.6538 25.3471 44.5399 27.1756 45.9457 27.8635C45.9495 27.8654 44.1839 26.8075 43.3889 22.686Z" fill="#10273D"/>
<path d="M16.9039 38.2139C16.902 38.2081 16.5413 37.6474 16.4251 36.1309C16.2894 34.314 15.5989 33.2542 14.9165 32.6454C15.1143 32.5529 15.2965 32.4392 15.4497 32.2986C16.4522 31.4026 16.4094 30.3487 16.4036 30.2351L16.3649 29.6667L15.7909 29.657C14.2611 29.6319 13.1926 29.1772 12.326 28.181C12.1243 27.946 11.9615 27.7128 11.8296 27.4836C12.3065 27.628 12.8902 27.736 13.5824 27.736C13.7686 27.736 13.9606 27.7243 14.1642 27.7109C15.2402 27.6184 15.9694 26.9825 16.0507 26.9113L16.646 26.368L15.9654 25.9324C14.4433 24.9652 12.8883 23.1309 14.0827 19.9171C14.8563 17.8265 16.646 15.9324 19.5545 14.1173C20.5356 13.5007 21.0726 12.7764 21.0726 12.0827C21.0726 11.0114 20.173 10.5894 19.5118 10.2888C19.1899 10.1366 18.8546 9.98442 18.6917 9.79754C18.1798 9.20982 18.6121 8.0808 19.0852 7.46991L19.6941 6.67807L18.7091 6.48534C18.68 6.48153 18.4221 6.43338 18.0266 6.43338C17.2897 6.43338 15.886 6.61065 14.738 7.79176C13.7821 8.77443 13.6562 9.82064 13.7046 10.495C13.6115 10.5027 13.5185 10.5066 13.4215 10.5123H13.3168C11.8781 10.5123 11.1976 8.99796 11.1705 8.93815L10.7651 7.9921L10.1097 8.78977C10.0729 8.83805 9.11511 10.0249 9.34776 11.5105C9.50286 12.4988 10.1272 13.3504 11.1994 14.0519C11.3158 14.1251 11.3972 14.1906 11.4554 14.2427C9.43698 14.8957 8.30846 16.3294 7.11595 17.836L6.94336 18.0499C5.12082 20.3544 2.54193 20.4219 2.23364 20.4219L1.35538 20.3949L1.62287 21.2253C1.65391 21.3255 2.43144 23.6839 4.7659 23.6839L4.87842 23.6801C5.12463 23.6724 5.34574 23.6396 5.54354 23.6011C5.44648 24.8862 4.97143 27.262 2.82501 28.1483L2.16964 28.4181L2.52457 29.0308C2.55942 29.0866 3.35442 30.422 5.15757 30.422C5.94485 30.4199 6.55751 30.2234 7.01711 29.9865C7.08693 30.5683 7.23037 31.3159 7.51155 32.1502C8.16502 34.0808 7.55615 35.4335 7.53283 35.4875L7.21098 36.1619L7.94009 36.3545C7.9885 36.366 8.43644 36.4778 8.96572 36.4778C9.21395 36.4778 9.4428 36.4508 9.64837 36.4026C10.201 36.2735 10.6274 36.0309 10.9512 35.7533C11.149 36.3582 11.4884 37.0404 12.0759 37.6454C13.0763 38.6666 14.515 39.183 16.3958 39.183L17.536 39.1676L16.9039 38.2139ZM16.3532 38.5664C11.1742 38.5664 11.3062 34.1522 11.3062 34.1522C11.3062 34.1522 10.9455 35.4585 9.50096 35.7996C9.32837 35.8458 9.14413 35.8632 8.96382 35.8632C8.49852 35.8632 8.0971 35.7552 8.0971 35.7552C8.0971 35.7552 8.84939 34.1695 8.09899 31.9518C7.4786 30.1116 7.57947 28.7476 7.57947 28.7476C7.57947 28.7476 6.8833 29.7957 5.15187 29.8053H5.13438C3.69377 29.8053 3.06551 28.7205 3.06551 28.7205C6.51683 27.2967 6.17749 22.6993 6.17749 22.6993C6.17749 22.6993 5.72969 23.0307 4.8532 23.0635C4.82216 23.0654 4.79314 23.0654 4.76209 23.0654C2.85795 23.0654 2.21425 21.0404 2.21425 21.0404H2.25302C2.60402 21.0404 5.42912 20.9594 7.42817 18.4334C8.74473 16.7725 9.82471 15.3139 11.9517 14.7379L12.165 14.7013L12.2116 14.4893C12.2698 14.1655 12.0487 13.8631 11.5427 13.5355C8.60319 11.6222 10.6003 9.18284 10.6003 9.18284C10.6003 9.18284 11.436 11.1328 13.3188 11.1328C13.3652 11.1328 13.408 11.1308 13.4564 11.1308C13.6677 11.1192 13.8772 11.1116 14.0827 11.0673L14.4298 10.9998C14.4298 10.9998 13.8926 9.55284 15.1879 8.22335C16.1613 7.21952 17.346 7.04997 18.0284 7.04997C18.3756 7.04997 18.5908 7.0942 18.5908 7.0942C17.9432 7.93812 17.474 9.33705 18.2223 10.2003C18.87 10.942 20.4503 10.9786 20.4503 12.0846C20.4503 12.5528 20.0102 13.1001 19.2191 13.5914C16.8398 15.0808 14.4783 17.0576 13.4971 19.7032C12.2717 23.0057 13.6542 25.1964 15.63 26.4546C15.63 26.4546 15.0095 27.021 14.1118 27.0924C13.9295 27.1098 13.7531 27.1175 13.5824 27.1175C11.69 27.1175 10.7108 26.2349 10.7108 26.2349C10.7108 26.2349 10.8737 27.4547 11.8529 28.5876C12.7681 29.6338 13.9606 30.2506 15.7832 30.2757C15.7832 30.2757 15.8414 31.1159 15.0347 31.8422C14.5171 32.3008 13.3264 32.451 13.3264 32.451C13.3264 32.451 15.5602 32.8997 15.8045 36.1753C15.9383 37.9498 16.3901 38.5664 16.3901 38.5664H16.3532Z" fill="#10273D"/>
<path d="M4.81874 17.5034C5.06888 17.5034 5.31318 17.4667 5.54381 17.3876C6.19537 17.1738 6.60834 16.6594 7.04461 16.1256C7.49065 15.5784 7.99282 14.9619 8.86334 14.5014L9.75923 14.0235L8.92734 13.4435C8.85752 13.3992 8.23319 12.9812 7.38978 12.9812C6.69564 12.9812 6.05193 13.2625 5.52252 13.8019C4.23117 15.1122 3.07363 15.2181 3.03093 15.2201L2.12936 15.272L2.49974 16.0948C2.8719 16.9098 3.84723 17.5034 4.81874 17.5034ZM5.96653 14.2374C6.4474 13.746 6.95351 13.5996 7.38978 13.5996C8.06061 13.5996 8.5686 13.954 8.5686 13.954C6.7538 14.9156 6.38152 16.4552 5.34411 16.802C5.17355 16.8617 4.99513 16.8887 4.81874 16.8887C4.05668 16.8887 3.31984 16.3993 3.0678 15.8386C3.0678 15.8367 4.46382 15.7518 5.96653 14.2374Z" fill="#10273D"/>
<path d="M8.88813 24.6784C8.7912 22.3508 9.39236 20.4626 10.3346 18.9077C9.80914 20.5281 9.88083 22.5126 11.6686 24.3642C11.6686 24.3642 8.11251 20.1311 13.084 15.792C15.0735 14.1407 17.2489 13.1215 18.3678 12.399C14.3211 13.7111 12.3453 12.266 12.3453 12.266C13.6366 13.3797 15.3104 13.3605 16.3497 13.1987C16.0686 13.3354 15.7738 13.478 15.4615 13.6456C12.0452 15.4895 8.97961 18.5204 8.45412 22.717V22.6843C7.66115 26.8057 5.89664 27.8635 5.89664 27.8635C7.30051 27.1755 8.18473 25.349 8.39989 24.6901C8.63457 28.3125 10.4125 30.8269 12.493 33.247C13.573 34.5012 13.9531 35.7209 13.9531 35.7209C13.9531 35.7209 13.7418 34.3393 12.8053 33.2141C10.8682 30.9001 9.02385 28.0137 8.88813 24.6784Z" fill="#10273D"/>
<path d="M24.7533 16.1872V17.0195C25.0423 16.6708 25.6007 16.7422 25.6007 16.7422V17.9426C25.6007 17.9426 25.5813 18.5322 25.3699 18.7883H26.5779C26.3705 18.5341 26.3492 17.9426 26.3492 17.9426V16.7422C26.3492 16.7422 26.9077 16.6709 27.1945 17.0195V16.1872H24.7533Z" fill="#10273D"/>
<path d="M24.2335 11.2506C24.6193 11.5551 24.8423 11.6052 24.8501 11.611L25.0013 11.6803L25.0015 10.896L23.5821 10.3026C23.5821 10.3046 23.5956 10.7573 24.2335 11.2506Z" fill="#10273D"/>
<path d="M27.6096 11.2504C28.2514 10.7573 28.2629 10.3025 28.2629 10.3025L26.8438 10.896L26.8435 11.6803L26.993 11.6108C27.0028 11.6049 27.2238 11.555 27.6096 11.2504Z" fill="#10273D"/>
<path d="M30.1662 8.05778C30.1662 6.86895 28.1516 5.7996 25.9276 5.7996H25.9141C23.69 5.7996 21.6754 6.86895 21.6754 8.05778L21.7201 8.35062L22.608 13.4162L21.7163 13.9306L19.4088 15.2698H19.4166C19.4166 15.2698 18.897 15.5337 18.6565 15.6975C17.7782 16.3045 17.5921 17.1888 18.1019 17.5549C18.2281 16.8343 18.8019 16.079 19.8761 16.079C20.6498 16.079 21.2392 16.4759 21.7163 17.0713C21.8384 17.2216 21.9547 17.3816 22.0633 17.5549C22.197 17.7726 22.3308 17.9635 22.4647 18.1484H16.5218C16.958 19.0212 17.3729 19.9462 17.3729 20.95V34.0213C17.3729 37.1851 19.8218 38.6957 22.4704 38.6957C24.518 38.6957 24.7934 38.6032 25.9238 39.7207C27.0484 38.6013 27.3237 38.6957 29.3732 38.6957C32.0237 38.6957 34.4688 37.1851 34.4688 34.0213V20.95C34.4688 19.9462 34.8838 19.0212 35.322 18.1484H29.3771C29.5089 17.9653 29.6427 17.7726 29.7764 17.5549C29.887 17.3816 30.0014 17.2216 30.1216 17.0713C30.6025 16.4741 31.1899 16.079 31.9636 16.079C33.0378 16.079 33.6098 16.8324 33.7378 17.5549C34.2478 17.1888 34.0635 16.3045 33.1793 15.6975C32.9428 15.5337 32.4231 15.2698 32.4231 15.2698H32.4309L29.2355 13.4162L30.1236 8.35062L30.1662 8.05778ZM22.5506 8.64733L25.6724 9.69949V14.5723L23.3741 13.3681L22.5506 8.64733ZM23.1956 18.998C23.7076 19.5047 24.2098 19.8189 24.6867 19.9923C24.6246 20.237 24.5433 20.7419 24.774 21.2447C24.962 21.6493 25.3033 21.9615 25.7938 22.1696C25.8481 22.6707 26.1661 23.4239 27.0484 23.7574C26.6626 24.1445 26.2863 24.5087 26.1331 24.6571L22.5557 24.6012C22.4743 24.5607 22.3366 24.4702 22.2747 24.3411C22.2669 24.3238 22.2553 24.3141 22.2495 24.2948L22.833 24.3892C22.8467 24.3911 22.8582 24.3911 22.8699 24.3911C22.9824 24.3911 23.0812 24.3141 23.1006 24.1985C23.12 24.0694 23.0328 23.9518 22.9068 23.9326L22.1893 23.8208L22.9862 21.0866L22.232 19.5087L21.0221 20.7804L20.9483 23.6242L20.136 23.4972C20.0099 23.472 19.8897 23.5646 19.8684 23.6898C19.849 23.8151 19.9343 23.9326 20.0622 23.9557L20.4035 24.0077C20.2814 24.0772 20.2019 24.131 20.1922 24.1387L20.1223 24.1869L20.1029 24.2718C19.9052 25.0695 20.3531 25.8267 20.836 26.1658L20.8185 26.2659C20.7991 26.3894 20.8262 26.5087 20.8999 26.6089C20.9697 26.7111 21.0783 26.7727 21.1985 26.7939C21.2238 26.7977 21.2508 26.7996 21.2742 26.7996C21.4835 26.7996 21.6659 26.6551 21.7182 26.4452C21.8985 26.4663 22.0633 26.4701 22.1757 26.4701H22.2708L26.9658 27.3126L27.0445 27.2602C27.4186 27 28.8438 25.9674 29.3111 25.6262C29.4391 25.7361 29.5825 25.8364 29.7571 25.9191C29.6058 26.4239 29.5962 27.2004 30.1953 27.8132H18.2319V20.9519C18.2319 20.2872 18.0361 19.6186 17.8053 19.002H23.1956V18.998ZM28.9974 25.2756C28.5224 25.6224 27.3008 26.5087 26.8587 26.817L22.5929 26.0559C22.6027 26.0174 22.6123 25.9807 22.6221 25.9422C22.6782 25.7225 22.7345 25.4218 22.7384 25.0693L26.3232 25.1273L26.391 25.0578C26.4454 25.0039 27.5816 23.9133 28.1614 23.2852C28.299 23.4566 28.4715 23.6205 28.6964 23.7649C28.6189 24.1812 28.6523 24.7745 28.9974 25.2756ZM21.8566 24.5416C21.9575 24.7516 22.1396 24.8923 22.2657 24.9713C22.2618 25.1679 22.2425 25.4743 22.1902 25.7439C22.1785 25.8036 22.163 25.8595 22.1455 25.9154C22.1357 25.95 22.1261 25.9789 22.1183 26.0021C21.9303 26.0021 21.5598 25.979 21.2574 25.8692C20.922 25.7459 20.4218 25.1351 20.538 24.4627C20.6835 24.374 21.0188 24.1871 21.333 24.1871C21.5754 24.1852 21.7403 24.2988 21.8566 24.5416ZM21.4118 23.6956L21.4835 20.9653L22.1001 20.316L22.4888 21.1211L21.7248 23.7416L21.4118 23.6956ZM28.9583 37.8498C28.7256 37.8498 28.5103 37.8537 28.3164 37.8614L28.8245 36.291C28.904 36.0733 28.5025 35.7939 28.3377 35.5493C28.5878 35.7054 29.2355 36.0464 29.5478 36.1832C29.5148 36.2333 28.9583 37.8498 28.9583 37.8498ZM30.552 36.0656L30.2205 37.7844C30.0092 37.8132 29.7843 37.8286 29.5535 37.8382L29.9025 36.1851C30.0072 35.6937 28.6791 35.5415 28.0237 34.5762C27.7037 34.9346 27.1007 35.0406 26.4958 35.0406C25.9432 35.0406 25.3906 34.9519 25.0551 34.8864C24.9698 34.873 24.8883 34.8633 24.8089 34.8633C24.615 34.8633 24.4384 34.923 24.3163 35.1273L24.2194 35.2892L22.4104 34.8653L21.9606 35.6051C21.8965 35.7246 21.8926 35.8268 21.9954 35.9384L22.1175 36.0715C22.0342 36.3335 21.6581 36.7284 21.6581 36.7284L21.3886 36.395C21.1752 36.1581 21.2101 35.7266 21.4332 35.3258L22.1505 34.1215L23.6824 34.3411L23.4438 33.8017C23.1239 33.0887 23.6106 32.1812 23.6629 31.659C23.6455 31.817 23.5 31.8517 23.3294 31.8517C23.1743 31.8517 23.0017 31.8228 22.8873 31.8228C22.8427 31.8228 22.8039 31.8266 22.7827 31.8421L22.3677 32.0926L22.04 31.8054C22.0012 31.7496 21.9877 31.6205 22.0846 31.5242L22.8427 30.6802L21.9478 29.6416L23.2023 30.2679L23.5844 29.8074C23.6892 29.9096 23.6444 30.1773 23.6444 30.1773C24.0361 30.1869 25.1326 30.7901 25.1909 32.1967C25.1947 32.2389 25.1947 32.2872 25.1947 32.3333C25.1947 32.3333 25.2045 32.3508 25.2238 32.3796C25.3014 32.4857 25.5146 32.7573 25.786 32.7823L27.5195 32.952H27.5272C27.7173 32.952 28.0954 32.7304 28.5801 32.7304C28.8438 32.7304 29.1385 32.7978 29.4527 32.9943C29.4527 32.9943 29.6097 32.871 29.8657 32.8575C29.885 32.8555 29.9065 32.8555 29.9258 32.8555C30.7034 32.8555 31.0252 33.5531 31.4421 34.1331C31.7562 34.5743 32.1751 35.2294 32.1751 35.2294C32.0199 35.4124 31.8763 35.5126 31.636 35.5126C31.5701 35.5126 31.4944 35.5068 31.413 35.4915C30.5792 35.3392 30.4591 33.6359 29.984 33.501C29.9588 33.4933 29.9317 33.4914 29.9084 33.4914C29.7551 33.4914 29.6874 33.6264 29.6874 33.6264C29.9044 34.2062 29.7784 34.4414 30.0111 34.8884C30.1856 35.2198 30.4958 35.4934 30.6238 35.6225C30.6238 35.6263 30.5889 35.8768 30.552 36.0656ZM21.2441 34.4393L21.3235 34.6377C21.2712 34.8111 20.6702 35.0578 20.6702 35.0578L20.5392 34.7765C20.4016 34.476 20.4306 33.9693 20.8495 33.659L21.8228 33.0695L22.8544 33.2871C22.835 33.6128 23.0308 33.8556 23.0308 33.8556L21.9489 33.6495L21.3013 34.0945C21.1927 34.1697 21.1859 34.3103 21.2441 34.4393ZM30.715 37.69L31.0117 36.1523C31.0271 36.0618 31.0465 35.9558 31.0601 35.8671C31.1435 35.9019 31.2327 35.9308 31.3296 35.9481C31.4401 35.9693 31.5428 35.9789 31.636 35.9789C32.0898 35.9789 32.3534 35.7419 32.5298 35.5396L32.7587 35.2756L32.5725 34.9867C32.5551 34.9577 32.144 34.3104 31.826 33.8671C31.7639 33.7805 31.7037 33.6937 31.6437 33.5993C31.2831 33.0636 30.8313 32.3913 29.9258 32.3913L29.8444 32.3932C29.6951 32.4028 29.5671 32.4316 29.4644 32.4702C29.1793 32.3372 28.8865 32.2699 28.582 32.2699C28.2078 32.2699 27.8918 32.372 27.6824 32.4432C27.6223 32.4606 27.568 32.4799 27.5254 32.4876L25.8326 32.3218C25.8113 32.3181 25.7415 32.2776 25.6581 32.1774V32.1696L26.0246 32.0232C25.9218 30.8113 24.7507 30.0656 24.0973 29.8132C24.0682 29.6917 24.0101 29.5703 23.9073 29.4722L23.5427 29.1292L23.2227 29.5107L23.0658 29.7053L20.6964 28.738L22.2378 30.6609L21.629 31.5762C21.4059 31.8113 21.6522 32.0464 21.6522 32.0464L22.2804 32.476L22.932 32.2352C22.9552 32.2352 22.9746 32.241 22.9959 32.2428C22.9649 32.3411 22.9242 32.7264 22.897 32.8344L21.7666 32.6128L20.578 33.2795C19.9672 33.7246 19.8838 34.4625 20.1108 34.9674L20.2426 35.2544L20.4306 35.6591L20.8456 35.4875C20.8514 35.4856 20.8573 35.4837 20.861 35.48C20.7118 35.9539 20.772 36.4047 21.0395 36.7015L21.2915 37.0175L21.627 37.4395L21.9954 37.0463C22.104 36.9384 22.455 36.5474 22.5636 36.2121L22.643 35.9557L22.4627 35.7592L22.4336 35.7246L22.6354 35.3931L24.1108 35.7381L24.4424 35.8132L24.6188 35.5241L24.7158 35.3661C24.7332 35.3334 24.739 35.3276 24.8069 35.3276C24.8593 35.3276 24.9116 35.3334 24.9679 35.345C25.5243 35.449 26.0381 35.5011 26.4938 35.5011C26.9359 35.5011 27.1995 35.4837 27.5156 35.3797C27.5156 35.3797 28.3087 36.2737 28.3358 36.3084L27.8511 37.7959L27.8298 37.8865C26.9107 37.9596 26.4628 38.1601 25.9218 38.6976C25.1365 37.923 24.58 37.8422 22.4686 37.8422C19.942 37.8422 18.23 36.3701 18.23 34.0194V28.2718H33.6098L33.6138 34.0194C33.6156 35.9269 32.4891 37.2563 30.715 37.69ZM34.0403 18.998C33.8057 19.6147 33.6098 20.2833 33.6098 20.9481L33.6119 25.2371C32.7101 25.0868 32.6035 24.1214 32.5996 24.0791L32.5822 23.8825L32.3883 23.8652C31.9966 23.8286 31.7368 23.6628 31.5177 23.451C31.0756 23.0116 31.0736 22.2987 31.0756 22.2929C31.0699 22.3295 30.5889 22.998 31.1474 23.7283C31.3819 24.0366 31.7213 24.2255 32.1614 24.3007C32.2642 24.8363 32.6656 25.5915 33.6119 25.7072V27.8074H30.9515C29.7241 27.1292 30.2437 25.9345 30.2689 25.8845L30.3737 25.6571L30.1391 25.5684C28.8109 25.0791 29.1754 23.7611 29.1948 23.7052L29.249 23.5125L29.0688 23.4278C27.9712 22.9229 28.1206 21.5608 28.1342 21.5049C27.7968 21.7765 27.6746 22.3314 27.9073 22.8748C27.7813 23.0174 27.6127 23.1908 27.4284 23.3796C26.2921 23.0926 26.2574 22.054 26.2574 22.0059L26.2552 21.8459L26.106 21.7881C25.662 21.6243 25.3575 21.3796 25.2082 21.05C25.0396 20.686 25.0996 20.3045 25.1463 20.1214C25.2762 20.1503 25.406 20.1716 25.5301 20.1812C25.6581 20.1946 25.79 20.2023 25.9218 20.2023H25.9393C26.0711 20.2023 26.2011 20.1946 26.329 20.1812C27.0367 20.1118 27.8298 19.8093 28.6558 18.9961H34.0403V18.998ZM29.8948 14.6627L30.9456 15.2698H30.9612L31.2249 15.422C30.6316 15.5857 30.1779 15.8805 29.7979 16.2678C29.7843 16.2794 29.7708 16.2948 29.7571 16.3083C29.6699 16.4007 29.5825 16.501 29.5012 16.6032C29.4857 16.6224 29.4701 16.6436 29.4527 16.6648C29.3712 16.7688 29.2957 16.8749 29.2219 16.9865C29.2103 17.0059 29.1967 17.0251 29.1832 17.0424C29.0959 17.1715 29.0126 17.3102 28.9292 17.4528C28.1807 18.7341 26.9863 19.4991 25.9238 19.501C24.8632 19.4991 23.6688 18.7341 22.9203 17.4528C22.8388 17.314 22.7575 17.1792 22.6701 17.0481C22.6527 17.0231 22.6372 16.9981 22.6217 16.9768C22.548 16.8709 22.4743 16.7668 22.3987 16.6687C22.3794 16.6417 22.3618 16.6204 22.3425 16.5973C22.261 16.499 22.1776 16.4007 22.0942 16.3102C22.0769 16.2968 22.0652 16.2794 22.0478 16.264C21.6659 15.8767 21.214 15.5838 20.6187 15.422L20.8863 15.2698H20.8979L21.9497 14.6631L23.0289 14.0482L25.9141 15.6088L25.9199 15.6031L25.9276 15.6088L28.8128 14.0482L29.8948 14.6627ZM28.4724 13.37L26.172 14.5742L26.1728 9.69949L29.2926 8.64733L28.4724 13.37ZM25.9218 9.16375L22.5017 7.82096C22.7926 7.13696 24.1343 6.55509 25.9221 6.55318C27.7117 6.55509 29.0535 7.13696 29.3424 7.82096L25.9218 9.16375Z" fill="#10273D"/>
<path d="M68.2773 29.5559V21.8408H72.8313V19.0333H60.4074V21.8408H64.9613V29.5559H68.2773ZM77.3638 25.1568V19.0333H74.1584V29.5559H76.988L82.5146 23.4325V29.5559H85.72V19.0333H82.8903L77.3638 25.1568ZM96.5039 25.6431V29.5559H99.7097V19.0333H96.5039V22.8798H91.353V19.0333H88.1476V29.5559H91.353V25.6431H96.5039ZM108.636 29.5559C109.365 29.5559 110.029 29.4897 110.648 29.3128C112.307 28.8486 113.389 27.5 113.389 25.6652C113.389 23.9188 112.461 22.703 110.98 22.1502C110.271 21.8851 109.432 21.8629 108.636 21.8629H105.342V19.0333H102.137V29.5559H108.636ZM108.083 24.3389C108.526 24.3389 108.946 24.3389 109.321 24.4715C109.852 24.6483 110.162 25.0904 110.162 25.621C110.162 26.1737 109.852 26.6379 109.343 26.8589C108.99 27.0137 108.636 27.0137 108.083 27.0137H105.342V24.3389H108.083ZM119.136 25.5768L122.961 29.5559H127.227L121.9 24.0735L127.028 19.0333H123.005L119.136 22.9904H118.252V19.0333H115.048V29.5559H118.252V25.5768H119.136ZM133.822 18.746C129.511 18.746 126.926 21.1776 126.926 24.3167C126.926 27.4559 129.511 29.8876 133.822 29.8876C138.112 29.8876 140.699 27.4559 140.699 24.3167C140.699 21.1776 138.112 18.746 133.822 18.746ZM133.822 27.3233C131.678 27.3233 130.309 26.0411 130.309 24.3167C130.309 22.5925 131.678 21.3324 133.822 21.3324C135.945 21.3324 137.338 22.5925 137.338 24.3167C137.338 26.0411 135.945 27.3233 133.822 27.3233ZM151.374 18.4364H148.168V19.4974C144.145 19.5859 141.735 21.2881 141.735 24.2946C141.735 27.301 144.145 28.8707 148.168 28.9591V30.0203H151.374V28.9591C155.418 28.8707 157.829 27.301 157.829 24.2946C157.829 21.2881 155.418 19.5859 151.374 19.4974V18.4364ZM148.168 26.7043C145.957 26.6158 144.984 25.7095 144.984 24.2946C144.984 22.8798 145.957 21.8629 148.168 21.7746V26.7043ZM151.374 21.7746C153.607 21.8629 154.557 22.8798 154.557 24.2946C154.557 25.7095 153.607 26.6158 151.374 26.7043V21.7746ZM168.493 18.4364H165.287V19.4974C161.264 19.5859 158.855 21.2881 158.855 24.2946C158.855 27.301 161.264 28.8707 165.287 28.9591V30.0203H168.493V28.9591C172.539 28.8707 174.948 27.301 174.948 24.2946C174.948 21.2881 172.539 19.5859 168.493 19.4974V18.4364ZM165.287 26.7043C163.077 26.6158 162.104 25.7095 162.104 24.2946C162.104 22.8798 163.077 21.8629 165.287 21.7746V26.7043ZM168.493 21.7746C170.726 21.8629 171.676 22.8798 171.676 24.2946C171.676 25.7095 170.726 26.6158 168.493 26.7043V21.7746Z" fill="#10273D"/>
</g>
<defs>
<clipPath id="clip0_2333_13698">
<rect width="175" height="46.0022" fill="white"/>
</clipPath>
</defs>
</svg>
