<svg width="256" height="256" viewBox="0 0 256 256" fill="none" xmlns="http://www.w3.org/2000/svg">
<g clip-path="url(#clip0_2333_13722)">
<rect width="256" height="256" rx="48" fill="#FDFDFD"/>
<rect width="256" height="256" fill="#173B57"/>
<path d="M68.4042 148.183V95H25.5996V148.183H34.9401V102.776H59.0636V148.183H68.4042Z" fill="#F3F3F3"/>
<path d="M83.1171 128.474C83.1171 119.378 87.9712 114.904 93.5608 114.904C99.1504 114.904 104.004 119.378 104.004 128.474C104.004 137.571 99.1504 141.972 93.5608 141.972C87.9712 141.972 83.1171 137.571 83.1171 128.474ZM93.5608 107.788C83.9261 107.788 74.0707 114.243 74.0707 128.474C74.0707 142.779 83.9261 149.088 93.5608 149.088C103.195 149.088 113.051 142.779 113.051 128.474C113.051 114.243 103.195 107.788 93.5608 107.788Z" fill="#F3F3F3"/>
<path d="M149.217 115.613V108.718H113.473V115.613H127.005V148.183H135.757V115.613H149.217Z" fill="#F3F3F3"/>
<path d="M158.669 128.524C158.669 119.428 163.523 114.953 169.113 114.953C174.703 114.953 179.557 119.428 179.557 128.524C179.557 137.62 174.703 142.021 169.113 142.021C163.523 142.021 158.669 137.62 158.669 128.524ZM169.113 107.837C159.478 107.837 149.623 114.293 149.623 128.524C149.623 142.828 159.478 149.137 169.113 149.137C178.748 149.137 188.603 142.828 188.603 128.524C188.603 114.293 178.748 107.837 169.113 107.837Z" fill="#F3F3F3"/>
<path d="M220.324 148.183H230.4L214.44 127.864L229.37 108.718H219.367L207.968 124.049H203.187V108.718H194.361V148.183H203.187V130.945H207.306L220.324 148.183Z" fill="#F3F3F3"/>
</g>
<defs>
<clipPath id="clip0_2333_13722">
<rect width="256" height="256" rx="48" fill="white"/>
</clipPath>
</defs>
</svg>
