<svg width="175" height="47" viewBox="0 0 175 47" fill="none" xmlns="http://www.w3.org/2000/svg">
<g clip-path="url(#clip0_2333_13701)">
<path d="M18.5403 31.1844L14.0703 14.7344H17.0003L20.4303 27.3644L24.1003 14.7344H26.8303L30.5203 27.4344L33.9603 14.7344H36.8903L32.4203 31.1744H29.0303L25.4703 18.8944L21.9003 31.1744H18.5403V31.1844ZM38.9003 14.7444H41.6903V31.1744H38.9003V14.7444ZM47.6503 28.5944H54.4303V31.1744H44.9203V14.7444H47.6503V28.5944ZM63.0003 14.7644C65.2803 14.7644 67.1803 15.5644 68.6803 17.1344C69.4299 17.9055 70.0185 18.8181 70.4116 19.8191C70.8048 20.82 70.9947 21.8893 70.9703 22.9644C70.9703 25.2644 70.2003 27.2144 68.6803 28.8044C67.9535 29.5767 67.0719 30.1869 66.0931 30.5953C65.1144 31.0037 64.0605 31.201 63.0003 31.1744H56.4403V14.7444H63.0003V14.7644ZM63.0003 28.6144C63.7152 28.6428 64.4277 28.5142 65.0877 28.2378C65.7476 27.9614 66.339 27.5438 66.8203 27.0144C67.8203 25.9644 68.3203 24.5944 68.3203 22.9844C68.3203 21.3344 67.8203 20.0144 66.8203 18.9444C66.3348 18.421 65.7424 18.0082 65.0833 17.7339C64.4242 17.4595 63.7138 17.3301 63.0003 17.3544H59.2003V28.6144H63.0003ZM85.6603 26.4744C85.6603 27.8244 85.1803 28.9444 84.2003 29.8344C83.2362 30.7255 81.9628 31.2062 80.6503 31.1744H73.5203V14.7444H80.1303C81.5003 14.7444 82.6503 15.1944 83.5903 16.0444C84.0508 16.4489 84.4167 16.9497 84.6621 17.5113C84.9075 18.073 85.0264 18.6817 85.0103 19.2944C85.033 19.9498 84.8901 20.6004 84.5947 21.186C84.2993 21.7715 83.861 22.2731 83.3203 22.6444C84.0334 22.9952 84.6321 23.5415 85.0464 24.2197C85.4607 24.8978 85.6736 25.6798 85.6603 26.4744ZM76.2703 17.2744V21.6044H80.1503C81.3603 21.6044 82.2803 20.6544 82.2803 19.4444C82.2803 18.2344 81.3603 17.2844 80.1503 17.2844H76.2703V17.2744ZM80.6703 28.6344C81.9403 28.6344 82.9403 27.6344 82.9403 26.3444C82.9403 25.0544 81.9403 24.0444 80.6703 24.0444H76.2703V28.6544H80.6703V28.6344ZM90.9903 28.6044H98.3603V31.1744H88.2603V14.7444H98.2503V17.3244H90.9903V21.5844H97.6503V24.1444H91.0003V28.6044H90.9903ZM110.31 31.1744L106.78 25.1844H103.55V31.1844H100.82V14.7344H107.49C108.99 14.7344 110.26 15.2444 111.27 16.2844C111.893 16.8848 112.354 17.6326 112.611 18.4585C112.867 19.2845 112.912 20.1618 112.739 21.0094C112.567 21.8569 112.183 22.6472 111.624 23.3071C111.065 23.967 110.348 24.4751 109.54 24.7844L113.33 31.1644H110.3L110.31 31.1744ZM103.55 17.2744V22.7744H107.47C107.822 22.7679 108.169 22.6917 108.492 22.5501C108.814 22.4085 109.105 22.2044 109.348 21.9495C109.59 21.6946 109.78 21.3941 109.906 21.0654C110.032 20.7366 110.091 20.3862 110.08 20.0344C110.096 19.3243 109.831 18.6366 109.342 18.1214C108.853 17.6062 108.18 17.3053 107.47 17.2844H103.55V17.2744ZM124.9 31.1744L121.38 25.1844H118.15V31.1844H115.42V14.7244H122.09C123.59 14.7244 124.86 15.2344 125.87 16.2844C126.49 16.886 126.949 17.6339 127.204 18.4593C127.459 19.2847 127.503 20.1611 127.331 21.0077C127.158 21.8543 126.776 22.6439 126.218 23.3039C125.661 23.9639 124.946 24.473 124.14 24.7844L127.93 31.1644H124.89L124.9 31.1744ZM118.15 17.2744V22.7744H122.07C122.423 22.768 122.771 22.6914 123.094 22.5492C123.417 22.407 123.708 22.2019 123.951 21.946C124.194 21.6901 124.384 21.3884 124.509 21.0585C124.634 20.7285 124.692 20.377 124.68 20.0244C124.697 19.316 124.433 18.6298 123.946 18.1149C123.459 17.5999 122.789 17.2979 122.08 17.2744H118.15ZM129.93 14.7344H132.66V31.1744H129.93V14.7344ZM138.61 28.6044H146V31.1744H135.9V14.7444H145.88V17.3244H138.62V21.5844H145.29V24.1444H138.62V28.6044H138.61ZM147.9 27.4344L150.25 26.0744C150.93 27.9344 152.29 28.8444 154.38 28.8444C156.46 28.8444 157.48 27.9644 157.48 26.6844C157.48 25.9944 157.18 25.5044 156.65 25.1644C155.72 24.6423 154.725 24.2455 153.69 23.9844C152.09 23.5144 151.31 23.2144 150.19 22.4844C149.665 22.116 149.242 21.6196 148.962 21.0421C148.682 20.4646 148.554 19.8252 148.59 19.1844C148.59 17.7144 149.1 16.5844 150.16 15.7244C151.224 14.8546 152.567 14.3998 153.94 14.4444C155.155 14.408 156.354 14.7312 157.386 15.3734C158.417 16.0156 159.237 16.9483 159.74 18.0544L157.44 19.3644C157.17 18.6639 156.687 18.0655 156.059 17.6531C155.432 17.2406 154.691 17.0348 153.94 17.0644C152.34 17.0644 151.33 17.8644 151.33 19.1244C151.33 20.3244 152.13 20.9044 154.69 21.6744C155.33 21.8844 155.79 22.0344 156.07 22.1544C156.38 22.2544 156.79 22.4144 157.3 22.6244C157.84 22.8244 158.26 23.0844 158.51 23.2844C159.4 23.9744 160.34 25.0844 160.23 26.6644C160.255 27.342 160.12 28.0159 159.835 28.6311C159.55 29.2463 159.123 29.7854 158.59 30.2044C157.364 31.1177 155.857 31.574 154.33 31.4944C151.1 31.4744 148.75 29.9544 147.89 27.4344H147.9Z" fill="#10273D"/>
</g>
<defs>
<clipPath id="clip0_2333_13701">
<rect width="147" height="18" fill="white" transform="translate(14 14.0044)"/>
</clipPath>
</defs>
</svg>
