<svg width="400" height="312" viewBox="0 0 400 312" fill="none" xmlns="http://www.w3.org/2000/svg">
<g clip-path="url(#clip0_2344_11593)">
<rect width="400" height="312" fill="#F2F4F8"/>
<g clip-path="url(#clip1_2344_11593)">
<mask id="mask0_2344_11593" style="mask-type:alpha" maskUnits="userSpaceOnUse" x="115" y="106" width="196" height="81">
<path d="M115 186.001H310.355V106.033H115V186.001Z" fill="white"/>
</mask>
<g mask="url(#mask0_2344_11593)">
<path d="M134.263 126.001C138.347 126.001 139.63 128.929 140.706 131.853C141.158 133.095 151.769 162.152 152.088 163.024C152.173 163.268 152.115 163.667 151.741 163.812C151.365 163.954 145.852 166.098 145.547 166.212C145.241 166.329 144.899 166.159 144.789 165.854C144.674 165.554 142.386 159.219 142.129 158.512H126.402C126.155 159.219 123.839 165.567 123.735 165.854C123.63 166.146 123.302 166.343 122.976 166.212C122.65 166.084 117.116 163.94 116.786 163.812C116.469 163.688 116.324 163.327 116.434 163.024C116.825 161.936 127.275 133.345 127.807 131.853C128.845 128.973 130.171 126.001 134.263 126.001ZM115.594 177.993C115.264 177.993 115 178.269 115 178.604V185.395C115 185.731 115.264 186.001 115.594 186.001H152.916C153.254 186.001 153.518 185.731 153.518 185.395V178.604C153.518 178.269 153.254 177.993 152.916 177.993H115.594ZM134.227 135.489L128.911 151.452H139.63L134.296 135.489H134.227ZM213.991 161.663C213.209 161.927 212.692 161.991 212.077 161.991C210.806 161.991 210.101 161.489 210.101 160.185C210.101 158.826 210.996 158.372 212.754 158.372C213.183 158.372 213.606 158.434 213.803 158.503V159.476C213.803 160.525 213.86 161.213 213.991 161.663ZM218.51 163.219C217.572 161.794 217.326 160.954 217.326 159.157V155.508C217.326 153.543 217.097 152.834 216.578 152.118C215.855 151.103 214.65 150.662 212.435 150.662C210.868 150.662 209.346 150.832 207.872 151.209L208.405 153.802C209.401 153.662 210.445 153.543 211.182 153.543C213.535 153.543 213.803 153.883 213.803 155.648V156.306C213.28 156.166 212.692 156.065 212.011 156.065C208.469 156.065 206.598 157.798 206.598 160.667C206.598 163.357 208.598 164.824 211.033 164.824C211.942 164.824 212.892 164.656 213.645 164.349C214.099 164.151 214.297 164.034 214.884 163.653C215.238 164.167 215.947 164.693 216.236 164.792L218.51 163.219ZM253.542 161.663C252.755 161.927 252.247 161.991 251.628 161.991C250.352 161.991 249.638 161.489 249.638 160.185C249.638 158.826 250.544 158.372 252.307 158.372C252.736 158.372 253.161 158.434 253.354 158.503V159.476C253.354 160.525 253.409 161.213 253.542 161.663ZM258.066 163.219C257.12 161.794 256.879 160.954 256.879 159.157V155.508C256.879 153.543 256.645 152.834 256.122 152.118C255.408 151.103 254.201 150.662 251.979 150.662C250.414 150.662 248.883 150.832 247.409 151.209L247.935 153.802C248.933 153.662 249.98 153.543 250.737 153.543C253.076 153.543 253.354 153.883 253.354 155.648V156.306C252.83 156.166 252.247 156.065 251.552 156.065C248.006 156.065 246.128 157.798 246.128 160.667C246.128 163.357 248.132 164.824 250.579 164.824C251.499 164.824 252.44 164.656 253.186 164.349C253.647 164.151 253.838 164.034 254.426 163.653C254.784 164.167 255.493 164.693 255.784 164.792L258.066 163.219ZM285.64 164.518C285.64 164.518 283.698 160.38 283.223 159.439C282.688 158.379 282.193 157.647 281.1 157.383V157.323C281.832 157.183 282.415 156.74 283.053 155.386C283.657 154.066 283.836 153.782 284.192 153.467C284.541 153.155 285.018 153.267 285.018 153.267L285.197 150.828C284.69 150.759 284.127 150.757 283.547 150.789C282.583 150.846 282.085 151.124 281.61 151.601C281.238 151.966 280.985 152.512 280.673 153.139C280.343 153.823 280.081 154.374 279.737 155.069C279.395 155.783 279.234 156.104 278.314 156.104H277.715V145.296H274.169V164.518H277.715V158.992L278.199 158.982C279.216 158.982 279.395 159.237 279.932 160.309C280.561 161.587 281.766 164.518 281.766 164.518H285.64ZM185.744 164.518H189.837L183.647 145.618C182.995 145.4 182.189 145.264 181.329 145.264C180.39 145.264 180.055 145.388 179.32 145.618L172.77 164.518H176.697C176.697 164.518 177.227 162.861 177.851 160.807H184.636C185.242 162.859 185.744 164.518 185.744 164.518ZM178.847 157.637C178.847 157.637 179.981 153.844 180.158 153.254C180.608 151.725 181.292 149.297 181.292 149.297H181.404C181.404 149.297 182.038 151.812 182.451 153.226C182.607 153.788 183.69 157.637 183.69 157.637H178.847ZM224.551 155.475C223.301 155.475 222.284 156.497 222.284 157.748C222.284 159.008 223.301 160.022 224.551 160.022C225.805 160.022 226.817 159.008 226.817 157.748C226.817 156.497 225.805 155.475 224.551 155.475ZM194.696 145.296H191.14V164.516H194.696V145.296ZM265.33 153.717C267.295 153.759 267.538 154.165 267.538 155.813V164.518H271.061V155.508C271.061 153.543 270.831 152.834 270.308 152.118C269.585 151.103 268.164 150.662 265.761 150.662C263.384 150.662 261.869 150.915 259.92 151.496V164.518H263.48V153.883C264.414 153.747 264.579 153.717 265.33 153.717ZM203.489 144.954C201.267 144.954 200.057 145.395 199.346 146.407C198.822 147.126 198.591 147.851 198.591 149.82V151.496H196.826V154.369H198.591V164.518H202.116L202.107 154.369H205.621V151.496H202.107L202.116 149.955C202.116 148.193 202.385 147.851 204.739 147.851C204.994 147.851 205.281 147.865 205.586 147.888L206.142 145.126C205.272 145.012 204.381 144.954 203.489 144.954ZM231.774 145.133C232.984 145.062 235.688 144.961 237.384 144.961C237.694 144.961 238.015 144.963 238.336 144.98C241.671 144.98 243.583 147.408 243.583 150.258C243.583 152.198 242.695 153.485 240.613 154.252C243.062 154.794 244.345 156.706 244.345 159.044C244.345 160.761 243.861 162.125 242.973 163.054C241.82 164.188 240.076 164.824 237.753 164.824C235.688 164.824 233.094 164.759 231.774 164.681V145.133ZM237.384 148.282C236.796 148.282 236.069 148.294 235.348 148.319V152.935H237.386C238.194 152.935 238.844 152.71 239.286 152.276C239.709 151.867 239.929 151.289 239.929 150.603C239.929 149.127 239.13 148.291 237.645 148.282H237.384ZM237.457 161.509H237.611C239.463 161.509 240.597 160.525 240.611 158.542C240.592 157.83 240.319 157.174 239.83 156.699C239.296 156.162 238.538 155.882 237.65 155.882H235.348V161.489C235.997 161.503 236.714 161.505 237.457 161.509Z" fill="#EF3124"/>
</g>
</g>
</g>
<defs>
<clipPath id="clip0_2344_11593">
<rect width="400" height="312" fill="white"/>
</clipPath>
<clipPath id="clip1_2344_11593">
<rect width="170.64" height="60" fill="white" transform="translate(115 126)"/>
</clipPath>
</defs>
</svg>
