<svg width="1920" height="708" viewBox="0 0 1920 708" fill="none" xmlns="http://www.w3.org/2000/svg">
<g opacity="0.7">
<mask id="mask0" mask-type="alpha" maskUnits="userSpaceOnUse" x="-63" y="0" width="2052" height="708">
<path d="M990.472 0.687317H1988.17V470.668L-62.5 708L-17 470.668H864.165L990.472 0.687317Z" fill="#C4C4C4"/>
</mask>
<g mask="url(#mask0)">
<circle cx="321.253" cy="539.151" r="1.37151" transform="rotate(-120.086 321.253 539.151)" fill="#000C2E"/>
<circle cx="311.16" cy="517.856" r="3.07384" transform="rotate(-120.086 311.16 517.856)" fill="#000C2E"/>
<circle cx="270.395" cy="545.616" r="1.58401" transform="rotate(-120.086 270.395 545.616)" fill="#000C2E"/>
<circle cx="314.314" cy="569.281" r="0.64734" transform="rotate(-120.086 314.314 569.281)" fill="#000C2E"/>
<circle cx="299.282" cy="536.392" r="0.64734" transform="rotate(-120.086 299.282 536.392)" fill="#000C2E"/>
<circle cx="286.568" cy="545.38" r="0.64734" transform="rotate(-120.086 286.568 545.38)" fill="#000C2E"/>
<circle cx="319.615" cy="514.54" r="0.64734" transform="rotate(-120.086 319.615 514.54)" fill="#000C2E"/>
<circle cx="932.736" cy="475.737" r="1.22804" transform="rotate(135.191 932.736 475.737)" fill="#4D556D"/>
<circle cx="913.633" cy="472.733" r="0.448088" transform="rotate(135.191 913.633 472.733)" fill="#4D556D"/>
<path d="M2015.75 -100.889C1395.41 -199.733 1431.95 430.604 1094.15 505.277C823.916 565.015 449.879 377.818 610.338 154.444C770.798 -68.9298 1386.43 -145.57 1543.64 21.6699C1700.85 188.91 721.859 598.479 389.737 542.868C57.6161 487.258 14.9467 295.488 -68.5162 311.513" stroke="white" stroke-width="4"/>
<path d="M2000.37 -85.6151C1380.03 -184.458 1416.57 445.878 1078.77 520.551C808.537 580.289 434.5 393.092 594.959 169.718C755.418 -53.6555 1371.05 -130.296 1528.26 36.9442C1685.47 204.184 706.479 613.753 374.358 558.143C42.2369 502.532 -0.432463 310.762 -83.8953 326.787" stroke="white" stroke-width="3"/>
<path d="M1984.99 -70.3408C1364.66 -169.184 1401.19 461.153 1063.39 535.825C793.157 595.563 419.121 408.366 579.58 184.993C740.039 -38.3812 1355.67 -115.021 1512.88 52.2185C1670.09 219.458 691.1 629.027 358.979 573.417C26.8578 517.806 -15.8116 326.036 -99.2745 342.062" stroke="white" stroke-width="2"/>
<path d="M1969.61 -55.0665C1349.28 -153.91 1385.81 476.427 1048.01 551.099C777.778 610.837 403.742 423.641 564.201 200.267C724.66 -23.1069 1340.29 -99.7472 1497.5 67.4928C1654.71 234.733 675.721 644.302 343.6 588.691C11.4786 533.081 -31.1908 341.311 -114.654 357.336" stroke="white"/>
</g>
</g>
</svg>
