<svg width="991" height="1154" viewBox="0 0 991 1154" fill="none" xmlns="http://www.w3.org/2000/svg">
<mask id="mask0" mask-type="alpha" maskUnits="userSpaceOnUse" x="0" y="0" width="992" height="1154">
<rect width="992" height="1154" fill="#C4C4C4"/>
</mask>
<g mask="url(#mask0)">
<path d="M-38.6606 -92.0836C23.7307 65.2804 129.964 413.682 293 281C527.437 90.2101 925.263 227.572 972 697C998.439 962.562 434.5 1557.5 761 1581.5C1087.5 1605.5 1247.13 1331.01 1209.25 1236.74" stroke="#4D556D" stroke-width="4"/>
<path d="M-51.0005 -88.1484C11.3909 69.2156 117.624 417.617 280.66 284.935C515.097 94.1453 912.923 231.508 959.66 700.935C986.099 966.497 422.16 1561.44 748.66 1585.44C1075.16 1609.44 1234.79 1334.94 1196.91 1240.68" stroke="#4D556D" stroke-width="3"/>
<path d="M-63.3403 -84.2133C-0.948952 73.1508 105.284 421.552 268.32 288.871C502.757 98.0805 900.583 235.443 947.32 704.871C973.759 970.432 409.82 1565.37 736.32 1589.37C1062.82 1613.37 1222.45 1338.88 1184.57 1244.61" stroke="#4D556D" stroke-width="2"/>
<path d="M-75.6802 -80.2781C-13.2888 77.086 92.9445 425.488 255.98 292.806C490.417 102.016 888.244 239.378 934.98 708.806C961.419 974.368 397.48 1569.31 723.98 1593.31C1050.48 1617.31 1210.11 1342.81 1172.23 1248.55" stroke="#4D556D"/>
<circle cx="795.532" cy="1142.84" r="3.7892" transform="rotate(-89.2819 795.532 1142.84)" fill="#4D556D"/>
</g>
</svg>
