<svg width="991" height="385" viewBox="0 0 991 385" fill="none" xmlns="http://www.w3.org/2000/svg">
<mask id="mask0" mask-type="alpha" maskUnits="userSpaceOnUse" x="0" y="0" width="991" height="385">
<rect width="991" height="385" fill="#000C2E"/>
</mask>
<g mask="url(#mask0)">
<mask id="mask1" mask-type="alpha" maskUnits="userSpaceOnUse" x="351" y="0" width="640" height="385">
<path d="M991 0H643.044L351 385H991V0Z" fill="#C4C4C4"/>
</mask>
<g mask="url(#mask1)">
<circle cx="690.542" cy="302.542" r="0.511928" transform="rotate(176.571 690.542 302.542)" fill="#B2B6C0"/>
<circle cx="704.142" cy="292.446" r="2.11768" transform="rotate(176.571 704.142 292.446)" fill="#B2B6C0"/>
<circle cx="687.24" cy="294.241" r="2.11768" transform="rotate(176.571 687.24 294.241)" fill="#B2B6C0"/>
<circle cx="701.354" cy="283.354" r="0.334883" transform="rotate(176.571 701.354 283.354)" fill="#B2B6C0"/>
<circle cx="695.817" cy="294.816" r="0.77137" transform="rotate(176.571 695.817 294.816)" fill="#B2B6C0"/>
<circle cx="712.816" cy="283.816" r="0.77137" transform="rotate(176.571 712.816 283.816)" fill="#B2B6C0"/>
<path d="M1299.53 -70.8191C808.102 -149.122 837.042 350.226 569.444 409.381C355.365 456.705 59.056 308.409 186.171 131.454C313.285 -45.501 800.986 -106.215 925.524 26.2715C1050.06 158.758 274.516 513.215 11.412 469.161C-251.692 425.107 -285.495 243.188 -351.613 255.883" stroke="#B2B6C0" stroke-width="4"/>
<path d="M1287.34 -58.7189C795.921 -137.022 824.861 362.327 557.263 421.481C343.184 468.805 46.8749 320.51 173.989 143.554C301.104 -33.4007 788.805 -94.1146 913.343 38.3717C1037.88 170.858 262.335 525.316 -0.769183 481.261C-263.873 437.207 -297.676 255.288 -363.794 267.983" stroke="#B2B6C0" stroke-width="3"/>
<path d="M1275.16 -46.6186C783.739 -124.921 812.68 374.427 545.081 433.582C331.002 480.906 34.6935 332.61 161.808 155.655C288.923 -21.3005 776.623 -82.0144 901.162 50.4719C1025.7 182.958 250.153 537.416 -12.9506 493.362C-276.055 449.307 -309.857 267.389 -375.976 280.084" stroke="#B2B6C0" stroke-width="2"/>
<path d="M1262.98 -34.5185C771.554 -112.821 800.495 386.527 532.896 445.682C318.817 493.006 22.5084 344.71 149.623 167.755C276.738 -9.20035 764.438 -69.9142 888.977 62.5721C1013.52 195.058 237.968 549.516 -25.1356 505.462C-288.24 461.408 -322.042 279.489 -388.161 292.184" stroke="#B2B6C0"/>
</g>
</g>
</svg>
