<svg width="991" height="662" viewBox="0 0 991 662" fill="none" xmlns="http://www.w3.org/2000/svg">
<path d="M1299.53 41.1806C808.102 -37.1223 837.042 462.226 569.444 521.381C355.365 568.705 59.056 420.409 186.171 243.454C313.285 66.4987 800.986 5.78481 925.524 138.271C1050.06 270.757 274.516 625.215 11.412 581.161C-251.692 537.107 -285.495 355.188 -351.613 367.883" stroke="#4D556D" stroke-width="4"/>
<path d="M1287.34 53.2808C795.921 -25.0221 824.861 474.326 557.263 533.481C343.184 580.805 46.8749 432.509 173.989 255.554C301.104 78.5989 788.805 17.885 913.343 150.371C1037.88 282.858 262.335 637.315 -0.769183 593.261C-263.873 549.207 -297.676 367.288 -363.794 379.983" stroke="#4D556D" stroke-width="3"/>
<path d="M1275.16 65.3809C783.74 -12.922 812.68 486.426 545.081 545.581C331.003 592.905 34.6937 444.609 161.808 267.654C288.923 90.699 776.623 29.9851 901.162 162.471C1025.7 294.958 250.154 649.415 -12.9503 605.361C-276.054 561.307 -309.857 379.388 -375.976 392.083" stroke="#4D556D" stroke-width="2"/>
<path d="M1262.98 77.4811C771.554 -0.821766 800.494 498.526 532.896 557.681C318.817 605.005 22.5082 456.709 149.623 279.754C276.737 102.799 764.438 42.0853 888.977 174.572C1013.52 307.058 237.968 661.516 -25.1359 617.461C-288.24 573.407 -322.042 391.488 -388.161 404.183" stroke="#4D556D"/>
<circle cx="741.01" cy="59.7101" r="3.7892" transform="rotate(176.571 741.01 59.7101)" fill="#4D556D"/>
<circle cx="760.152" cy="79.1529" r="1.08979" transform="rotate(176.571 760.152 79.1529)" fill="#4D556D"/>
<circle cx="782.592" cy="64.1345" r="2.1243" transform="rotate(176.571 782.592 64.1345)" fill="#4D556D"/>
<circle cx="772.447" cy="66.9515" r="0.511928" transform="rotate(176.571 772.447 66.9515)" fill="#4D556D"/>
<circle cx="752.54" cy="75.5413" r="0.511928" transform="rotate(176.571 752.54 75.5413)" fill="#4D556D"/>
<circle cx="755.818" cy="62.8189" r="1.71941" transform="rotate(176.571 755.818 62.8189)" fill="#4D556D"/>
<circle cx="774.818" cy="79.8189" r="1.71941" transform="rotate(176.571 774.818 79.8189)" fill="#4D556D"/>
<circle cx="755.642" cy="89.643" r="0.60806" transform="rotate(176.571 755.642 89.643)" fill="#4D556D"/>
<circle cx="741.642" cy="75.643" r="0.60806" transform="rotate(176.571 741.642 75.643)" fill="#4D556D"/>
<circle cx="289.01" cy="535.009" r="3.7892" transform="rotate(176.571 289.01 535.009)" fill="#4D556D"/>
<circle cx="308.152" cy="554.452" r="1.08979" transform="rotate(176.571 308.152 554.452)" fill="#4D556D"/>
<circle cx="330.592" cy="539.433" r="2.1243" transform="rotate(176.571 330.592 539.433)" fill="#4D556D"/>
<circle cx="320.447" cy="542.25" r="0.511928" transform="rotate(176.571 320.447 542.25)" fill="#4D556D"/>
<circle cx="300.54" cy="550.84" r="0.511928" transform="rotate(176.571 300.54 550.84)" fill="#4D556D"/>
<circle cx="303.818" cy="538.118" r="1.71941" transform="rotate(176.571 303.818 538.118)" fill="#4D556D"/>
<circle cx="322.818" cy="555.118" r="1.71941" transform="rotate(176.571 322.818 555.118)" fill="#4D556D"/>
<circle cx="303.642" cy="564.942" r="0.60806" transform="rotate(176.571 303.642 564.942)" fill="#4D556D"/>
<circle cx="289.642" cy="550.942" r="0.60806" transform="rotate(176.571 289.642 550.942)" fill="#4D556D"/>
</svg>
