<svg width="1920" height="670" viewBox="0 0 1920 670" fill="none" xmlns="http://www.w3.org/2000/svg">
<g clip-path="url(#clip0)">
<path d="M2310.13 -588C2289.66 -503.381 2216.12 -317.844 2085.67 -252.653C1922.6 -171.164 2021.64 -331.689 1782.72 -276.837C1591.59 -232.956 1826.23 365.649 1364.23 264.476C902.228 163.303 988.589 569.592 569.194 628.307C149.798 687.022 -470.662 14.2415 -492.073 755.33" stroke="#4D556D" stroke-width="4" stroke-linecap="round" stroke-linejoin="round"/>
<path d="M2306.33 -575.9C2285.87 -491.281 2212.32 -305.744 2081.87 -240.553C1918.81 -159.064 2017.84 -319.589 1778.93 -264.738C1587.79 -220.857 1822.44 377.749 1360.43 276.576C898.431 175.403 984.792 581.691 565.397 640.406C146.001 699.121 -474.459 26.3411 -495.87 767.43" stroke="#4D556D" stroke-width="3" stroke-linecap="round" stroke-linejoin="round"/>
<path d="M2302.53 -563.801C2282.07 -479.181 2208.53 -293.645 2078.08 -228.454C1915.01 -146.965 2014.05 -307.489 1775.13 -252.638C1584 -208.757 1818.64 389.848 1356.64 288.675C894.634 187.503 980.995 593.791 561.6 652.506C142.204 711.221 -478.256 38.4407 -499.667 779.53" stroke="#4D556D" stroke-width="2" stroke-linecap="round" stroke-linejoin="round"/>
<path d="M2298.73 -551.701C2278.27 -467.082 2204.73 -281.545 2074.27 -216.354C1911.21 -134.865 2013.25 -295.39 1774.33 -240.538C1583.2 -196.657 1814.84 401.948 1352.84 300.775C890.833 199.602 977.194 605.891 557.799 664.606C138.404 723.321 -482.057 50.5403 -503.468 791.629" stroke="#4D556D" stroke-width="2" stroke-linecap="round" stroke-linejoin="round"/>
<circle cx="1124.57" cy="279.176" r="3.7892" transform="rotate(150 1124.57 279.176)" fill="#4D556D"/>
<circle cx="1211.01" cy="298.813" r="1.327" transform="rotate(-150 1211.01 298.813)" fill="#4D556D"/>
<circle cx="1097.94" cy="314.545" r="1.13074" transform="rotate(-150 1097.94 314.545)" fill="#4D556D"/>
<circle cx="1139.75" cy="289.865" r="0.761196" transform="rotate(-150 1139.75 289.865)" fill="#4D556D"/>
<circle cx="1116.43" cy="307.04" r="0.761196" transform="rotate(-150 1116.43 307.04)" fill="#4D556D"/>
<circle cx="1175.86" cy="281.395" r="3.7892" transform="rotate(-78.4944 1175.86 281.395)" fill="#4D556D"/>
<circle cx="1543.07" cy="251.339" r="1.327" transform="rotate(-18.4944 1543.07 251.339)" fill="#4D556D"/>
<circle cx="1570.11" cy="239.762" r="0.63293" transform="rotate(-18.4944 1570.11 239.762)" fill="#4D556D"/>
<circle cx="1564.42" cy="259.088" r="1.76391" transform="rotate(-18.4944 1564.42 259.088)" fill="#4D556D"/>
<circle cx="1588.93" cy="225.381" r="3.58324" transform="rotate(-18.4944 1588.93 225.381)" fill="#4D556D"/>
<circle cx="476.206" cy="601.813" r="1.327" transform="rotate(-150 476.206 601.813)" fill="#4D556D"/>
<circle cx="398.957" cy="623.254" r="4.26841" transform="rotate(-150 398.957 623.254)" fill="#4D556D"/>
<circle cx="422.133" cy="617.043" r="0.693656" transform="rotate(-150 422.133 617.043)" fill="#4D556D"/>
<circle cx="440.436" cy="612.042" r="2.95908" transform="rotate(-150 440.436 612.042)" fill="#4D556D"/>
<circle cx="440.938" cy="632.545" r="1.13074" transform="rotate(-150 440.938 632.545)" fill="#4D556D"/>
</g>
<defs>
<clipPath id="clip0">
<rect width="1920" height="670" fill="white"/>
</clipPath>
</defs>
</svg>
