<svg width="82" height="24" viewBox="0 0 82 24" fill="none" xmlns="http://www.w3.org/2000/svg">
<g opacity="0.5" clip-path="url(#clip0_1_11275)">
<path d="M23.1919 0.780488V18C23.1919 20.878 20.8532 23.2195 17.9786 23.2195H5.99287C3.11824 23.2195 0.77956 20.878 0.77956 18V6C0.77956 3.12195 3.11824 0.780488 5.99287 0.780488H23.1919ZM23.9715 0H5.99287C2.67974 0 0 2.68293 0 6V18C0 21.3171 2.67974 24 5.99287 24H17.9786C21.2917 24 23.9715 21.3171 23.9715 18V0Z" fill="#10273D"/>
<path d="M19.8292 9.02442H16.9545L14.2261 12.0488V6.00003H11.9848V7.46344C11.9361 7.36588 11.8387 7.26832 11.7412 7.17076C10.913 6.29271 9.79233 5.90247 8.28193 5.90247C6.57665 5.90247 5.6022 6.68295 5.06625 7.3171C4.43285 8.09759 4.14052 9.21954 4.33541 10.0976C4.87136 12.3903 7.01515 12.7805 8.57427 12.9756C9.84105 13.122 11.0104 13.3659 10.9617 14.4878C10.913 15.6586 9.64616 15.9025 8.76916 15.9025C6.57665 15.9025 6.4792 14.2439 6.4792 14.2439H4.0918C4.14052 14.8781 4.33541 15.8537 5.06625 16.683C5.89453 17.6098 7.16132 18.0976 8.76916 18.0976C10.0359 18.0976 11.1566 17.7073 11.9848 16.9756V17.9512H14.2261V15.122L15.0056 14.2439L17.2469 17.9512H19.8292L16.5648 12.5854L19.8292 9.02442ZM11.9848 11.7073C10.377 10.3903 6.9177 11.2195 6.57665 9.561C6.38176 8.68295 7.25876 7.95125 8.33066 7.95125C9.30511 7.95125 10.3283 8.19515 10.7181 9.561H11.9848V11.7073Z" fill="#10273D"/>
<path d="M29.672 16.4878C29.8181 16.5365 30.013 16.5853 30.2079 16.5853C30.4515 16.5853 30.6464 16.4878 30.7926 16.3414C30.9388 16.1951 31.0362 15.9999 31.0849 15.756L27.918 9.07312H30.013L32.0594 13.9024L33.8621 9.07312H35.8597L33.0338 15.6585C32.6441 16.5365 32.2543 17.1707 31.8645 17.6097C31.426 18.0487 30.9875 18.2439 30.4515 18.2439C30.2567 18.2439 30.1592 18.2439 30.013 18.1951C29.8669 18.1951 29.7694 18.1463 29.7207 18.1463L29.4771 18.0487C29.3796 18.0487 29.2822 18.0487 29.2335 18V16.2926C29.3309 16.3902 29.4771 16.439 29.672 16.4878Z" fill="#10273D"/>
<path d="M39.2713 15.5122C39.1251 15.561 39.0277 15.561 38.8815 15.6097C38.7353 15.6585 38.5892 15.6585 38.3943 15.6585C38.2481 15.7073 38.0532 15.7073 37.907 15.7073C37.5173 15.7073 37.1762 15.6585 36.8839 15.6097C36.5915 15.5122 36.3479 15.4146 36.153 15.2683C35.9581 15.1219 35.812 14.9268 35.7145 14.6829C35.6171 14.439 35.5684 14.1463 35.5684 13.8049V11.4146H37.2736V13.4634C37.2736 13.6585 37.3224 13.8049 37.3711 13.9024C37.4198 14.0488 37.4685 14.1463 37.566 14.1951C37.6634 14.2927 37.7609 14.3415 37.907 14.3415C38.0532 14.3902 38.2481 14.3902 38.443 14.3902C38.7353 14.3902 38.9789 14.3415 39.1251 14.2927C39.32 14.2439 39.4174 14.1463 39.5149 14.0976V11.3658H41.2202V18H39.5149V15.3658C39.4662 15.4146 39.3687 15.4634 39.2713 15.5122Z" fill="#10273D"/>
<path d="M47.8936 17.2195C47.8936 17.3658 47.9423 17.4634 47.991 17.5121C48.0397 17.6097 48.0885 17.6585 48.1372 17.7073C48.1859 17.756 48.2346 17.756 48.2834 17.8048V18.0975H46.3832L46.2857 17.7073C46.237 17.5609 46.237 17.4146 46.237 17.2682L45.7985 17.6097C45.6523 17.7073 45.5062 17.8048 45.36 17.9024C45.2138 17.9999 45.0189 18.0487 44.8241 18.0975C44.6292 18.1463 44.3856 18.1951 44.0932 18.1951C43.8009 18.1951 43.5086 18.1463 43.2649 18.0487C43.0213 17.9512 42.8264 17.8048 42.6315 17.6585C42.4367 17.4634 42.2905 17.2682 42.193 17.0243C42.0956 16.7804 42.0469 16.4878 42.0469 16.1463C42.0469 15.8536 42.0956 15.6097 42.193 15.3658C42.2905 15.1219 42.3879 14.9268 42.5341 14.7317C42.6803 14.5365 42.8752 14.3902 43.1188 14.2926C43.3624 14.1463 43.606 14.0975 43.8983 14.0487L45.5549 13.8048C45.6036 13.8048 45.7011 13.8048 45.7498 13.756C45.8472 13.756 45.896 13.7073 45.9447 13.6585C45.9934 13.6097 46.0421 13.5609 46.0908 13.5121C46.1396 13.4146 46.1396 13.3658 46.1396 13.2195C46.1396 13.1219 46.0908 13.0243 46.0908 12.9268C46.0421 12.8292 45.9934 12.7317 45.896 12.6829C45.7985 12.5853 45.7011 12.5365 45.5549 12.5365C45.4087 12.4878 45.2626 12.4878 45.0677 12.4878C44.8241 12.4878 44.6779 12.5365 44.5317 12.5365C44.3856 12.5853 44.2881 12.6829 44.1907 12.7317C44.0932 12.8292 44.0445 12.9268 43.9958 13.0243L43.8983 13.3658H42.193C42.193 13.2682 42.193 13.1707 42.2418 13.0243C42.2905 12.878 42.3392 12.7317 42.3879 12.5365C42.4367 12.3902 42.5828 12.1951 42.6803 12.0487C42.8264 11.8536 42.9726 11.7073 43.1675 11.5609C43.3624 11.4146 43.606 11.317 43.9471 11.2195C44.2394 11.1219 44.5804 11.0731 45.0189 11.0731C45.6036 11.0731 46.0908 11.1219 46.4806 11.2682C46.8217 11.4146 47.114 11.5609 47.3576 11.756C47.5525 11.9512 47.6987 12.1463 47.7474 12.3902C47.7961 12.6341 47.8449 12.878 47.8449 13.1219V16.6341C47.8936 16.9268 47.8936 17.0731 47.8936 17.2195ZM45.8472 14.9268C45.7498 14.9756 45.6036 15.0243 45.4087 15.0731L44.9702 15.1219C44.7753 15.1707 44.5804 15.2195 44.4343 15.2682C44.2881 15.317 44.1419 15.3658 44.0445 15.4634C43.9471 15.5609 43.8496 15.6585 43.8009 15.756C43.7522 15.8536 43.7034 15.9999 43.7034 16.1951C43.7034 16.3414 43.7522 16.439 43.7522 16.5365C43.8009 16.6341 43.8496 16.7317 43.9471 16.7804C44.0445 16.8292 44.0932 16.9268 44.1907 16.9268C44.2881 16.9756 44.4343 16.9756 44.5317 16.9756C44.5804 16.9756 44.6779 16.9756 44.7753 16.9268C44.8728 16.9268 44.9702 16.878 45.1164 16.8292C45.2138 16.7804 45.36 16.7317 45.4575 16.6341C45.5549 16.5853 45.6523 16.4878 45.7498 16.3414C45.8472 16.2439 45.9447 16.0975 45.9934 15.9024C46.0421 15.756 46.0908 15.5609 46.0908 15.317V14.6341C46.0421 14.8292 45.9447 14.878 45.8472 14.9268Z" fill="#10273D"/>
<path d="M52.7179 13.2682C52.6692 13.1219 52.5717 13.0243 52.523 12.9268C52.4256 12.8292 52.3281 12.7804 52.182 12.7316C52.0358 12.6828 51.8896 12.6828 51.6947 12.6828C51.4024 12.6828 51.2075 12.7316 51.0126 12.878C50.8177 13.0243 50.7203 13.1707 50.6228 13.3658C50.5254 13.5609 50.4767 13.8048 50.4279 14.0487C50.3792 14.2926 50.3792 14.4877 50.3792 14.7316C50.3792 14.9268 50.3792 15.1707 50.4279 15.4146C50.4767 15.6585 50.5254 15.8536 50.6228 16.0975C50.7203 16.2926 50.8177 16.4877 51.0126 16.5853C51.2075 16.7316 51.4024 16.7804 51.7435 16.7804C51.9383 16.7804 52.1332 16.7316 52.2794 16.6341C52.4256 16.5365 52.523 16.4389 52.6205 16.3414C52.7179 16.195 52.8153 16.0975 52.8641 15.9511C52.9128 15.8048 52.9128 15.7072 52.9128 15.6097H54.7155C54.7155 15.7072 54.7155 15.8536 54.6668 16.0487C54.6181 16.2438 54.5694 16.3902 54.4719 16.5853C54.3745 16.7804 54.277 16.9755 54.1309 17.1707C53.9847 17.3658 53.7898 17.5609 53.5949 17.7072C53.3513 17.8536 53.1077 17.9999 52.8153 18.0975C52.523 18.195 52.182 18.2438 51.7922 18.2438C51.305 18.2438 50.8664 18.1463 50.4767 17.9999C50.0869 17.8536 49.7458 17.6097 49.5022 17.317C49.2586 17.0243 49.0637 16.6341 48.9175 16.195C48.7714 15.756 48.7227 15.2682 48.7227 14.6828C48.7227 14.0975 48.8201 13.6097 48.9663 13.1707C49.1124 12.7316 49.3073 12.3902 49.5997 12.0975C49.892 11.8048 50.1843 11.5609 50.5741 11.4146C50.9639 11.2682 51.4024 11.1707 51.8409 11.1707C52.0358 11.1707 52.2307 11.2194 52.4743 11.2194C52.6692 11.2682 52.9128 11.317 53.1077 11.3658C53.3026 11.4633 53.4975 11.5609 53.7411 11.6585C53.936 11.8048 54.0821 11.9511 54.277 12.1463C54.4232 12.3414 54.5694 12.5365 54.6668 12.8292C54.7642 13.0731 54.813 13.3658 54.8617 13.7072H53.059C52.8153 13.5609 52.7666 13.4146 52.7179 13.2682Z" fill="#10273D"/>
<path d="M60.6107 11.4146V12.8293H58.6131V18.0488H56.9078V12.7805H54.9102V11.3658H60.6107V11.4146Z" fill="#10273D"/>
<path d="M65.3853 13.8048V11.4146H67.0906V18.0487H65.3853V15.2194H62.8518V18.0487H61.1465V11.4146H62.8518V13.8048H65.3853Z" fill="#10273D"/>
<path d="M70.0138 15.4634L72.4499 11.3658H74.2526V18H72.5473V14H72.4986L70.1599 18H68.2598V11.4146H69.9651L70.0138 15.4634Z" fill="#10273D"/>
<path d="M79.612 11.4146H81.902L79.1735 14.1463L81.9994 17.9999H79.7582L77.8093 15.2194L77.1272 15.9511V18.0487H75.4219V11.4146H77.1272V13.9511L79.612 11.4146Z" fill="#10273D"/>
</g>
<defs>
<clipPath id="clip0_1_11275">
<rect width="82" height="24" fill="white"/>
</clipPath>
</defs>
</svg>
