<svg width="175" height="47" viewBox="0 0 175 47" fill="none" xmlns="http://www.w3.org/2000/svg">
<g clip-path="url(#clip0_2333_13706)">
<path d="M89.3984 36.2957C87.9682 36.2003 86.3191 35.9496 85.0185 35.5729C84.7748 35.5023 83.7661 35.1315 83.5095 35.0138C78.9813 32.9163 75.8268 28.3375 75.8268 23.0254C75.8268 15.7393 81.7545 9.80452 89.0452 9.80452C96.2713 9.80452 102.159 15.6381 102.26 22.8417H107.036C106.934 13.0062 98.9056 5.03503 89.0452 5.03503C79.1261 5.03503 71.0526 13.1038 71.0526 23.0254C71.0526 29.8653 74.8992 35.8142 80.5315 38.8534C81.5485 39.3913 83.0081 39.9457 83.5036 40.0976C85.1091 40.5755 87.0795 40.8933 88.8334 41.0263C89.429 41.071 91.5088 41.0946 92.115 41.0969H125V36.3404H92.1704C91.7337 36.3404 89.8256 36.3239 89.3984 36.2957ZM92.1704 28.8271C91.8231 28.8271 90.0069 28.8154 89.6714 28.7871C89.1029 28.7389 88.279 28.6541 87.7493 28.5329C87.1513 28.3728 86.5899 28.1609 86.3368 28.022C84.563 27.0627 83.3541 25.1865 83.3541 23.0254C83.3541 19.8814 85.9001 17.3319 89.0452 17.3319C92.1245 17.3319 94.6281 19.7814 94.7281 22.8417H99.3163C99.2198 17.2507 94.6622 12.7448 89.0452 12.7448C83.3659 12.7448 78.7624 17.3472 78.7624 23.0254C78.7624 27.0298 81.0576 30.488 84.4005 32.1818C84.9149 32.4831 85.8825 32.7986 86.1579 32.8704C87.1019 33.1187 88.3696 33.2882 89.3984 33.3636C89.7786 33.3953 91.6407 33.4095 92.0338 33.4118V33.4189H124.999V28.8271H92.1704ZM68.1099 41.0793H63.3027V9.81511H56.278V5.00679H68.1099V41.0793ZM51 12.2175V16.841H56.278V41.0793H60.8968V12.2175H51Z" fill="#10273D"/>
<path d="M116.508 5.34248C114.776 5.34248 113.34 6.72318 113.34 8.45583C113.34 10.1885 114.776 11.6245 116.508 11.6245C118.292 11.6245 119.673 10.1885 119.673 8.45583C119.673 6.72318 118.292 5.34248 116.508 5.34248ZM116.508 11.1136C115.077 11.1136 113.845 9.98955 113.845 8.45583C113.845 6.99979 115.077 5.84744 116.508 5.84744C117.937 5.84744 119.163 6.99979 119.163 8.45583C119.163 9.98955 117.937 11.1136 116.508 11.1136Z" fill="#10273D"/>
<path d="M117.711 9.30921C117.711 8.95962 117.659 8.63475 117.259 8.50645C117.76 8.33224 117.809 8.00384 117.809 7.80491C117.809 7.00097 117.08 6.89857 116.78 6.89857H115.399V10.0119H115.974V8.7348H116.428C117.08 8.7348 117.134 9.03495 117.134 9.30921C117.134 9.84007 117.134 9.94012 117.259 10.0119H117.835C117.711 9.88597 117.76 9.78827 117.711 9.30921ZM116.654 8.28045H115.974V7.29995H116.556C116.958 7.29995 117.232 7.42707 117.232 7.80491C117.232 8.00384 117.134 8.28045 116.654 8.28045Z" fill="#10273D"/>
</g>
<defs>
<clipPath id="clip0_2333_13706">
<rect width="74" height="36.0901" fill="white" transform="translate(51 5.00659)"/>
</clipPath>
</defs>
</svg>
