<svg width="175" height="47" viewBox="0 0 175 47" fill="none" xmlns="http://www.w3.org/2000/svg">
<g clip-path="url(#clip0_2333_13705)">
<path d="M43.8423 3.00041C46.5644 3.00041 47.4197 4.95285 48.1374 6.90222C48.4388 7.73002 55.5126 27.1014 55.7252 27.6828C55.7819 27.845 55.7436 28.1113 55.4942 28.2076C55.2433 28.3025 51.5679 29.7316 51.3644 29.8082C51.1609 29.8862 50.9329 29.773 50.8595 29.5695C50.783 29.369 49.2574 25.1459 49.086 24.6746H38.6016C38.4364 25.1459 36.8925 29.3782 36.8236 29.5695C36.7533 29.7638 36.5345 29.8954 36.3172 29.8082C36.0999 29.7225 32.4108 28.2933 32.1904 28.2076C31.9793 28.125 31.8829 27.8848 31.9563 27.6828C32.2164 26.9575 39.1831 7.8968 39.5381 6.90222C40.2297 4.98192 41.1141 3.00041 43.8423 3.00041ZM31.3963 37.6623C31.176 37.6623 31 37.8459 31 38.0693V42.5969C31 42.8203 31.176 43.0009 31.3963 43.0009H56.2776C56.5026 43.0009 56.6785 42.8203 56.6785 42.5969V38.0693C56.6785 37.8459 56.5026 37.6623 56.2776 37.6623H31.3963ZM43.8178 9.32594L40.2741 19.9679H47.4197L43.8637 9.32594H43.8178ZM96.9942 26.7755C96.4724 26.9514 96.1281 26.9943 95.7181 26.9943C94.8704 26.9943 94.4006 26.6592 94.4006 25.7901C94.4006 24.8842 94.9974 24.5813 96.1694 24.5813C96.4556 24.5813 96.7371 24.6226 96.8687 24.6685V25.3172C96.8687 26.0165 96.907 26.4755 96.9942 26.7755ZM100.007 27.8129C99.3812 26.8627 99.2174 26.3026 99.2174 25.1046V22.6717C99.2174 21.3619 99.0644 20.8891 98.7186 20.4117C98.2366 19.7354 97.4333 19.4416 95.9567 19.4416C94.9117 19.4416 93.8972 19.5548 92.9149 19.8057L93.2699 21.5348C93.9339 21.4414 94.6301 21.3619 95.1213 21.3619C96.6897 21.3619 96.8687 21.5883 96.8687 22.765V23.2041C96.5198 23.1108 96.1281 23.0435 95.6737 23.0435C93.3127 23.0435 92.0657 24.1987 92.0657 26.1114C92.0657 27.9047 93.3984 28.8824 95.0219 28.8824C95.6278 28.8824 96.2612 28.7707 96.7631 28.5657C97.0661 28.4341 97.1977 28.3561 97.5894 28.1021C97.825 28.4448 98.2978 28.7952 98.4906 28.861L100.007 27.8129ZM123.361 26.7755C122.836 26.9514 122.498 26.9943 122.085 26.9943C121.234 26.9943 120.759 26.6592 120.759 25.7901C120.759 24.8842 121.363 24.5813 122.538 24.5813C122.824 24.5813 123.107 24.6226 123.236 24.6685V25.3172C123.236 26.0165 123.272 26.4755 123.361 26.7755ZM126.377 27.8129C125.747 26.8627 125.586 26.3026 125.586 25.1046V22.6717C125.586 21.3619 125.43 20.8891 125.081 20.4117C124.605 19.7354 123.8 19.4416 122.319 19.4416C121.276 19.4416 120.255 19.5548 119.273 19.8057L119.623 21.5348C120.289 21.4414 120.986 21.3619 121.491 21.3619C123.051 21.3619 123.236 21.5883 123.236 22.765V23.2041C122.887 23.1108 122.498 23.0435 122.035 23.0435C119.671 23.0435 118.419 24.1987 118.419 26.1114C118.419 27.9047 119.755 28.8824 121.386 28.8824C121.999 28.8824 122.627 28.7707 123.124 28.5657C123.432 28.4341 123.559 28.3561 123.95 28.1021C124.189 28.4448 124.662 28.7952 124.856 28.861L126.377 27.8129ZM144.76 28.6789C144.76 28.6789 143.466 25.9201 143.149 25.2928C142.792 24.5858 142.462 24.0977 141.733 23.9218V23.882C142.222 23.7887 142.61 23.4933 143.036 22.5906C143.438 21.7107 143.557 21.521 143.794 21.3114C144.027 21.1033 144.345 21.1783 144.345 21.1783L144.465 19.5517C144.127 19.5058 143.752 19.5043 143.365 19.5257C142.722 19.564 142.39 19.7491 142.073 20.0674C141.825 20.3107 141.657 20.6749 141.449 21.0926C141.228 21.5486 141.054 21.9158 140.825 22.3794C140.597 22.8553 140.489 23.0695 139.876 23.0695H139.476V15.8642H137.112V28.6789H139.476V24.9944L139.799 24.9883C140.477 24.9883 140.597 25.1581 140.955 25.8727C141.374 26.725 142.177 28.6789 142.177 28.6789H144.76ZM78.163 28.6789H80.8912L76.7644 16.0784C76.3299 15.933 75.7928 15.8427 75.219 15.8427C74.5932 15.8427 74.3698 15.9254 73.8801 16.0784L69.5132 28.6789H72.1312C72.1312 28.6789 72.4847 27.5742 72.9009 26.2047H77.4239C77.8279 27.5726 78.163 28.6789 78.163 28.6789ZM73.5649 24.0916C73.5649 24.0916 74.3208 21.5623 74.4386 21.1691C74.7385 20.15 75.1945 18.5312 75.1945 18.5312H75.2695C75.2695 18.5312 75.6918 20.2082 75.9672 21.1507C76.0713 21.5256 76.7935 24.0916 76.7935 24.0916H73.5649ZM104.034 22.6502C103.2 22.6502 102.523 23.3311 102.523 24.1651C102.523 25.0051 103.2 25.6814 104.034 25.6814C104.87 25.6814 105.545 25.0051 105.545 24.1651C105.545 23.3311 104.87 22.6502 104.034 22.6502ZM84.1304 15.8642H81.7603V28.6774H84.1304V15.8642ZM131.22 21.4782C132.53 21.5057 132.692 21.7765 132.692 22.8752V28.6789H135.041V22.6717C135.041 21.3619 134.888 20.8891 134.539 20.4117C134.057 19.7354 133.11 19.4416 131.508 19.4416C129.922 19.4416 128.913 19.6099 127.613 19.997V28.6789H129.987V21.5883C130.609 21.4981 130.72 21.4782 131.22 21.4782ZM89.9923 15.6362C88.5112 15.6362 87.7048 15.9299 87.2305 16.6047C86.8816 17.0837 86.7271 17.5672 86.7271 18.88V19.997H85.5504V21.9127H86.7271V28.6789H89.0773L89.0712 21.9127H91.4138V19.997H89.0712L89.0773 18.9703C89.0773 17.7952 89.2563 17.5672 90.8263 17.5672C90.9961 17.5672 91.1874 17.5764 91.3909 17.5917L91.7612 15.7509C91.1812 15.6744 90.5876 15.6362 89.9923 15.6362ZM108.85 15.7555C109.656 15.7081 111.458 15.6408 112.589 15.6408C112.796 15.6408 113.01 15.6423 113.224 15.653C115.447 15.653 116.722 17.2719 116.722 19.1723C116.722 20.4652 116.13 21.3236 114.742 21.8347C116.375 22.1958 117.23 23.4704 117.23 25.0296C117.23 26.1741 116.907 27.083 116.315 27.7027C115.547 28.4586 114.384 28.8824 112.836 28.8824C111.458 28.8824 109.729 28.8396 108.85 28.7876V15.7555ZM112.589 17.8548C112.197 17.8548 111.712 17.8625 111.232 17.8793V20.9564H112.591C113.129 20.9564 113.562 20.8064 113.858 20.5173C114.139 20.2449 114.286 19.8593 114.286 19.4018C114.286 18.4179 113.754 17.861 112.764 17.8548H112.589ZM112.638 26.6729H112.741C113.975 26.6729 114.731 26.0165 114.741 24.6945C114.728 24.2201 114.546 23.7825 114.22 23.4658C113.864 23.1077 113.359 22.9211 112.767 22.9211H111.232V26.6592C111.665 26.6683 112.142 26.6699 112.638 26.6729Z" fill="#10273D"/>
</g>
<defs>
<clipPath id="clip0_2333_13705">
<rect width="113.76" height="40" fill="white" transform="translate(31 3)"/>
</clipPath>
</defs>
</svg>
