<svg width="175" height="47" viewBox="0 0 175 47" fill="none" xmlns="http://www.w3.org/2000/svg">
<g clip-path="url(#clip0_2333_13703)">
<path fill-rule="evenodd" clip-rule="evenodd" d="M109.714 14.6514H113.571V17.8657H109.714V14.6514Z" fill="#10273D"/>
<path fill-rule="evenodd" clip-rule="evenodd" d="M115.5 28.7939H119.357V32.0082H115.5V28.7939Z" fill="#10273D"/>
<path fill-rule="evenodd" clip-rule="evenodd" d="M127.095 19.1516H130.286V21.7231H126.943C126.3 21.7231 125.155 22.2316 125.143 23.6516V32.0088H121.286V23.3598C121.286 22.4051 121.597 21.4788 122.196 20.6842C122.704 19.9899 123.393 19.5419 124.259 19.3374C124.813 19.2076 125.871 19.1516 127.095 19.1516ZM113.571 19.1516V32.0088H109.714V19.1516H113.571ZM71.8667 19.1516C73.0933 19.1516 73.8236 19.2603 74.4163 19.4756C75.0218 19.6762 75.5888 19.9835 76.0196 20.4014C76.5827 20.96 76.9504 21.4749 77.241 22.1705C77.4293 22.8159 77.5843 22.9792 77.5843 24.7284V32.0088H68.0957C67.0427 32.0088 66.135 31.7844 65.4008 31.0799C64.6654 30.3779 64.29 29.1044 64.29 28.0308C64.29 26.8968 64.7104 25.9312 65.3873 25.2022C66.0643 24.4559 66.6525 24.3074 67.6759 24.3074L73.9431 24.3029L73.9328 23.5655C73.992 22.8693 73.2263 21.7385 72.0975 21.7269L70.3811 21.7192L65.3571 21.7327V19.1516H71.8667ZM53.1428 14.0088V19.1581H57.6068C59.124 19.2191 60.402 19.8749 61.4093 21.1831C62.346 22.4019 62.8153 23.8657 62.8153 25.5436C62.8153 27.2928 62.346 28.8016 61.4228 30.0783C60.4174 31.4572 59.1407 32.0088 57.5631 32.0088H49.3307V14.0088H53.1428ZM98.1428 14.0088V25.6091L103.193 19.2191H107.773L102.346 25.613L107.786 32.0088H103.167L98.1428 25.6156V32.0088H94.2857V14.0088H98.1428ZM86.9533 19.1516C88.1265 19.1516 88.9866 19.2069 89.5157 19.3374C90.3469 19.5419 91.0052 19.9899 91.4918 20.6836C92.0627 21.4781 92.3494 22.3595 92.3494 23.3141L92.3571 32.0088H88.5L88.5141 23.7725C88.507 21.653 86.3702 21.7115 86.3702 21.7115L83.3571 21.7166V32.0088L79.5 31.9934V19.1516H86.9533ZM136.116 19.1516L136.102 27.3879C136.11 29.5074 138.247 29.4489 138.247 29.4489L141.259 29.4438V19.1516L145.116 19.1671V32.0088H137.664C136.491 32.0088 135.63 31.9535 135.101 31.823C134.269 31.6186 133.612 31.1705 133.125 30.4769C132.554 29.6823 132.267 28.8009 132.267 27.8463L132.259 19.1516H136.116ZM56.2832 21.7231H53.1236V29.4374H56.4497C57.2963 29.4374 57.9771 29.0471 58.4914 28.2886C59.0173 27.5281 59.2821 26.63 59.2821 25.6316C59.2821 24.6044 59.0051 23.6921 58.4336 22.904C57.8678 22.1094 57.1581 21.7231 56.2832 21.7231ZM73.9155 26.8659L68.9899 26.8743C68.9899 26.8743 68.3503 26.8814 68.0198 27.1533C67.7087 27.4226 67.5043 27.7865 67.5043 28.2314C67.5043 28.6299 67.7016 28.9501 67.9993 29.204C68.3117 29.4618 68.556 29.4367 68.9475 29.4367H73.9328L73.9155 26.8659Z" fill="#10273D"/>
<path fill-rule="evenodd" clip-rule="evenodd" d="M38.3571 14.0088H45.4285V17.8659H38.3571V14.0088Z" fill="#10273D"/>
<path fill-rule="evenodd" clip-rule="evenodd" d="M34.5 21.0809H45.4285V24.938H34.5V21.0809Z" fill="#10273D"/>
<path fill-rule="evenodd" clip-rule="evenodd" d="M30 28.1513H45.4286V32.0085H30V28.1513Z" fill="#10273D"/>
</g>
<defs>
<clipPath id="clip0_2333_13703">
<rect width="115.071" height="18" fill="white" transform="translate(30 14.0088)"/>
</clipPath>
</defs>
</svg>
