<svg width="40" height="40" viewBox="0 0 40 40" fill="none" xmlns="http://www.w3.org/2000/svg">
<path d="M8 8C8 5.79086 9.79086 4 12 4H21.1716C21.9672 4 22.7303 4.31607 23.2929 4.87868L31.1213 12.7071C31.6839 13.2697 32 14.0328 32 14.8284V32C32 34.2091 30.2091 36 28 36H19.4857C19.9929 35.3858 20.4348 34.7156 20.8006 34H28C29.1046 34 30 33.1046 30 32V16H23C21.3431 16 20 14.6569 20 13V6H12C10.8954 6 10 6.89543 10 8V18.0448C9.31318 18.1067 8.64456 18.2318 8 18.4141V8ZM22 6.41421V13C22 13.5523 22.4477 14 23 14H29.5858L22 6.41421ZM17.364 35.364C13.8492 38.8787 8.15078 38.8787 4.63605 35.364C1.12132 31.8492 1.12132 26.1508 4.63605 22.636C8.15078 19.1213 13.8492 19.1213 17.364 22.636C20.8787 26.1508 20.8787 31.8492 17.364 35.364ZM6.8075 34.6067C9.54931 36.6623 13.4562 36.4433 15.9498 33.9498C18.4433 31.4562 18.6623 27.5493 16.6067 24.8075L6.8075 34.6067ZM5.39328 33.1925L15.1925 23.3933C12.4507 21.3377 8.54384 21.5567 6.05026 24.0503C3.55669 26.5438 3.3377 30.4507 5.39328 33.1925Z" fill="#10273D"/>
</svg>
