<svg width="40" height="40" viewBox="0 0 40 40" fill="none" xmlns="http://www.w3.org/2000/svg">
<path d="M12 21C12 20.4477 12.4477 20 13 20C13.5523 20 14 20.4477 14 21C14 21.5523 13.5523 22 13 22C12.4477 22 12 21.5523 12 21ZM13 24C12.4477 24 12 24.4477 12 25C12 25.5523 12.4477 26 13 26C13.5523 26 14 25.5523 14 25C14 24.4477 13.5523 24 13 24ZM12 29C12 28.4477 12.4477 28 13 28C13.5523 28 14 28.4477 14 29C14 29.5523 13.5523 30 13 30C12.4477 30 12 29.5523 12 29ZM17 20C16.4477 20 16 20.4477 16 21C16 21.5523 16.4477 22 17 22H27C27.5523 22 28 21.5523 28 21C28 20.4477 27.5523 20 27 20H17ZM16 25C16 24.4477 16.4477 24 17 24H27C27.5523 24 28 24.4477 28 25C28 25.5523 27.5523 26 27 26H17C16.4477 26 16 25.5523 16 25ZM17 28C16.4477 28 16 28.4477 16 29C16 29.5523 16.4477 30 17 30H27C27.5523 30 28 29.5523 28 29C28 28.4477 27.5523 28 27 28H17ZM12 4C9.79086 4 8 5.79086 8 8V32C8 34.2091 9.79086 36 12 36H28C30.2091 36 32 34.2091 32 32V14.8284C32 14.0328 31.6839 13.2697 31.1213 12.7071L23.2929 4.87868C22.7303 4.31607 21.9672 4 21.1716 4H12ZM10 8C10 6.89543 10.8954 6 12 6H20V13C20 14.6569 21.3431 16 23 16H30V32C30 33.1046 29.1046 34 28 34H12C10.8954 34 10 33.1046 10 32V8ZM29.5858 14H23C22.4477 14 22 13.5523 22 13V6.41421L29.5858 14Z" fill="#10273D"/>
</svg>
