<svg width="82" height="24" viewBox="0 0 82 24" fill="none" xmlns="http://www.w3.org/2000/svg">
<g opacity="0.5" clip-path="url(#clip0_2806_4950)">
<path d="M23.1919 0.780488V18C23.1919 20.878 20.8532 23.2195 17.9786 23.2195H5.99287C3.11824 23.2195 0.77956 20.878 0.77956 18V6C0.77956 3.12195 3.11824 0.780488 5.99287 0.780488H23.1919ZM23.9715 0H5.99287C2.67974 0 0 2.68293 0 6V18C0 21.3171 2.67974 24 5.99287 24H17.9786C21.2917 24 23.9715 21.3171 23.9715 18V0Z" fill="#10273D"/>
<path d="M19.8292 9.02429H16.9545L14.2261 12.0487V5.9999H11.9848V7.46332C11.9361 7.36576 11.8387 7.2682 11.7412 7.17064C10.913 6.29259 9.79233 5.90234 8.28193 5.90234C6.57665 5.90234 5.6022 6.68283 5.06625 7.31698C4.43285 8.09747 4.14052 9.21942 4.33541 10.0975C4.87136 12.3901 7.01515 12.7804 8.57427 12.9755C9.84105 13.1219 11.0104 13.3658 10.9617 14.4877C10.913 15.6584 9.64616 15.9023 8.76916 15.9023C6.57665 15.9023 6.4792 14.2438 6.4792 14.2438H4.0918C4.14052 14.878 4.33541 15.8536 5.06625 16.6828C5.89453 17.6097 7.16132 18.0975 8.76916 18.0975C10.0359 18.0975 11.1566 17.7072 11.9848 16.9755V17.9511H14.2261V15.1219L15.0056 14.2438L17.2469 17.9511H19.8292L16.5648 12.5853L19.8292 9.02429ZM11.9848 11.7072C10.377 10.3901 6.9177 11.2194 6.57665 9.56088C6.38176 8.68283 7.25876 7.95112 8.33066 7.95112C9.30511 7.95112 10.3283 8.19503 10.7181 9.56088H11.9848V11.7072Z" fill="#10273D"/>
<path d="M29.672 16.4879C29.8181 16.5367 30.013 16.5854 30.2079 16.5854C30.4515 16.5854 30.6464 16.4879 30.7926 16.3415C30.9388 16.1952 31.0362 16.0001 31.0849 15.7562L27.918 9.07324H30.013L32.0594 13.9025L33.8621 9.07324H35.8597L33.0338 15.6586C32.6441 16.5367 32.2543 17.1708 31.8645 17.6098C31.426 18.0489 30.9875 18.244 30.4515 18.244C30.2567 18.244 30.1592 18.244 30.013 18.1952C29.8669 18.1952 29.7694 18.1464 29.7207 18.1464L29.4771 18.0489C29.3796 18.0489 29.2822 18.0489 29.2335 18.0001V16.2928C29.3309 16.3903 29.4771 16.4391 29.672 16.4879Z" fill="#10273D"/>
<path d="M39.2713 15.5123C39.1251 15.5611 39.0277 15.5611 38.8815 15.6099C38.7353 15.6586 38.5892 15.6586 38.3943 15.6586C38.2481 15.7074 38.0532 15.7074 37.907 15.7074C37.5173 15.7074 37.1762 15.6586 36.8839 15.6099C36.5915 15.5123 36.3479 15.4147 36.153 15.2684C35.9581 15.1221 35.812 14.9269 35.7145 14.683C35.6171 14.4391 35.5684 14.1465 35.5684 13.805V11.4147H37.2736V13.4635C37.2736 13.6587 37.3224 13.805 37.3711 13.9026C37.4198 14.0489 37.4685 14.1465 37.566 14.1952C37.6634 14.2928 37.7609 14.3416 37.907 14.3416C38.0532 14.3904 38.2481 14.3904 38.443 14.3904C38.7353 14.3904 38.9789 14.3416 39.1251 14.2928C39.32 14.244 39.4174 14.1465 39.5149 14.0977V11.366H41.2202V18.0001H39.5149V15.366C39.4662 15.4147 39.3687 15.4635 39.2713 15.5123Z" fill="#10273D"/>
<path d="M47.8936 17.2196C47.8936 17.3659 47.9423 17.4635 47.991 17.5123C48.0397 17.6098 48.0885 17.6586 48.1372 17.7074C48.1859 17.7562 48.2346 17.7562 48.2834 17.8049V18.0976H46.3832L46.2857 17.7074C46.237 17.561 46.237 17.4147 46.237 17.2684L45.7985 17.6098C45.6523 17.7074 45.5062 17.8049 45.36 17.9025C45.2138 18.0001 45.0189 18.0489 44.8241 18.0976C44.6292 18.1464 44.3856 18.1952 44.0932 18.1952C43.8009 18.1952 43.5086 18.1464 43.2649 18.0489C43.0213 17.9513 42.8264 17.8049 42.6315 17.6586C42.4367 17.4635 42.2905 17.2684 42.193 17.0245C42.0956 16.7806 42.0469 16.4879 42.0469 16.1464C42.0469 15.8537 42.0956 15.6098 42.193 15.3659C42.2905 15.122 42.3879 14.9269 42.5341 14.7318C42.6803 14.5367 42.8752 14.3903 43.1188 14.2928C43.3624 14.1464 43.606 14.0976 43.8983 14.0489L45.5549 13.8049C45.6036 13.8049 45.7011 13.8049 45.7498 13.7562C45.8472 13.7562 45.896 13.7074 45.9447 13.6586C45.9934 13.6098 46.0421 13.561 46.0908 13.5123C46.1396 13.4147 46.1396 13.3659 46.1396 13.2196C46.1396 13.122 46.0908 13.0245 46.0908 12.9269C46.0421 12.8293 45.9934 12.7318 45.896 12.683C45.7985 12.5854 45.7011 12.5367 45.5549 12.5367C45.4087 12.4879 45.2626 12.4879 45.0677 12.4879C44.8241 12.4879 44.6779 12.5367 44.5317 12.5367C44.3856 12.5854 44.2881 12.683 44.1907 12.7318C44.0932 12.8293 44.0445 12.9269 43.9958 13.0245L43.8983 13.3659H42.193C42.193 13.2684 42.193 13.1708 42.2418 13.0245C42.2905 12.8781 42.3392 12.7318 42.3879 12.5367C42.4367 12.3903 42.5828 12.1952 42.6803 12.0489C42.8264 11.8537 42.9726 11.7074 43.1675 11.561C43.3624 11.4147 43.606 11.3171 43.9471 11.2196C44.2394 11.122 44.5804 11.0732 45.0189 11.0732C45.6036 11.0732 46.0908 11.122 46.4806 11.2684C46.8217 11.4147 47.114 11.561 47.3576 11.7562C47.5525 11.9513 47.6987 12.1464 47.7474 12.3903C47.7961 12.6342 47.8449 12.8781 47.8449 13.122V16.6342C47.8936 16.9269 47.8936 17.0732 47.8936 17.2196ZM45.8472 14.9269C45.7498 14.9757 45.6036 15.0245 45.4087 15.0732L44.9702 15.122C44.7753 15.1708 44.5804 15.2196 44.4343 15.2684C44.2881 15.3171 44.1419 15.3659 44.0445 15.4635C43.9471 15.561 43.8496 15.6586 43.8009 15.7562C43.7522 15.8537 43.7034 16.0001 43.7034 16.1952C43.7034 16.3415 43.7522 16.4391 43.7522 16.5367C43.8009 16.6342 43.8496 16.7318 43.9471 16.7806C44.0445 16.8293 44.0932 16.9269 44.1907 16.9269C44.2881 16.9757 44.4343 16.9757 44.5317 16.9757C44.5804 16.9757 44.6779 16.9757 44.7753 16.9269C44.8728 16.9269 44.9702 16.8781 45.1164 16.8293C45.2138 16.7806 45.36 16.7318 45.4575 16.6342C45.5549 16.5854 45.6523 16.4879 45.7498 16.3415C45.8472 16.244 45.9447 16.0976 45.9934 15.9025C46.0421 15.7562 46.0908 15.561 46.0908 15.3171V14.6342C46.0421 14.8293 45.9447 14.8781 45.8472 14.9269Z" fill="#10273D"/>
<path d="M52.7179 13.2685C52.6692 13.1221 52.5717 13.0246 52.523 12.927C52.4256 12.8294 52.3281 12.7807 52.182 12.7319C52.0358 12.6831 51.8896 12.6831 51.6947 12.6831C51.4024 12.6831 51.2075 12.7319 51.0126 12.8782C50.8177 13.0246 50.7203 13.1709 50.6228 13.366C50.5254 13.5611 50.4767 13.805 50.4279 14.0489C50.3792 14.2928 50.3792 14.488 50.3792 14.7319C50.3792 14.927 50.3792 15.1709 50.4279 15.4148C50.4767 15.6587 50.5254 15.8538 50.6228 16.0977C50.7203 16.2929 50.8177 16.488 51.0126 16.5855C51.2075 16.7319 51.4024 16.7807 51.7435 16.7807C51.9383 16.7807 52.1332 16.7319 52.2794 16.6343C52.4256 16.5368 52.523 16.4392 52.6205 16.3416C52.7179 16.1953 52.8153 16.0977 52.8641 15.9514C52.9128 15.805 52.9128 15.7075 52.9128 15.6099H54.7155C54.7155 15.7075 54.7155 15.8538 54.6668 16.0489C54.6181 16.2441 54.5694 16.3904 54.4719 16.5855C54.3745 16.7807 54.277 16.9758 54.1309 17.1709C53.9847 17.366 53.7898 17.5611 53.5949 17.7075C53.3513 17.8538 53.1077 18.0002 52.8153 18.0977C52.523 18.1953 52.182 18.2441 51.7922 18.2441C51.305 18.2441 50.8664 18.1465 50.4767 18.0002C50.0869 17.8538 49.7458 17.6099 49.5022 17.3172C49.2586 17.0246 49.0637 16.6343 48.9175 16.1953C48.7714 15.7563 48.7227 15.2685 48.7227 14.6831C48.7227 14.0977 48.8201 13.6099 48.9663 13.1709C49.1124 12.7319 49.3073 12.3904 49.5997 12.0977C49.892 11.805 50.1843 11.5611 50.5741 11.4148C50.9639 11.2685 51.4024 11.1709 51.8409 11.1709C52.0358 11.1709 52.2307 11.2197 52.4743 11.2197C52.6692 11.2685 52.9128 11.3172 53.1077 11.366C53.3026 11.4636 53.4975 11.5611 53.7411 11.6587C53.936 11.805 54.0821 11.9514 54.277 12.1465C54.4232 12.3416 54.5694 12.5368 54.6668 12.8294C54.7642 13.0733 54.813 13.366 54.8617 13.7075H53.059C52.8153 13.5611 52.7666 13.4148 52.7179 13.2685Z" fill="#10273D"/>
<path d="M60.6107 11.4147V12.8294H58.6131V18.0489H56.9078V12.7806H54.9102V11.366H60.6107V11.4147Z" fill="#10273D"/>
<path d="M65.3853 13.805V11.4148H67.0906V18.0489H65.3853V15.2197H62.8518V18.0489H61.1465V11.4148H62.8518V13.805H65.3853Z" fill="#10273D"/>
<path d="M70.0138 15.4635L72.4499 11.366H74.2526V18.0001H72.5473V14.0001H72.4986L70.1599 18.0001H68.2598V11.4147H69.9651L70.0138 15.4635Z" fill="#10273D"/>
<path d="M79.612 11.4148H81.902L79.1735 14.1465L81.9994 18.0002H79.7582L77.8093 15.2197L77.1272 15.9514V18.0489H75.4219V11.4148H77.1272V13.9514L79.612 11.4148Z" fill="#10273D"/>
</g>
<defs>
<clipPath id="clip0_2806_4950">
<rect width="82" height="24" fill="white"/>
</clipPath>
</defs>
</svg>
