<svg width="175" height="47" viewBox="0 0 175 47" fill="none" xmlns="http://www.w3.org/2000/svg">
<g clip-path="url(#clip0_2333_13699)">
<path d="M125.304 27.1562L126.296 27.2978C126.083 28.4303 125.092 29.0674 124.03 29.0674C122.331 29.0674 121.553 27.864 121.553 26.236C121.553 24.6079 122.402 23.4753 124.101 23.4753C125.163 23.4753 125.942 23.9708 126.296 24.9618L125.304 25.3865C125.092 24.8202 124.667 24.4663 124.03 24.4663C122.969 24.4663 122.544 25.3157 122.544 26.3067C122.544 27.2978 122.969 28.1472 124.03 28.1472C124.738 28.1472 125.163 27.7933 125.304 27.1562ZM89.4865 35.2258H90.8315C91.327 35.2258 91.6809 34.9427 91.6809 34.4472C91.6809 33.9517 91.327 33.6685 90.8315 33.6685H89.4865V35.2258ZM88.4955 36.1461V30.7663H92.3888V31.6865H89.4865V32.7483H90.973C92.0348 32.7483 92.6719 33.2438 92.6719 34.3764C92.6719 35.4382 92.0348 36.1461 90.973 36.1461H88.4955ZM93.309 36.1461V30.7663H94.3V35.2258H94.4416L95.7865 30.7663H97.6977V36.1461H96.7067V31.6865H96.5652L95.2202 36.1461H93.309ZM99.6798 33.527H100.954C101.52 33.527 101.803 33.1022 101.803 32.6067C101.803 32.0404 101.52 31.7573 100.954 31.7573H99.6798V33.527ZM98.6888 36.1461V30.7663H100.954C102.087 30.7663 102.865 31.4034 102.865 32.536C102.865 33.6685 102.087 34.3764 100.954 34.3764H99.6798V36.1461H98.6888ZM102.865 36.1461L104.564 33.3146L102.936 30.7663H104.139L105.343 32.8899H105.767V30.7663H106.758V32.8899H107.183L108.387 30.7663H109.59L107.962 33.3146L109.661 36.1461H108.457L107.183 33.8101H106.758V36.1461H105.767V33.8101H105.343L104.069 36.1461H102.865ZM111.572 33.8809H113.129L112.492 31.6865H112.28L111.572 33.8809ZM109.873 36.1461L111.643 30.7663H113.129L114.899 36.1461H113.837L113.412 34.8011H111.289L110.864 36.1461H109.873ZM88.4955 28.9966V23.6169H90.4067L91.327 28.0764H91.4685L92.318 23.6169H94.2292V28.9966H93.2382V24.5371H93.0966L92.2472 28.9966H90.5483L89.6281 24.5371H89.4865V28.9966H88.4955ZM97.5562 28.1472C98.6888 28.1472 99.1135 27.2978 99.1135 26.3067C99.1135 25.2449 98.5472 24.4663 97.4854 24.4663C96.3528 24.4663 95.9281 25.3157 95.9281 26.3067C95.9281 27.2978 96.4236 28.1472 97.5562 28.1472ZM97.5562 29.0674C95.8573 29.0674 94.9371 27.864 94.9371 26.236C94.9371 24.6079 95.9281 23.4753 97.5562 23.4753C99.2551 23.4753 100.175 24.6787 100.175 26.236C100.175 27.7933 99.2551 29.0674 97.5562 29.0674ZM104.564 27.1562L105.555 27.2978C105.343 28.4303 104.352 29.0674 103.29 29.0674C101.591 29.0674 100.812 27.864 100.812 26.236C100.812 24.6079 101.662 23.4753 103.361 23.4753C104.422 23.4753 105.201 23.9708 105.555 24.9618L104.564 25.3865C104.352 24.8202 103.927 24.4663 103.29 24.4663C102.228 24.4663 101.803 25.3157 101.803 26.3067C101.803 27.2978 102.228 28.1472 103.29 28.1472C103.998 28.1472 104.352 27.7933 104.564 27.1562ZM106.334 28.9966V23.6169H107.325V25.7404H107.891L109.519 23.6169H110.793L108.74 26.0944L110.864 28.9966H109.59L107.891 26.6607H107.325V28.9966H106.334ZM113.483 28.1472C114.616 28.1472 115.04 27.2978 115.04 26.3067C115.04 25.2449 114.474 24.4663 113.412 24.4663C112.28 24.4663 111.855 25.3157 111.855 26.3067C111.855 27.2978 112.351 28.1472 113.483 28.1472ZM113.483 29.0674C111.784 29.0674 110.864 27.864 110.864 26.236C110.864 24.6079 111.784 23.4753 113.483 23.4753C115.182 23.4753 116.102 24.6787 116.102 26.236C116.102 27.7933 115.111 29.0674 113.483 29.0674ZM117.801 25.8112H119.146C119.571 25.8112 119.925 25.5989 119.925 25.1742C119.925 24.6787 119.642 24.5371 119.146 24.5371H117.801V25.8112ZM117.801 28.0764H119.217C119.712 28.0764 120.066 27.9348 120.066 27.3685C120.066 26.8022 119.712 26.6607 119.217 26.6607H117.801V28.0764ZM116.81 23.6169H119.288C120.137 23.6169 120.845 23.9708 120.845 24.9618C120.845 25.5989 120.633 26.0236 120.066 26.3067C120.703 26.4483 120.987 26.9438 120.987 27.5809C120.987 28.5719 120.279 29.0674 119.358 29.0674H116.81V23.6169ZM127.145 28.9966V23.6169H128.136V25.7404H128.702L130.33 23.6169H131.604L129.622 26.0944L131.675 28.9966H130.401L128.702 26.6607H128.136V28.9966H127.145ZM133.516 26.6607H135.073L134.436 24.4663H134.224L133.516 26.6607ZM131.817 28.9966L133.657 23.6169H135.144L136.913 28.9966H135.852L135.427 27.6517H133.233L132.808 28.9966H131.817ZM140.594 24.5371H139.391C138.825 24.5371 138.471 24.6787 138.471 25.3157C138.471 25.9528 138.825 26.0944 139.391 26.0944H140.594V24.5371ZM137.409 28.9966L137.621 27.5101C137.692 27.0146 137.904 26.7315 138.4 26.5191C137.834 26.3067 137.48 25.7404 137.48 25.1034C137.48 24.1124 138.4 23.6169 139.32 23.6169H141.585V28.9966H140.594V26.9438H139.391C138.896 26.9438 138.754 27.0854 138.683 27.6517L138.471 29.0674H137.409V28.9966ZM25 41.1011V18.5202H47.5809V5H83.682V41.1011H25Z" fill="#10273D"/>
<path d="M37.246 33.9525H36.7505L34.4146 23.5469H30.1674V36.1469H32.4325V25.8121H32.928L35.1224 36.1469H38.9449L41.2101 25.7413H41.7056V36.1469H43.9707V23.6177H39.6528L37.246 33.9525ZM60.0393 36.1469H67.8966V33.9525H62.3044V30.8379H67.1179V28.7143H62.3044V25.7413H67.8966V23.5469H60.0393V36.1469ZM51.9696 34.3065C49.4213 34.3065 48.2179 32.3952 48.2179 29.9177C48.2179 27.4402 49.4213 25.5289 51.9696 25.5289C54.5179 25.5289 55.7213 27.4402 55.7213 29.9177C55.7213 32.3952 54.5179 34.3065 51.9696 34.3065ZM51.9696 23.2638C48.1471 23.2638 45.882 25.8829 45.882 29.8469C45.882 33.811 48.1471 36.5008 51.9696 36.5008C55.7921 36.5008 58.0573 33.7402 58.0573 29.8469C58.0573 25.9537 55.7921 23.2638 51.9696 23.2638ZM69.4539 36.1469H71.8606L74.6213 31.1919L77.5235 36.1469H79.9303L76.037 29.5638L79.7179 23.5469H77.3112L74.7629 28.0065L72.1438 23.5469H69.737L73.2763 29.493L69.4539 36.1469Z" fill="white"/>
</g>
<defs>
<clipPath id="clip0_2333_13699">
<rect width="126" height="36.1011" fill="white" transform="translate(25 5)"/>
</clipPath>
</defs>
</svg>
