<svg width="35" height="32" viewBox="0 0 35 32" fill="none" xmlns="http://www.w3.org/2000/svg">
<g clip-path="url(#clip0_2344_11660)">
<path d="M27.8592 14.7398C30.3885 14.7398 32.2927 13.683 33.6967 11.8432L31.8202 10.4074C30.8676 11.6556 29.4245 12.3716 27.8592 12.3716C25.1141 12.3716 23.125 10.1288 23.125 7.3767C23.125 4.62462 25.0817 2.25544 27.9374 2.25544C29.2068 2.25544 30.1041 2.55602 30.8867 3.0423V5.46222H33.2481V1.93381L32.7957 1.57675C31.4976 0.552504 29.5152 0.00878906 27.8582 0.00878906C23.8074 0.00878906 20.5127 3.3132 20.5127 7.37574C20.5127 11.4345 23.8055 14.7398 27.8582 14.7398H27.8592ZM32.7584 29.2708L32.6744 25.8793V17.6029H27.7494V19.9722H30.1871V25.5873C30.1871 28.0063 28.345 29.7188 26.4866 29.7188C24.6283 29.7188 23.6586 28.4266 23.6586 26.0085V17.602H19.058V19.9712H21.1713V26.4192C21.1713 29.7006 23.0057 31.9617 26.2776 31.9617C28.1579 31.9617 29.5896 30.9153 30.4438 29.3024H30.482L30.8189 31.5576H34.6034V29.2737H32.7613V29.2689L32.7584 29.2708ZM19.9686 0.356269H15.8644L12.2947 10.752H12.2393L8.68876 0.356269H4.31537V2.72641H6.77503L11.0081 14.5752H13.2568V14.5723L17.6712 2.72737H19.9667V0.357226L19.9686 0.356269ZM0.474609 31.5883H2.90659V29.1502H0.475564V31.5883H0.474609ZM9.8665 20.3503H9.83984L9.68709 17.6029H5.3462V19.7625H7.656V29.2718H5.3462V31.5567H16.0743V29.3167H10.1013V23.5781C10.3714 21.5009 11.9243 19.7271 14.0433 19.7271H14.0814L14.0385 21.8502H16.3998V17.5637H14.5329C12.3949 17.558 10.8086 18.7182 9.86559 20.3512L9.8665 20.3503Z" fill="#151515"/>
</g>
<defs>
<clipPath id="clip0_2344_11660">
<rect width="35" height="32" fill="white"/>
</clipPath>
</defs>
</svg>
