<svg width="95" height="27" viewBox="0 0 95 27" fill="none" xmlns="http://www.w3.org/2000/svg">
<path d="M9.89929 21.6535H9.5287L7.67576 13.9241H4.18164V23.2947H5.98164V15.5653H6.35223L8.20517 23.2947H11.2758L13.1287 15.5653H13.4993V23.2947H15.2993V13.9241H11.8052L9.89929 21.6535ZM28.2699 23.2947H34.6758V21.6535H30.1228V19.3241H34.0405V17.7359H30.1228V15.5653H34.6758V13.9241H28.2699V23.2947ZM21.8111 21.9182C19.7463 21.9182 18.7934 20.4888 18.7934 18.583C18.7934 16.6771 19.7463 15.3006 21.8111 15.3006C23.8758 15.3006 24.8287 16.73 24.8287 18.583C24.8287 20.4359 23.8758 21.9182 21.8111 21.9182ZM21.8111 13.6594C18.6875 13.6594 16.8875 15.6712 16.8875 18.583C16.8875 21.4947 18.6875 23.5594 21.8111 23.5594C24.9346 23.5594 26.7346 21.4947 26.7346 18.583C26.7346 15.6712 24.9346 13.6594 21.8111 13.6594ZM35.9463 23.2947H37.9052L40.0758 19.5888L42.4581 23.2947H44.4169L41.2934 18.3712L44.2581 13.9241H42.2463L40.1816 17.2594L38.1169 13.9241H36.1052L38.964 18.3182L35.9463 23.2947Z" fill="white"/>
<path d="M75.0176 16.5706L75.7588 16.6765C75.6 17.5235 74.8588 18 74.0647 18C72.7941 18 72.2118 17.1 72.2118 15.8824C72.2118 14.6647 72.8471 13.8176 74.1176 13.8176C74.9118 13.8176 75.4941 14.1882 75.7588 14.9294L75.0176 15.2471C74.8588 14.8235 74.5412 14.5588 74.0647 14.5588C73.2706 14.5588 72.9529 15.1941 72.9529 15.9353C72.9529 16.6765 73.2706 17.3118 74.0647 17.3118C74.5941 17.3118 74.9118 17.0471 75.0176 16.5706ZM48.2294 22.6059H49.2353C49.6059 22.6059 49.8706 22.3941 49.8706 22.0235C49.8706 21.6529 49.6059 21.4412 49.2353 21.4412H48.2294V22.6059ZM47.4882 23.2941V19.2706H50.4V19.9588H48.2294V20.7529H49.3412C50.1353 20.7529 50.6118 21.1235 50.6118 21.9706C50.6118 22.7647 50.1353 23.2941 49.3412 23.2941H47.4882ZM51.0882 23.2941V19.2706H51.8294V22.6059H51.9353L52.9412 19.2706H54.3706V23.2941H53.6294V19.9588H53.5235L52.5176 23.2941H51.0882ZM55.8529 21.3353H56.8059C57.2294 21.3353 57.4412 21.0176 57.4412 20.6471C57.4412 20.2235 57.2294 20.0118 56.8059 20.0118H55.8529V21.3353ZM55.1118 23.2941V19.2706H56.8059C57.6529 19.2706 58.2353 19.7471 58.2353 20.5941C58.2353 21.4412 57.6529 21.9706 56.8059 21.9706H55.8529V23.2941H55.1118ZM58.2353 23.2941L59.5059 21.1765L58.2882 19.2706H59.1882L60.0882 20.8588H60.4059V19.2706H61.1471V20.8588H61.4647L62.3647 19.2706H63.2647L62.0471 21.1765L63.3176 23.2941H62.4176L61.4647 21.5471H61.1471V23.2941H60.4059V21.5471H60.0882L59.1353 23.2941H58.2353ZM64.7471 21.6H65.9118L65.4353 19.9588H65.2765L64.7471 21.6ZM63.4765 23.2941L64.8 19.2706H65.9118L67.2353 23.2941H66.4412L66.1235 22.2882H64.5353L64.2176 23.2941H63.4765ZM47.4882 17.9471V13.9235H48.9176L49.6059 17.2588H49.7118L50.3471 13.9235H51.7765V17.9471H51.0353V14.6118H50.9294L50.2941 17.9471H49.0235L48.3353 14.6118H48.2294V17.9471H47.4882ZM54.2647 17.3118C55.1118 17.3118 55.4294 16.6765 55.4294 15.9353C55.4294 15.1412 55.0059 14.5588 54.2118 14.5588C53.3647 14.5588 53.0471 15.1941 53.0471 15.9353C53.0471 16.6765 53.4176 17.3118 54.2647 17.3118ZM54.2647 18C52.9941 18 52.3059 17.1 52.3059 15.8824C52.3059 14.6647 53.0471 13.8176 54.2647 13.8176C55.5353 13.8176 56.2235 14.7176 56.2235 15.8824C56.2235 17.0471 55.5353 18 54.2647 18ZM59.5059 16.5706L60.2471 16.6765C60.0882 17.5235 59.3471 18 58.5529 18C57.2823 18 56.7 17.1 56.7 15.8824C56.7 14.6647 57.3353 13.8176 58.6059 13.8176C59.4 13.8176 59.9823 14.1882 60.2471 14.9294L59.5059 15.2471C59.3471 14.8235 59.0294 14.5588 58.5529 14.5588C57.7588 14.5588 57.4412 15.1941 57.4412 15.9353C57.4412 16.6765 57.7588 17.3118 58.5529 17.3118C59.0823 17.3118 59.3471 17.0471 59.5059 16.5706ZM60.8294 17.9471V13.9235H61.5706V15.5118H61.9941L63.2118 13.9235H64.1647L62.6294 15.7765L64.2176 17.9471H63.2647L61.9941 16.2H61.5706V17.9471H60.8294ZM66.1765 17.3118C67.0235 17.3118 67.3412 16.6765 67.3412 15.9353C67.3412 15.1412 66.9176 14.5588 66.1235 14.5588C65.2765 14.5588 64.9588 15.1941 64.9588 15.9353C64.9588 16.6765 65.3294 17.3118 66.1765 17.3118ZM66.1765 18C64.9059 18 64.2176 17.1 64.2176 15.8824C64.2176 14.6647 64.9059 13.8176 66.1765 13.8176C67.4471 13.8176 68.1353 14.7176 68.1353 15.8824C68.1353 17.0471 67.3941 18 66.1765 18ZM69.4059 15.5647H70.4118C70.7294 15.5647 70.9941 15.4059 70.9941 15.0882C70.9941 14.7176 70.7823 14.6118 70.4118 14.6118H69.4059V15.5647ZM69.4059 17.2588H70.4647C70.8353 17.2588 71.1 17.1529 71.1 16.7294C71.1 16.3059 70.8353 16.2 70.4647 16.2H69.4059V17.2588ZM68.6647 17.9471V13.9235H70.5176C71.1529 13.9235 71.6823 14.1882 71.6823 14.9294C71.6823 15.4059 71.5235 15.7235 71.1 15.9353C71.5765 16.0412 71.7882 16.4118 71.7882 16.8882C71.7882 17.6294 71.2588 18 70.5706 18H68.6647V17.9471ZM76.3941 17.9471V13.9235H77.1353V15.5118H77.5588L78.7765 13.9235H79.7294L78.2471 15.7765L79.7823 17.9471H78.8294L77.5588 16.2H77.1353V17.9471H76.3941ZM81.1588 16.2H82.3235L81.8471 14.5588H81.6882L81.1588 16.2ZM79.8882 17.9471L81.2647 13.9235H82.3765L83.7 17.9471H82.9059L82.5882 16.9412H80.9471L80.6294 17.9471H79.8882ZM86.4529 15.7235V14.6118H85.5529C85.1294 14.6118 84.8647 14.7176 84.8647 15.1941C84.8647 15.6706 85.1294 15.7765 85.5529 15.7765H86.4529V15.7235ZM84.0706 17.9471L84.2294 16.8353C84.2823 16.4647 84.4412 16.2529 84.8118 16.0941C84.3882 15.9353 84.1235 15.5118 84.1235 15.0353C84.1235 14.2941 84.8118 13.9235 85.5 13.9235H87.1941V17.9471H86.4529V16.4118H85.5529C85.1824 16.4118 85.0765 16.5176 85.0235 16.9412L84.8647 18H84.0706V17.9471ZM0 27V10.1118H16.8882V0H43.8882V27H0Z" fill="#FF0508"/>
<path d="M9.15935 21.6535H8.78876L7.0417 13.8712H3.86523V23.2947H5.55935V15.5653H5.92994L7.57112 23.2947H10.4299L12.1241 15.5124H12.4946V23.2947H14.1888V13.9241H10.9594L9.15935 21.6535ZM26.2064 23.2947H32.0829V21.6535H27.9005V19.3241H31.5005V17.7359H27.9005V15.5124H32.0829V13.8712H26.2064V23.2947ZM20.1711 21.9182C18.2652 21.9182 17.3652 20.4888 17.3652 18.6359C17.3652 16.783 18.2652 15.3535 20.1711 15.3535C22.077 15.3535 22.977 16.783 22.977 18.6359C22.977 20.4888 22.077 21.9182 20.1711 21.9182ZM20.1711 13.6594C17.3123 13.6594 15.6182 15.6182 15.6182 18.583C15.6182 21.5477 17.3123 23.5594 20.1711 23.5594C23.0299 23.5594 24.7241 21.4947 24.7241 18.583C24.7241 15.6712 23.0299 13.6594 20.1711 13.6594ZM33.2476 23.2947H35.0476L37.1123 19.5888L39.2829 23.2947H41.0829L38.1711 18.3712L40.9241 13.8712H39.1241L37.2182 17.2065L35.2593 13.8712H33.4594L36.1064 18.3182L33.2476 23.2947Z" fill="white"/>
</svg>
