<svg width="400" height="250" viewBox="0 0 400 250" fill="none" xmlns="http://www.w3.org/2000/svg">
<g clip-path="url(#clip0_2344_10747)">
<rect width="400" height="250" fill="#F3F3F3"/>
<rect x="-40" y="-22.5391" width="480" height="295.078" fill="#F2F4F8"/>
<g clip-path="url(#clip1_2344_10747)">
<path d="M132.86 140.063H132.191L128.848 126.119H122.545V143.023H125.792V129.079H126.461L129.803 143.023H135.343L138.685 129.079H139.354V143.023H142.601V126.119H136.298L132.86 140.063ZM166 143.023H177.556V140.063H169.343V135.86H176.41V132.995H169.343V129.079H177.556V126.119H166V143.023ZM154.348 140.54C150.624 140.54 148.904 137.961 148.904 134.523C148.904 131.085 150.624 128.602 154.348 128.602C158.073 128.602 159.792 131.18 159.792 134.523C159.792 137.866 158.073 140.54 154.348 140.54ZM154.348 125.641C148.713 125.641 145.466 129.27 145.466 134.523C145.466 139.776 148.713 143.501 154.348 143.501C159.983 143.501 163.23 139.776 163.23 134.523C163.23 129.27 159.983 125.641 154.348 125.641ZM179.848 143.023H183.382L187.298 136.338L191.595 143.023H195.129L189.494 134.141L194.843 126.119H191.213L187.489 132.136L183.764 126.119H180.135L185.292 134.046L179.848 143.023Z" fill="white"/>
<path d="M250.331 130.893L251.669 131.084C251.382 132.612 250.045 133.472 248.612 133.472C246.32 133.472 245.27 131.848 245.27 129.652C245.27 127.455 246.416 125.927 248.708 125.927C250.14 125.927 251.191 126.596 251.669 127.933L250.331 128.506C250.045 127.742 249.472 127.264 248.612 127.264C247.18 127.264 246.607 128.41 246.607 129.747C246.607 131.084 247.18 132.23 248.612 132.23C249.567 132.23 250.14 131.753 250.331 130.893ZM202.006 141.781H203.82C204.489 141.781 204.966 141.399 204.966 140.73C204.966 140.062 204.489 139.68 203.82 139.68H202.006V141.781ZM200.669 143.022V135.764H205.921V137.006H202.006V138.438H204.011C205.444 138.438 206.303 139.107 206.303 140.635C206.303 142.067 205.444 143.022 204.011 143.022H200.669ZM207.163 143.022V135.764H208.5V141.781H208.691L210.506 135.764H213.084V143.022H211.747V137.006H211.556L209.742 143.022H207.163ZM215.758 139.489H217.478C218.242 139.489 218.624 138.916 218.624 138.247C218.624 137.483 218.242 137.101 217.478 137.101H215.758V139.489ZM214.421 143.022V135.764H217.478C219.006 135.764 220.056 136.624 220.056 138.152C220.056 139.68 219.006 140.635 217.478 140.635H215.758V143.022H214.421ZM220.056 143.022L222.348 139.202L220.152 135.764H221.775L223.399 138.629H223.972V135.764H225.309V138.629H225.882L227.506 135.764H229.129L226.933 139.202L229.225 143.022H227.601L225.882 139.871H225.309V143.022H223.972V139.871H223.399L221.68 143.022H220.056ZM231.803 139.966H233.904L233.045 137.006H232.758L231.803 139.966ZM229.511 143.022L231.899 135.764H233.904L236.292 143.022H234.86L234.286 141.208H231.421L230.848 143.022H229.511ZM200.669 133.376V126.118H203.247L204.489 132.135H204.68L205.826 126.118H208.404V133.376H207.067V127.36H206.876L205.73 133.376H203.438L202.197 127.36H202.006V133.376H200.669ZM212.893 132.23C214.421 132.23 214.994 131.084 214.994 129.747C214.994 128.315 214.23 127.264 212.798 127.264C211.27 127.264 210.697 128.41 210.697 129.747C210.697 131.084 211.365 132.23 212.893 132.23ZM212.893 133.472C210.601 133.472 209.36 131.848 209.36 129.652C209.36 127.455 210.697 125.927 212.893 125.927C215.185 125.927 216.427 127.551 216.427 129.652C216.427 131.753 215.185 133.472 212.893 133.472ZM222.348 130.893L223.685 131.084C223.399 132.612 222.062 133.472 220.629 133.472C218.337 133.472 217.286 131.848 217.286 129.652C217.286 127.455 218.433 125.927 220.725 125.927C222.157 125.927 223.208 126.596 223.685 127.933L222.348 128.506C222.062 127.742 221.489 127.264 220.629 127.264C219.197 127.264 218.624 128.41 218.624 129.747C218.624 131.084 219.197 132.23 220.629 132.23C221.584 132.23 222.062 131.753 222.348 130.893ZM224.736 133.376V126.118H226.073V128.983H226.837L229.034 126.118H230.753L227.983 129.461L230.848 133.376H229.129L226.837 130.225H226.073V133.376H224.736ZM234.382 132.23C235.91 132.23 236.483 131.084 236.483 129.747C236.483 128.315 235.719 127.264 234.286 127.264C232.758 127.264 232.185 128.41 232.185 129.747C232.185 131.084 232.854 132.23 234.382 132.23ZM234.382 133.472C232.09 133.472 230.848 131.848 230.848 129.652C230.848 127.455 232.09 125.927 234.382 125.927C236.674 125.927 237.916 127.551 237.916 129.652C237.916 131.753 236.579 133.472 234.382 133.472ZM240.208 129.079H242.022C242.595 129.079 243.073 128.792 243.073 128.219C243.073 127.551 242.691 127.36 242.022 127.36H240.208V129.079ZM240.208 132.135H242.118C242.786 132.135 243.264 131.944 243.264 131.18C243.264 130.416 242.786 130.225 242.118 130.225H240.208V132.135ZM238.871 133.376V126.118H242.213C243.36 126.118 244.315 126.596 244.315 127.933C244.315 128.792 244.028 129.365 243.264 129.747C244.124 129.938 244.506 130.607 244.506 131.466C244.506 132.803 243.551 133.472 242.309 133.472H238.871V133.376ZM252.815 133.376V126.118H254.152V128.983H254.916L257.112 126.118H258.831L256.157 129.461L258.927 133.376H257.208L254.916 130.225H254.152V133.376H252.815ZM261.41 130.225H263.511L262.652 127.264H262.365L261.41 130.225ZM259.118 133.376L261.601 126.118H263.607L265.994 133.376H264.562L263.989 131.562H261.028L260.455 133.376H259.118ZM270.961 129.365V127.36H269.337C268.573 127.36 268.095 127.551 268.095 128.41C268.095 129.27 268.573 129.461 269.337 129.461H270.961V129.365ZM266.663 133.376L266.949 131.371C267.045 130.702 267.331 130.32 268 130.034C267.236 129.747 266.758 128.983 266.758 128.124C266.758 126.787 268 126.118 269.242 126.118H272.298V133.376H270.961V130.607H269.337C268.669 130.607 268.477 130.798 268.382 131.562L268.095 133.472H266.663V133.376ZM115 149.708V119.242H145.466V101H194.174V149.708H115Z" fill="#FF0508"/>
<path d="M131.521 140.063H130.853L127.701 126.023H121.971V143.023H125.027V129.079H125.695L128.656 143.023H133.813L136.87 128.984H137.538V143.023H140.594V126.119H134.768L131.521 140.063ZM162.274 143.023H172.875V140.063H165.33V135.86H171.825V132.995H165.33V128.984H172.875V126.023H162.274V143.023ZM151.386 140.54C147.948 140.54 146.325 137.961 146.325 134.619C146.325 131.276 147.948 128.697 151.386 128.697C154.825 128.697 156.448 131.276 156.448 134.619C156.448 137.961 154.825 140.54 151.386 140.54ZM151.386 125.641C146.229 125.641 143.173 129.175 143.173 134.523C143.173 139.872 146.229 143.501 151.386 143.501C156.544 143.501 159.6 139.776 159.6 134.523C159.6 129.27 156.544 125.641 151.386 125.641ZM174.976 143.023H178.224L181.948 136.338L185.864 143.023H189.111L183.858 134.141L188.825 126.023H185.577L182.139 132.04L178.606 126.023H175.358L180.134 134.046L174.976 143.023Z" fill="white"/>
</g>
</g>
<defs>
<clipPath id="clip0_2344_10747">
<rect width="400" height="250" fill="white"/>
</clipPath>
<clipPath id="clip1_2344_10747">
<rect width="170" height="48.7079" fill="white" transform="translate(115 101)"/>
</clipPath>
</defs>
</svg>
