<svg width="144" height="32" viewBox="0 0 144 32" fill="none" xmlns="http://www.w3.org/2000/svg">
<path fill-rule="evenodd" clip-rule="evenodd" d="M44.8542 4.9964C44.3296 3.03268 42.7773 1.48374 40.8025 0.952823C37.2316 0 22.9045 0 22.9045 0C22.9045 0 8.58469 0 5.00653 0.952823C3.03902 1.47641 1.48674 3.02554 0.954754 4.9964C-8.97953e-08 8.56 0 15.9999 0 15.9999C0 15.9999 -8.97953e-08 23.44 0.954754 27.0036C1.4794 28.9673 3.03167 30.5163 5.00653 31.0472C8.58469 32 22.9045 32 22.9045 32C22.9045 32 37.2316 32 40.8025 31.0472C42.7702 30.5236 44.3222 28.9745 44.8542 27.0036C45.809 23.44 45.809 16.0001 45.809 16.0001C45.809 16.0001 45.809 8.56 44.8542 4.9964Z" fill="#FF0000"/>
<path fill-rule="evenodd" clip-rule="evenodd" d="M18.3281 22.8582L30.2285 15.9999L18.3281 9.14185V22.8582Z" fill="white"/>
<path fill-rule="evenodd" clip-rule="evenodd" d="M66.4907 29.1125C65.587 28.5017 64.9384 27.5563 64.5595 26.2691C64.1805 24.9818 63.9837 23.2727 63.9837 21.1344V18.2254C63.9837 16.0654 64.2023 14.3346 64.6396 13.0252C65.0768 11.7163 65.7619 10.7636 66.6873 10.1671C67.6129 9.57083 68.8299 9.26544 70.3383 9.26544C71.8251 9.26544 73.013 9.57083 73.9092 10.1818C74.8055 10.7926 75.4614 11.7454 75.8768 13.0399C76.2923 14.3346 76.4964 16.0654 76.4964 18.218V21.1272C76.4964 23.2654 76.2923 24.9818 75.8913 26.2762C75.4906 27.5707 74.8349 28.5235 73.9238 29.1199C73.0201 29.7162 71.7885 30.0219 70.2363 30.0219C68.6476 30.0289 67.3942 29.7235 66.4907 29.1125ZM71.5699 25.9708C71.8177 25.3163 71.949 24.2471 71.949 22.7709V16.5236C71.949 15.0835 71.8251 14.0363 71.5699 13.3673C71.3223 12.7054 70.8777 12.3708 70.2436 12.3708C69.6316 12.3708 69.2015 12.7054 68.9465 13.3673C68.6987 14.029 68.5676 15.0835 68.5676 16.5236V22.7709C68.5676 24.2544 68.6842 25.3236 68.9247 25.9708C69.1651 26.6254 69.6024 26.9526 70.2365 26.9526C70.8777 26.9526 71.3149 26.6254 71.5699 25.9708ZM136.064 21.1853V22.1964C136.064 23.4835 136.1 24.4435 136.181 25.0908C136.253 25.7309 136.414 26.2035 136.654 26.4946C136.895 26.7853 137.266 26.9381 137.769 26.9381C138.447 26.9381 138.913 26.6763 139.161 26.1526C139.409 25.629 139.547 24.7562 139.569 23.5345L143.468 23.76C143.49 23.9344 143.497 24.1744 143.497 24.4798C143.497 26.3345 142.987 27.7162 141.974 28.6325C140.961 29.5489 139.525 30.0071 137.667 30.0071C135.437 30.0071 133.878 29.3089 132.981 27.9126C132.085 26.5162 131.641 24.3635 131.641 21.44V17.9418C131.641 14.9309 132.107 12.7416 133.032 11.3528C133.958 9.97094 135.546 9.27991 137.798 9.27991C139.35 9.27991 140.538 9.56369 141.369 10.1309C142.2 10.6981 142.783 11.578 143.125 12.7781C143.461 13.9781 143.636 15.6364 143.636 17.7454V21.1782H136.064V21.1853ZM136.639 12.749C136.414 13.0328 136.261 13.4981 136.18 14.1382C136.1 14.7781 136.064 15.76 136.064 17.0617V18.5018H139.372V17.0617C139.372 15.7743 139.329 14.7999 139.241 14.1382C139.154 13.4763 138.993 13.0036 138.767 12.7345C138.541 12.4654 138.184 12.3272 137.703 12.3272C137.223 12.3199 136.865 12.4654 136.639 12.749ZM55.4865 20.8072L50.3418 2.26905H54.8306L56.6307 10.6691C57.0899 12.7418 57.4251 14.5018 57.6437 15.9636H57.7748C57.9279 14.9162 58.2631 13.1636 58.7879 10.6981L60.6533 2.26172H65.1424L59.9392 20.8072V29.7017H55.4865V20.8072ZM91.093 9.65822V29.6944H87.5586L87.165 27.2435H87.0703C86.1083 29.0981 84.6655 30.0218 82.7488 30.0218C81.4154 30.0218 80.4314 29.5854 79.7976 28.7126C79.1635 27.8398 78.8501 26.48 78.8501 24.6254V9.65822H83.3684V24.3708C83.3684 25.2653 83.4631 25.9054 83.6599 26.2836C83.8567 26.6617 84.1845 26.8581 84.6436 26.8581C85.0372 26.8581 85.4161 26.7416 85.7731 26.5018C86.1302 26.2618 86.3999 25.9562 86.5748 25.5854V9.65803L91.093 9.65822ZM114.282 9.65822V29.6944H110.747L110.354 27.2435H110.259C109.297 29.0981 107.854 30.0218 105.937 30.0218C104.604 30.0218 103.62 29.5854 102.986 28.7126C102.352 27.8398 102.039 26.48 102.039 24.6254V9.65822H106.557V24.3708C106.557 25.2653 106.652 25.9054 106.849 26.2836C107.045 26.6617 107.373 26.8581 107.832 26.8581C108.226 26.8581 108.605 26.7416 108.962 26.5018C109.319 26.2618 109.589 25.9562 109.763 25.5854V9.65803L114.282 9.65822Z" fill="#282828"/>
<path fill-rule="evenodd" clip-rule="evenodd" d="M103.38 5.89838H98.8906V29.6945H94.4671V5.89838H89.978V2.26938H103.372V5.89838H103.38ZM129.243 12.8654C128.966 11.6001 128.529 10.6837 127.916 10.1165C127.304 9.54918 126.466 9.26558 125.395 9.26558C124.564 9.26558 123.792 9.49824 123.07 9.97109C122.349 10.4364 121.795 11.0547 121.401 11.8183H121.365V1.2583H117.007V29.7018H120.738L121.197 27.8037H121.292C121.642 28.4801 122.167 29.011 122.866 29.4036C123.566 29.7964 124.338 29.9928 125.191 29.9928C126.721 29.9928 127.844 29.2873 128.565 27.8836C129.286 26.4801 129.644 24.2837 129.644 21.2946V18.1236C129.651 15.8837 129.512 14.1308 129.243 12.8654ZM125.096 21.04C125.096 22.5019 125.038 23.6436 124.914 24.4728C124.797 25.3019 124.593 25.8909 124.309 26.2401C124.025 26.5891 123.646 26.7637 123.165 26.7637C122.793 26.7637 122.451 26.6765 122.13 26.5019C121.817 26.3273 121.555 26.0655 121.358 25.7163V14.3347C121.511 13.7891 121.773 13.3456 122.145 12.9966C122.516 12.6474 122.917 12.4729 123.354 12.4729C123.814 12.4729 124.171 12.6546 124.418 13.0109C124.666 13.3674 124.841 13.9782 124.943 14.8218C125.038 15.6728 125.089 16.8801 125.089 18.4508V21.04H125.096Z" fill="#282828"/>
</svg>
