<svg width="1920" height="986" viewBox="0 0 1920 986" fill="none" xmlns="http://www.w3.org/2000/svg">
<path d="M2015.75 138.111C1395.41 39.2675 1431.95 669.604 1094.15 744.277C823.915 804.015 449.879 616.818 610.338 393.444C770.797 170.07 1386.43 93.43 1543.64 260.67C1700.85 427.91 721.858 837.479 389.737 781.868C57.6154 726.258 14.946 534.488 -68.5169 550.513" stroke="#4D556D" stroke-width="4"/>
<path d="M2000.37 153.385C1380.03 54.5418 1416.57 684.879 1078.77 759.551C808.536 819.289 434.5 632.092 594.959 408.718C755.418 185.345 1371.05 108.704 1528.26 275.944C1685.47 443.184 706.479 852.753 374.358 797.143C42.2364 741.532 -0.432951 549.762 -83.8958 565.787" stroke="#4D556D" stroke-width="3"/>
<path d="M1984.99 168.659C1364.66 69.8161 1401.19 700.153 1063.39 774.825C793.157 834.563 419.121 647.366 579.58 423.993C740.039 200.619 1355.67 123.979 1512.88 291.219C1670.09 458.458 691.1 868.028 358.979 812.417C26.8573 756.807 -15.8121 565.037 -99.275 581.062" stroke="#4D556D" stroke-width="2"/>
<path d="M1969.61 183.934C1349.28 85.0904 1385.81 715.427 1048.01 790.1C777.778 849.837 403.741 662.641 564.201 439.267C724.66 215.893 1340.29 139.253 1497.5 306.493C1654.71 473.733 675.721 883.302 343.599 827.691C11.4781 772.081 -31.1913 580.311 -114.654 596.336" stroke="#4D556D"/>
<circle cx="1392.91" cy="506.906" r="2.055" transform="rotate(135.191 1392.91 506.906)" fill="#4D556D"/>
<circle cx="912.906" cy="684.906" r="2.055" transform="rotate(135.191 912.906 684.906)" fill="#4D556D"/>
<circle cx="973.906" cy="690.906" r="2.055" transform="rotate(135.191 973.906 690.906)" fill="#4D556D"/>
<circle cx="937.482" cy="676.483" r="3.87688" transform="rotate(135.191 937.482 676.483)" fill="#4D556D"/>
<circle cx="932.736" cy="693.737" r="1.22804" transform="rotate(135.191 932.736 693.737)" fill="#4D556D"/>
<circle cx="953.736" cy="705.737" r="1.22804" transform="rotate(135.191 953.736 705.737)" fill="#4D556D"/>
<circle cx="932.736" cy="714.737" r="1.22804" transform="rotate(135.191 932.736 714.737)" fill="#4D556D"/>
<circle cx="913.633" cy="711.733" r="0.448088" transform="rotate(135.191 913.633 711.733)" fill="#4D556D"/>
<circle cx="1375.18" cy="519.964" r="0.681482" transform="rotate(135.191 1375.18 519.964)" fill="#4D556D"/>
<circle cx="1361.96" cy="552.57" r="0.681482" transform="rotate(135.191 1361.96 552.57)" fill="#4D556D"/>
<circle cx="1389.57" cy="533.77" r="0.681482" transform="rotate(135.191 1389.57 533.77)" fill="#4D556D"/>
<circle cx="1366.81" cy="524.811" r="2.7462" transform="rotate(135.191 1366.81 524.811)" fill="#4D556D"/>
<circle cx="1470.88" cy="220.884" r="2.7462" transform="rotate(135.191 1470.88 220.884)" fill="#4D556D"/>
<circle cx="1463.48" cy="197.481" r="3.8754" transform="rotate(135.191 1463.48 197.481)" fill="#4D556D"/>
<circle cx="1436.28" cy="184.277" r="1.60979" transform="rotate(135.191 1436.28 184.277)" fill="#4D556D"/>
<circle cx="1450.55" cy="177.549" r="1.09524" transform="rotate(135.191 1450.55 177.549)" fill="#4D556D"/>
<circle cx="1440.05" cy="206.897" r="0.742864" transform="rotate(135.191 1440.05 206.897)" fill="#4D556D"/>
<circle cx="1417.05" cy="183.051" r="0.742864" transform="rotate(135.191 1417.05 183.051)" fill="#4D556D"/>
<circle cx="212.926" cy="529.436" r="2.43601" transform="rotate(90 212.926 529.436)" fill="#000C2E"/>
<circle cx="934.24" cy="272.911" r="2.43601" transform="rotate(90 934.24 272.911)" fill="#000C2E"/>
<circle cx="321.253" cy="778.151" r="1.37151" transform="rotate(-120.086 321.253 778.151)" fill="#000C2E"/>
<circle cx="311.16" cy="756.856" r="3.07384" transform="rotate(-120.086 311.16 756.856)" fill="#000C2E"/>
<circle cx="270.395" cy="784.616" r="1.58401" transform="rotate(-120.086 270.395 784.616)" fill="#000C2E"/>
<circle cx="314.314" cy="808.281" r="0.64734" transform="rotate(-120.086 314.314 808.281)" fill="#000C2E"/>
<circle cx="299.282" cy="775.392" r="0.64734" transform="rotate(-120.086 299.282 775.392)" fill="#000C2E"/>
<circle cx="286.568" cy="784.38" r="0.64734" transform="rotate(-120.086 286.568 784.38)" fill="#000C2E"/>
<circle cx="319.615" cy="753.54" r="0.64734" transform="rotate(-120.086 319.615 753.54)" fill="#000C2E"/>
<circle cx="188.458" cy="597.323" r="1.39539" transform="rotate(90 188.458 597.323)" fill="#000C2E"/>
<circle cx="1739.14" cy="535.143" r="5.11067" transform="rotate(143.746 1739.14 535.143)" fill="#000C2E"/>
</svg>
