<svg width="1920" height="890" viewBox="0 0 1920 890" fill="none" xmlns="http://www.w3.org/2000/svg">
<circle cx="1570.82" cy="475.814" r="6.23266" transform="rotate(135.191 1570.82 475.814)" fill="#4D556D"/>
<circle cx="300.136" cy="604.171" r="2.43601" transform="rotate(-120.086 300.136 604.171)" fill="#4D556D"/>
<circle cx="1553.99" cy="510.986" r="2.43601" transform="rotate(74.9137 1553.99 510.986)" fill="#4D556D"/>
<circle cx="1566.6" cy="485.609" r="0.483622" transform="rotate(74.9137 1566.6 485.609)" fill="#4D556D"/>
<circle cx="1555.6" cy="497.602" r="1.30682" transform="rotate(74.9137 1555.6 497.602)" fill="#4D556D"/>
<circle cx="1554.6" cy="481.593" r="0.483622" transform="rotate(74.9137 1554.6 481.593)" fill="#4D556D"/>
<circle cx="1582.6" cy="474.593" r="0.483622" transform="rotate(74.9137 1582.6 474.593)" fill="#4D556D"/>
<circle cx="314.521" cy="651.517" r="6.23266" transform="rotate(-120.086 314.521 651.517)" fill="#4D556D"/>
<path d="M2442.17 69.9547C1875.73 -12.5363 1958.23 47.7711 1378.64 615.122C799.047 1182.47 328.036 320.968 -107.034 533.835" stroke="#4D556D" stroke-width="4"/>
<path d="M2442.17 87.3886C1875.73 4.89767 1958.23 65.2051 1378.64 632.556C799.048 1199.91 328.037 338.402 -107.033 551.269" stroke="#4D556D" stroke-width="3"/>
<path d="M2442.17 104.823C1875.73 22.3316 1958.23 82.6391 1378.64 649.99C799.047 1217.34 328.036 355.836 -107.034 568.703" stroke="#4D556D" stroke-width="2"/>
<path d="M2442.17 122.257C1875.73 39.7656 1958.23 100.073 1378.64 667.424C799.047 1234.77 328.036 373.27 -107.034 586.137" stroke="#4D556D"/>
<circle cx="1744.82" cy="226.814" r="6.23266" transform="rotate(135.191 1744.82 226.814)" fill="#000C2E"/>
<circle cx="61.4987" cy="490.559" r="1.57146" transform="rotate(12.7119 61.4987 490.559)" fill="#000C2E"/>
<circle cx="1746.34" cy="249.042" r="1.09703" transform="rotate(74.9137 1746.34 249.042)" fill="#000C2E"/>
<circle cx="1763.35" cy="216.345" r="1.09703" transform="rotate(74.9137 1763.35 216.345)" fill="#000C2E"/>
<circle cx="1722.67" cy="259.667" r="0.544028" transform="rotate(74.9137 1722.67 259.667)" fill="#000C2E"/>
<circle cx="30.4661" cy="490.807" r="4.02068" transform="rotate(12.7119 30.4661 490.807)" fill="#000C2E"/>
</svg>
