<svg width="1920" height="981" viewBox="0 0 1920 981" fill="none" xmlns="http://www.w3.org/2000/svg">
<path d="M-360.681 1491.68C295.097 1617.44 -1102.75 -231.189 -153.594 265.551C795.559 762.292 1269.45 564.44 1661.41 352.351C2053.37 140.261 1683.2 -135.162 1518.55 80.4139C1353.89 295.99 1793.15 352.046 2099.07 396.241" stroke="#4D556D" stroke-width="4"/>
<circle cx="1681.99" cy="24.9862" r="2.43601" transform="rotate(74.9137 1681.99 24.9862)" fill="#4D556D"/>
<circle cx="1671.59" cy="11.5948" r="2.11672" transform="rotate(74.9137 1671.59 11.5948)" fill="#4D556D"/>
<circle cx="1689.5" cy="36.7443" r="0.412483" transform="rotate(74.9137 1689.5 36.7443)" fill="#4D556D"/>
<circle cx="1707.07" cy="33.0675" r="0.870751" transform="rotate(74.9137 1707.07 33.0675)" fill="#4D556D"/>
<circle cx="1692.07" cy="18.0675" r="0.870751" transform="rotate(74.9137 1692.07 18.0675)" fill="#4D556D"/>
<circle cx="1665.07" cy="31.0675" r="0.870751" transform="rotate(74.9137 1665.07 31.0675)" fill="#4D556D"/>
<path d="M-368.237 1500.03C287.542 1625.79 -1110.3 -222.841 -161.149 273.899C788.004 770.639 1261.89 572.788 1653.85 360.698C2045.82 148.609 1675.64 -126.814 1510.99 88.7616C1346.34 304.337 1785.6 360.394 2091.51 404.589" stroke="#4D556D" stroke-width="3"/>
<path d="M-375.795 1508.38C279.983 1634.14 -1117.86 -214.493 -168.707 282.247C780.445 778.987 1254.33 581.136 1646.3 369.046C2038.26 156.956 1668.09 -118.467 1503.43 97.1093C1338.78 312.685 1778.04 368.741 2083.95 412.937" stroke="#4D556D" stroke-width="2"/>
<path d="M-383.355 1516.73C272.423 1642.48 -1125.42 -206.146 -176.267 290.594C772.885 787.335 1246.77 589.483 1638.74 377.394C2030.7 165.304 1660.53 -110.119 1495.87 105.457C1331.22 321.033 1770.48 377.089 2076.39 421.284" stroke="#4D556D"/>
</svg>
