<svg width="1920" height="557" viewBox="0 0 1920 557" fill="none" xmlns="http://www.w3.org/2000/svg">
<mask id="mask0" mask-type="alpha" maskUnits="userSpaceOnUse" x="-1" y="0" width="1921" height="557">
<rect x="-0.00195312" y="0.960449" width="1920" height="555.454" fill="#000C2E"/>
</mask>
<g mask="url(#mask0)">
<path d="M-360.68 1370.68C295.098 1496.44 -1102.74 -352.189 -153.592 144.551C795.56 641.292 1269.45 443.44 1661.41 231.351C2053.37 19.261 1683.2 -256.162 1518.55 -40.5861C1353.9 174.99 1793.16 231.046 2099.07 275.241" stroke="white" stroke-width="4"/>
<path d="M-368.235 1379.03C287.543 1504.79 -1110.3 -343.841 -161.147 152.899C788.005 649.639 1261.89 451.788 1653.86 239.698C2045.82 27.6086 1675.65 -247.814 1510.99 -32.2384C1346.34 183.337 1785.6 239.394 2091.51 283.589" stroke="white" stroke-width="3"/>
<path d="M-375.794 1387.38C279.984 1513.14 -1117.86 -335.493 -168.706 161.247C780.447 657.987 1254.33 460.136 1646.3 248.046C2038.26 35.9563 1668.09 -239.467 1503.43 -23.8907C1338.78 191.685 1778.04 247.741 2083.95 291.937" stroke="white" stroke-width="2"/>
<path d="M-383.353 1395.73C272.425 1521.48 -1125.42 -327.146 -176.265 169.594C772.887 666.335 1246.77 468.483 1638.74 256.394C2030.7 44.304 1660.53 -231.119 1495.88 -15.5431C1331.22 200.033 1770.48 256.089 2076.39 300.284" stroke="white"/>
</g>
</svg>
