<svg width="479" height="4456" viewBox="0 0 479 4456" fill="none" xmlns="http://www.w3.org/2000/svg">
<g opacity="0.03">
<path d="M-1.12912 2C115.128 6.49949 359.196 37.496 405.411 125.486C463.179 235.474 -36.7621 493.944 -18.9456 729.918C-1.12912 965.891 559.279 1286.85 313.087 1282.86C66.896 1278.86 287.712 837.906 495.571 952.393C703.43 1066.88 -93.9923 1882.29 -50.2609 2082.27C-6.52953 2282.24 529.044 2432.23 564.677 2574.21C600.31 2716.19 -54.5814 2836.68 -18.9484 3099.15C16.6846 3361.62 675.895 3371.62 566.836 3715.58C457.778 4059.54 -25.4271 3906.06 -2.21169 4042.04C21.0037 4178.03 -16.7888 4316.01 344.4 4431" stroke="#000C2E" stroke-width="4"/>
<path d="M-1.12912 10C115.128 14.4995 359.196 45.496 405.411 133.486C463.179 243.474 -36.7621 501.944 -18.9456 737.918C-1.12912 973.891 559.279 1294.85 313.087 1290.86C66.896 1286.86 287.712 845.906 495.571 960.393C703.431 1074.88 -93.9923 1890.29 -50.2609 2090.27C-6.52953 2290.24 529.044 2440.23 564.677 2582.21C600.31 2724.19 -54.5814 2844.68 -18.9484 3107.15C16.6846 3369.62 675.895 3379.62 566.836 3723.58C457.778 4067.54 -25.4271 3914.06 -2.21169 4050.04C21.0037 4186.03 -16.7888 4324.01 344.4 4439" stroke="#000C2E" stroke-width="3"/>
<path d="M-1.12912 18C115.128 22.4995 359.196 53.496 405.411 141.486C463.179 251.474 -36.7621 509.944 -18.9456 745.918C-1.12912 981.891 559.279 1302.85 313.087 1298.86C66.896 1294.86 287.712 853.906 495.571 968.393C703.431 1082.88 -93.9923 1898.29 -50.2609 2098.27C-6.52953 2298.24 529.044 2448.23 564.677 2590.21C600.31 2732.19 -54.5814 2852.68 -18.9484 3115.15C16.6846 3377.62 675.895 3387.62 566.836 3731.58C457.778 4075.54 -25.4271 3922.06 -2.21169 4058.04C21.0037 4194.03 -16.7888 4332.01 344.4 4447" stroke="#000C2E" stroke-width="2"/>
<path d="M-1.12912 26C115.128 30.4995 359.196 61.496 405.411 149.486C463.179 259.474 -36.7621 517.944 -18.9456 753.918C-1.12912 989.891 559.279 1310.85 313.087 1306.86C66.896 1302.86 287.712 861.906 495.571 976.393C703.431 1090.88 -93.9923 1906.29 -50.2609 2106.27C-6.52953 2306.24 529.044 2456.23 564.677 2598.21C600.31 2740.19 -54.5814 2860.68 -18.9484 3123.15C16.6846 3385.62 675.895 3395.62 566.836 3739.58C457.778 4083.54 -25.4271 3930.06 -2.21169 4066.04C21.0037 4202.03 -16.7888 4340.01 344.4 4455" stroke="#000C2E"/>
<circle cx="165.857" cy="483.857" r="1.31903" transform="rotate(-50.3348 165.857 483.857)" fill="#000C2E"/>
<circle cx="152.841" cy="486.841" r="0.597116" transform="rotate(-50.3348 152.841 486.841)" fill="#000C2E"/>
<circle cx="156.841" cy="496.841" r="0.597116" transform="rotate(-50.3348 156.841 496.841)" fill="#000C2E"/>
<circle cx="160.478" cy="488.478" r="0.339619" transform="rotate(-50.3348 160.478 488.478)" fill="#000C2E"/>
<circle cx="167.764" cy="472.764" r="0.542391" transform="rotate(-50.3348 167.764 472.764)" fill="#000C2E"/>
</g>
</svg>
