<svg width="767" height="600" viewBox="0 0 767 600" fill="none" xmlns="http://www.w3.org/2000/svg">
<mask id="mask0" mask-type="alpha" maskUnits="userSpaceOnUse" x="0" y="0" width="767" height="600">
<rect width="767" height="600" fill="#C4C4C4"/>
</mask>
<g mask="url(#mask0)">
<path d="M815.792 17.1687C623.231 -54.3604 615.496 287.289 524.895 313.837C434.294 340.384 426.612 207.717 524.895 232.237C623.178 256.757 622.189 573.874 792.428 573.874" stroke="#4D556D" stroke-width="4"/>
<path d="M811.773 24.8064C619.212 -46.7227 611.476 294.927 520.876 321.474C430.275 348.022 422.593 215.355 520.876 239.875C619.159 264.395 618.17 581.512 788.409 581.512" stroke="#4D556D" stroke-width="3"/>
<circle cx="526.437" cy="322.967" r="0.257315" transform="rotate(-50.3348 526.437 322.967)" fill="#4D556D"/>
<circle cx="538.69" cy="301.362" r="0.257315" transform="rotate(-50.3348 538.69 301.362)" fill="#4D556D"/>
<circle cx="536.928" cy="309.111" r="0.511997" transform="rotate(-50.3348 536.928 309.111)" fill="#4D556D"/>
<circle cx="529.747" cy="315.23" r="0.791592" transform="rotate(-50.3348 529.747 315.23)" fill="#4D556D"/>
<circle cx="528.635" cy="330.204" r="1.31903" transform="rotate(-50.3348 528.635 330.204)" fill="#4D556D"/>
<circle cx="506.857" cy="331.875" r="1.31903" transform="rotate(-50.3348 506.857 331.875)" fill="#4D556D"/>
<circle cx="518.904" cy="329.626" r="0.531228" transform="rotate(-50.3348 518.904 329.626)" fill="#4D556D"/>
<circle cx="653.396" cy="550.055" r="0.257315" transform="rotate(54.6652 653.396 550.055)" fill="#4D556D"/>
<circle cx="671.095" cy="567.483" r="0.257315" transform="rotate(54.6652 671.095 567.483)" fill="#4D556D"/>
<circle cx="664.066" cy="563.776" r="0.511997" transform="rotate(54.6652 664.066 563.776)" fill="#4D556D"/>
<circle cx="660.015" cy="555.256" r="0.791592" transform="rotate(54.6652 660.015 555.256)" fill="#4D556D"/>
<circle cx="645.839" cy="550.306" r="1.31903" transform="rotate(54.6652 645.839 550.306)" fill="#4D556D"/>
<circle cx="649.859" cy="528.838" r="1.31903" transform="rotate(54.6652 649.859 528.838)" fill="#4D556D"/>
<circle cx="648.913" cy="541.056" r="0.531228" transform="rotate(54.6652 648.913 541.056)" fill="#4D556D"/>
<path d="M807.755 32.4441C615.194 -39.085 607.458 302.564 516.857 329.112C426.256 355.66 418.575 222.992 516.857 247.512C615.14 272.032 614.152 589.15 784.39 589.15" stroke="#4D556D" stroke-width="2"/>
<path d="M803.736 40.0808C611.175 -31.4483 603.439 310.201 512.839 336.749C422.238 363.296 414.556 230.629 512.839 255.149C611.121 279.669 610.133 596.786 780.372 596.786" stroke="#4D556D"/>
</g>
</svg>
