<svg width="991" height="507" viewBox="0 0 991 507" fill="none" xmlns="http://www.w3.org/2000/svg">
<mask id="mask0" mask-type="alpha" maskUnits="userSpaceOnUse" x="0" y="0" width="992" height="507">
<rect width="992" height="507" fill="#000C2E"/>
</mask>
<g mask="url(#mask0)">
<path d="M-38.6602 -1246.08C23.7312 -1088.72 129.964 -740.318 293 -873C527.437 -1063.79 925.264 -926.428 972 -457C998.44 -191.438 434.5 403.5 761 427.5C1087.5 451.5 1247.13 177.005 1209.25 82.7409" stroke="#B2B6C0" stroke-width="4"/>
<path d="M-51 -1242.15C11.3914 -1084.78 117.625 -736.383 280.66 -869.065C515.098 -1059.85 912.924 -922.493 959.66 -453.065C986.1 -187.503 422.16 407.435 748.66 431.435C1075.16 455.435 1234.79 180.94 1196.91 86.676" stroke="#B2B6C0" stroke-width="3"/>
<path d="M-63.3398 -1238.21C-0.948463 -1080.85 105.285 -732.448 268.32 -865.13C502.758 -1055.92 900.584 -918.557 947.32 -449.13C973.76 -183.568 409.82 411.37 736.32 435.37C1062.82 459.37 1222.45 184.876 1184.57 90.6112" stroke="#B2B6C0" stroke-width="2"/>
<path d="M-75.6797 -1234.28C-13.2883 -1076.91 92.9449 -728.513 255.98 -861.194C490.418 -1051.98 888.244 -914.622 934.98 -445.194C961.42 -179.632 397.48 415.305 723.98 439.305C1050.48 463.306 1210.11 188.811 1172.23 94.5464" stroke="#B2B6C0"/>
<circle cx="776.103" cy="6.10334" r="1.08979" transform="rotate(-89.2819 776.103 6.10334)" fill="#B2B6C0"/>
<circle cx="790.112" cy="30.3402" r="2.1243" transform="rotate(-89.2819 790.112 30.3402)" fill="#B2B6C0"/>
<circle cx="702.151" cy="401.151" r="2.1243" transform="rotate(-89.2819 702.151 401.151)" fill="#B2B6C0"/>
<circle cx="666.862" cy="384.862" r="0.851166" transform="rotate(-89.2819 666.862 384.862)" fill="#B2B6C0"/>
<circle cx="686.862" cy="395.862" r="0.851166" transform="rotate(-89.2819 686.862 395.862)" fill="#B2B6C0"/>
<circle cx="682.294" cy="373.294" r="4.24114" transform="rotate(-89.2819 682.294 373.294)" fill="#B2B6C0"/>
<circle cx="658.151" cy="371.151" r="2.1243" transform="rotate(-89.2819 658.151 371.151)" fill="#B2B6C0"/>
<circle cx="669.684" cy="410.133" r="0.65789" transform="rotate(-89.2819 669.684 410.133)" fill="#B2B6C0"/>
<circle cx="788.034" cy="20.0172" r="0.511928" transform="rotate(-89.2819 788.034 20.0172)" fill="#B2B6C0"/>
<circle cx="798.741" cy="6.74069" r="1.71941" transform="rotate(-89.2819 798.741 6.74069)" fill="#B2B6C0"/>
<circle cx="775.741" cy="20.7407" r="1.71941" transform="rotate(-89.2819 775.741 20.7407)" fill="#B2B6C0"/>
<circle cx="766.616" cy="1.61561" r="0.60806" transform="rotate(-89.2819 766.616 1.61561)" fill="#B2B6C0"/>
</g>
</svg>
