<svg width="175" height="46" viewBox="0 0 175 46" fill="none" xmlns="http://www.w3.org/2000/svg">
<g clip-path="url(#clip0_1_4044)">
<path d="M89.3984 36.2889C87.9682 36.1935 86.3191 35.9428 85.0185 35.5661C84.7748 35.4955 83.7661 35.1247 83.5095 35.007C78.9813 32.9095 75.8268 28.3307 75.8268 23.0186C75.8268 15.7325 81.7545 9.79774 89.0452 9.79774C96.2713 9.79774 102.159 15.6313 102.26 22.835H107.036C106.934 12.9994 98.9056 5.02825 89.0452 5.02825C79.1261 5.02825 71.0526 13.0971 71.0526 23.0186C71.0526 29.8585 74.8992 35.8074 80.5315 38.8466C81.5485 39.3846 83.0081 39.939 83.5036 40.0908C85.1091 40.5687 87.0795 40.8865 88.8334 41.0195C89.429 41.0642 91.5088 41.0878 92.115 41.0901H125V36.3336H92.1704C91.7337 36.3336 89.8256 36.3171 89.3984 36.2889ZM92.1704 28.8204C91.8231 28.8204 90.0069 28.8086 89.6714 28.7803C89.1029 28.7321 88.279 28.6473 87.7493 28.5261C87.1513 28.366 86.5899 28.1541 86.3368 28.0152C84.563 27.0559 83.3541 25.1797 83.3541 23.0186C83.3541 19.8746 85.9001 17.3251 89.0452 17.3251C92.1245 17.3251 94.6281 19.7746 94.7281 22.835H99.3163C99.2198 17.2439 94.6622 12.7381 89.0452 12.7381C83.3659 12.7381 78.7624 17.3404 78.7624 23.0186C78.7624 27.023 81.0576 30.4812 84.4005 32.175C84.9149 32.4763 85.8825 32.7918 86.1579 32.8636C87.1019 33.112 88.3696 33.2815 89.3984 33.3568C89.7786 33.3886 91.6407 33.4027 92.0338 33.405V33.4121H124.999V28.8204H92.1704ZM68.1099 41.0725H63.3027V9.80833H56.278V5H68.1099V41.0725ZM51 12.2107V16.8343H56.278V41.0725H60.8968V12.2107H51Z" fill="#10273D"/>
<path d="M116.508 5.33569C114.776 5.33569 113.34 6.71639 113.34 8.44904C113.34 10.1817 114.776 11.6177 116.508 11.6177C118.292 11.6177 119.673 10.1817 119.673 8.44904C119.673 6.71639 118.292 5.33569 116.508 5.33569ZM116.508 11.1069C115.077 11.1069 113.845 9.98276 113.845 8.44904C113.845 6.993 115.077 5.84065 116.508 5.84065C117.937 5.84065 119.163 6.993 119.163 8.44904C119.163 9.98276 117.937 11.1069 116.508 11.1069Z" fill="#10273D"/>
<path d="M117.711 9.30242C117.711 8.95283 117.659 8.62796 117.259 8.49966C117.76 8.32545 117.809 7.99705 117.809 7.79813C117.809 6.99419 117.08 6.89178 116.78 6.89178H115.399V10.0051H115.974V8.72801H116.428C117.08 8.72801 117.134 9.02816 117.134 9.30242C117.134 9.83328 117.134 9.93333 117.259 10.0051H117.835C117.711 9.87918 117.76 9.78149 117.711 9.30242ZM116.654 8.27366H115.974V7.29316H116.556C116.958 7.29316 117.232 7.42029 117.232 7.79813C117.232 7.99705 117.134 8.27366 116.654 8.27366Z" fill="#10273D"/>
</g>
<defs>
<clipPath id="clip0_1_4044">
<rect width="74" height="36.0901" fill="white" transform="translate(51 5)"/>
</clipPath>
</defs>
</svg>
