<svg width="175" height="46" viewBox="0 0 175 46" fill="none" xmlns="http://www.w3.org/2000/svg">
<g clip-path="url(#clip0_1_4042)">
<path d="M43.8423 3.00052C46.5644 3.00052 47.4197 4.95295 48.1374 6.90233C48.4388 7.73013 55.5126 27.1015 55.7252 27.6829C55.7819 27.8451 55.7436 28.1114 55.4942 28.2078C55.2433 28.3026 51.5679 29.7318 51.3644 29.8083C51.1609 29.8863 50.9329 29.7731 50.8595 29.5696C50.783 29.3691 49.2574 25.146 49.086 24.6747H38.6016C38.4364 25.146 36.8925 29.3783 36.8236 29.5696C36.7533 29.7639 36.5345 29.8955 36.3172 29.8083C36.0999 29.7226 32.4108 28.2934 32.1904 28.2078C31.9793 28.1251 31.8829 27.8849 31.9563 27.6829C32.2164 26.9576 39.1831 7.89691 39.5381 6.90233C40.2297 4.98203 41.1141 3.00052 43.8423 3.00052ZM31.3963 37.6624C31.176 37.6624 31 37.846 31 38.0694V42.597C31 42.8204 31.176 43.001 31.3963 43.001H56.2776C56.5026 43.001 56.6785 42.8204 56.6785 42.597V38.0694C56.6785 37.846 56.5026 37.6624 56.2776 37.6624H31.3963ZM43.8178 9.32605L40.2741 19.968H47.4197L43.8637 9.32605H43.8178ZM96.9942 26.7756C96.4724 26.9515 96.1281 26.9944 95.7181 26.9944C94.8704 26.9944 94.4006 26.6593 94.4006 25.7902C94.4006 24.8843 94.9974 24.5814 96.1694 24.5814C96.4556 24.5814 96.7371 24.6227 96.8687 24.6686V25.3174C96.8687 26.0166 96.907 26.4757 96.9942 26.7756ZM100.007 27.813C99.3812 26.8628 99.2174 26.3028 99.2174 25.1047V22.6718C99.2174 21.362 99.0644 20.8892 98.7186 20.4118C98.2366 19.7355 97.4333 19.4417 95.9567 19.4417C94.9117 19.4417 93.8972 19.5549 92.9149 19.8059L93.2699 21.5349C93.9339 21.4416 94.6301 21.362 95.1213 21.362C96.6897 21.362 96.8687 21.5884 96.8687 22.7651V23.2043C96.5198 23.1109 96.1281 23.0436 95.6737 23.0436C93.3127 23.0436 92.0657 24.1988 92.0657 26.1115C92.0657 27.9048 93.3984 28.8825 95.0219 28.8825C95.6278 28.8825 96.2612 28.7708 96.7631 28.5658C97.0661 28.4342 97.1977 28.3562 97.5894 28.1022C97.825 28.4449 98.2978 28.7953 98.4906 28.8611L100.007 27.813ZM123.361 26.7756C122.836 26.9515 122.498 26.9944 122.085 26.9944C121.234 26.9944 120.759 26.6593 120.759 25.7902C120.759 24.8843 121.363 24.5814 122.538 24.5814C122.824 24.5814 123.107 24.6227 123.236 24.6686V25.3174C123.236 26.0166 123.272 26.4757 123.361 26.7756ZM126.377 27.813C125.747 26.8628 125.586 26.3028 125.586 25.1047V22.6718C125.586 21.362 125.43 20.8892 125.081 20.4118C124.605 19.7355 123.8 19.4417 122.319 19.4417C121.276 19.4417 120.255 19.5549 119.273 19.8059L119.623 21.5349C120.289 21.4416 120.986 21.362 121.491 21.362C123.051 21.362 123.236 21.5884 123.236 22.7651V23.2043C122.887 23.1109 122.498 23.0436 122.035 23.0436C119.671 23.0436 118.419 24.1988 118.419 26.1115C118.419 27.9048 119.755 28.8825 121.386 28.8825C121.999 28.8825 122.627 28.7708 123.124 28.5658C123.432 28.4342 123.559 28.3562 123.95 28.1022C124.189 28.4449 124.662 28.7953 124.856 28.8611L126.377 27.813ZM144.76 28.679C144.76 28.679 143.466 25.9202 143.149 25.2929C142.792 24.586 142.462 24.0978 141.733 23.9219V23.8821C142.222 23.7888 142.61 23.4934 143.036 22.5907C143.438 21.7109 143.557 21.5211 143.794 21.3115C144.027 21.1034 144.345 21.1784 144.345 21.1784L144.465 19.5519C144.127 19.5059 143.752 19.5044 143.365 19.5258C142.722 19.5641 142.39 19.7492 142.073 20.0675C141.825 20.3108 141.657 20.675 141.449 21.0927C141.228 21.5487 141.054 21.9159 140.825 22.3795C140.597 22.8554 140.489 23.0696 139.876 23.0696H139.476V15.8643H137.112V28.679H139.476V24.9945L139.799 24.9884C140.477 24.9884 140.597 25.1582 140.955 25.8728C141.374 26.7251 142.177 28.679 142.177 28.679H144.76ZM78.163 28.679H80.8912L76.7644 16.0785C76.3299 15.9331 75.7928 15.8428 75.219 15.8428C74.5932 15.8428 74.3698 15.9255 73.8801 16.0785L69.5132 28.679H72.1312C72.1312 28.679 72.4847 27.5743 72.9009 26.2048H77.4239C77.8279 27.5728 78.163 28.679 78.163 28.679ZM73.5649 24.0917C73.5649 24.0917 74.3208 21.5624 74.4386 21.1692C74.7385 20.1501 75.1945 18.5313 75.1945 18.5313H75.2695C75.2695 18.5313 75.6918 20.2083 75.9672 21.1508C76.0713 21.5257 76.7935 24.0917 76.7935 24.0917H73.5649ZM104.034 22.6504C103.2 22.6504 102.523 23.3313 102.523 24.1652C102.523 25.0052 103.2 25.6815 104.034 25.6815C104.87 25.6815 105.545 25.0052 105.545 24.1652C105.545 23.3313 104.87 22.6504 104.034 22.6504ZM84.1304 15.8643H81.7603V28.6775H84.1304V15.8643ZM131.22 21.4783C132.53 21.5058 132.692 21.7767 132.692 22.8753V28.679H135.041V22.6718C135.041 21.362 134.888 20.8892 134.539 20.4118C134.057 19.7355 133.11 19.4417 131.508 19.4417C129.922 19.4417 128.913 19.61 127.613 19.9971V28.679H129.987V21.5884C130.609 21.4982 130.72 21.4783 131.22 21.4783ZM89.9923 15.6363C88.5112 15.6363 87.7048 15.9301 87.2305 16.6048C86.8816 17.0838 86.7271 17.5673 86.7271 18.8801V19.9971H85.5504V21.9128H86.7271V28.679H89.0773L89.0712 21.9128H91.4138V19.9971H89.0712L89.0773 18.9704C89.0773 17.7953 89.2563 17.5673 90.8263 17.5673C90.9961 17.5673 91.1874 17.5765 91.3909 17.5918L91.7612 15.751C91.1812 15.6745 90.5876 15.6363 89.9923 15.6363ZM108.85 15.7556C109.656 15.7082 111.458 15.6409 112.589 15.6409C112.796 15.6409 113.01 15.6424 113.224 15.6531C115.447 15.6531 116.722 17.272 116.722 19.1724C116.722 20.4653 116.13 21.3237 114.742 21.8348C116.375 22.1959 117.23 23.4705 117.23 25.0297C117.23 26.1742 116.907 27.0831 116.315 27.7028C115.547 28.4587 114.384 28.8825 112.836 28.8825C111.458 28.8825 109.729 28.8397 108.85 28.7877V15.7556ZM112.589 17.8549C112.197 17.8549 111.712 17.8626 111.232 17.8794V20.9565H112.591C113.129 20.9565 113.562 20.8066 113.858 20.5174C114.139 20.245 114.286 19.8594 114.286 19.4019C114.286 18.418 113.754 17.8611 112.764 17.8549H112.589ZM112.638 26.673H112.741C113.975 26.673 114.731 26.0166 114.741 24.6946C114.728 24.2203 114.546 23.7826 114.22 23.4659C113.864 23.1079 113.359 22.9212 112.767 22.9212H111.232V26.6593C111.665 26.6685 112.142 26.67 112.638 26.673Z" fill="#10273D"/>
</g>
<defs>
<clipPath id="clip0_1_4042">
<rect width="113.76" height="40" fill="white" transform="translate(31 3)"/>
</clipPath>
</defs>
</svg>
