<svg width="175" height="47" viewBox="0 0 175 47" fill="none" xmlns="http://www.w3.org/2000/svg">
<g clip-path="url(#clip0_4445_9885)">
<path d="M118.48 6.99341H78.8561V20.5189H58V38.586H118.48V6.99341Z" fill="#10273D"/>
<path d="M88.2297 13.0849L87.8052 13.1047C86.1861 13.1886 85.184 14.1907 85.184 15.8296C85.184 17.4289 86.1663 18.5346 87.8052 18.6186L88.2297 18.6383V13.0849ZM88.2297 21.0769V20.3117L87.8052 20.292C85.0804 20.1637 83.3971 18.5889 83.3971 15.8394C83.3971 12.922 85.1247 11.5793 87.8052 11.451L88.2297 11.4313V10.6562H90.0216V11.4214L90.4461 11.4411C93.1957 11.5695 94.8789 12.8677 94.8789 15.8296C94.8789 18.5791 93.1957 20.1538 90.4461 20.2822L90.0216 20.3019V21.067H88.2297V21.0769ZM90.0167 18.6482L90.4412 18.6284C92.0406 18.5446 93.0822 17.3944 93.0822 15.8394C93.0822 14.24 92.0406 13.1985 90.4412 13.1146L90.0167 13.0948V18.6482ZM90.145 34.2619V32.6871H91.1866C91.5272 32.6871 91.8036 32.539 91.9123 32.2626L88.8468 24.9568H90.8509L92.9192 30.6041H93.2598L95.3035 24.9568H97.2632L94.4742 31.69C93.8374 33.2252 92.9192 34.2668 91.1273 34.2668H90.145V34.2619ZM96.3894 20.4993V11.1894H98.2406V18.816H98.5812L100.689 11.1894H104.159V20.4993H102.308V12.8529H101.968L99.9239 20.4993H96.3894ZM105.719 34.2619V24.9519H107.57V32.5786H107.911L110.019 24.9519H113.514V34.2619H111.663V26.6352H111.322L109.254 34.2619H105.719ZM76.7231 31.0878L78.5742 31.3444C78.1053 33.3239 76.5504 34.4988 74.5264 34.4988C71.5202 34.4988 70.1183 32.307 70.1183 29.5772C70.1183 26.7882 71.609 24.7199 74.6153 24.7199C76.4467 24.7199 77.8535 25.6134 78.4903 27.3411L76.7231 28.1309C76.3183 27.1732 75.6371 26.4279 74.5264 26.4279C72.6753 26.4279 72.0336 27.9384 72.0336 29.5822C72.0336 31.2458 72.7148 32.8007 74.6103 32.8007C75.7457 32.7908 76.4467 32.1294 76.7231 31.0878ZM106.079 20.4993V11.1894H107.931V14.9608H111.658V11.1894H113.509V20.4993H111.658V16.644H107.931V20.4993H106.079ZM79.1962 34.2619V32.47H79.7738C80.5833 32.47 80.8795 32.0208 80.9042 30.7027L81.0128 24.9914V24.9469H87.5337V34.2569H85.6924V26.6352H82.7504L82.6665 30.5744C82.6023 33.1512 81.7927 34.2619 79.9811 34.2619H79.1962ZM98.5812 34.2619V24.9519H104.505V26.6352H100.437V34.2619H98.5812ZM62.9408 34.2619V32.6871H63.9824C64.323 32.6871 64.5994 32.539 64.708 32.2626L61.6426 24.9568H63.6467L65.7151 30.6041H66.0557L68.0993 24.9568H70.0591L67.27 31.69C66.6332 33.2252 65.7151 34.2668 63.9232 34.2668H62.9408V34.2619Z" fill="white"/>
</g>
<defs>
<clipPath id="clip0_4445_9885">
<rect width="60.9286" height="31.5926" fill="white" transform="translate(58 6.99341)"/>
</clipPath>
</defs>
</svg>
