<svg width="175" height="46" viewBox="0 0 175 46" fill="none" xmlns="http://www.w3.org/2000/svg">
<g clip-path="url(#clip0_1_4046)">
<path d="M118.48 6.99316H78.8561V20.5187H58V38.5858H118.48V6.99316Z" fill="#10273D"/>
<path d="M88.2297 13.0844L87.8052 13.1042C86.1861 13.1881 85.184 14.1902 85.184 15.8291C85.184 17.4284 86.1663 18.5341 87.8052 18.6181L88.2297 18.6378V13.0844ZM88.2297 21.0764V20.3112L87.8052 20.2915C85.0804 20.1632 83.3971 18.5885 83.3971 15.8389C83.3971 12.9215 85.1247 11.5789 87.8052 11.4505L88.2297 11.4308V10.6558H90.0216V11.4209L90.4461 11.4406C93.1957 11.569 94.8789 12.8672 94.8789 15.8291C94.8789 18.5786 93.1957 20.1533 90.4461 20.2817L90.0216 20.3014V21.0665H88.2297V21.0764ZM90.0167 18.6477L90.4412 18.6279C92.0406 18.5441 93.0822 17.3939 93.0822 15.8389C93.0822 14.2396 92.0406 13.198 90.4412 13.1141L90.0167 13.0943V18.6477ZM90.145 34.2614V32.6866H91.1866C91.5272 32.6866 91.8036 32.5385 91.9123 32.2621L88.8468 24.9563H90.8509L92.9192 30.6036H93.2598L95.3035 24.9563H97.2632L94.4742 31.6895C93.8374 33.2247 92.9192 34.2663 91.1273 34.2663H90.145V34.2614ZM96.3894 20.4988V11.1889H98.2406V18.8155H98.5812L100.689 11.1889H104.159V20.4988H102.308V12.8524H101.968L99.9239 20.4988H96.3894ZM105.719 34.2614V24.9514H107.57V32.5781H107.911L110.019 24.9514H113.514V34.2614H111.663V26.6347H111.322L109.254 34.2614H105.719ZM76.7231 31.0873L78.5742 31.344C78.1053 33.3235 76.5504 34.4983 74.5264 34.4983C71.5202 34.4983 70.1183 32.3066 70.1183 29.5767C70.1183 26.7877 71.609 24.7194 74.6153 24.7194C76.4467 24.7194 77.8535 25.6129 78.4903 27.3406L76.7231 28.1304C76.3183 27.1728 75.6371 26.4274 74.5264 26.4274C72.6753 26.4274 72.0336 27.9379 72.0336 29.5817C72.0336 31.2453 72.7148 32.8002 74.6103 32.8002C75.7457 32.7903 76.4467 32.1289 76.7231 31.0873ZM106.079 20.4988V11.1889H107.931V14.9603H111.658V11.1889H113.509V20.4988H111.658V16.6436H107.931V20.4988H106.079ZM79.1962 34.2614V32.4695H79.7738C80.5833 32.4695 80.8795 32.0203 80.9042 30.7023L81.0128 24.9909V24.9465H87.5337V34.2564H85.6924V26.6347H82.7504L82.6665 30.5739C82.6023 33.1507 81.7927 34.2614 79.9811 34.2614H79.1962ZM98.5812 34.2614V24.9514H104.505V26.6347H100.437V34.2614H98.5812ZM62.9408 34.2614V32.6866H63.9824C64.323 32.6866 64.5994 32.5385 64.708 32.2621L61.6426 24.9563H63.6467L65.7151 30.6036H66.0557L68.0993 24.9563H70.0591L67.27 31.6895C66.6332 33.2247 65.7151 34.2663 63.9232 34.2663H62.9408V34.2614Z" fill="white"/>
</g>
<defs>
<clipPath id="clip0_1_4046">
<rect width="60.9286" height="31.5926" fill="white" transform="translate(58 6.99316)"/>
</clipPath>
</defs>
</svg>
