<svg width="169" height="46" viewBox="0 0 169 46" fill="none" xmlns="http://www.w3.org/2000/svg">
<g clip-path="url(#clip0_1_4025)">
<path d="M119.304 27.1562L120.296 27.2978C120.083 28.4303 119.092 29.0674 118.03 29.0674C116.331 29.0674 115.553 27.864 115.553 26.236C115.553 24.6079 116.402 23.4753 118.101 23.4753C119.163 23.4753 119.942 23.9708 120.296 24.9618L119.304 25.3865C119.092 24.8202 118.667 24.4663 118.03 24.4663C116.969 24.4663 116.544 25.3157 116.544 26.3067C116.544 27.2978 116.969 28.1472 118.03 28.1472C118.738 28.1472 119.163 27.7933 119.304 27.1562ZM83.4865 35.2258H84.8315C85.327 35.2258 85.6809 34.9427 85.6809 34.4472C85.6809 33.9517 85.327 33.6685 84.8315 33.6685H83.4865V35.2258ZM82.4955 36.1461V30.7663H86.3888V31.6865H83.4865V32.7483H84.973C86.0348 32.7483 86.6719 33.2438 86.6719 34.3764C86.6719 35.4382 86.0348 36.1461 84.973 36.1461H82.4955ZM87.309 36.1461V30.7663H88.3V35.2258H88.4416L89.7865 30.7663H91.6977V36.1461H90.7067V31.6865H90.5652L89.2202 36.1461H87.309ZM93.6798 33.527H94.9539C95.5202 33.527 95.8034 33.1022 95.8034 32.6067C95.8034 32.0404 95.5202 31.7573 94.9539 31.7573H93.6798V33.527ZM92.6888 36.1461V30.7663H94.9539C96.0865 30.7663 96.8652 31.4034 96.8652 32.536C96.8652 33.6685 96.0865 34.3764 94.9539 34.3764H93.6798V36.1461H92.6888ZM96.8652 36.1461L98.564 33.3146L96.936 30.7663H98.1393L99.3427 32.8899H99.7674V30.7663H100.758V32.8899H101.183L102.387 30.7663H103.59L101.962 33.3146L103.661 36.1461H102.457L101.183 33.8101H100.758V36.1461H99.7674V33.8101H99.3427L98.0685 36.1461H96.8652ZM105.572 33.8809H107.129L106.492 31.6865H106.28L105.572 33.8809ZM103.873 36.1461L105.643 30.7663H107.129L108.899 36.1461H107.837L107.412 34.8011H105.289L104.864 36.1461H103.873ZM82.4955 28.9966V23.6169H84.4067L85.327 28.0764H85.4685L86.318 23.6169H88.2292V28.9966H87.2382V24.5371H87.0966L86.2472 28.9966H84.5483L83.6281 24.5371H83.4865V28.9966H82.4955ZM91.5562 28.1472C92.6888 28.1472 93.1135 27.2978 93.1135 26.3067C93.1135 25.2449 92.5472 24.4663 91.4854 24.4663C90.3528 24.4663 89.9281 25.3157 89.9281 26.3067C89.9281 27.2978 90.4236 28.1472 91.5562 28.1472ZM91.5562 29.0674C89.8573 29.0674 88.9371 27.864 88.9371 26.236C88.9371 24.6079 89.9281 23.4753 91.5562 23.4753C93.2551 23.4753 94.1753 24.6787 94.1753 26.236C94.1753 27.7933 93.2551 29.0674 91.5562 29.0674ZM98.564 27.1562L99.5551 27.2978C99.3427 28.4303 98.3517 29.0674 97.2899 29.0674C95.591 29.0674 94.8124 27.864 94.8124 26.236C94.8124 24.6079 95.6618 23.4753 97.3607 23.4753C98.4225 23.4753 99.2011 23.9708 99.5551 24.9618L98.564 25.3865C98.3517 24.8202 97.927 24.4663 97.2899 24.4663C96.2281 24.4663 95.8034 25.3157 95.8034 26.3067C95.8034 27.2978 96.2281 28.1472 97.2899 28.1472C97.9977 28.1472 98.3517 27.7933 98.564 27.1562ZM100.334 28.9966V23.6169H101.325V25.7404H101.891L103.519 23.6169H104.793L102.74 26.0944L104.864 28.9966H103.59L101.891 26.6607H101.325V28.9966H100.334ZM107.483 28.1472C108.616 28.1472 109.04 27.2978 109.04 26.3067C109.04 25.2449 108.474 24.4663 107.412 24.4663C106.28 24.4663 105.855 25.3157 105.855 26.3067C105.855 27.2978 106.351 28.1472 107.483 28.1472ZM107.483 29.0674C105.784 29.0674 104.864 27.864 104.864 26.236C104.864 24.6079 105.784 23.4753 107.483 23.4753C109.182 23.4753 110.102 24.6787 110.102 26.236C110.102 27.7933 109.111 29.0674 107.483 29.0674ZM111.801 25.8112H113.146C113.571 25.8112 113.925 25.5989 113.925 25.1742C113.925 24.6787 113.642 24.5371 113.146 24.5371H111.801V25.8112ZM111.801 28.0764H113.217C113.712 28.0764 114.066 27.9348 114.066 27.3685C114.066 26.8022 113.712 26.6607 113.217 26.6607H111.801V28.0764ZM110.81 23.6169H113.288C114.137 23.6169 114.845 23.9708 114.845 24.9618C114.845 25.5989 114.633 26.0236 114.066 26.3067C114.703 26.4483 114.987 26.9438 114.987 27.5809C114.987 28.5719 114.279 29.0674 113.358 29.0674H110.81V23.6169ZM121.145 28.9966V23.6169H122.136V25.7404H122.702L124.33 23.6169H125.604L123.622 26.0944L125.675 28.9966H124.401L122.702 26.6607H122.136V28.9966H121.145ZM127.516 26.6607H129.073L128.436 24.4663H128.224L127.516 26.6607ZM125.817 28.9966L127.657 23.6169H129.144L130.913 28.9966H129.852L129.427 27.6517H127.233L126.808 28.9966H125.817ZM134.594 24.5371H133.391C132.825 24.5371 132.471 24.6787 132.471 25.3157C132.471 25.9528 132.825 26.0944 133.391 26.0944H134.594V24.5371ZM131.409 28.9966L131.621 27.5101C131.692 27.0146 131.904 26.7315 132.4 26.5191C131.834 26.3067 131.48 25.7404 131.48 25.1034C131.48 24.1124 132.4 23.6169 133.32 23.6169H135.585V28.9966H134.594V26.9438H133.391C132.896 26.9438 132.754 27.0854 132.683 27.6517L132.471 29.0674H131.409V28.9966ZM19 41.1011V18.5202H41.5809V5H77.682V41.1011H19Z" fill="#10273D"/>
<path d="M31.246 33.9525H30.7505L28.4146 23.5469H24.1674V36.1469H26.4325V25.8121H26.928L29.1224 36.1469H32.9449L35.2101 25.7413H35.7056V36.1469H37.9707V23.6177H33.6528L31.246 33.9525ZM54.0393 36.1469H61.8966V33.9525H56.3044V30.8379H61.1179V28.7143H56.3044V25.7413H61.8966V23.5469H54.0393V36.1469ZM45.9696 34.3065C43.4213 34.3065 42.2179 32.3952 42.2179 29.9177C42.2179 27.4402 43.4213 25.5289 45.9696 25.5289C48.5179 25.5289 49.7213 27.4402 49.7213 29.9177C49.7213 32.3952 48.5179 34.3065 45.9696 34.3065ZM45.9696 23.2638C42.1471 23.2638 39.882 25.8829 39.882 29.8469C39.882 33.811 42.1471 36.5008 45.9696 36.5008C49.7921 36.5008 52.0573 33.7402 52.0573 29.8469C52.0573 25.9537 49.7921 23.2638 45.9696 23.2638ZM63.4539 36.1469H65.8606L68.6213 31.1919L71.5235 36.1469H73.9303L70.037 29.5638L73.7179 23.5469H71.3112L68.7629 28.0065L66.1438 23.5469H63.737L67.2763 29.493L63.4539 36.1469Z" fill="white"/>
</g>
<defs>
<clipPath id="clip0_1_4025">
<rect width="126" height="36.1011" fill="white" transform="translate(19 5)"/>
</clipPath>
</defs>
</svg>
