<svg width="175" height="47" viewBox="0 0 175 47" fill="none" xmlns="http://www.w3.org/2000/svg">
<g clip-path="url(#clip0_2333_13704)">
<path d="M24.6566 17.2406C22.8216 17.2406 21.434 17.9925 20.5403 19.2393V17.5461H18V34.0106H20.5403V27.6358C21.434 28.8597 22.8216 29.6125 24.6566 29.6125C27.8555 29.6125 30.5128 26.9305 30.5128 23.4261C30.5128 19.9455 27.8555 17.2406 24.6566 17.2406ZM24.2569 27.1903C22.1392 27.1903 20.5403 25.6142 20.5403 23.4261C20.5403 21.2381 22.1392 19.6628 24.256 19.6628C26.3727 19.6628 27.9726 21.2389 27.9726 23.4261C27.9726 25.6133 26.3736 27.1903 24.2569 27.1903ZM41.8942 17.5452V19.2155C41.0005 17.9925 39.6137 17.2406 37.7779 17.2406C34.579 17.2406 31.9216 19.9217 31.9216 23.4261C31.9216 26.9076 34.579 29.6125 37.7779 29.6125C39.6128 29.6125 41.0005 28.8597 41.8942 27.6129V29.3061H44.4345V17.5461L41.8942 17.5452ZM38.1785 27.1894C36.0609 27.1894 34.4619 25.6133 34.4619 23.4261C34.4619 21.2389 36.0609 19.6628 38.1776 19.6628C40.2952 19.6628 41.8942 21.2389 41.8942 23.4261C41.8942 25.6133 40.2952 27.1894 38.1785 27.1894ZM53.7696 23.2852C54.687 22.7208 55.1343 21.7796 55.1343 20.6745C55.1343 18.8633 53.5582 17.2406 50.8296 17.2406C48.7366 17.2406 47.2072 18.181 46.361 19.8742L48.4302 21.0505C48.9013 19.9922 49.7474 19.4982 50.8762 19.4982C51.9821 19.4982 52.6874 20.0626 52.6874 20.8859C52.6874 21.7329 52.1001 22.2506 51.0409 22.2506H49.795V24.4845H51.4644C52.5474 24.4845 53.1585 25.026 53.1585 25.8255C53.1585 26.6954 52.4057 27.3311 51.0418 27.3311C49.5361 27.3311 48.6653 26.625 48.2893 25.5666L46.2201 26.7905C46.9721 28.5075 48.4777 29.6125 51.018 29.6125C54.076 29.6125 55.6512 27.966 55.6512 26.0844C55.6512 24.8605 54.9697 23.8267 53.7696 23.2852ZM65.8642 23.2615C66.6874 22.7208 67.0881 21.85 67.0881 20.7917C67.0881 18.9338 65.7708 17.5461 63.2772 17.5461H57.7265V29.3061H63.7474C66.3115 29.3061 67.6049 27.848 67.6049 25.9664C67.6049 24.7433 66.993 23.7792 65.8642 23.2615ZM63.0888 19.7095C64.0767 19.7095 64.6411 20.1568 64.6411 21.0039C64.6411 21.8738 64.1005 22.3211 63.0888 22.3211H60.1497V19.7095H63.0888ZM63.5123 27.0952H60.1488V24.414H63.5123C64.524 24.414 65.1122 24.8842 65.1122 25.7084C65.1122 26.6012 64.524 27.0952 63.5123 27.0952ZM78.185 17.5452L72.1642 25.0022V17.5452H69.6706V29.3052H71.6226L77.6444 21.8262V29.3052H80.1371V17.5461L78.185 17.5452ZM90.9875 23.2615C91.8108 22.7208 92.2114 21.85 92.2114 20.7917C92.2114 18.9338 90.8933 17.5461 88.4006 17.5461H82.8499V29.3061H88.8708C91.4348 29.3061 92.7283 27.848 92.7283 25.9664C92.7283 24.7433 92.1172 23.7792 90.9875 23.2615ZM88.2122 19.7095C89.2001 19.7095 89.7645 20.1568 89.7645 21.0039C89.7645 21.8738 89.2239 22.3211 88.2122 22.3211H85.2722V19.7095H88.2122ZM88.6357 27.0952H85.2722V24.414H88.6357C89.6474 24.414 90.2356 24.8842 90.2356 25.7084C90.2356 26.6012 89.6474 27.0952 88.6357 27.0952ZM104.108 17.5452V19.2155C103.214 17.9925 101.827 17.2406 99.9925 17.2406C96.7927 17.2406 94.1354 19.9217 94.1354 23.4261C94.1354 26.9076 96.7927 29.6125 99.9916 29.6125C101.827 29.6125 103.214 28.8597 104.108 27.6129V29.3061H106.648V17.5461L104.108 17.5452ZM100.392 27.1894C98.2746 27.1894 96.6756 25.6133 96.6756 23.4261C96.6756 21.2389 98.2746 19.6628 100.391 19.6628C102.508 19.6628 104.108 21.2389 104.108 23.4261C104.108 25.6133 102.509 27.1894 100.392 27.1894ZM117.889 17.5452L111.867 25.0022V17.5452H109.374V29.3052H111.326L117.348 21.8262V29.3052H119.841V17.5461L117.889 17.5452ZM124.317 29.5888C124.784 29.5853 125.231 29.3983 125.561 29.0681C125.891 28.7379 126.078 28.2911 126.081 27.8242C126.081 27.5925 126.036 27.363 125.947 27.1489C125.859 26.9348 125.729 26.7402 125.565 26.5764C125.401 26.4125 125.207 26.2826 124.993 26.1941C124.778 26.1056 124.549 26.0602 124.317 26.0606C124.085 26.0582 123.854 26.1022 123.639 26.19C123.424 26.2778 123.229 26.4076 123.065 26.5718C122.9 26.7361 122.77 26.9314 122.682 27.1465C122.595 27.3615 122.55 27.5919 122.553 27.8242C122.553 28.7893 123.329 29.5888 124.317 29.5888ZM135.44 17.2406C133.605 17.2406 132.217 17.9925 131.323 19.2393V17.5461H128.783V34.0106H131.323V27.6358C132.217 28.8597 133.605 29.6125 135.44 29.6125C138.639 29.6125 141.297 26.9305 141.297 23.4261C141.297 19.9455 138.639 17.2406 135.44 17.2406ZM135.04 27.1903C132.923 27.1903 131.323 25.6142 131.323 23.4261C131.323 21.2381 132.923 19.6628 135.04 19.6628C137.157 19.6628 138.757 21.2389 138.757 23.4261C138.757 25.6133 137.157 27.1903 135.04 27.1903ZM157.288 23.427C157.288 20.2748 155.054 17.805 151.361 17.3339V12.8416H148.867V17.3339C145.175 17.805 142.94 20.2748 142.94 23.427C142.94 26.5783 145.175 29.0481 148.867 29.5183V34.0106H151.361V29.5183C155.054 29.0481 157.288 26.5783 157.288 23.427ZM151.361 27.0952V19.7571C153.572 20.1568 154.771 21.592 154.771 23.4261C154.771 25.2602 153.572 26.6954 151.361 27.0952ZM145.457 23.4261C145.457 21.5911 146.68 20.1568 148.867 19.7571V27.0952C146.68 26.6954 145.457 25.2611 145.457 23.4261Z" fill="#10273D"/>
<path d="M113.816 19.4561L119.838 12H113.816V19.4561Z" fill="#10273D"/>
</g>
<defs>
<clipPath id="clip0_2333_13704">
<rect width="140" height="22.0126" fill="white" transform="translate(18 12)"/>
</clipPath>
</defs>
</svg>
