<svg width="90" height="46" viewBox="0 0 90 46" fill="none" xmlns="http://www.w3.org/2000/svg">
<g clip-path="url(#clip0_1_4040)">
<path d="M-60.3434 17.2406C-62.1784 17.2406 -63.566 17.9925 -64.4597 19.2393V17.5461H-67V34.0106H-64.4597V27.6358C-63.566 28.8597 -62.1784 29.6125 -60.3434 29.6125C-57.1445 29.6125 -54.4872 26.9305 -54.4872 23.4261C-54.4872 19.9455 -57.1445 17.2406 -60.3434 17.2406ZM-60.7431 27.1903C-62.8608 27.1903 -64.4597 25.6142 -64.4597 23.4261C-64.4597 21.2381 -62.8608 19.6628 -60.744 19.6628C-58.6273 19.6628 -57.0274 21.2389 -57.0274 23.4261C-57.0274 25.6133 -58.6264 27.1903 -60.7431 27.1903ZM-43.1058 17.5452V19.2155C-43.9995 17.9925 -45.3863 17.2406 -47.2221 17.2406C-50.421 17.2406 -53.0784 19.9217 -53.0784 23.4261C-53.0784 26.9076 -50.421 29.6125 -47.2221 29.6125C-45.3872 29.6125 -43.9995 28.8597 -43.1058 27.6129V29.3061H-40.5655V17.5461L-43.1058 17.5452ZM-46.8215 27.1894C-48.9391 27.1894 -50.5381 25.6133 -50.5381 23.4261C-50.5381 21.2389 -48.9391 19.6628 -46.8224 19.6628C-44.7048 19.6628 -43.1058 21.2389 -43.1058 23.4261C-43.1058 25.6133 -44.7048 27.1894 -46.8215 27.1894ZM-31.2304 23.2852C-30.313 22.7208 -29.8657 21.7796 -29.8657 20.6745C-29.8657 18.8633 -31.4418 17.2406 -34.1704 17.2406C-36.2634 17.2406 -37.7928 18.181 -38.639 19.8742L-36.5698 21.0505C-36.0987 19.9922 -35.2526 19.4982 -34.1238 19.4982C-33.0179 19.4982 -32.3126 20.0626 -32.3126 20.8859C-32.3126 21.7329 -32.8999 22.2506 -33.9591 22.2506H-35.205V24.4845H-33.5356C-32.4526 24.4845 -31.8415 25.026 -31.8415 25.8255C-31.8415 26.6954 -32.5943 27.3311 -33.9582 27.3311C-35.4639 27.3311 -36.3347 26.625 -36.7107 25.5666L-38.7799 26.7905C-38.0279 28.5075 -36.5223 29.6125 -33.982 29.6125C-30.924 29.6125 -29.3488 27.966 -29.3488 26.0844C-29.3488 24.8605 -30.0303 23.8267 -31.2304 23.2852ZM-19.1358 23.2615C-18.3126 22.7208 -17.9119 21.85 -17.9119 20.7917C-17.9119 18.9338 -19.2292 17.5461 -21.7228 17.5461H-27.2735V29.3061H-21.2526C-18.6885 29.3061 -17.3951 27.848 -17.3951 25.9664C-17.3951 24.7433 -18.007 23.7792 -19.1358 23.2615ZM-21.9112 19.7095C-20.9233 19.7095 -20.3589 20.1568 -20.3589 21.0039C-20.3589 21.8738 -20.8995 22.3211 -21.9112 22.3211H-24.8503V19.7095H-21.9112ZM-21.4877 27.0952H-24.8512V24.414H-21.4877C-20.476 24.414 -19.8878 24.8842 -19.8878 25.7084C-19.8878 26.6012 -20.476 27.0952 -21.4877 27.0952ZM-6.81497 17.5452L-12.8358 25.0022V17.5452H-15.3294V29.3052H-13.3774L-7.3556 21.8262V29.3052H-4.86289V17.5461L-6.81497 17.5452ZM5.98755 23.2615C6.81082 22.7208 7.21145 21.85 7.21145 20.7917C7.21145 18.9338 5.89334 17.5461 3.40063 17.5461H-2.15006V29.3061H3.87082C6.43484 29.3061 7.72831 27.848 7.72831 25.9664C7.72831 24.7433 7.11723 23.7792 5.98755 23.2615ZM3.2122 19.7095C4.20013 19.7095 4.76453 20.1568 4.76453 21.0039C4.76453 21.8738 4.2239 22.3211 3.2122 22.3211H0.272202V19.7095H3.2122ZM3.63573 27.0952H0.272202V24.414H3.63573C4.64742 24.414 5.2356 24.8842 5.2356 25.7084C5.2356 26.6012 4.64742 27.0952 3.63573 27.0952ZM19.1079 17.5452V19.2155C18.2142 17.9925 16.8274 17.2406 14.9925 17.2406C11.7927 17.2406 9.13535 19.9217 9.13535 23.4261C9.13535 26.9076 11.7927 29.6125 14.9916 29.6125C16.8265 29.6125 18.2142 28.8597 19.1079 27.6129V29.3061H21.6482V17.5461L19.1079 17.5452ZM15.3922 27.1894C13.2746 27.1894 11.6756 25.6133 11.6756 23.4261C11.6756 21.2389 13.2746 19.6628 15.3913 19.6628C17.508 19.6628 19.1079 21.2389 19.1079 23.4261C19.1079 25.6133 17.5089 27.1894 15.3922 27.1894ZM32.8887 17.5452L26.8669 25.0022V17.5452H24.3742V29.3052H26.3263L32.3481 21.8262V29.3052H34.8408V17.5461L32.8887 17.5452ZM39.3172 29.5888C39.7841 29.5853 40.2308 29.3983 40.5608 29.0681C40.8908 28.7379 41.0777 28.2911 41.0809 27.8242C41.0812 27.5925 41.0359 27.363 40.9473 27.1489C40.8588 26.9348 40.7289 26.7402 40.5651 26.5764C40.4013 26.4125 40.2067 26.2826 39.9926 26.1941C39.7784 26.1056 39.5489 26.0602 39.3172 26.0606C39.0849 26.0582 38.8545 26.1022 38.6394 26.19C38.4243 26.2778 38.2289 26.4076 38.0646 26.5718C37.9003 26.7361 37.7704 26.9314 37.6825 27.1465C37.5946 27.3615 37.5505 27.5919 37.5527 27.8242C37.5527 28.7893 38.3293 29.5888 39.3172 29.5888ZM50.4398 17.2406C48.6048 17.2406 47.2171 17.9925 46.3234 19.2393V17.5461H43.7831V34.0106H46.3234V27.6358C47.2171 28.8597 48.6048 29.6125 50.4398 29.6125C53.6386 29.6125 56.2969 26.9305 56.2969 23.4261C56.2969 19.9455 53.6386 17.2406 50.4398 17.2406ZM50.04 27.1903C47.9233 27.1903 46.3234 25.6142 46.3234 23.4261C46.3234 21.2381 47.9233 19.6628 50.04 19.6628C52.1567 19.6628 53.7566 21.2389 53.7566 23.4261C53.7566 25.6133 52.1567 27.1903 50.04 27.1903ZM72.2877 23.427C72.2877 20.2748 70.0538 17.805 66.361 17.3339V12.8416H63.8674V17.3339C60.1746 17.805 57.9399 20.2748 57.9399 23.427C57.9399 26.5783 60.1746 29.0481 63.8674 29.5183V34.0106H66.361V29.5183C70.0538 29.0481 72.2877 26.5783 72.2877 23.427ZM66.361 27.0952V19.7571C68.572 20.1568 69.7712 21.592 69.7712 23.4261C69.7712 25.2602 68.572 26.6954 66.361 27.0952ZM60.4572 23.4261C60.4572 21.5911 61.6803 20.1568 63.8674 19.7571V27.0952C61.6803 26.6954 60.4572 25.2611 60.4572 23.4261Z" fill="#10273D"/>
<path d="M28.8158 19.4561L34.8375 12H28.8158V19.4561Z" fill="#10273D"/>
</g>
<defs>
<clipPath id="clip0_1_4040">
<rect width="140" height="22.0126" fill="white" transform="translate(-67 12)"/>
</clipPath>
</defs>
</svg>
