<svg width="175" height="47" viewBox="0 0 175 47" fill="none" xmlns="http://www.w3.org/2000/svg">
<g clip-path="url(#clip0_1_4032)">
<path fill-rule="evenodd" clip-rule="evenodd" d="M133.433 19.5355C133.286 18.5964 132.608 18.0691 131.742 17.7582C130.254 17.2236 128.715 17.1945 127.16 17.3209C125.723 17.4373 124.333 17.7227 122.993 18.4136C122.75 17.0984 122.507 15.7832 122.263 14.4682C123.443 13.8936 124.626 13.5727 125.843 13.3582C128.444 12.8991 131.052 12.8273 133.63 13.4664C136.349 14.1409 138.258 15.6809 138.785 18.5136C138.915 19.2136 138.91 20.2727 138.91 20.2727V26.6364C138.91 26.9127 138.944 27.5036 138.962 27.7791C139.058 29.25 139.193 29.3936 140.728 29.6155V32.6445C139.213 33.0191 137.656 33.2164 136.115 32.5055C135.249 32.1055 134.85 31.3673 134.66 30.4945C134.635 30.3715 134.618 30.247 134.609 30.1218L134.608 30.1191C134.601 30.0464 134.593 29.9664 134.583 29.8782C132.723 32.4955 130.061 33.1382 127.135 32.9773C123.857 32.7973 121.341 30.6427 120.877 28.1009C120.123 23.9645 122.255 20.8736 126.51 20.2509C129.2 19.8564 129.971 20.0236 133.448 21.1818C133.448 21.0064 133.454 20.8318 133.462 20.6582C133.476 20.2764 133.491 19.9009 133.433 19.5355ZM133.342 24.7955C132.449 24.1945 131.434 23.8791 130.373 23.7473C129.271 23.61 128.183 23.6818 127.247 24.3891C126.389 25.0382 126.064 26.0691 126.379 27.1318C126.62 27.9491 127.471 28.5891 128.473 28.6818C129.426 28.7741 130.387 28.6282 131.27 28.2573C132.872 27.5891 133.499 26.5345 133.342 24.7955ZM65.8198 33C63.038 33.0164 60.538 32.2245 58.4616 30.4309C56.1598 28.4418 55.2507 25.8527 55.2734 22.9182C55.2934 20.4836 55.9625 18.2691 57.6398 16.3982C59.1443 14.7209 61.0589 13.7227 63.2943 13.2691C66.0998 12.6991 68.8007 13.0191 71.2862 14.39C74.4207 16.12 75.9689 18.83 76.1598 22.28C76.328 25.3145 75.578 28.0482 73.2507 30.2291C71.1871 32.1645 68.6543 32.9709 65.8198 33ZM65.8871 17.9064C63.5307 17.9627 61.878 19.1873 61.2453 21.2036C60.8571 22.4464 60.8816 23.6791 61.2689 24.9218C61.8325 26.7264 63.078 27.8345 64.9762 28.1236C66.8989 28.4145 68.5507 27.7982 69.6016 26.1673C70.7971 24.31 70.8198 22.3264 69.8662 20.3618C69.0498 18.6791 67.5953 17.9255 65.8871 17.9064ZM105.273 24.8182H108.001L108.446 24.9182L109.086 26.0545C110.396 28.3845 111.706 30.7118 112.994 33H118.91C118.847 32.8482 118.794 32.7055 118.744 32.57C118.644 32.3 118.555 32.0609 118.43 31.8436C117.417 30.1018 116.399 28.3655 115.38 26.6291L115.373 26.6173L115.368 26.61C114.812 25.66 114.254 24.7109 113.699 23.7609C113.602 23.5973 113.515 23.4282 113.422 23.2445L113.42 23.2409L113.287 22.9836C117.128 20.7291 117.926 17.1091 117.814 13H112.546C112.546 14.6118 112.28 15.56 111.967 16.6745L111.846 17.1118C111.434 18.6182 110.41 19.6245 108.948 20.1345C108.137 20.4164 107.272 20.3664 106.384 20.3145C106.015 20.289 105.644 20.275 105.273 20.2727V13H99.8189V32.9827L105.273 33.0009V24.8191V24.8182ZM90.7862 13H96.1825V33H90.7334V26.5864C90.4116 26.6609 90.0989 26.7409 89.7916 26.82C89.1398 26.9873 88.5116 27.1482 87.8734 27.2345C85.4007 27.5691 83.0443 27.2645 81.028 25.5582C79.4671 24.2382 78.5534 22.4682 78.2771 20.46C78.0898 19.0982 78.0734 17.31 78.058 15.5136C78.0507 14.6645 78.0425 13.8136 78.0171 13.0055L83.4553 13V18.4545C83.4553 20.5955 85.3416 22.2845 87.3953 22.3145C88.6634 22.3327 89.4043 22.0236 90.7225 21.1873L90.7862 13ZM41.6371 33H47.0916V18.4545H53.4553V13H35.2734V18.4545H41.6371V33Z" fill="#10273D"/>
</g>
<defs>
<clipPath id="clip0_1_4032">
<rect width="105.455" height="20" fill="white" transform="translate(35.2734 13)"/>
</clipPath>
</defs>
</svg>
