<svg width="175" height="46" viewBox="0 0 175 46" fill="none" xmlns="http://www.w3.org/2000/svg">
<g clip-path="url(#clip0_1_4030)">
<path d="M18.5403 31.18L14.0703 14.73H17.0003L20.4303 27.36L24.1003 14.73H26.8303L30.5203 27.43L33.9603 14.73H36.8903L32.4203 31.17H29.0303L25.4703 18.89L21.9003 31.17H18.5403V31.18ZM38.9003 14.74H41.6903V31.17H38.9003V14.74ZM47.6503 28.59H54.4303V31.17H44.9203V14.74H47.6503V28.59ZM63.0003 14.76C65.2803 14.76 67.1803 15.56 68.6803 17.13C69.4299 17.9011 70.0185 18.8137 70.4116 19.8147C70.8048 20.8157 70.9947 21.8849 70.9703 22.96C70.9703 25.26 70.2003 27.21 68.6803 28.8C67.9535 29.5723 67.0719 30.1825 66.0931 30.5909C65.1144 30.9993 64.0605 31.1966 63.0003 31.17H56.4403V14.74H63.0003V14.76ZM63.0003 28.61C63.7152 28.6384 64.4277 28.5098 65.0877 28.2334C65.7476 27.957 66.339 27.5394 66.8203 27.01C67.8203 25.96 68.3203 24.59 68.3203 22.98C68.3203 21.33 67.8203 20.01 66.8203 18.94C66.3348 18.4167 65.7424 18.0038 65.0833 17.7295C64.4242 17.4552 63.7138 17.3257 63.0003 17.35H59.2003V28.61H63.0003ZM85.6603 26.47C85.6603 27.82 85.1803 28.94 84.2003 29.83C83.2362 30.7212 81.9628 31.2018 80.6503 31.17H73.5203V14.74H80.1303C81.5003 14.74 82.6503 15.19 83.5903 16.04C84.0508 16.4445 84.4167 16.9453 84.6621 17.5069C84.9075 18.0686 85.0264 18.6773 85.0103 19.29C85.033 19.9455 84.8901 20.596 84.5947 21.1816C84.2993 21.7672 83.861 22.2688 83.3203 22.64C84.0334 22.9908 84.6321 23.5371 85.0464 24.2153C85.4607 24.8934 85.6736 25.6754 85.6603 26.47ZM76.2703 17.27V21.6H80.1503C81.3603 21.6 82.2803 20.65 82.2803 19.44C82.2803 18.23 81.3603 17.28 80.1503 17.28H76.2703V17.27ZM80.6703 28.63C81.9403 28.63 82.9403 27.63 82.9403 26.34C82.9403 25.05 81.9403 24.04 80.6703 24.04H76.2703V28.65H80.6703V28.63ZM90.9903 28.6H98.3603V31.17H88.2603V14.74H98.2503V17.32H90.9903V21.58H97.6503V24.14H91.0003V28.6H90.9903ZM110.31 31.17L106.78 25.18H103.55V31.18H100.82V14.73H107.49C108.99 14.73 110.26 15.24 111.27 16.28C111.893 16.8804 112.354 17.6282 112.611 18.4541C112.867 19.2801 112.912 20.1574 112.739 21.005C112.567 21.8525 112.183 22.6428 111.624 23.3027C111.065 23.9626 110.348 24.4707 109.54 24.78L113.33 31.16H110.3L110.31 31.17ZM103.55 17.27V22.77H107.47C107.822 22.7636 108.169 22.6873 108.492 22.5457C108.814 22.4041 109.105 22.2 109.348 21.9451C109.59 21.6903 109.78 21.3897 109.906 21.061C110.032 20.7323 110.091 20.3818 110.08 20.03C110.096 19.3199 109.831 18.6322 109.342 18.117C108.853 17.6018 108.18 17.3009 107.47 17.28H103.55V17.27ZM124.9 31.17L121.38 25.18H118.15V31.18H115.42V14.72H122.09C123.59 14.72 124.86 15.23 125.87 16.28C126.49 16.8816 126.949 17.6296 127.204 18.455C127.459 19.2804 127.503 20.1567 127.331 21.0033C127.158 21.8499 126.776 22.6395 126.218 23.2995C125.661 23.9595 124.946 24.4686 124.14 24.78L127.93 31.16H124.89L124.9 31.17ZM118.15 17.27V22.77H122.07C122.423 22.7636 122.771 22.687 123.094 22.5448C123.417 22.4026 123.708 22.1975 123.951 21.9416C124.194 21.6857 124.384 21.384 124.509 21.0541C124.634 20.7242 124.692 20.3727 124.68 20.02C124.697 19.3116 124.433 18.6254 123.946 18.1105C123.459 17.5956 122.789 17.2935 122.08 17.27H118.15ZM129.93 14.73H132.66V31.17H129.93V14.73ZM138.61 28.6H146V31.17H135.9V14.74H145.88V17.32H138.62V21.58H145.29V24.14H138.62V28.6H138.61ZM147.9 27.43L150.25 26.07C150.93 27.93 152.29 28.84 154.38 28.84C156.46 28.84 157.48 27.96 157.48 26.68C157.48 25.99 157.18 25.5 156.65 25.16C155.72 24.6379 154.725 24.2411 153.69 23.98C152.09 23.51 151.31 23.21 150.19 22.48C149.665 22.1116 149.242 21.6152 148.962 21.0377C148.682 20.4602 148.554 19.8208 148.59 19.18C148.59 17.71 149.1 16.58 150.16 15.72C151.224 14.8502 152.567 14.3954 153.94 14.44C155.155 14.4036 156.354 14.7268 157.386 15.369C158.417 16.0112 159.237 16.9439 159.74 18.05L157.44 19.36C157.17 18.6595 156.687 18.0611 156.059 17.6487C155.432 17.2362 154.691 17.0304 153.94 17.06C152.34 17.06 151.33 17.86 151.33 19.12C151.33 20.32 152.13 20.9 154.69 21.67C155.33 21.88 155.79 22.03 156.07 22.15C156.38 22.25 156.79 22.41 157.3 22.62C157.84 22.82 158.26 23.08 158.51 23.28C159.4 23.97 160.34 25.08 160.23 26.66C160.255 27.3376 160.12 28.0115 159.835 28.6267C159.55 29.2419 159.123 29.781 158.59 30.2C157.364 31.1133 155.857 31.5696 154.33 31.49C151.1 31.47 148.75 29.95 147.89 27.43H147.9Z" fill="#10273D"/>
</g>
<defs>
<clipPath id="clip0_1_4030">
<rect width="147" height="18" fill="white" transform="translate(14 14)"/>
</clipPath>
</defs>
</svg>
